<svg viewBox="0 0 462.67 280.53" xmlns="http://www.w3.org/2000/svg" xmlns:xlink="http://www.w3.org/1999/xlink"><linearGradient id="a" gradientUnits="userSpaceOnUse" x1="231.34" x2="231.34" y1="274.27" y2="6.27"><stop offset=".02" stop-color="#daa37c"/><stop offset=".3" stop-color="#ce9569"/><stop offset=".89" stop-color="#ae7236"/><stop offset="1" stop-color="#a76b2c"/></linearGradient><path d="m75.92 12.78s27.25 19.5 47 19.5h43.75s4-1.25 17.75 2.75 27 5 44.75 3.25 175.75-32 175.75-32 6.25 19.26 20 28.26 18.75 59 11.5 87.75-10.25 26.75-6.5 34.5 2.13 26 9.81 37.75 16.44 18 10.94 27.5-11.5 13.25-11 17.25 4.25 7 3.25 12.25-5.75 22.74-19.75 22.74-17.25-19.49-17.25-19.49-.75-7.25-10.25-5.25-35.25-47.25-35.25-47.25-12-19.5-17.75-5v30.5s-3.75 12.21-31.5 13.21c0 0-6.25-8-24.75-9.75 0 0-10.75-2-17.75-15.5 0 0-2 6.5-6.5 7.5s-43.25-10.25-47.5-11.25c0 0-.5 13.75-9.25 14.5s-26.25-3.5-37.25 23.75c0 0-.75 5-13.25 6 0 0-4-7.75-4.25-15.25 0 0-11-10.25-8.5-22.25s11.5-33-9.25-37.5-32.5-6-37-28.25-12.75-21.75-27-28.5-34.75-17.5-34.75-17.5-22.67-1.25-23.84-13.5 21.59-27.22 21.59-27.22 30.75-9.28 44-53.5z" fill="url(#a)"/><path d="m243.42 166.78 2-32.5s-29.75-37.75-16.25-96" fill="none" stroke="#fff" stroke-miterlimit="10"/><path d="m95.92 153s67.5 30.75 146 13.75l81.25-8s38.75 22.5 113.25-36.5" fill="none" stroke="#fff" stroke-miterlimit="10"/><g fill="#fff" font-family="Arial-BoldMT, Arial" font-size="40" font-weight="700"><text transform="translate(152.17 113.28)">2</text><text transform="translate(335.92 113.28)">1</text><text transform="translate(284.42 201.78)">3</text></g></svg>