<svg id="Capa_2" data-name="Capa 2" xmlns="http://www.w3.org/2000/svg" xmlns:xlink="http://www.w3.org/1999/xlink" viewBox="0 0 462.67 280.53"><defs><style>.cls-1{fill:url(#Degradado_sin_nombre_17);}.cls-2{fill:#fff;}</style><linearGradient id="Degradado_sin_nombre_17" x1="231.34" y1="274.27" x2="231.34" y2="6.27" gradientUnits="userSpaceOnUse"><stop offset="0.02" stop-color="#daa37c"/><stop offset="0.3" stop-color="#ce9569"/><stop offset="0.89" stop-color="#ae7236"/><stop offset="1" stop-color="#a76b2c"/></linearGradient></defs><title>Mesa de trabajo 2 copia 2</title><path class="cls-1" d="M75.92,12.78s27.25,19.5,47,19.5h43.75s4-1.25,17.75,2.75,27,5,44.75,3.25,175.75-32,175.75-32,6.25,19.26,20,28.26,18.75,59,11.5,87.75-10.25,26.75-6.5,34.5,2.13,26,9.81,37.75,16.44,18,10.94,27.5-11.5,13.25-11,17.25,4.25,7,3.25,12.25-5.75,22.74-19.75,22.74-17.25-19.49-17.25-19.49-.75-7.25-10.25-5.25-35.25-47.25-35.25-47.25-10.11-12.59-20.73-19.77L330,176.88a105.32,105.32,0,0,0-31.55.31s-11.25,5.32-24.06,18.12a144.6,144.6,0,0,1-8.75,15.94,96.25,96.25,0,0,1-3.47,12c-1.7,4.29-43.25-10.25-47.5-11.25,0,0-.5,13.75-9.25,14.5s-26.25-3.5-37.25,23.75c0,0-.75,5-13.25,6,0,0-4-7.75-4.25-15.25,0,0-11-10.25-8.5-22.25s11.5-33-9.25-37.5-32.5-6-37-28.25-12.75-21.75-27-28.5S34.17,107,34.17,107s-22.67-1.25-23.84-13.5S31.92,66.28,31.92,66.28,62.67,57,75.92,12.78Z"/><path class="cls-2" d="M79.85,105.42h-3a8.64,8.64,0,0,1,4.74,7.42,8.66,8.66,0,0,1,4.75-7.42h-3V34h3a8.65,8.65,0,0,1-4.75-7.41A8.63,8.63,0,0,1,76.88,34h3Z"/><path class="cls-2" d="M108,125.42h-3a8.63,8.63,0,0,1,4.74,7.41,8.64,8.64,0,0,1,4.75-7.41h-3V54h3a8.64,8.64,0,0,1-4.75-7.41A8.63,8.63,0,0,1,105,54h3Z"/><path class="cls-2" d="M135.46,119.48h-3a8.65,8.65,0,0,1,4.75,7.41,8.63,8.63,0,0,1,4.74-7.41h-3V48.08h3a8.63,8.63,0,0,1-4.74-7.41,8.65,8.65,0,0,1-4.75,7.41h3Z"/><path class="cls-2" d="M174.82,134.48h-3a8.63,8.63,0,0,1,4.74,7.41,8.64,8.64,0,0,1,4.75-7.41h-3V63.07h3a8.64,8.64,0,0,1-4.75-7.41,8.63,8.63,0,0,1-4.74,7.41h3Z"/><path class="cls-2" d="M200.75,166h-3a8.65,8.65,0,0,1,4.74,7.41,8.65,8.65,0,0,1,4.75-7.41h-3V94.63h3a8.65,8.65,0,0,1-4.75-7.41,8.65,8.65,0,0,1-4.74,7.41h3Z"/><path class="cls-2" d="M224.19,125.42h-3a8.61,8.61,0,0,1,4.74,7.41,8.64,8.64,0,0,1,4.75-7.41h-3V54h3A8.64,8.64,0,0,1,226,46.6,8.61,8.61,0,0,1,221.22,54h3Z"/><path class="cls-2" d="M255.43,179.78h-3a8.64,8.64,0,0,1,4.75,7.41,8.61,8.61,0,0,1,4.74-7.41h-3V108.37h3a8.61,8.61,0,0,1-4.74-7.41,8.64,8.64,0,0,1-4.75,7.41h3Z"/><path class="cls-2" d="M292.21,162.26h-2.85a8.31,8.31,0,0,1,4.56,7.12,8.29,8.29,0,0,1,4.56-7.12h-2.85V96.84h2.85a8.29,8.29,0,0,1-4.56-7.12,8.31,8.31,0,0,1-4.56,7.12h2.85Z"/><path class="cls-2" d="M270.14,112.09h-2.92a8.54,8.54,0,0,1,4.67,7.31,8.54,8.54,0,0,1,4.67-7.31h-2.92V43h2.92a8.51,8.51,0,0,1-4.67-7.3,8.51,8.51,0,0,1-4.67,7.3h2.92Z"/><path class="cls-2" d="M314.19,105.53h-2.92a8.52,8.52,0,0,1,4.67,7.31,8.54,8.54,0,0,1,4.68-7.31h-2.93V36.41h2.93a8.53,8.53,0,0,1-4.68-7.3,8.51,8.51,0,0,1-4.67,7.3h2.92Z"/><path class="cls-2" d="M357,115.84h-2.92a8.51,8.51,0,0,1,4.67,7.3,8.53,8.53,0,0,1,4.68-7.3H360.5V46.72h2.92a8.53,8.53,0,0,1-4.68-7.3,8.51,8.51,0,0,1-4.67,7.3H357Z"/><path class="cls-2" d="M337.84,172.44h-2a5.91,5.91,0,0,1,3.24,5.07,5.91,5.91,0,0,1,3.25-5.07h-2v-48h2a5.89,5.89,0,0,1-3.25-5.06,5.88,5.88,0,0,1-3.24,5.06h2Z"/><path class="cls-2" d="M232.56,203.68h-2a5.91,5.91,0,0,1,3.24,5.07,5.93,5.93,0,0,1,3.25-5.07h-2v-48h2a5.93,5.93,0,0,1-3.25-5.07,5.91,5.91,0,0,1-3.24,5.07h2Z"/><path class="cls-2" d="M130.73,166.07l-1.19,2.59a6.81,6.81,0,0,1,.69-.44,13.76,13.76,0,0,1,1.86-.89,13.37,13.37,0,0,1,2.71-.69,10.94,10.94,0,0,1,3.4.09,6.32,6.32,0,0,1-2.93-1.56,5.85,5.85,0,0,1-1.45-2.18,6.18,6.18,0,0,1-.44-1.84,5.77,5.77,0,0,1,0-.78L132.17,163c-.4-.2-.48-.2-1.43-.69-.74-.42-1.5-.81-2.21-1.3a31.32,31.32,0,0,1-4.08-3.1,33.47,33.47,0,0,1-3.49-3.75c-.55-.65-1-1.37-1.51-2.07-.58-.89-.6-1-.83-1.35l2.45-1.45a5.71,5.71,0,0,1-.77.06,6.43,6.43,0,0,1-1.88-.25,5.83,5.83,0,0,1-2.3-1.23,6.28,6.28,0,0,1-1.85-2.77,11.39,11.39,0,0,1,.43,3.38,13.36,13.36,0,0,1-.42,2.76,14,14,0,0,1-.7,1.94,6.91,6.91,0,0,1-.37.73l2.46-1.44c.26.41.28.52.93,1.51.55.78,1.07,1.58,1.68,2.3a34.78,34.78,0,0,0,3.88,4.17,35.3,35.3,0,0,0,4.53,3.44c.78.54,1.63,1,2.46,1.44a6.25,6.25,0,0,0,.63.33l.39.18Z"/><path class="cls-2" d="M120.37,172.68l-1.12,2.63a10.66,10.66,0,0,1,2.51-1.4,11.51,11.51,0,0,1,6.1-.81,6,6,0,0,1-4.5-3.57,6.47,6.47,0,0,1-.53-2.61l-1.12,2.62c-.42-.16-.47-.21-1.45-.67-.78-.37-1.52-.81-2.27-1.25a31.21,31.21,0,0,1-4.16-3.07,30.83,30.83,0,0,1-3.56-3.76,28.61,28.61,0,0,1-2.33-3.47l2.48-1.41a5,5,0,0,1-.77.05,6.88,6.88,0,0,1-1.88-.27,6.25,6.25,0,0,1-2.3-1.27,16.28,16.28,0,0,1-2.19-2.62,5.34,5.34,0,0,1,.77,3.22,12.33,12.33,0,0,1-.46,2.74,15,15,0,0,1-.71,1.93,6.5,6.5,0,0,1-.39.73L105,159a32.11,32.11,0,0,0,2.61,3.9,35.94,35.94,0,0,0,4,4.2,34.62,34.62,0,0,0,4.65,3.43c.83.49,1.66,1,2.54,1.4l1,.49A4.23,4.23,0,0,0,120.37,172.68Z"/><path class="cls-2" d="M157.86,198.21l-2.85.14a7.2,7.2,0,0,1,2.27,1.46,6.85,6.85,0,0,1,2.16,5.44,9.49,9.49,0,0,1,2.5-5.52,9.72,9.72,0,0,1,2.18-1.81l-2.84.13-.14-1.93c-.09-1.15-.22-2.29-.37-3.43a57.34,57.34,0,0,0-3.52-13.29c-.43-1.07-.88-2.13-1.37-3.17l-.85-1.76,2.54-1.29a9.81,9.81,0,0,1-2.79-.49,9.55,9.55,0,0,1-4.91-3.56,6.83,6.83,0,0,1,.82,5.8,7.26,7.26,0,0,1-1.24,2.39L152,176l.79,1.65c.46,1,.89,2,1.29,3a59.8,59.8,0,0,1,2,6.15,57.74,57.74,0,0,1,1.28,6.36c.15,1.07.27,2.15.36,3.22Z"/><path class="cls-2" d="M204.77,200.67l-.07,2.85a7.66,7.66,0,0,1,7.22-4.19,8.46,8.46,0,0,1-5.38-2.65,9.1,9.1,0,0,1-1.62-2.28l-.07,2.85h-2.44c-1.68,0-3.36.08-5.06.27a32.57,32.57,0,0,0-10,2.56,61.94,61.94,0,0,0-8.68,5.12c-1.37.9-2.75,1.84-4.11,2.85l-1,.78-.47.37-.48.4-1.83-2.18a11,11,0,0,1,.11,2.87,13.06,13.06,0,0,1-1.94,5.88,5.64,5.64,0,0,1,5.14-2.47,6.74,6.74,0,0,1,2.57.69l-1.84-2.17.44-.37.43-.34.93-.72c1.27-1,2.59-1.85,4-2.74a60.44,60.44,0,0,1,8.19-4.85,29.13,29.13,0,0,1,8.94-2.28c1.56-.17,3.14-.23,4.73-.25q.6,0,1.2,0h1.13Z"/><path class="cls-2" d="M151.74,206.51l-2.8.12a6.29,6.29,0,0,1,.7.33,7,7,0,0,1,1.53,1.12,7.22,7.22,0,0,1,1.52,2.12,7.32,7.32,0,0,1,.56,3.24,8.49,8.49,0,0,1,1-3.19,9.08,9.08,0,0,1,1.55-2.22,11.89,11.89,0,0,1,1.48-1.33,5,5,0,0,1,.66-.44l-2.8.11,0-.6,0-.56c0-.4,0-.8-.08-1.2l-.26-2.39c-.1-.8-.25-1.59-.37-2.38a55,55,0,0,0-2.46-9.29,56.2,56.2,0,0,0-4.05-8.73l-1.26-2.05c-.43-.69-.92-1.33-1.37-2-.24-.33-.45-.67-.71-1l-.36-.45-.38-.48,2.19-1.75a9.66,9.66,0,0,1-2.78,0,9.29,9.29,0,0,1-2.64-.64,9,9,0,0,1-2.85-1.73A7,7,0,0,1,139.4,174a6.8,6.8,0,0,1-.48,5.14l2.19-1.75.35.44.34.42c.24.28.44.61.66.91.42.62.87,1.22,1.27,1.85l1.18,1.92a53.28,53.28,0,0,1,3.8,8.18,52.46,52.46,0,0,1,2.31,8.73c.11.74.25,1.48.35,2.23l.24,2.25c0,.37,0,.75.07,1.12l0,.52Z"/><path class="cls-2" d="M396.32,37.44l-1,2.6a6.63,6.63,0,0,1,2.21-1.44,6.37,6.37,0,0,1,5.7.45,10.14,10.14,0,0,1-3.82-4.64,10.61,10.61,0,0,1-.76-2.7l-1,2.61-.57-.23-1.07-.39c-.91-.31-1.83-.59-2.77-.83a32.23,32.23,0,0,0-5.71-.93,29.13,29.13,0,0,0-5.83.22,28.23,28.23,0,0,0-2.88.58c-1.18.32-1.26.35-1.72.51l-.89-2.66a12.27,12.27,0,0,1-1,2.69,13.16,13.16,0,0,1-3.81,4.77,5.46,5.46,0,0,1,5.56-.53A6,6,0,0,1,379,39.1l-.89-2.66a24.41,24.41,0,0,1,4-.95,25.89,25.89,0,0,1,5.13-.19,28.66,28.66,0,0,1,5.11.83c.84.22,1.67.47,2.5.75C395.86,37.25,395.91,37.27,396.32,37.44Z"/><path class="cls-2" d="M420.5,53.87l2,1.92s-.08-.31-.16-.83a20,20,0,0,1-.22-2.12c-.05-.85-.07-1.83,0-2.87a32,32,0,0,1,.32-3.39,4.39,4.39,0,0,1-1.68,2.71,4.26,4.26,0,0,1-2.3.83,5.12,5.12,0,0,1-1.77-.22,4.25,4.25,0,0,1-.69-.26l2,1.92a3.15,3.15,0,0,1-.36.37l-.29.29-.61.52a13.55,13.55,0,0,1-2.74,1.71,19.28,19.28,0,0,1-6.43,1.69,32.33,32.33,0,0,1-6.88-.09c-1.15-.12-2.3-.31-3.43-.54l-.85-.19-.44-.11-.55-.14.72-2.71a6.49,6.49,0,0,1-2,1.7,6.27,6.27,0,0,1-5.7.25,10.23,10.23,0,0,1,4.35,4.14A10.62,10.62,0,0,1,393.91,61l.71-2.71.59.15.49.12.92.2c1.24.26,2.49.46,3.74.6a37.09,37.09,0,0,0,7.6.09,22.8,22.8,0,0,0,7.54-2,17.16,17.16,0,0,0,3.4-2.13c.26-.21.52-.44.77-.66l.37-.36C420.2,54.19,420.35,54,420.5,53.87Z"/><path class="cls-2" d="M422.73,71.53l1.73,2.21s0-.31,0-.84a19.76,19.76,0,0,1,.1-2.11,24.07,24.07,0,0,1,1.39-6.08,4.64,4.64,0,0,1-2.17,2.36,4.47,4.47,0,0,1-2.43.43,5.16,5.16,0,0,1-1.73-.47,5.31,5.31,0,0,1-.65-.35l1.73,2.21-.41.31-.36.25c-.23.15-.47.32-.72.46A16.73,16.73,0,0,1,416,71.36,28.14,28.14,0,0,1,409,72.72a43.88,43.88,0,0,1-7.34,0c-1.22-.11-2.43-.28-3.64-.48l-1.37-.27-.55-.12.61-2.73a7,7,0,0,1-2,1.78,6.55,6.55,0,0,1-5.71.57,9.72,9.72,0,0,1,4.56,3.88,10,10,0,0,1,1.17,2.53l.61-2.74.59.13,1.47.28c1.3.22,2.61.4,3.92.52a47.48,47.48,0,0,0,7.91,0,31.58,31.58,0,0,0,7.89-1.54,20.42,20.42,0,0,0,3.77-1.75c.3-.17.59-.37.89-.56l.43-.31Z"/><path class="cls-2" d="M424.93,90.25l1.93,2a5.52,5.52,0,0,1-.16-.79,13.24,13.24,0,0,1-.13-2,9,9,0,0,1,1.95-5.63,6.87,6.87,0,0,1-5.24,2.42,6.38,6.38,0,0,1-1.86-.27,5.06,5.06,0,0,1-.72-.26l1.93,2-.41.38-.34.31-.7.59a19.71,19.71,0,0,1-3,2,14.59,14.59,0,0,1-6.77,1.72A40.07,40.07,0,0,1,404,92.3c-1.24-.2-2.47-.46-3.69-.76l-.91-.24-.46-.13-.55-.16.81-2.68A6.83,6.83,0,0,1,397.08,90a6.49,6.49,0,0,1-5.73.14,9.76,9.76,0,0,1,4.26,4.2,10,10,0,0,1,1,2.62l.81-2.69.58.17.5.15,1,.25c1.31.33,2.64.6,4,.82a44.7,44.7,0,0,0,8.12.57,20.36,20.36,0,0,0,4.21-.56,17.37,17.37,0,0,0,4-1.57,22.39,22.39,0,0,0,3.5-2.37l.79-.68.38-.34Z"/><path class="cls-2" d="M426.59,111.62l1.91,2a7.48,7.48,0,0,1-.13-.81,13.37,13.37,0,0,1-.1-2.06,15.26,15.26,0,0,1,1.29-6,5.13,5.13,0,0,1-4.69,2.92,5.76,5.76,0,0,1-2.49-.59l1.91,2-.4.36-.1.09-.07.06-.19.16c-.25.2-.5.42-.77.61a20.77,20.77,0,0,1-3.37,2.08,23.67,23.67,0,0,1-7.65,2.22,33.53,33.53,0,0,1-8.13-.06c-1.36-.17-2.72-.41-4.07-.7l-1-.23-.48-.13-.54-.14.74-2.7a6.44,6.44,0,0,1-2,1.68,4.94,4.94,0,0,1-2.41.65,4.27,4.27,0,0,1-2.95-1.21,25,25,0,0,1,3.85,4.9,11,11,0,0,1,1.11,2.63l.74-2.7.59.15.54.14,1.07.24q2.18.48,4.38.75a36.21,36.21,0,0,0,8.95.06,27,27,0,0,0,8.73-2.53,24.68,24.68,0,0,0,3.91-2.42c.32-.22.6-.48.91-.72l.3-.25.12-.11Z"/><path class="cls-2" d="M403.88,167.82l.94,2.64a7.49,7.49,0,0,1,.75-2.57,7.34,7.34,0,0,1,4.41-3.8,8.44,8.44,0,0,1-5.88-.55,8.86,8.86,0,0,1-2.29-1.53l.94,2.65-.56.2-1.67.62q-2.28.89-4.52,1.92a51.78,51.78,0,0,0-8.56,5,37.71,37.71,0,0,0-7.22,7,31.37,31.37,0,0,0-2.81,4.2c-.21.37-.41.75-.59,1.13l-.27.54a5.69,5.69,0,0,0-.26.56l-2.56-1.14a6.65,6.65,0,0,1,.45.68,13.47,13.47,0,0,1,.88,1.84,12.5,12.5,0,0,1,.83,6,5.62,5.62,0,0,1,3.47-4.41,6.34,6.34,0,0,1,1.81-.44,5.34,5.34,0,0,1,.75,0l-2.56-1.15a4.52,4.52,0,0,1,.23-.5l.24-.47c.16-.34.33-.68.52-1a26,26,0,0,1,2.52-3.76,33.55,33.55,0,0,1,6.56-6.31,47.79,47.79,0,0,1,8-4.66q2.11-1,4.31-1.83l1.61-.6Z"/><path class="cls-2" d="M420.56,197l.55,2.75a6.08,6.08,0,0,1,.19-.73,6.42,6.42,0,0,1,.83-1.67,5.72,5.72,0,0,1,5.07-2.46,12.11,12.11,0,0,1-5.7-2.08,14.83,14.83,0,0,1-1.59-1.27,6.28,6.28,0,0,1-.56-.59l.55,2.75-.61.12-.58.15c-.43.11-.87.2-1.29.34a32.94,32.94,0,0,0-4.93,1.88,38.19,38.19,0,0,0-8.73,5.79,50.14,50.14,0,0,0-7,7.69c-1,1.39-2,2.81-2.89,4.26l-1,1.61-.3.52-2.43-1.41a9.26,9.26,0,0,1,1.08,2.54,8.66,8.66,0,0,1-.48,5.9,7.41,7.41,0,0,1,7.16-3.94l-2.42-1.41.29-.49.93-1.54c.86-1.39,1.78-2.73,2.74-4a46.56,46.56,0,0,1,6.48-7.17,34.59,34.59,0,0,1,7.94-5.27,28.64,28.64,0,0,1,4.43-1.69c.38-.13.76-.2,1.14-.3l.52-.13Z"/><path class="cls-2" d="M432.85,230l.91,2.65a7.53,7.53,0,0,1,.77-2.56,7.08,7.08,0,0,1,4.49-3.67,8.71,8.71,0,0,1-5.89-.71,8.91,8.91,0,0,1-2.3-1.54l.92,2.65-.57.2-1.43.52c-1.27.5-2.53,1-3.77,1.59a46.14,46.14,0,0,0-7.15,4.09,35.45,35.45,0,0,0-6.24,5.5A34.06,34.06,0,0,0,410,242l-.58.88-.28.44-.32.53-2.41-1.42a10.74,10.74,0,0,1,1,2.62,10.93,10.93,0,0,1,0,6,6.06,6.06,0,0,1,4.12-3.91,6.46,6.46,0,0,1,2.61-.19l-2.41-1.43.28-.47.26-.41.52-.78a28.68,28.68,0,0,1,2.31-3,32.49,32.49,0,0,1,5.66-5,43.69,43.69,0,0,1,6.63-3.78c1.17-.55,2.36-1,3.56-1.5l1.36-.5Z"/></svg>