<svg id="Capa_2" data-name="Capa 2" xmlns="http://www.w3.org/2000/svg" xmlns:xlink="http://www.w3.org/1999/xlink" viewBox="0 0 995.52 332.53"><defs><style>.cls-1{fill:url(#Degradado_sin_nombre_17);}.cls-2,.cls-3,.cls-6{fill:none;stroke:#fff;stroke-miterlimit:10;}.cls-2{stroke-width:1.18px;}.cls-4{fill:#fff;}.cls-5{fill:url(#Degradado_sin_nombre_17-2);}.cls-6{stroke-width:1.02px;}</style><linearGradient id="Degradado_sin_nombre_17" x1="737.03" y1="299.85" x2="737.03" y2="33.56" gradientUnits="userSpaceOnUse"><stop offset="0.02" stop-color="#daa37c"/><stop offset="0.3" stop-color="#ce9569"/><stop offset="0.89" stop-color="#ae7236"/><stop offset="1" stop-color="#a76b2c"/></linearGradient><linearGradient id="Degradado_sin_nombre_17-2" x1="248.77" y1="302.08" x2="248.77" y2="23.69" xlink:href="#Degradado_sin_nombre_17"/></defs><title>Mesa de trabajo 2 copia 3</title><path class="cls-1" d="M581.6,38.37s27.38,21.76,47,19.5c19-2.19,41.51-2.19,41.51-2.19s6.5-2.31,20.25,1.69,22.74,1.71,40.25-1.69C771,47.82,919.1,32.54,915.11,33.62c0,0,5.76,16.29,15.49,26.5,11.34,11.89,21.76,58.75,14.51,87.5s-13.26,27-9.51,34.75,2.13,26,9.82,37.75,16.43,18,10.93,27.5-11.5,13.25-11,17.25,4.25,7,3.25,12.25-5.75,22.73-19.75,22.73-17.25-19.48-17.25-19.48-.75-7.25-10.25-5.25-35.25-47.25-35.25-47.25-12-19.5-17.75-5v30.5s-3.75,12.25-31.5,13.25c0,0-6.25-8-24.75-9.75,0,0-10.75-2-17.75-15.5,0,0-2,6.5-6.5,7.5s-43.25-10.25-47.5-11.25c0,0-.5,13.75-9.25,14.5s-26.25-3.5-37.25,23.75c0,0-.75,5-13.25,6,0,0-4-7.75-4.25-15.25,0,0-11-10.25-8.5-22.25s11.5-33-9.25-37.5-32.5-6-37-28.25-12.75-21.75-27-28.5-34.75-17.5-34.75-17.5-22.66-1.25-23.83-13.5S537.6,91.87,537.6,91.87,568.35,82.62,581.6,38.37Z"/><path class="cls-2" d="M747,197.62l2.52-35.9s-34.19-45.85-20.48-106"/><path class="cls-3" d="M605.29,191.12s110.82,15.25,143.07,6.5l110.75-26.75s68.25-4.16,83-20.25"/><path class="cls-4" d="M651.11,85.12l-1.75-4.5v-5.5h-2V57.62s4.5-1.75,10.75,4.75,4.25,12.75,4.25,12.75l-2,7.17c0,3.58,2.3,7.76,2.3,12.42,0,7.91-6.8,14.41-6.8,14.41h-8.5V91.87a1.64,1.64,0,0,0,2.25-.75C650.36,89.62,649.36,86.62,651.11,85.12Z"/><path class="cls-4" d="M666.41,85.12l-1.75-4.5v-5.5h-2V57.62s4.5-1.75,10.75,4.75,4.25,12.75,4.25,12.75l-2,7.17c0,3.58,2.31,7.76,2.31,12.42,0,7.91-6.81,14.41-6.81,14.41h-8.5V91.87a1.64,1.64,0,0,0,2.25-.75C665.66,89.62,664.66,86.62,666.41,85.12Z"/><path class="cls-4" d="M681.72,85.12,680,80.62v-5.5h-2V57.62s4.5-1.75,10.75,4.75S693,75.12,693,75.12l-2,7.17c0,3.58,2.3,7.76,2.3,12.42,0,7.91-6.8,14.41-6.8,14.41H678V91.87a1.64,1.64,0,0,0,2.25-.75C681,89.62,680,86.62,681.72,85.12Z"/><path class="cls-4" d="M697,87.12l-1.75-4.5v-5.5h-2V59.62s4.5-1.75,10.75,4.75,4.25,12.75,4.25,12.75l-2,7.17c0,3.58,2.31,7.76,2.31,12.42,0,7.91-6.81,14.41-6.81,14.41h-8.5V93.87a1.64,1.64,0,0,0,2.25-.75C696.27,91.62,695.27,88.62,697,87.12Z"/><path class="cls-4" d="M712.33,87.12l-1.75-4.5v-5.5h-2V59.62s4.5-1.75,10.75,4.75,4.25,12.75,4.25,12.75l-2,7.17c0,3.58,2.3,7.76,2.3,12.42,0,7.91-6.8,14.41-6.8,14.41h-8.5V93.87a1.64,1.64,0,0,0,2.25-.75C711.58,91.62,710.58,88.62,712.33,87.12Z"/><path class="cls-4" d="M741.33,201.09a12.86,12.86,0,0,0,9.17,1.36,8.62,8.62,0,0,0,6.33-5.53s15.23-2.88,16.76,5.23-14,10.54-14,10.54-2.42-3.36-8.8-2.15-7,3.61-7,3.61Z"/><path class="cls-4" d="M773.7,193.42a12.77,12.77,0,0,0,9.16,1.36,8.61,8.61,0,0,0,6.34-5.52s15.23-2.89,16.76,5.22-14,10.55-14,10.55-2.42-3.36-8.81-2.15-7,3.6-7,3.6Z"/><path class="cls-4" d="M805.65,186.64a12.83,12.83,0,0,0,9.16,1.36,8.63,8.63,0,0,0,6.33-5.53s15.23-2.88,16.77,5.22-14,10.55-14,10.55-2.41-3.36-8.8-2.15-7,3.61-7,3.61Z"/><path class="cls-4" d="M837.58,179.46a12.82,12.82,0,0,0,9.21,1,8.62,8.62,0,0,0,6.12-5.76s15.11-3.45,17,4.59-13.63,11.06-13.63,11.06-2.54-3.26-8.88-1.81-6.81,3.86-6.81,3.86Z"/><path class="cls-4" d="M870,172.67a12.79,12.79,0,0,0,9,2,8.62,8.62,0,0,0,6.71-5.06s15.39-1.8,16.35,6.4-14.75,9.52-14.75,9.52-2.17-3.52-8.62-2.77-7.19,3.11-7.19,3.11Z"/><path class="cls-4" d="M902.15,167.21a12.84,12.84,0,0,0,9.11,1.68,8.64,8.64,0,0,0,6.52-5.31s15.32-2.35,16.58,5.81S920,179.44,920,179.44s-2.29-3.44-8.72-2.46-7.07,3.37-7.07,3.37Z"/><path class="cls-4" d="M818.34,60.21S831.86,54.13,828.85,43c-13.59-1-31.48,10.58-30.45,19s11.26,15.58,34.2,12.76c0,0,1.27-9.72-14.27-13.19Z"/><path class="cls-4" d="M789.32,64.66s13.31-6.53,9.92-17.59c-13.62-.56-31.1,11.64-29.78,20S781.24,82.3,804.07,78.7c0,0,.94-9.76-14.71-12.7Z"/><path class="cls-4" d="M846.69,57.66s13.61-5.9,10.74-17.11c-13.58-1.19-31.62,10.18-30.69,18.62s11,15.73,34,13.21c0,0,1.4-9.71-14.1-13.38Z"/><path class="cls-4" d="M874.54,54.8S888,48.65,885,37.5c-13.6-.94-31.42,10.77-30.33,19.2S866,72.21,888.89,69.25c0,0,1.21-9.73-14.34-13.1Z"/><path class="cls-4" d="M903.2,51.5s13.68-5.7,11-17c-13.56-1.39-31.75,9.73-30.95,18.19s10.83,15.87,33.84,13.68c0,0,1.54-9.69-13.9-13.58Z"/><path class="cls-5" d="M90.25,28.72s27.93,22.75,47.94,20.38c19.38-2.29,42.33-2.29,42.33-2.29s6.63-2.41,20.65,1.77,23.2,1.79,41.05-1.77C283.4,38.6,434.46,22.63,430.39,23.75c0,0,5.88,17,15.8,27.7,11.57,12.44,22.19,61.42,14.8,91.48s-13.52,28.23-9.7,36.33,2.17,27.18,10,39.46,16.76,18.82,11.15,28.75-11.72,13.85-11.21,18,4.33,7.31,3.31,12.8-5.86,23.77-20.14,23.77-17.6-20.37-17.6-20.37-.76-7.58-10.45-5.49-35.95-49.39-35.95-49.39-12.24-20.39-18.1-5.23v31.88s-3.83,12.81-32.13,13.86c0,0-6.37-8.37-25.24-10.2,0,0-11-2.09-18.1-16.2,0,0-2,6.79-6.63,7.84S236.1,238.06,231.76,237c0,0-.51,14.37-9.43,15.16s-26.77-3.66-38,24.83c0,0-.77,5.22-13.52,6.27,0,0-4.08-8.1-4.33-15.94,0,0-11.22-10.72-8.67-23.26s11.73-34.5-9.43-39.21-33.15-6.27-37.74-29.53-13-22.74-27.54-29.8-35.44-18.29-35.44-18.29-23.11-1.31-24.3-14.12,22-28.48,22-28.48S76.74,75,90.25,28.72Z"/><path class="cls-2" d="M257.67,187.75l2.52-35.9S226,106,239.7,45.8"/><path class="cls-6" d="M111.35,181.25s23.28,3.87,52.65,6.5c34.87,3.12,78,4.75,96.21,0l86.62-18.64s99.23,1.78,115-28.36"/><path class="cls-4" d="M161.75,75.25,160,70.75v-5.5h-2V47.75s4.5-1.75,10.75,4.75S173,65.25,173,65.25l-2,7.16c0,3.59,2.3,7.77,2.3,12.43,0,7.91-6.8,14.41-6.8,14.41H158V82a1.64,1.64,0,0,0,2.25-.75C161,79.75,160,76.75,161.75,75.25Z"/><path class="cls-4" d="M146.44,75.25l-1.75-4.5v-5.5h-2V47.75s4.5-1.75,10.75,4.75,4.25,12.75,4.25,12.75l-2,7.16c0,3.59,2.31,7.77,2.31,12.43,0,7.91-6.81,14.41-6.81,14.41h-8.5V82a1.64,1.64,0,0,0,2.25-.75C145.69,79.75,144.69,76.75,146.44,75.25Z"/><path class="cls-4" d="M131.14,77.25l-1.75-4.5v-5.5h-2V49.75s4.5-1.75,10.75,4.75,4.25,12.75,4.25,12.75l-2,7.16c0,3.59,2.3,7.77,2.3,12.43,0,7.91-6.8,14.41-6.8,14.41h-8.5V84a1.64,1.64,0,0,0,2.25-.75C130.39,81.75,129.39,78.75,131.14,77.25Z"/><path class="cls-4" d="M115.83,77.25l-1.75-4.5v-5.5h-2V49.75s4.5-1.75,10.75,4.75,4.25,12.75,4.25,12.75l-2,7.16c0,3.59,2.31,7.77,2.31,12.43,0,7.91-6.81,14.41-6.81,14.41h-8.5V84a1.64,1.64,0,0,0,2.25-.75C115.08,81.75,114.08,78.75,115.83,77.25Z"/><path class="cls-4" d="M99.8,69.94l-1.75-4.5v-5.5h-2V42.44s4.5-1.75,10.75,4.75,4.25,12.75,4.25,12.75l-2,7.16c0,3.59,2.3,7.77,2.3,12.43,0,7.91-6.8,14.41-6.8,14.41h-8.5V76.69a1.64,1.64,0,0,0,2.25-.75C99.05,74.44,98.05,71.44,99.8,69.94Z"/><path class="cls-4" d="M83.76,69.94,82,65.44v-5.5H80V42.44s4.5-1.75,10.75,4.75S95,59.94,95,59.94L93,67.1c0,3.59,2.3,7.77,2.3,12.43,0,7.91-6.8,14.41-6.8,14.41H80V76.69a1.64,1.64,0,0,0,2.25-.75C83,74.44,82,71.44,83.76,69.94Z"/><path class="cls-4" d="M59.33,107.46,57.58,103v-5.5h-2V80s4.5-1.75,10.75,4.75,4.25,12.75,4.25,12.75l-2,7.17c0,3.58,2.31,7.76,2.31,12.42,0,7.91-6.81,14.41-6.81,14.41h-8.5V114.21a1.64,1.64,0,0,0,2.25-.75C58.58,112,57.58,109,59.33,107.46Z"/><path class="cls-4" d="M76.11,118.63l-1.75-4.5v-5.5h-2V91.13s4.5-1.75,10.75,4.75,4.25,12.75,4.25,12.75l-2,7.17c0,3.58,2.3,7.76,2.3,12.42,0,7.91-6.8,14.41-6.8,14.41h-8.5V125.38a1.64,1.64,0,0,0,2.25-.75C75.36,123.13,74.36,120.13,76.11,118.63Z"/><path class="cls-4" d="M230.62,130l-1.75-4.5V120h-2v-17.5s4.5-1.75,10.75,4.75S241.87,120,241.87,120l-2,7.17c0,3.58,2.3,7.76,2.3,12.42,0,7.91-6.8,14.41-6.8,14.41h-8.5V136.74a1.64,1.64,0,0,0,2.25-.75C229.87,134.49,228.87,131.49,230.62,130Z"/><path class="cls-4" d="M245.9,164.74l-1.75-4.5v-5.5h-2v-17.5s4.5-1.75,10.75,4.75,4.25,12.75,4.25,12.75l-2,7.17c0,3.58,2.3,7.76,2.3,12.42,0,7.91-6.8,14.41-6.8,14.41h-8.5V171.49a1.64,1.64,0,0,0,2.25-.75C245.15,169.24,244.15,166.24,245.9,164.74Z"/><path class="cls-4" d="M215.31,130l-1.75-4.5V120h-2v-17.5s4.5-1.75,10.75,4.75S226.56,120,226.56,120l-2,7.17c0,3.58,2.31,7.76,2.31,12.42,0,7.91-6.81,14.41-6.81,14.41h-8.5V136.74a1.64,1.64,0,0,0,2.25-.75C214.56,134.49,213.56,131.49,215.31,130Z"/><path class="cls-4" d="M199.8,130l-1.75-4.5V120h-2v-17.5s4.5-1.75,10.75,4.75S211.05,120,211.05,120l-2,7.17c0,3.58,2.3,7.76,2.3,12.42,0,7.91-6.8,14.41-6.8,14.41h-8.5V136.74a1.64,1.64,0,0,0,2.25-.75C199.05,134.49,198.05,131.49,199.8,130Z"/><path class="cls-4" d="M184.7,130l-1.75-4.5V120h-2v-17.5s4.5-1.75,10.75,4.75S196,120,196,120l-2,7.17c0,3.58,2.31,7.76,2.31,12.42,0,7.91-6.81,14.41-6.81,14.41H181V136.74a1.64,1.64,0,0,0,2.25-.75C184,134.49,183,131.49,184.7,130Z"/><path class="cls-4" d="M169.4,130l-1.75-4.5V120h-2v-17.5s4.5-1.75,10.75,4.75S180.65,120,180.65,120l-2,7.17c0,3.58,2.3,7.76,2.3,12.42,0,7.91-6.8,14.41-6.8,14.41h-8.5V136.74a1.64,1.64,0,0,0,2.25-.75C168.65,134.49,167.65,131.49,169.4,130Z"/><path class="cls-4" d="M154.09,132.32l-1.75-4.5v-5.5h-2v-17.5s4.5-1.75,10.75,4.75,4.25,12.75,4.25,12.75l-2,7.17c0,3.58,2.31,7.76,2.31,12.42,0,7.91-6.81,14.41-6.81,14.41h-8.5V139.07a1.64,1.64,0,0,0,2.25-.75C153.34,136.82,152.34,133.82,154.09,132.32Z"/><path class="cls-4" d="M138.79,130l-1.75-4.5V120h-2v-17.5s4.5-1.75,10.75,4.75S150,120,150,120l-2,7.17c0,3.58,2.3,7.76,2.3,12.42,0,7.91-6.8,14.41-6.8,14.41H135V136.74a1.64,1.64,0,0,0,2.25-.75C138,134.49,137,131.49,138.79,130Z"/><path class="cls-4" d="M123.49,130l-1.75-4.5V120h-2v-17.5s4.5-1.75,10.75,4.75S134.74,120,134.74,120l-2,7.17c0,3.58,2.3,7.76,2.3,12.42,0,7.91-6.8,14.41-6.8,14.41h-8.5V136.74A1.64,1.64,0,0,0,122,136C122.74,134.49,121.74,131.49,123.49,130Z"/><path class="cls-4" d="M108.18,129l-1.75-4.5V119h-2v-17.5s4.5-1.75,10.75,4.75S119.43,119,119.43,119l-2,7.17c0,3.58,2.31,7.76,2.31,12.42,0,7.91-6.81,14.41-6.81,14.41h-8.5V135.71a1.64,1.64,0,0,0,2.25-.75C107.43,133.46,106.43,130.46,108.18,129Z"/><path class="cls-4" d="M108.18,125.11l-1.75-4.5v-5.5h-2V97.61s4.5-1.75,10.75,4.75,4.25,12.75,4.25,12.75l-2,7.17c0,3.58,2.31,7.76,2.31,12.42,0,7.91-6.81,14.41-6.81,14.41h-8.5V131.86a1.64,1.64,0,0,0,2.25-.75C107.43,129.61,106.43,126.61,108.18,125.11Z"/><path class="cls-4" d="M91.88,122.48,90.13,118v-5.5h-2V95s4.5-1.75,10.75,4.75,4.25,12.75,4.25,12.75l-2,7.17c0,3.58,2.31,7.76,2.31,12.42,0,7.91-6.81,14.41-6.81,14.41h-8.5V129.23a1.64,1.64,0,0,0,2.25-.75C91.13,127,90.13,124,91.88,122.48Z"/><path class="cls-4" d="M177.05,75.25l-1.75-4.5v-5.5h-2V47.75s4.5-1.75,10.75,4.75,4.25,12.75,4.25,12.75l-2,7.16c0,3.59,2.31,7.77,2.31,12.43,0,7.91-6.81,14.41-6.81,14.41h-8.5V82a1.64,1.64,0,0,0,2.25-.75C176.3,79.75,175.3,76.75,177.05,75.25Z"/><path class="cls-4" d="M192.36,75.25l-1.75-4.5v-5.5h-2V47.75s4.5-1.75,10.75,4.75,4.25,12.75,4.25,12.75l-2,7.16c0,3.59,2.3,7.77,2.3,12.43,0,7.91-6.8,14.41-6.8,14.41h-8.5V82a1.64,1.64,0,0,0,2.25-.75C191.61,79.75,190.61,76.75,192.36,75.25Z"/><path class="cls-4" d="M207.66,77.25l-1.75-4.5v-5.5h-2V49.75s4.5-1.75,10.75,4.75,4.25,12.75,4.25,12.75l-2,7.16c0,3.59,2.31,7.77,2.31,12.43,0,7.91-6.81,14.41-6.81,14.41h-8.5V84a1.64,1.64,0,0,0,2.25-.75C206.91,81.75,205.91,78.75,207.66,77.25Z"/><path class="cls-4" d="M223,77.25l-1.75-4.5v-5.5h-2V49.75S223.72,48,230,54.5s4.25,12.75,4.25,12.75l-2,7.16c0,3.59,2.3,7.77,2.3,12.43,0,7.91-6.8,14.41-6.8,14.41h-8.5V84a1.64,1.64,0,0,0,2.25-.75C222.22,81.75,221.22,78.75,223,77.25Z"/><path class="cls-4" d="M255.75,190.46a12.82,12.82,0,0,0,8.75,3,8.62,8.62,0,0,0,7.25-4.25s15.5,0,15.5,8.25-15.75,7.75-15.75,7.75-1.75-3.75-8.25-3.75-7.5,2.25-7.5,2.25Z"/><path class="cls-4" d="M194.09,210.16a12.82,12.82,0,0,0,8.75,3,8.62,8.62,0,0,0,7.25-4.25s15.5,0,15.5,8.25S209.84,225,209.84,225s-1.75-3.75-8.25-3.75-7.5,2.25-7.5,2.25Z"/><path class="cls-4" d="M195.6,228.13a12.82,12.82,0,0,0,8.75,3,8.62,8.62,0,0,0,7.25-4.25s15.5,0,15.5,8.25-15.75,7.75-15.75,7.75-1.75-3.75-8.25-3.75-7.5,2.25-7.5,2.25Z"/><path class="cls-4" d="M162.23,242.25a12.82,12.82,0,0,0,8.75,3,8.62,8.62,0,0,0,7.25-4.25s15.5,0,15.5,8.25S178,257,178,257s-1.75-3.75-8.25-3.75-7.5,2.25-7.5,2.25Z"/><path class="cls-4" d="M162.23,226.17a12.82,12.82,0,0,0,8.75,3,8.62,8.62,0,0,0,7.25-4.25s15.5,0,15.5,8.25S178,241,178,241s-1.75-3.75-8.25-3.75-7.5,2.25-7.5,2.25Z"/><path class="cls-4" d="M162.23,210.09a12.82,12.82,0,0,0,8.75,3,8.62,8.62,0,0,0,7.25-4.25s15.5,0,15.5,8.25S178,224.88,178,224.88s-1.75-3.75-8.25-3.75-7.5,2.25-7.5,2.25Z"/><path class="cls-4" d="M158.37,192.87a12.8,12.8,0,0,0,8.75,3,8.62,8.62,0,0,0,7.25-4.25s15.5,0,15.5,8.25-15.75,7.75-15.75,7.75-1.75-3.75-8.25-3.75-7.5,2.25-7.5,2.25Z"/><path class="cls-4" d="M156.64,201.47a12.81,12.81,0,0,0-8.59-3.47,8.59,8.59,0,0,0-7.45,3.88s-15.48-.78-15.07-9,16.12-7,16.12-7,1.56,3.84,8,4.16,7.6-1.87,7.6-1.87Z"/><path class="cls-4" d="M191.75,192.87a12.8,12.8,0,0,0,8.75,3,8.62,8.62,0,0,0,7.25-4.25s15.5,0,15.5,8.25-15.75,7.75-15.75,7.75-1.75-3.75-8.25-3.75-7.5,2.25-7.5,2.25Z"/><path class="cls-4" d="M223.81,192.91a12.82,12.82,0,0,0,8.75,3,8.62,8.62,0,0,0,7.25-4.25s15.5,0,15.5,8.25-15.75,7.75-15.75,7.75-1.75-3.75-8.25-3.75-7.5,2.25-7.5,2.25Z"/><path class="cls-4" d="M226.4,210.52a12.82,12.82,0,0,0,8.75,3,8.62,8.62,0,0,0,7.25-4.25s15.5,0,15.5,8.25-15.75,7.75-15.75,7.75-1.75-3.75-8.25-3.75-7.5,2.25-7.5,2.25Z"/><path class="cls-4" d="M252.92,226.17a12.82,12.82,0,0,0,8.75,3,8.62,8.62,0,0,0,7.25-4.25s15.5,0,15.5,8.25S268.67,241,268.67,241s-1.75-3.75-8.25-3.75-7.5,2.25-7.5,2.25Z"/><path class="cls-4" d="M257.9,210.09a12.82,12.82,0,0,0,8.75,3,8.62,8.62,0,0,0,7.25-4.25s15.5,0,15.5,8.25-15.75,7.75-15.75,7.75-1.75-3.75-8.25-3.75-7.5,2.25-7.5,2.25Z"/><path class="cls-4" d="M289.4,202.52a12.82,12.82,0,0,0,8.75,3,8.62,8.62,0,0,0,7.25-4.25s15.5,0,15.5,8.25-15.75,7.75-15.75,7.75-1.75-3.75-8.25-3.75-7.5,2.25-7.5,2.25Z"/><path class="cls-4" d="M289.4,220.13a12.82,12.82,0,0,0,8.75,3,8.62,8.62,0,0,0,7.25-4.25s15.5,0,15.5,8.25-15.75,7.75-15.75,7.75-1.75-3.75-8.25-3.75-7.5,2.25-7.5,2.25Z"/><path class="cls-4" d="M297.52,237.73a12.82,12.82,0,0,0,8.75,3,8.62,8.62,0,0,0,7.25-4.25s15.5,0,15.5,8.25-15.75,7.75-15.75,7.75-1.75-3.75-8.25-3.75-7.5,2.25-7.5,2.25Z"/><path class="cls-4" d="M330.08,242.25a12.82,12.82,0,0,0,8.75,3,8.62,8.62,0,0,0,7.25-4.25s15.5,0,15.5,8.25S345.83,257,345.83,257s-1.75-3.75-8.25-3.75-7.5,2.25-7.5,2.25Z"/><path class="cls-4" d="M323.81,221.73a12.82,12.82,0,0,0,8.75,3,8.62,8.62,0,0,0,7.25-4.25s15.5,0,15.5,8.25-15.75,7.75-15.75,7.75-1.75-3.75-8.25-3.75-7.5,2.25-7.5,2.25Z"/><path class="cls-4" d="M323.81,204a12.82,12.82,0,0,0,8.75,3,8.62,8.62,0,0,0,7.25-4.25s15.5,0,15.5,8.25-15.75,7.75-15.75,7.75-1.75-3.75-8.25-3.75-7.5,2.25-7.5,2.25Z"/><path class="cls-4" d="M356.16,184.51a12.82,12.82,0,0,0,8.75,3,8.62,8.62,0,0,0,7.25-4.25s15.5,0,15.5,8.25-15.75,7.75-15.75,7.75-1.75-3.75-8.25-3.75-7.5,2.25-7.5,2.25Z"/><path class="cls-4" d="M386.32,214a12.82,12.82,0,0,0-8.75-3,8.62,8.62,0,0,0-7.25,4.25s-15.5,0-15.5-8.25,15.75-7.75,15.75-7.75,1.75,3.75,8.25,3.75,7.5-2.25,7.5-2.25Z"/><path class="cls-4" d="M387.68,184.91a12.82,12.82,0,0,0,8.75,3,8.62,8.62,0,0,0,7.25-4.25s15.5,0,15.5,8.25-15.75,7.75-15.75,7.75-1.75-3.75-8.25-3.75-7.5,2.25-7.5,2.25Z"/><path class="cls-4" d="M387.75,203a12.82,12.82,0,0,0,8.75,3,8.62,8.62,0,0,0,7.25-4.25s15.5,0,15.5,8.25-15.75,7.75-15.75,7.75-1.75-3.75-8.25-3.75-7.5,2.25-7.5,2.25Z"/><path class="cls-4" d="M382.75,219.82a12.82,12.82,0,0,0,8.75,3,8.62,8.62,0,0,0,7.25-4.25s15.5,0,15.5,8.25-15.75,7.75-15.75,7.75-1.75-3.75-8.25-3.75-7.5,2.25-7.5,2.25Z"/><path class="cls-4" d="M392.91,234.68a12.82,12.82,0,0,0,8.75,3,8.62,8.62,0,0,0,7.25-4.25s15.5,0,15.5,8.25-15.75,7.75-15.75,7.75-1.75-3.75-8.25-3.75-7.5,2.25-7.5,2.25Z"/><path class="cls-4" d="M403.43,250.25a12.82,12.82,0,0,0,8.75,3,8.62,8.62,0,0,0,7.25-4.25s15.5,0,15.5,8.25S419.18,265,419.18,265s-1.75-3.75-8.25-3.75-7.5,2.25-7.5,2.25Z"/><path class="cls-4" d="M427.46,263.4a12.82,12.82,0,0,0,8.75,3,8.62,8.62,0,0,0,7.25-4.25s15.5,0,15.5,8.25-15.75,7.75-15.75,7.75-1.75-3.75-8.25-3.75-7.5,2.25-7.5,2.25Z"/><path class="cls-4" d="M430.31,279.4a12.82,12.82,0,0,0,8.75,3,8.62,8.62,0,0,0,7.25-4.25s15.5,0,15.5,8.25-15.75,7.75-15.75,7.75-1.75-3.75-8.25-3.75-7.5,2.25-7.5,2.25Z"/><path class="cls-4" d="M434.93,244.54a12.82,12.82,0,0,0,8.75,3,8.62,8.62,0,0,0,7.25-4.25s15.5,0,15.5,8.25-15.75,7.75-15.75,7.75-1.75-3.75-8.25-3.75-7.5,2.25-7.5,2.25Z"/><path class="cls-4" d="M430.31,227.68a12.82,12.82,0,0,0,8.75,3,8.62,8.62,0,0,0,7.25-4.25s15.5,0,15.5,8.25-15.75,7.75-15.75,7.75-1.75-3.75-8.25-3.75-7.5,2.25-7.5,2.25Z"/><path class="cls-4" d="M418.18,213.09a12.82,12.82,0,0,0,8.75,3,8.62,8.62,0,0,0,7.25-4.25s15.5,0,15.5,8.25-15.75,7.75-15.75,7.75-1.75-3.75-8.25-3.75-7.5,2.25-7.5,2.25Z"/><path class="cls-4" d="M424,196.67a12.82,12.82,0,0,0,8.75,3,8.62,8.62,0,0,0,7.25-4.25s15.5,0,15.5,8.25-15.75,7.75-15.75,7.75-1.75-3.75-8.25-3.75S424,210,424,210Z"/><path class="cls-4" d="M421.21,180.1a12.82,12.82,0,0,0,8.75,3,8.62,8.62,0,0,0,7.25-4.25s15.5,0,15.5,8.25S437,194.89,437,194.89s-1.75-3.75-8.25-3.75-7.5,2.25-7.5,2.25Z"/><path class="cls-4" d="M208.5,156.09a12.82,12.82,0,0,0,8.75,3,8.62,8.62,0,0,0,7.25-4.25s15.5,0,15.5,8.25-15.75,7.75-15.75,7.75-1.75-3.75-8.25-3.75-7.5,2.25-7.5,2.25Z"/><path class="cls-4" d="M208.5,172.1a12.82,12.82,0,0,0,8.75,3,8.62,8.62,0,0,0,7.25-4.25s15.5,0,15.5,8.25-15.75,7.75-15.75,7.75-1.75-3.75-8.25-3.75-7.5,2.25-7.5,2.25Z"/><path class="cls-4" d="M175.12,172.1a12.82,12.82,0,0,0,8.75,3,8.62,8.62,0,0,0,7.25-4.25s15.5,0,15.5,8.25-15.75,7.75-15.75,7.75-1.75-3.75-8.25-3.75-7.5,2.25-7.5,2.25Z"/><path class="cls-4" d="M177.12,155.65a12.82,12.82,0,0,0,8.75,3,8.62,8.62,0,0,0,7.25-4.25s15.5,0,15.5,8.25-15.75,7.75-15.75,7.75-1.75-3.75-8.25-3.75-7.5,2.25-7.5,2.25Z"/><path class="cls-4" d="M145.25,156.23a12.82,12.82,0,0,0,8.75,3,8.62,8.62,0,0,0,7.25-4.25s15.5,0,15.5,8.25S161,171,161,171s-1.75-3.75-8.25-3.75-7.5,2.25-7.5,2.25Z"/><path class="cls-4" d="M133.32,170.6a12.82,12.82,0,0,0,8.75,3,8.62,8.62,0,0,0,7.25-4.25s15.5,0,15.5,8.25-15.75,7.75-15.75,7.75-1.75-3.75-8.25-3.75-7.5,2.25-7.5,2.25Z"/><path class="cls-4" d="M111.64,156.23a12.82,12.82,0,0,0,8.75,3,8.62,8.62,0,0,0,7.25-4.25s15.5,0,15.5,8.25S127.39,171,127.39,171s-1.75-3.75-8.25-3.75-7.5,2.25-7.5,2.25Z"/><path class="cls-4" d="M288.25,183.66a12.82,12.82,0,0,0,8.75,3,8.62,8.62,0,0,0,7.25-4.25s15.5,0,15.5,8.25S304,198.45,304,198.45s-1.75-3.75-8.25-3.75-7.5,2.25-7.5,2.25Z"/><path class="cls-4" d="M322.75,186.16a12.82,12.82,0,0,0,8.75,3,8.62,8.62,0,0,0,7.25-4.25s15.5,0,15.5,8.25S338.5,201,338.5,201s-1.75-3.75-8.25-3.75-7.5,2.25-7.5,2.25Z"/><path class="cls-4" d="M342.94,171.16a12.82,12.82,0,0,0,8.75,3,8.62,8.62,0,0,0,7.25-4.25s15.5,0,15.5,8.25S358.69,186,358.69,186s-1.75-3.75-8.25-3.75-7.5,2.25-7.5,2.25Z"/><path class="cls-4" d="M379.13,168.59a12.8,12.8,0,0,0,8.75,3,8.62,8.62,0,0,0,7.25-4.25s15.5,0,15.5,8.25-15.75,7.75-15.75,7.75-1.75-3.75-8.25-3.75-7.5,2.25-7.5,2.25Z"/><path class="cls-4" d="M414.56,164.23a12.82,12.82,0,0,0,8.75,3,8.62,8.62,0,0,0,7.25-4.25s15.5,0,15.5,8.25S430.31,179,430.31,179s-1.75-3.75-8.25-3.75-7.5,2.25-7.5,2.25Z"/><path class="cls-4" d="M319.66,51.91s14.17-4.38,12.54-15.83c-13.37-2.67-32.54,6.67-32.54,15.17s9.28,16.83,32.39,16.83c0,0,2.45-9.5-12.55-14.83Z"/><path class="cls-4" d="M290.25,54.05s14.16-4.38,12.53-15.83c-13.37-2.67-32.53,6.67-32.53,15.17s9.27,16.83,32.38,16.83c0,0,2.45-9.5-12.55-14.83Z"/><path class="cls-4" d="M259.41,58.52S273.58,54.14,272,42.69c-13.37-2.67-32.54,6.66-32.54,15.16s9.28,16.84,32.39,16.84c0,0,2.45-9.5-12.55-14.84Z"/><path class="cls-4" d="M256.59,91.57s14.16-4.38,12.53-15.83c-13.37-2.67-32.53,6.66-32.53,15.16s9.27,16.84,32.38,16.84c0,0,2.45-9.5-12.55-14.84Z"/><path class="cls-4" d="M267.38,124.31s14.17-4.38,12.53-15.84c-13.36-2.66-32.53,6.67-32.53,15.17s9.27,16.83,32.39,16.83c0,0,2.44-9.5-12.56-14.83Z"/><path class="cls-4" d="M281.08,156.51s13.61-5.87,10.77-17.08c-13.58-1.22-31.64,10.1-30.73,18.55s11,15.75,34,13.28c0,0,1.42-9.7-14.07-13.4Z"/><path class="cls-4" d="M310.68,154.21s12.88-7.36,8.8-18.18c-13.63.3-30.31,13.58-28.46,21.88s12.71,14.41,35.27,9.38c0,0,.32-9.8-15.48-11.75Z"/><path class="cls-4" d="M341.66,150.75s12.87-7.36,8.79-18.18c-13.63.3-30.31,13.58-28.46,21.88s12.71,14.41,35.27,9.38c0,0,.33-9.8-15.47-11.74Z"/><path class="cls-4" d="M373,148.12s12.87-7.36,8.79-18.18c-13.63.3-30.31,13.58-28.46,21.88s12.71,14.41,35.27,9.39c0,0,.33-9.81-15.47-11.75Z"/><path class="cls-4" d="M403.58,144.27s12.87-7.36,8.79-18.18c-13.63.3-30.31,13.58-28.46,21.88s12.71,14.41,35.27,9.39c0,0,.33-9.81-15.48-11.75Z"/><path class="cls-4" d="M296.91,122.14s13.26-6.63,9.78-17.66c-13.62-.45-31,11.88-29.62,20.27s11.89,15.09,34.7,11.32c0,0,.86-9.77-14.81-12.59Z"/><path class="cls-4" d="M324.56,117.84s13.89-5.2,11.59-16.54c-13.5-1.88-32.09,8.56-31.59,17s10.24,16.26,33.31,14.91c0,0,1.89-9.62-13.4-14.07Z"/><path class="cls-4" d="M353.48,116.34s13.43-6.28,10.24-17.4c-13.61-.81-31.31,11.06-30.15,19.48s11.5,15.4,34.39,12.23c0,0,1.12-9.74-14.47-13Z"/><path class="cls-4" d="M385.57,114.73s13.51-6.11,10.46-17.27c-13.59-1-31.45,10.66-30.39,19.1s11.3,15.54,34.23,12.66c0,0,1.25-9.73-14.3-13.15Z"/><path class="cls-4" d="M414.86,108.27s13.51-6.11,10.46-17.27c-13.6-1-31.45,10.66-30.39,19.1s11.3,15.54,34.23,12.66c0,0,1.24-9.73-14.3-13.15Z"/><path class="cls-4" d="M444.35,102.7s13.51-6.12,10.47-17.28c-13.6-1-31.45,10.67-30.4,19.11s11.3,15.54,34.24,12.66c0,0,1.24-9.73-14.31-13.15Z"/><path class="cls-4" d="M433.13,138.24s13.51-6.11,10.46-17.27c-13.59-1-31.45,10.66-30.39,19.1s11.3,15.54,34.23,12.66c0,0,1.25-9.73-14.3-13.15Z"/><path class="cls-4" d="M287,88.24s13.9-5.16,11.64-16.5c-13.5-1.93-32.12,8.45-31.65,16.93s10.19,16.3,33.26,15c0,0,1.92-9.62-13.35-14.12Z"/><path class="cls-4" d="M346.73,81.46s13.87-5.22,11.56-16.56c-13.51-1.85-32.08,8.62-31.57,17.1S337,98.24,360.06,96.85c0,0,1.87-9.63-13.42-14Z"/><path class="cls-4" d="M377.2,81s13.5-6.14,10.44-17.29c-13.6-1-31.43,10.72-30.36,19.15s11.33,15.53,34.25,12.61c0,0,1.23-9.73-14.32-13.13Z"/><path class="cls-4" d="M408.33,76.06s12.62-7.8,8.16-18.47c-13.61.77-29.82,14.61-27.69,22.84s13.21,14,35.58,8.17c0,0,0-9.81-15.87-11.21Z"/><path class="cls-4" d="M437.53,70.35s13.11-6.93,9.38-17.88c-13.63-.14-30.73,12.59-29.15,21S430,88.23,452.71,83.94c0,0,.64-9.79-15.09-12.25Z"/><path class="cls-4" d="M315.77,85.87s13.23-6.69,9.71-17.71c-13.63-.39-31,12-29.54,20.4s12,15,34.74,11.18c0,0,.83-9.78-14.85-12.53Z"/><path class="cls-4" d="M350.5,46.75S364.66,42.37,363,30.91c-13.37-2.66-32.53,6.67-32.53,15.17s9.27,16.83,32.38,16.83c0,0,2.45-9.5-12.55-14.83Z"/><path class="cls-4" d="M381.16,46.45s13.75-5.54,11.19-16.82c-13.55-1.55-31.88,9.32-31.18,17.8s10.63,16,33.66,14.11c0,0,1.66-9.67-13.73-13.75Z"/><path class="cls-4" d="M412.33,41.08s14.17-4.38,12.54-15.83c-13.37-2.67-32.54,6.66-32.54,15.16s9.27,16.84,32.39,16.84c0,0,2.44-9.5-12.56-14.84Z"/></svg>