<svg id="Capa_2" data-name="Capa 2" xmlns="http://www.w3.org/2000/svg" xmlns:xlink="http://www.w3.org/1999/xlink" viewBox="0 0 497.76 332.53"><defs><style>.cls-1{fill:url(#Degradado_sin_nombre_17);}.cls-2,.cls-3{fill:none;stroke:#fff;stroke-miterlimit:10;}.cls-2{stroke-width:1.16px;}.cls-3{stroke-width:1.02px;}.cls-4{fill:#fff;}</style><linearGradient id="Degradado_sin_nombre_17" x1="248.77" y1="302.08" x2="248.77" y2="23.69" gradientUnits="userSpaceOnUse"><stop offset="0.02" stop-color="#daa37c"/><stop offset="0.3" stop-color="#ce9569"/><stop offset="0.89" stop-color="#ae7236"/><stop offset="1" stop-color="#a76b2c"/></linearGradient></defs><title>Mesa de trabajo 2 copia 4</title><path class="cls-1" d="M90.25,28.72s27.93,22.75,47.94,20.38c19.38-2.29,42.33-2.29,42.33-2.29s6.63-2.41,20.65,1.77,23.2,1.79,41.05-1.77C283.4,38.6,434.46,22.63,430.39,23.75c0,0,5.88,17,15.8,27.7,11.57,12.44,22.19,61.42,14.8,91.48s-13.52,28.23-9.7,36.33,2.17,27.18,10,39.46,16.76,18.82,11.15,28.75-11.72,13.85-11.21,18,4.33,7.31,3.31,12.8-5.86,23.77-20.14,23.77-17.6-20.37-17.6-20.37-.76-7.58-10.45-5.49-35.95-49.39-35.95-49.39-12.24-20.39-18.1-5.23v31.88s-3.83,12.81-32.13,13.86c0,0-6.37-8.37-25.24-10.2,0,0-11-2.09-18.1-16.2,0,0-2,6.79-6.63,7.84S236.1,238.06,231.76,237c0,0-.51,14.37-9.43,15.16s-26.77-3.66-38,24.83c0,0-.77,5.22-13.52,6.27,0,0-4.08-8.1-4.33-15.94,0,0-11.22-10.72-8.67-23.26s11.73-34.5-9.43-39.21-33.15-6.27-37.74-29.53-13-22.74-27.54-29.8-35.44-18.29-35.44-18.29-23.11-1.31-24.3-14.12,22-28.48,22-28.48S76.74,75,90.25,28.72Z"/><path class="cls-2" d="M257.67,183.52l2.52-34.83S226,104.21,239.7,45.8"/><path class="cls-3" d="M109.19,175.13s23.28,3.88,52.65,6.5c34.87,3.12,78,4.75,96.21,0L344.67,163s99.23,1.78,115-28.37"/><path class="cls-4" d="M164,75.25l-1.75-4.5v-5.5h-2V47.75S164.74,46,171,52.5s4.25,12.75,4.25,12.75l-2,7.16c0,3.59,2.31,7.77,2.31,12.43,0,7.91-6.81,14.41-6.81,14.41h-8.5V82a1.64,1.64,0,0,0,2.25-.75C163.24,79.75,162.24,76.75,164,75.25Z"/><path class="cls-4" d="M142.42,77.37l-1.75-4.5v-5.5h-2V49.87s4.5-1.75,10.75,4.75,4.25,12.75,4.25,12.75l-2,7.17c0,3.58,2.3,7.76,2.3,12.42,0,7.91-6.8,14.41-6.8,14.41h-8.5V84.12a1.64,1.64,0,0,0,2.25-.75C141.67,81.87,140.67,78.87,142.42,77.37Z"/><path class="cls-4" d="M122.65,77.25l-1.75-4.5v-5.5h-2V49.75s4.5-1.75,10.75,4.75,4.25,12.75,4.25,12.75l-2,7.16c0,3.59,2.3,7.77,2.3,12.43,0,7.91-6.8,14.41-6.8,14.41h-8.5V84a1.64,1.64,0,0,0,2.25-.75C121.9,81.75,120.9,78.75,122.65,77.25Z"/><path class="cls-4" d="M103.2,69.54,101.45,65v-5.5h-2V42s4.5-1.75,10.75,4.75,4.25,12.75,4.25,12.75l-2,7.17c0,3.58,2.3,7.76,2.3,12.42,0,7.91-6.8,14.41-6.8,14.41h-8.5V76.29a1.64,1.64,0,0,0,2.25-.75C102.45,74,101.45,71,103.2,69.54Z"/><path class="cls-4" d="M62,108.52l-3-3.79-1.61-5.26-1.92.59L50.35,83.33s3.79-3,11.67,1.39,7.8,11,7.8,11l.18,7.44c1,3.42,4.48,6.74,5.84,11.2,2.32,7.56-2.29,15.77-2.29,15.77l-8.12,2.49-5.05-16.49a1.65,1.65,0,0,0,1.93-1.38C62.59,113.05,60.75,110.47,62,108.52Z"/><path class="cls-4" d="M81.56,75l-.76-4.77L82,64.86,80,64.44,83.7,47.33s4.77-.76,9.5,6.92,1.47,13.36,1.47,13.36L91.2,74.19c-.76,3.5.61,8.07-.37,12.63-1.67,7.73-9.69,12.65-9.69,12.65l-8.31-1.8,3.64-16.86a1.64,1.64,0,0,0,2.36-.26C79.88,79.25,79.53,76.1,81.56,75Z"/><path class="cls-4" d="M235.92,135.66l-3.06-3.73-1.71-5.23-1.9.63-5.44-16.64s3.73-3.06,11.69,1.18,8,10.79,8,10.79l.33,7.44c1.12,3.4,4.6,6.66,6,11.09,2.46,7.52-2,15.81-2,15.81l-8.08,2.64-5.37-16.39a1.65,1.65,0,0,0,1.91-1.42C236.61,140.17,234.72,137.63,235.92,135.66Z"/><path class="cls-4" d="M215.28,141.22l-2-4.41-.25-5.49-2,.09-.82-17.48s4.41-2,11,4.24,4.84,12.54,4.84,12.54L224.39,138c.17,3.58,2.67,7.65,2.88,12.3.37,7.9-6.12,14.72-6.12,14.72l-8.49.39-.81-17.23a1.65,1.65,0,0,0,2.22-.85C214.74,145.75,213.61,142.8,215.28,141.22Z"/><path class="cls-4" d="M197.72,130l-1.75-4.5V120h-2v-17.5s4.5-1.75,10.75,4.75S209,120,209,120l-2,7.17c0,3.58,2.3,7.76,2.3,12.42,0,7.91-6.8,14.41-6.8,14.41H194V136.74a1.64,1.64,0,0,0,2.25-.75C197,134.49,196,131.49,197.72,130Z"/><path class="cls-4" d="M180.12,130l-1.75-4.5V120h-2v-17.5s4.5-1.75,10.75,4.75S191.37,120,191.37,120l-2,7.17c0,3.58,2.31,7.76,2.31,12.42,0,7.91-6.81,14.41-6.81,14.41h-8.5V136.74a1.64,1.64,0,0,0,2.25-.75C179.37,134.49,178.37,131.49,180.12,130Z"/><path class="cls-4" d="M160.78,130l-1.75-4.5V120h-2v-17.5s4.5-1.75,10.75,4.75S172,120,172,120l-2,7.17c0,3.58,2.31,7.76,2.31,12.42,0,7.91-6.81,14.41-6.81,14.41H157V136.74a1.64,1.64,0,0,0,2.25-.75C160,134.49,159,131.49,160.78,130Z"/><path class="cls-4" d="M141.62,132.85l-2.14-4.34L139,123l-2,.17-1.52-17.43s4.33-2.14,11.12,3.79S152,121.9,152,121.9l-1.36,7.32c.31,3.57,3,7.53,3.37,12.17.69,7.88-5.52,15-5.52,15l-8.47.74-1.5-17.18a1.65,1.65,0,0,0,2.18-1C141.26,137.39,140,134.49,141.62,132.85Z"/><path class="cls-4" d="M115,130l-1.75-4.5V120h-2v-17.5s4.5-1.75,10.75,4.75S126.25,120,126.25,120l-2,7.17c0,3.58,2.3,7.76,2.3,12.42,0,7.91-6.8,14.41-6.8,14.41h-8.5V136.74a1.64,1.64,0,0,0,2.25-.75C114.25,134.49,113.25,131.49,115,130Z"/><path class="cls-4" d="M94.76,122.48,93,118v-5.5H91V95s4.5-1.75,10.75,4.75S106,112.48,106,112.48l-2,7.17c0,3.58,2.3,7.76,2.3,12.42,0,7.91-6.8,14.41-6.8,14.41H91V129.23a1.64,1.64,0,0,0,2.25-.75C94,127,93,124,94.76,122.48Z"/><path class="cls-4" d="M194.19,75.25l-1.75-4.5v-5.5h-2V47.75s4.5-1.75,10.75,4.75,4.25,12.75,4.25,12.75l-2,7.16c0,3.59,2.31,7.77,2.31,12.43,0,7.91-6.81,14.41-6.81,14.41h-8.5V82a1.64,1.64,0,0,0,2.25-.75C193.44,79.75,192.44,76.75,194.19,75.25Z"/><path class="cls-4" d="M214.87,83.79l-1.75-4.5v-5.5h-2V56.29s4.5-1.75,10.75,4.75,4.25,12.75,4.25,12.75l-2,7.16c0,3.59,2.3,7.76,2.3,12.43,0,7.91-6.8,14.41-6.8,14.41h-8.5V90.54a1.64,1.64,0,0,0,2.25-.75C214.12,88.29,213.12,85.29,214.87,83.79Z"/><path class="cls-4" d="M257.92,191.68a12.82,12.82,0,0,0,8.75,3,8.62,8.62,0,0,0,7.25-4.25s15.5,0,15.5,8.25-15.75,7.75-15.75,7.75-1.75-3.75-8.25-3.75-7.5,2.25-7.5,2.25Z"/><path class="cls-4" d="M203,213.54a12.82,12.82,0,0,0,8.75,3,8.62,8.62,0,0,0,7.25-4.25s15.5,0,15.5,8.25-15.75,7.75-15.75,7.75-1.75-3.75-8.25-3.75-7.5,2.25-7.5,2.25Z"/><path class="cls-4" d="M197.1,232.89a12.82,12.82,0,0,0,8.75,3,8.62,8.62,0,0,0,7.25-4.25s15.5,0,15.5,8.25-15.75,7.75-15.75,7.75-1.75-3.75-8.25-3.75-7.5,2.25-7.5,2.25Z"/><path class="cls-4" d="M162.23,246.8a12.82,12.82,0,0,0,8.75,3,8.62,8.62,0,0,0,7.25-4.25s15.5,0,15.5,8.25S178,261.59,178,261.59s-1.75-3.75-8.25-3.75-7.5,2.25-7.5,2.25Z"/><path class="cls-4" d="M162.23,226.17a12.82,12.82,0,0,0,8.75,3,8.62,8.62,0,0,0,7.25-4.25s15.5,0,15.5,8.25S178,241,178,241s-1.75-3.75-8.25-3.75-7.5,2.25-7.5,2.25Z"/><path class="cls-4" d="M162.23,205.54a12.82,12.82,0,0,0,8.75,3,8.62,8.62,0,0,0,7.25-4.25s15.5,0,15.5,8.25S178,220.33,178,220.33s-1.75-3.75-8.25-3.75-7.5,2.25-7.5,2.25Z"/><path class="cls-4" d="M139,184.91a12.82,12.82,0,0,0,8.75,3A8.62,8.62,0,0,0,155,183.7s15.5,0,15.5,8.25-15.75,7.75-15.75,7.75S153,196,146.49,196s-7.5,2.25-7.5,2.25Z"/><path class="cls-4" d="M184.7,187.68a12.82,12.82,0,0,0,8.75,3,8.62,8.62,0,0,0,7.25-4.25s15.5,0,15.5,8.25-15.75,7.75-15.75,7.75-1.75-3.75-8.25-3.75-7.5,2.25-7.5,2.25Z"/><path class="cls-4" d="M221.47,191.68a12.82,12.82,0,0,0,8.75,3,8.62,8.62,0,0,0,7.25-4.25s15.5,0,15.5,8.25-15.75,7.75-15.75,7.75-1.75-3.75-8.25-3.75-7.5,2.25-7.5,2.25Z"/><path class="cls-4" d="M237.22,210.52a12.82,12.82,0,0,0,8.75,3,8.62,8.62,0,0,0,7.25-4.25s15.5,0,15.5,8.25S253,225.31,253,225.31s-1.75-3.75-8.25-3.75-7.5,2.25-7.5,2.25Z"/><path class="cls-4" d="M252.92,226.17a12.82,12.82,0,0,0,8.75,3,8.62,8.62,0,0,0,7.25-4.25s15.5,0,15.5,8.25S268.67,241,268.67,241s-1.75-3.75-8.25-3.75-7.5,2.25-7.5,2.25Z"/><path class="cls-4" d="M293.14,199.68a12.82,12.82,0,0,0,8.75,3,8.62,8.62,0,0,0,7.25-4.25s15.5,0,15.5,8.25-15.75,7.75-15.75,7.75-1.75-3.75-8.25-3.75-7.5,2.25-7.5,2.25Z"/><path class="cls-4" d="M289.4,220.13a12.82,12.82,0,0,0,8.75,3,8.62,8.62,0,0,0,7.25-4.25s15.5,0,15.5,8.25-15.75,7.75-15.75,7.75-1.75-3.75-8.25-3.75-7.5,2.25-7.5,2.25Z"/><path class="cls-4" d="M297.52,237.73a12.82,12.82,0,0,0,8.75,3,8.62,8.62,0,0,0,7.25-4.25s15.5,0,15.5,8.25-15.75,7.75-15.75,7.75-1.75-3.75-8.25-3.75-7.5,2.25-7.5,2.25Z"/><path class="cls-4" d="M329.65,207.69a12.82,12.82,0,0,0,8.75,3,8.62,8.62,0,0,0,7.25-4.25s15.5,0,15.5,8.25-15.75,7.75-15.75,7.75-1.75-3.75-8.25-3.75-7.5,2.25-7.5,2.25Z"/><path class="cls-4" d="M345.4,188.66a12.82,12.82,0,0,0,8.75,3,8.62,8.62,0,0,0,7.25-4.25s15.5,0,15.5,8.25-15.75,7.75-15.75,7.75-1.75-3.75-8.25-3.75-7.5,2.25-7.5,2.25Z"/><path class="cls-4" d="M331,228.13a12.82,12.82,0,0,0,8.75,3,8.62,8.62,0,0,0,7.25-4.25s15.5,0,15.5,8.25-15.75,7.75-15.75,7.75-1.75-3.75-8.25-3.75-7.5,2.25-7.5,2.25Z"/><path class="cls-4" d="M387.68,184.91a12.82,12.82,0,0,0,8.75,3,8.62,8.62,0,0,0,7.25-4.25s15.5,0,15.5,8.25-15.75,7.75-15.75,7.75-1.75-3.75-8.25-3.75-7.5,2.25-7.5,2.25Z"/><path class="cls-4" d="M382.75,205.54a12.82,12.82,0,0,0,8.75,3,8.62,8.62,0,0,0,7.25-4.25s15.5,0,15.5,8.25-15.75,7.75-15.75,7.75-1.75-3.75-8.25-3.75-7.5,2.25-7.5,2.25Z"/><path class="cls-4" d="M398.81,228.13a12.82,12.82,0,0,0,8.75,3,8.62,8.62,0,0,0,7.25-4.25s15.5,0,15.5,8.25-15.75,7.75-15.75,7.75-1.75-3.75-8.25-3.75-7.5,2.25-7.5,2.25Z"/><path class="cls-4" d="M430.31,279.4a12.82,12.82,0,0,0,8.75,3,8.62,8.62,0,0,0,7.25-4.25s15.5,0,15.5,8.25-15.75,7.75-15.75,7.75-1.75-3.75-8.25-3.75-7.5,2.25-7.5,2.25Z"/><path class="cls-4" d="M418.18,254.8a12.82,12.82,0,0,0,8.75,3,8.62,8.62,0,0,0,7.25-4.25s15.5,0,15.5,8.25-15.75,7.75-15.75,7.75-1.75-3.75-8.25-3.75-7.5,2.25-7.5,2.25Z"/><path class="cls-4" d="M437,232.89a12.82,12.82,0,0,0,8.75,3,8.62,8.62,0,0,0,7.25-4.25s15.5,0,15.5,8.25-15.75,7.75-15.75,7.75-1.75-3.75-8.25-3.75-7.5,2.25-7.5,2.25Z"/><path class="cls-4" d="M421.21,205.54a12.82,12.82,0,0,0,8.75,3,8.62,8.62,0,0,0,7.25-4.25s15.5,0,15.5,8.25S437,220.33,437,220.33s-1.75-3.75-8.25-3.75-7.5,2.25-7.5,2.25Z"/><path class="cls-4" d="M421.21,180.1a12.82,12.82,0,0,0,8.75,3,8.62,8.62,0,0,0,7.25-4.25s15.5,0,15.5,8.25S437,194.89,437,194.89s-1.75-3.75-8.25-3.75-7.5,2.25-7.5,2.25Z"/><path class="cls-4" d="M222.63,165.78a12.82,12.82,0,0,0,8.75,3,8.62,8.62,0,0,0,7.25-4.25s15.5,0,15.5,8.25-15.75,7.75-15.75,7.75-1.75-3.75-8.25-3.75-7.5,2.25-7.5,2.25Z"/><path class="cls-4" d="M178.9,166.57a12.82,12.82,0,0,0,8.75,3,8.62,8.62,0,0,0,7.25-4.25s15.5,0,15.5,8.25-15.75,7.75-15.75,7.75-1.75-3.75-8.25-3.75-7.5,2.25-7.5,2.25Z"/><path class="cls-4" d="M144.38,162.32a12.82,12.82,0,0,0,8.75,3,8.62,8.62,0,0,0,7.25-4.25s15.5,0,15.5,8.25-15.75,7.75-15.75,7.75-1.75-3.75-8.25-3.75-7.5,2.25-7.5,2.25Z"/><path class="cls-4" d="M111.64,156.23a12.82,12.82,0,0,0,8.75,3,8.62,8.62,0,0,0,7.25-4.25s15.5,0,15.5,8.25S127.39,171,127.39,171s-1.75-3.75-8.25-3.75-7.5,2.25-7.5,2.25Z"/><path class="cls-4" d="M289.4,177.82a12.82,12.82,0,0,0,8.75,3,8.62,8.62,0,0,0,7.25-4.25s15.5,0,15.5,8.25-15.75,7.75-15.75,7.75-1.75-3.75-8.25-3.75-7.5,2.25-7.5,2.25Z"/><path class="cls-4" d="M335,170.32a12.82,12.82,0,0,0,8.75,3,8.62,8.62,0,0,0,7.25-4.25s15.5,0,15.5,8.25-15.75,7.75-15.75,7.75-1.75-3.75-8.25-3.75-7.5,2.25-7.5,2.25Z"/><path class="cls-4" d="M375.81,166.57a12.82,12.82,0,0,0,8.75,3,8.62,8.62,0,0,0,7.25-4.25s15.5,0,15.5,8.25-15.75,7.75-15.75,7.75-1.75-3.75-8.25-3.75-7.5,2.25-7.5,2.25Z"/><path class="cls-4" d="M418.18,159.47a12.82,12.82,0,0,0,8.75,3,8.62,8.62,0,0,0,7.25-4.25s15.5,0,15.5,8.25-15.75,7.75-15.75,7.75-1.75-3.75-8.25-3.75-7.5,2.25-7.5,2.25Z"/><path class="cls-4" d="M321.77,51.91s14.16-4.38,12.53-15.83c-13.37-2.67-32.53,6.67-32.53,15.17S311,68.08,334.15,68.08c0,0,2.45-9.5-12.55-14.83Z"/><path class="cls-4" d="M261.29,59.41s14.81-.79,16-12.29c-12.31-5.85-33.17-1.48-35.25,6.77s4.89,18.58,27.3,24.22c0,0,4.69-8.61-8.55-17.44Z"/><path class="cls-4" d="M258.66,92.6s14.83.22,16.82-11.18c-11.88-6.67-33-3.73-35.63,4.35s3.61,18.88,25.58,26c0,0,5.27-8.28-7.34-18Z"/><path class="cls-4" d="M272.11,125.28s13.22-6.72,9.67-17.73c-13.62-.36-30.93,12.08-29.49,20.46s12,15,34.77,11.1c0,0,.8-9.78-14.88-12.49Z"/><path class="cls-4" d="M279.87,160.39s10-10.93,2.84-20c-12.88,4.43-24.73,22.16-20.45,29.5s16.5,9.86,36.46-1.79c0,0-2.68-9.44-18.32-6.48Z"/><path class="cls-4" d="M322.2,150.43s12-8.66,6.86-19c-13.52,1.72-28.73,16.65-26,24.71s14.13,13,36.05,5.68c0,0-.7-9.78-16.61-10.08Z"/><path class="cls-4" d="M357,146.55s12.87-7.35,8.79-18.18c-13.63.31-30.31,13.59-28.46,21.88s12.71,14.42,35.27,9.39c0,0,.33-9.81-15.47-11.75Z"/><path class="cls-4" d="M400.6,141.18s12.87-7.35,8.79-18.18c-13.63.31-30.31,13.58-28.46,21.88s12.71,14.41,35.27,9.39c0,0,.33-9.81-15.48-11.75Z"/><path class="cls-4" d="M303.52,120.13s12-10.73,5.21-20.84c-14.33,3.68-29,21.43-25.16,29.5s16.66,11.66,39.37.93c0,0-1.86-10.15-19-8.25Z"/><path class="cls-4" d="M338.73,117.54s13.43-6.29,10.24-17.41c-13.61-.81-31.31,11.07-30.15,19.49s11.5,15.4,34.39,12.23c0,0,1.12-9.74-14.47-13Z"/><path class="cls-4" d="M372.9,114.73s13.51-6.11,10.46-17.27c-13.59-1-31.45,10.66-30.39,19.1s11.3,15.54,34.23,12.66c0,0,1.25-9.73-14.3-13.15Z"/><path class="cls-4" d="M413.27,103.37s13.52-6.11,10.47-17.27c-13.6-1-31.45,10.66-30.39,19.1s11.3,15.54,34.23,12.66c0,0,1.24-9.73-14.3-13.15Z"/><path class="cls-4" d="M444.35,102.7s13.51-6.12,10.47-17.28c-13.6-1-31.45,10.67-30.4,19.11s11.3,15.54,34.24,12.66c0,0,1.24-9.73-14.31-13.15Z"/><path class="cls-4" d="M288.81,70.94s14.4,3.55,18.9-7.11c-10.08-9.17-31.32-11-35.7-3.76s-.72,19.2,19.09,31.11c0,0,7-6.88-3.12-19.18Z"/><path class="cls-4" d="M348.7,82.54S362.58,77.31,360.26,66c-13.5-1.86-32.07,8.61-31.56,17.1S339,99.32,362,97.93c0,0,1.87-9.63-13.42-14.05Z"/><path class="cls-4" d="M385.52,80.46s13-7.08,9.18-18c-13.63,0-30.59,12.93-28.92,21.26s12.39,14.69,35.06,10.15c0,0,.53-9.79-15.22-12.08Z"/><path class="cls-4" d="M437.53,70.35s13.11-6.93,9.38-17.88c-13.63-.14-30.73,12.59-29.15,21S430,88.23,452.71,83.94c0,0,.64-9.79-15.09-12.25Z"/><path class="cls-4" d="M315.81,86S329.75,81,327.57,69.59c-13.49-2-32.18,8.22-31.77,16.71s10.07,16.37,33.16,15.26c0,0,2-9.61-13.26-14.21Z"/><path class="cls-4" d="M353.75,47.6s14.17-4.38,12.54-15.84c-13.37-2.66-32.54,6.67-32.54,15.17S343,63.76,366.14,63.76c0,0,2.45-9.5-12.55-14.83Z"/><path class="cls-4" d="M381.16,46.45s13.75-5.54,11.19-16.82c-13.55-1.55-31.88,9.32-31.18,17.8s10.63,16,33.66,14.11c0,0,1.66-9.67-13.73-13.75Z"/><path class="cls-4" d="M412.29,41.58s14.63-2.41,14.58-14c-12.88-4.47-33.14,2.16-34.3,10.58s6.88,17.94,29.78,21.1c0,0,3.72-9.08-10.41-16.41Z"/></svg>