<svg id="Capa_2" data-name="Capa 2" xmlns="http://www.w3.org/2000/svg" xmlns:xlink="http://www.w3.org/1999/xlink" viewBox="0 0 497.76 332.53"><defs><style>.cls-1{fill:url(#Degradado_sin_nombre_17);}.cls-2,.cls-3{fill:none;stroke:#fff;stroke-miterlimit:10;}.cls-2{stroke-width:1.18px;}.cls-3{stroke-width:1.02px;}.cls-4{fill:#fff;}.cls-5{opacity:0.8;}.cls-6{fill:#82160d;}.cls-7{fill:#bc0f18;}</style><linearGradient id="Degradado_sin_nombre_17" x1="248.77" y1="302.08" x2="248.77" y2="23.69" gradientUnits="userSpaceOnUse"><stop offset="0.02" stop-color="#daa37c"/><stop offset="0.3" stop-color="#ce9569"/><stop offset="0.89" stop-color="#ae7236"/><stop offset="1" stop-color="#a76b2c"/></linearGradient></defs><title>Mesa de trabajo 2 copia 5</title><path class="cls-1" d="M90.25,28.72s27.93,22.75,47.94,20.38c19.38-2.29,42.33-2.29,42.33-2.29s6.63-2.41,20.65,1.77,23.2,1.79,41.05-1.77C283.4,38.6,434.46,22.63,430.39,23.75c0,0,5.88,17,15.8,27.7,11.57,12.44,22.19,61.42,14.8,91.48s-13.52,28.23-9.7,36.33,2.17,27.18,10,39.46,16.76,18.82,11.15,28.75-11.72,13.85-11.21,18,4.33,7.31,3.31,12.8-5.86,23.77-20.14,23.77-17.6-20.37-17.6-20.37-.76-7.58-10.45-5.49-35.95-49.39-35.95-49.39-12.24-20.39-18.1-5.23v31.88s-3.83,12.81-32.13,13.86c0,0-6.37-8.37-25.24-10.2,0,0-11-2.09-18.1-16.2,0,0-2,6.79-6.63,7.84S236.1,238.06,231.76,237c0,0-.51,14.37-9.43,15.16s-26.77-3.66-38,24.83c0,0-.77,5.22-13.52,6.27,0,0-4.08-8.1-4.33-15.94,0,0-11.22-10.72-8.67-23.26s11.73-34.5-9.43-39.21-33.15-6.27-37.74-29.53-13-22.74-27.54-29.8-35.44-18.29-35.44-18.29-23.11-1.31-24.3-14.12,22-28.48,22-28.48S76.74,75,90.25,28.72Z"/><path class="cls-2" d="M257.67,187.75l2.52-35.9S226,106,239.7,45.8"/><path class="cls-3" d="M111.35,181.25s23.28,3.87,52.65,6.5c34.87,3.12,78,4.75,96.21,0l86.62-18.64s99.23,1.78,115-28.36"/><path class="cls-4" d="M319.66,51.91s14.17-4.38,12.54-15.83c-13.37-2.67-32.54,6.67-32.54,15.17s9.28,16.83,32.39,16.83c0,0,2.45-9.5-12.55-14.83Z"/><path class="cls-4" d="M290.25,54.05s14.16-4.38,12.53-15.83c-13.37-2.67-32.53,6.67-32.53,15.17s9.27,16.83,32.38,16.83c0,0,2.45-9.5-12.55-14.83Z"/><path class="cls-4" d="M259.41,58.52S273.58,54.14,272,42.69c-13.37-2.67-32.54,6.66-32.54,15.16s9.28,16.84,32.39,16.84c0,0,2.45-9.5-12.55-14.84Z"/><path class="cls-4" d="M256.59,91.57s14.16-4.38,12.53-15.83c-13.37-2.67-32.53,6.66-32.53,15.16s9.27,16.84,32.38,16.84c0,0,2.45-9.5-12.55-14.84Z"/><path class="cls-4" d="M267.38,124.31s14.17-4.38,12.53-15.84c-13.36-2.66-32.53,6.67-32.53,15.17s9.27,16.83,32.39,16.83c0,0,2.44-9.5-12.56-14.83Z"/><path class="cls-4" d="M280.92,165s12.06-8.64,6.89-19c-13.53,1.69-28.76,16.61-26.07,24.67s14.12,13,36.05,5.73c0,0-.69-9.79-16.6-10.1Z"/><path class="cls-4" d="M310.68,156s12.88-7.36,8.8-18.18c-13.63.3-30.31,13.58-28.46,21.88s12.71,14.41,35.27,9.38c0,0,.32-9.8-15.48-11.74Z"/><path class="cls-4" d="M340.05,151.8s12.87-7.36,8.79-18.18c-13.63.31-30.31,13.58-28.46,21.88s12.71,14.41,35.27,9.39c0,0,.32-9.81-15.48-11.75Z"/><path class="cls-4" d="M373,148.12s12.87-7.36,8.79-18.18c-13.63.3-30.31,13.58-28.46,21.88s12.71,14.41,35.27,9.39c0,0,.33-9.81-15.47-11.75Z"/><path class="cls-4" d="M403.58,144.27s12.87-7.36,8.79-18.18c-13.63.3-30.31,13.58-28.46,21.88s12.71,14.41,35.27,9.39c0,0,.33-9.81-15.48-11.75Z"/><path class="cls-4" d="M305.44,120.66S318.7,114,315.22,103c-13.62-.45-31,11.89-29.62,20.27s11.89,15.1,34.7,11.33c0,0,.86-9.78-14.81-12.59Z"/><path class="cls-4" d="M333.81,115.92s13.89-5.21,11.59-16.54c-13.5-1.88-32.09,8.55-31.59,17s10.24,16.26,33.31,14.91c0,0,1.89-9.63-13.4-14.07Z"/><path class="cls-4" d="M359.74,114.81s13.43-6.28,10.25-17.4c-13.61-.81-31.32,11.06-30.15,19.48s11.49,15.4,34.39,12.24c0,0,1.12-9.75-14.47-13Z"/><path class="cls-4" d="M386.59,111.54s13.51-6.11,10.47-17.27c-13.6-1-31.45,10.67-30.4,19.1S378,128.92,400.9,126c0,0,1.24-9.73-14.31-13.16Z"/><path class="cls-4" d="M414.86,108.27s13.51-6.11,10.46-17.27c-13.6-1-31.45,10.66-30.39,19.1s11.3,15.54,34.23,12.66c0,0,1.24-9.73-14.3-13.15Z"/><path class="cls-4" d="M444.35,102.7s13.51-6.12,10.47-17.28c-13.6-1-31.45,10.67-30.4,19.11s11.3,15.54,34.24,12.66c0,0,1.24-9.73-14.31-13.15Z"/><path class="cls-4" d="M433.13,138.24s13.51-6.11,10.46-17.27c-13.59-1-31.45,10.66-30.39,19.1s11.3,15.54,34.23,12.66c0,0,1.25-9.73-14.3-13.15Z"/><path class="cls-4" d="M287,88.24s13.9-5.16,11.64-16.5c-13.5-1.93-32.12,8.45-31.65,16.93s10.19,16.3,33.26,15c0,0,1.92-9.62-13.35-14.12Z"/><path class="cls-4" d="M346.73,81.46s13.87-5.22,11.56-16.56c-13.51-1.85-32.08,8.62-31.57,17.1S337,98.24,360.06,96.85c0,0,1.87-9.63-13.42-14Z"/><path class="cls-4" d="M377,79.67s13.5-6.14,10.44-17.29c-13.6-1-31.43,10.72-30.36,19.15s11.32,15.53,34.25,12.61c0,0,1.23-9.73-14.32-13.13Z"/><path class="cls-4" d="M408.33,76.06s12.62-7.8,8.16-18.47c-13.61.77-29.82,14.61-27.69,22.84s13.21,14,35.58,8.17c0,0,0-9.81-15.87-11.21Z"/><path class="cls-4" d="M437.53,70.35s13.11-6.93,9.38-17.88c-13.63-.14-30.73,12.59-29.15,21S430,88.23,452.71,83.94c0,0,.64-9.79-15.09-12.25Z"/><path class="cls-4" d="M315.77,85.87s13.23-6.69,9.71-17.71c-13.63-.39-31,12-29.54,20.4s12,15,34.74,11.18c0,0,.83-9.78-14.85-12.53Z"/><path class="cls-4" d="M350.5,46.75S364.66,42.37,363,30.91c-13.37-2.66-32.53,6.67-32.53,15.17s9.27,16.83,32.38,16.83c0,0,2.45-9.5-12.55-14.83Z"/><path class="cls-4" d="M381.16,46.45s13.75-5.54,11.19-16.82c-13.55-1.55-31.88,9.32-31.18,17.8s10.63,16,33.66,14.11c0,0,1.66-9.67-13.73-13.75Z"/><path class="cls-4" d="M412.33,41.08s14.17-4.38,12.54-15.83c-13.37-2.67-32.54,6.66-32.54,15.16s9.27,16.84,32.39,16.84c0,0,2.44-9.5-12.56-14.84Z"/><g class="cls-5"><path class="cls-6" d="M296.92,145.3a10,10,0,0,0-1.44-.52,12.63,12.63,0,0,0-1.41-.35,4.68,4.68,0,0,1-1.93-1.05c-.6-.44-1.14-1-1.78-1.42s-1.21-.83-1.82-1.23a29.82,29.82,0,0,0-3.45-3.27c-.11-.16-.39-.62-.77-.07a13.67,13.67,0,0,0-3-3.6c-.47-.44-.52-1.27-.95-1.73a3.11,3.11,0,0,1-.84-1.27,5,5,0,0,0-.65-1.37c-.17-.06-.63-.11-.66-.24a2.45,2.45,0,0,0-1-1.73c-.51-.46-1.14-.88-1.64-1.39a4.13,4.13,0,0,1-.8-1.23c-.29.07-.3-.06-.45-.16a5.68,5.68,0,0,1,.13-2.93,8.24,8.24,0,0,1,.93,1.82c.48.91,1,1.8,1.14,1.7s-1.08-2.47-1-2.74a24.79,24.79,0,0,0,2.08,2.33c.61.56,1.07,1,1.42,1.24.72.55,1,.63.91.51s-1.48-1.5-2.58-2.58c-.11-.43-.85-.82-1.15-1.64a18.43,18.43,0,0,0,1.93,1.16c.86.82,1.16.48,1.67,1.57a4.07,4.07,0,0,0,1.26,1.37c.52.43,1.11.78,1.43,1.06a8.22,8.22,0,0,1-1.4-.23c-.48-.15-.92-.39-1-.7.21,1.57,2,.61,2.71,1.86a.88.88,0,0,0,.42.24l.14.53a5.2,5.2,0,0,0,1.22,1.17,6.86,6.86,0,0,1,1.2,1.15c-.08-.05.11-.34.07-.44A2,2,0,0,0,285,130a3.29,3.29,0,0,1-1-1c-.06-.21-.62-.12-.75-.29-.3-.31-.26-.82-.33-1.25a8.49,8.49,0,0,1,1.87,1.77c.15.1.55,0,.77,0l-.71-.89a19.38,19.38,0,0,0-1.92-1.29c-.68-.44-1.15-1-1-1.64l-.15,0a.13.13,0,0,0,0-.08.7.7,0,0,1-.09-.66,3.37,3.37,0,0,0,.2.49,4.19,4.19,0,0,1,1.73,1.44,7.1,7.1,0,0,0,1.47,1.63c.31.15.24.91.58,1a4.4,4.4,0,0,1,1.87,2.25,40,40,0,0,0,7.35,9.65l.27.06L295,141l.19.27a2.59,2.59,0,0,1,1.35.87c.15.28-.36-.07-.58.13a2.05,2.05,0,0,0,.2.14l-.12.28c.11-.05.11.14.15.26a24.1,24.1,0,0,1-3.37-1.1c0,.42.34.49.48.6a2.68,2.68,0,0,1,1.11.34,3.94,3.94,0,0,1,1.38.76,10.06,10.06,0,0,0,1.37.86,4.86,4.86,0,0,1,.46.53C297.81,145.18,297.28,145.53,296.92,145.3Zm-10-11.7c.09.34.14.72.22,1.1l.2.26a.59.59,0,0,0,.33.24c.29.54.61,1.08.95,1.59a4.85,4.85,0,0,0-.78-2.11c1.32,1.17,1.88,3.19,3.07,4.87a12.61,12.61,0,0,0,1.36,1,5.26,5.26,0,0,0,1.13.35,22.62,22.62,0,0,1-4.69-5.82c-1.23-2.07-2.2-4.07-3.38-5.78a11.88,11.88,0,0,0,.69,2.14C286.29,132.16,286.62,132.83,286.92,133.6Zm-.67,0c-.4-.43-.8-.84-1.22-1.23-1-1.18-2-2.52-3.39-2.75,1.14.9,2.3,1.77,3.39,2.75-.89-1.08-.33-.22,1,1.1A.35.35,0,0,1,286.25,133.57Z"/><path class="cls-6" d="M293.18,138.88c.43.69.91,1.36,1.41,2.07a13.89,13.89,0,0,0-.33-1.44,3.84,3.84,0,0,0-.88-1.19,8.22,8.22,0,0,1-.89-1,39.25,39.25,0,0,0-4.41-5.86.59.59,0,0,0-.41-.35C289.24,133.63,291.06,135.9,293.18,138.88Z"/><path class="cls-6" d="M285.82,127.86a3.52,3.52,0,0,1-.9-.81,2,2,0,0,0,.42,1.23c.4.39.81.76,1.17,1.17A4.88,4.88,0,0,0,285.82,127.86Z"/><path class="cls-6" d="M287.67,131.06a2,2,0,0,1-.18-.32,5.94,5.94,0,0,0-1-1.29c.19.61.36,1.25.6,1.88A.64.64,0,0,1,287.67,131.06Z"/></g><g class="cls-5"><path class="cls-7" d="M274.35,121.21a7.82,7.82,0,0,0,1.44.52,9.37,9.37,0,0,0,1.41.35,4.92,4.92,0,0,1,1.93,1c.6.45,1.14,1,1.78,1.43s1.2.83,1.82,1.23a30.7,30.7,0,0,0,3.45,3.27c.11.15.39.62.77.07a13.48,13.48,0,0,0,3,3.6c.47.44.52,1.27.95,1.73a3,3,0,0,1,.84,1.27,4.69,4.69,0,0,0,.65,1.37c.16.06.63.11.66.23a2.48,2.48,0,0,0,1,1.74c.52.46,1.15.88,1.65,1.38a4.17,4.17,0,0,1,.8,1.24c.29-.07.3.06.45.15a5.72,5.72,0,0,1-.14,2.94,8.77,8.77,0,0,1-.92-1.82c-.49-.92-1-1.8-1.14-1.7s1.08,2.46,1,2.74a22.47,22.47,0,0,0-2.08-2.33c-.61-.56-1.08-1-1.42-1.24-.72-.55-1-.64-.91-.51s1.48,1.5,2.58,2.58c.11.43.85.81,1.15,1.64a19.92,19.92,0,0,0-1.93-1.17c-.86-.81-1.16-.47-1.67-1.57a4.06,4.06,0,0,0-1.26-1.36c-.52-.44-1.11-.78-1.43-1.06a8,8,0,0,1,1.39.23c.49.15.93.39,1,.7-.21-1.57-2-.61-2.71-1.86a1.11,1.11,0,0,0-.42-.25c0-.16-.09-.32-.14-.52a5.4,5.4,0,0,0-1.22-1.17,6.86,6.86,0,0,1-1.2-1.15c.08,0-.11.34-.07.44a2,2,0,0,0,.83,1.13,3.29,3.29,0,0,1,1.05,1c.05.21.62.11.75.28.3.32.26.83.33,1.26a8.73,8.73,0,0,1-1.87-1.77c-.15-.1-.55,0-.77,0l.71.89a20,20,0,0,0,1.92,1.29c.68.44,1.15,1,1,1.63l.15,0a.16.16,0,0,0,0,.09.69.69,0,0,1,.09.66,3,3,0,0,0-.2-.49,4.19,4.19,0,0,1-1.73-1.44,6.9,6.9,0,0,0-1.47-1.63c-.31-.15-.25-.91-.58-1.05a4.34,4.34,0,0,1-1.87-2.24,40,40,0,0,0-7.35-9.65l-.27-.06.05.23-.19-.27a2.65,2.65,0,0,1-1.36-.87c-.14-.28.37.07.59-.13a2.05,2.05,0,0,0-.2-.14l.12-.28c-.11,0-.12-.14-.15-.26a23.56,23.56,0,0,1,3.36,1.1c0-.42-.33-.49-.47-.61a2.41,2.41,0,0,1-1.11-.34,3.91,3.91,0,0,1-1.38-.75,9.16,9.16,0,0,0-1.37-.86,4.86,4.86,0,0,1-.46-.53C273.46,121.34,274,121,274.35,121.21Zm10,11.71c-.09-.34-.13-.73-.22-1.1l-.19-.26a.54.54,0,0,0-.33-.24c-.29-.54-.61-1.08-1-1.59a4.77,4.77,0,0,0,.78,2.1c-1.33-1.17-1.88-3.18-3.07-4.86a11.53,11.53,0,0,0-1.37-1,5,5,0,0,0-1.12-.35,22.62,22.62,0,0,1,4.69,5.82c1.23,2.07,2.2,4.07,3.38,5.78a11.91,11.91,0,0,0-.7-2.14C285,134.36,284.65,133.68,284.34,132.92Zm.67,0c.41.43.81.84,1.22,1.23,1,1.18,2,2.52,3.4,2.74-1.14-.9-2.3-1.77-3.4-2.74.9,1.08.34.22-1-1.1C285.17,133.08,285.1,133,285,133Z"/><path class="cls-7" d="M278.09,127.64c-.43-.69-.91-1.36-1.41-2.07A14.51,14.51,0,0,0,277,127a4,4,0,0,0,.87,1.19,7,7,0,0,1,.9,1.05,39.25,39.25,0,0,0,4.41,5.86.59.59,0,0,0,.41.35C282,132.89,280.21,130.62,278.09,127.64Z"/><path class="cls-7" d="M285.45,138.66a3.52,3.52,0,0,1,.9.81,2,2,0,0,0-.42-1.23c-.4-.39-.81-.76-1.17-1.17A5,5,0,0,0,285.45,138.66Z"/><path class="cls-7" d="M283.6,135.46a1.92,1.92,0,0,1,.18.31,5.76,5.76,0,0,0,1,1.3c-.19-.61-.37-1.25-.6-1.88A.64.64,0,0,1,283.6,135.46Z"/></g></svg>