<svg id="Capa_2" data-name="Capa 2" xmlns="http://www.w3.org/2000/svg" xmlns:xlink="http://www.w3.org/1999/xlink" viewBox="0 0 497.76 332.53"><defs><style>.cls-1{fill:url(#Degradado_sin_nombre_17);}.cls-16,.cls-2,.cls-3{fill:none;}.cls-2,.cls-3{stroke:#fff;stroke-miterlimit:10;}.cls-2{stroke-width:1.18px;}.cls-3{stroke-width:1.02px;}.cls-4{fill:#fff;}.cls-5{opacity:0.8;}.cls-6{fill:#82160d;}.cls-7{fill:#bc0f18;}.cls-8{fill:#781f1b;}.cls-9{fill:#c20d19;}.cls-10{fill:#8d160f;}.cls-11{fill:#8e4312;}.cls-12{fill:#642500;}.cls-13{fill:#892c10;}.cls-14{opacity:0.7;}.cls-15{fill:#753629;}.cls-16{stroke:#753629;stroke-width:0;}.cls-17{fill:#a41b1c;}</style><linearGradient id="Degradado_sin_nombre_17" x1="248.77" y1="302.08" x2="248.77" y2="23.7" gradientUnits="userSpaceOnUse"><stop offset="0.02" stop-color="#daa37c"/><stop offset="0.3" stop-color="#ce9569"/><stop offset="0.89" stop-color="#ae7236"/><stop offset="1" stop-color="#a76b2c"/></linearGradient></defs><title>Mesa de trabajo 2 copia 6</title><path class="cls-1" d="M90.25,28.72s27.93,22.75,47.94,20.38c19.38-2.29,42.33-2.29,42.33-2.29s6.63-2.41,20.65,1.77,23.37,2.58,41.05-1.77c19.14-4.71,53-6.55,66.78-5.59,11.11.78,28.34-6.65,34-7.75,8.51-1.65,3.21,9.45,3.83,10.73.18.38,6-3.58,4.67-6.48-1.5-3.28.25-6.18.75-6.24,40.81-4.66,80.11-8.28,78.14-7.73,0,0,5.88,17,15.8,27.7,2.72,2.93,12.81,29.47,9.06,37.37-9.33,19.64,11.39,31.12,5.74,54.11-7.4,30.06-13.52,28.23-9.7,36.33s2.17,27.18,10,39.46,16.76,18.82,11.15,28.75-11.72,13.85-11.21,18,4.33,7.31,3.31,12.8-5.86,23.77-20.14,23.77-17.6-20.37-17.6-20.37-.76-7.58-10.45-5.49-35.95-49.39-35.95-49.39-12.24-20.39-18.1-5.23v31.88s-3.83,12.81-32.13,13.86c0,0-6.37-8.37-25.24-10.2,0,0-11-2.09-18.1-16.2,0,0-2,6.79-6.63,7.84S236.1,238.06,231.76,237c0,0-.51,14.37-9.43,15.16s-26.77-3.66-38,24.83c0,0-.77,5.22-13.52,6.27,0,0-4.08-8.1-4.33-15.94,0,0-11.22-10.72-8.67-23.26s11.73-34.5-9.43-39.21-33.15-6.27-37.74-29.53-13-22.74-27.54-29.8-35.44-18.29-35.44-18.29-23.11-1.31-24.3-14.12,22-28.48,22-28.48S76.74,75,90.25,28.72Z"/><path class="cls-2" d="M257.67,187.75l2.52-35.9S226,106,239.7,45.8"/><path class="cls-3" d="M111.35,181.25s23.28,3.87,52.65,6.5c34.87,3.12,78,4.75,96.21,0l86.62-18.64s99.23,1.78,115-28.36"/><path class="cls-4" d="M324.9,57.52s14.16-4.38,12.53-15.83C324.06,39,304.9,48.35,304.9,56.85s9.27,16.84,32.38,16.84c0,0,2.45-9.5-12.55-14.84Z"/><path class="cls-4" d="M258.41,59.69S272.58,55.31,271,43.86c-13.37-2.67-32.54,6.66-32.54,15.16s9.28,16.84,32.39,16.84c0,0,2.45-9.5-12.55-14.84Z"/><path class="cls-4" d="M278.75,90.67s14.16-4.38,12.53-15.83c-13.37-2.67-32.53,6.67-32.53,15.17s9.27,16.83,32.38,16.83c0,0,2.45-9.5-12.55-14.83Z"/><path class="cls-4" d="M266.75,122.66s14.72-1.83,15.11-13.39c-12.7-5-33.2.87-34.68,9.24s6.19,18.2,28.94,22.24c0,0,4.07-8.93-9.77-16.8Z"/><path class="cls-4" d="M280.86,164.84s11.55-9.3,5.8-19.34c-13.4,2.45-27.78,18.2-24.64,26.1s14.83,12.22,36.31,3.69c0,0-1.23-9.73-17.14-9.15Z"/><path class="cls-4" d="M316.34,156s12.88-7.36,8.79-18.18c-13.63.3-30.3,13.58-28.46,21.88S309.39,174.07,332,169c0,0,.32-9.8-15.48-11.74Z"/><path class="cls-4" d="M370.64,150.83s12.87-7.35,8.79-18.18c-13.63.31-30.31,13.58-28.46,21.88s12.71,14.41,35.27,9.39c0,0,.33-9.81-15.48-11.75Z"/><path class="cls-4" d="M402.71,147.82s12.88-7.36,8.79-18.18c-13.62.3-30.3,13.58-28.45,21.88s12.71,14.41,35.27,9.39c0,0,.32-9.81-15.48-11.75Z"/><path class="cls-4" d="M307,120.3s13.26-6.64,9.78-17.67c-13.63-.45-31,11.89-29.62,20.27S299,138,321.82,134.22c0,0,.86-9.77-14.81-12.58Z"/><path class="cls-4" d="M345.65,125.88s14.14-4.44,12.46-15.89c-13.38-2.61-32.5,6.81-32.47,15.31S335,142.09,358.1,142c0,0,2.41-9.51-12.61-14.78Z"/><path class="cls-4" d="M410.51,113.46S424,107.35,421,96.19c-13.59-1-31.45,10.66-30.39,19.1s11.3,15.54,34.23,12.66c0,0,1.25-9.73-14.3-13.15Z"/><path class="cls-4" d="M437.87,80.86s12.19-8.45,7.18-18.88c-13.55,1.49-29,16.17-26.45,24.27s13.92,13.25,36,6.28c0,0-.54-9.79-16.45-10.35Z"/><path class="cls-4" d="M437.39,136.93s9.13-11.68,1.25-20.15c-12.5,5.44-22.9,24.05-18.05,31s17.23,8.52,36.2-4.68c0,0-3.41-9.2-18.77-5Z"/><path class="cls-4" d="M291.09,58.18S305,53,302.74,41.68c-13.5-1.93-32.12,8.45-31.65,16.93s10.19,16.3,33.26,15c0,0,1.92-9.62-13.35-14.12Z"/><path class="cls-4" d="M334.25,92.63s13.88-5.22,11.56-16.56c-13.5-1.85-32.07,8.62-31.56,17.1s10.27,16.25,33.34,14.85c0,0,1.87-9.63-13.42-14Z"/><path class="cls-4" d="M376.76,87.48s13.5-6.14,10.44-17.29c-13.6-1-31.43,10.72-30.36,19.15s11.32,15.53,34.25,12.61c0,0,1.23-9.73-14.32-13.13Z"/><path class="cls-4" d="M404.52,80.84s12.62-7.79,8.16-18.47C399.07,63.14,382.86,77,385,85.21s13.2,14,35.57,8.17c0,0,0-9.81-15.87-11.21Z"/><path class="cls-4" d="M357.56,57.52s14.17-4.38,12.54-15.83c-13.37-2.67-32.54,6.66-32.54,15.16S346.84,73.69,370,73.69c0,0,2.45-9.5-12.55-14.84Z"/><path class="cls-4" d="M394,46.59s13.76-5.53,11.19-16.81C391.61,28.22,373.27,39.1,374,47.57s10.63,16,33.67,14.11c0,0,1.65-9.67-13.74-13.75Z"/><path class="cls-4" d="M425.89,44.36s10.79-10.18,4.27-19.73C417,28.13,403.9,45,407.65,52.59s15.75,11,36.49.82c0,0-2-9.6-17.81-7.78Z"/><g class="cls-5"><path class="cls-6" d="M296.92,145.3a10,10,0,0,0-1.44-.52,12.63,12.63,0,0,0-1.41-.35,4.68,4.68,0,0,1-1.93-1.05c-.6-.44-1.14-1-1.78-1.42s-1.21-.83-1.82-1.23a29.82,29.82,0,0,0-3.45-3.27c-.11-.16-.39-.62-.77-.07a13.67,13.67,0,0,0-3-3.6c-.47-.44-.52-1.27-.95-1.73a3.11,3.11,0,0,1-.84-1.27,5,5,0,0,0-.65-1.37c-.17-.06-.63-.11-.66-.24a2.45,2.45,0,0,0-1-1.73c-.51-.46-1.14-.88-1.64-1.39a4.13,4.13,0,0,1-.8-1.23c-.29.07-.3-.06-.45-.16a5.68,5.68,0,0,1,.13-2.93,8.24,8.24,0,0,1,.93,1.82c.48.91,1,1.8,1.14,1.7s-1.08-2.47-1-2.74a24.79,24.79,0,0,0,2.08,2.33c.61.56,1.07,1,1.42,1.24.72.55,1,.63.91.51s-1.48-1.5-2.58-2.58c-.11-.43-.85-.82-1.15-1.64a18.43,18.43,0,0,0,1.93,1.16c.86.82,1.16.48,1.67,1.57a4.07,4.07,0,0,0,1.26,1.37c.52.43,1.11.78,1.43,1.06a8.22,8.22,0,0,1-1.4-.23c-.48-.15-.92-.39-1-.7.21,1.57,2,.61,2.71,1.86a.88.88,0,0,0,.42.24l.14.53a5.2,5.2,0,0,0,1.22,1.17,6.86,6.86,0,0,1,1.2,1.15c-.08-.05.11-.34.07-.44A2,2,0,0,0,285,130a3.29,3.29,0,0,1-1-1c-.06-.21-.62-.12-.75-.29-.3-.31-.26-.82-.33-1.25a8.49,8.49,0,0,1,1.87,1.77c.15.1.55,0,.77,0l-.71-.89a19.38,19.38,0,0,0-1.92-1.29c-.68-.44-1.15-1-1-1.64l-.15,0a.13.13,0,0,0,0-.08.7.7,0,0,1-.09-.66,3.37,3.37,0,0,0,.2.49,4.19,4.19,0,0,1,1.73,1.44,7.1,7.1,0,0,0,1.47,1.63c.31.15.24.91.58,1a4.4,4.4,0,0,1,1.87,2.25,40,40,0,0,0,7.35,9.65l.27.06L295,141l.19.27a2.59,2.59,0,0,1,1.35.87c.15.28-.36-.07-.58.13a2.05,2.05,0,0,0,.2.14l-.12.28c.11-.05.11.14.15.26a24.1,24.1,0,0,1-3.37-1.1c0,.42.34.49.48.6a2.68,2.68,0,0,1,1.11.34,3.94,3.94,0,0,1,1.38.76,10.06,10.06,0,0,0,1.37.86,4.86,4.86,0,0,1,.46.53C297.81,145.18,297.28,145.53,296.92,145.3Zm-10-11.7c.09.34.14.72.22,1.1l.2.26a.59.59,0,0,0,.33.24c.29.54.61,1.08.95,1.59a4.85,4.85,0,0,0-.78-2.11c1.32,1.17,1.88,3.19,3.07,4.87a12.61,12.61,0,0,0,1.36,1,5.26,5.26,0,0,0,1.13.35,22.62,22.62,0,0,1-4.69-5.82c-1.23-2.07-2.2-4.07-3.38-5.78a11.88,11.88,0,0,0,.69,2.14C286.29,132.16,286.62,132.83,286.92,133.6Zm-.67,0c-.4-.43-.8-.84-1.22-1.23-1-1.18-2-2.52-3.39-2.75,1.14.9,2.3,1.77,3.39,2.75-.89-1.08-.33-.22,1,1.1A.35.35,0,0,1,286.25,133.57Z"/><path class="cls-6" d="M293.18,138.88c.43.69.91,1.36,1.41,2.07a13.89,13.89,0,0,0-.33-1.44,3.84,3.84,0,0,0-.88-1.19,8.22,8.22,0,0,1-.89-1,39.25,39.25,0,0,0-4.41-5.86.59.59,0,0,0-.41-.35C289.24,133.63,291.06,135.9,293.18,138.88Z"/><path class="cls-6" d="M285.82,127.86a3.52,3.52,0,0,1-.9-.81,2,2,0,0,0,.42,1.23c.4.39.81.76,1.17,1.17A4.88,4.88,0,0,0,285.82,127.86Z"/><path class="cls-6" d="M287.67,131.06a2,2,0,0,1-.18-.32,5.94,5.94,0,0,0-1-1.29c.19.61.36,1.25.6,1.88A.64.64,0,0,1,287.67,131.06Z"/></g><g class="cls-5"><path class="cls-7" d="M274.35,121.21a7.82,7.82,0,0,0,1.44.52,9.37,9.37,0,0,0,1.41.35,4.92,4.92,0,0,1,1.93,1c.6.45,1.14,1,1.78,1.43s1.2.83,1.82,1.23a30.7,30.7,0,0,0,3.45,3.27c.11.15.39.62.77.07a13.48,13.48,0,0,0,3,3.6c.47.44.52,1.27.95,1.73a3,3,0,0,1,.84,1.27,4.69,4.69,0,0,0,.65,1.37c.16.06.63.11.66.23a2.48,2.48,0,0,0,1,1.74c.52.46,1.15.88,1.65,1.38a4.17,4.17,0,0,1,.8,1.24c.29-.07.3.06.45.15a5.72,5.72,0,0,1-.14,2.94,8.77,8.77,0,0,1-.92-1.82c-.49-.92-1-1.8-1.14-1.7s1.08,2.46,1,2.74a22.47,22.47,0,0,0-2.08-2.33c-.61-.56-1.08-1-1.42-1.24-.72-.55-1-.64-.91-.51s1.48,1.5,2.58,2.58c.11.43.85.81,1.15,1.64a19.92,19.92,0,0,0-1.93-1.17c-.86-.81-1.16-.47-1.67-1.57a4.06,4.06,0,0,0-1.26-1.36c-.52-.44-1.11-.78-1.43-1.06a8,8,0,0,1,1.39.23c.49.15.93.39,1,.7-.21-1.57-2-.61-2.71-1.86a1.11,1.11,0,0,0-.42-.25c0-.16-.09-.32-.14-.52a5.4,5.4,0,0,0-1.22-1.17,6.86,6.86,0,0,1-1.2-1.15c.08,0-.11.34-.07.44a2,2,0,0,0,.83,1.13,3.29,3.29,0,0,1,1.05,1c.05.21.62.11.75.28.3.32.26.83.33,1.26a8.73,8.73,0,0,1-1.87-1.77c-.15-.1-.55,0-.77,0l.71.89a20,20,0,0,0,1.92,1.29c.68.44,1.15,1,1,1.63l.15,0a.16.16,0,0,0,0,.09.69.69,0,0,1,.09.66,3,3,0,0,0-.2-.49,4.19,4.19,0,0,1-1.73-1.44,6.9,6.9,0,0,0-1.47-1.63c-.31-.15-.25-.91-.58-1.05a4.34,4.34,0,0,1-1.87-2.24,40,40,0,0,0-7.35-9.65l-.27-.06.05.23-.19-.27a2.65,2.65,0,0,1-1.36-.87c-.14-.28.37.07.59-.13a2.05,2.05,0,0,0-.2-.14l.12-.28c-.11,0-.12-.14-.15-.26a23.56,23.56,0,0,1,3.36,1.1c0-.42-.33-.49-.47-.61a2.41,2.41,0,0,1-1.11-.34,3.91,3.91,0,0,1-1.38-.75,9.16,9.16,0,0,0-1.37-.86,4.86,4.86,0,0,1-.46-.53C273.46,121.34,274,121,274.35,121.21Zm10,11.71c-.09-.34-.13-.73-.22-1.1l-.19-.26a.54.54,0,0,0-.33-.24c-.29-.54-.61-1.08-1-1.59a4.77,4.77,0,0,0,.78,2.1c-1.33-1.17-1.88-3.18-3.07-4.86a11.53,11.53,0,0,0-1.37-1,5,5,0,0,0-1.12-.35,22.62,22.62,0,0,1,4.69,5.82c1.23,2.07,2.2,4.07,3.38,5.78a11.91,11.91,0,0,0-.7-2.14C285,134.36,284.65,133.68,284.34,132.92Zm.67,0c.41.43.81.84,1.22,1.23,1,1.18,2,2.52,3.4,2.74-1.14-.9-2.3-1.77-3.4-2.74.9,1.08.34.22-1-1.1C285.17,133.08,285.1,133,285,133Z"/><path class="cls-7" d="M278.09,127.64c-.43-.69-.91-1.36-1.41-2.07A14.51,14.51,0,0,0,277,127a4,4,0,0,0,.87,1.19,7,7,0,0,1,.9,1.05,39.25,39.25,0,0,0,4.41,5.86.59.59,0,0,0,.41.35C282,132.89,280.21,130.62,278.09,127.64Z"/><path class="cls-7" d="M285.45,138.66a3.52,3.52,0,0,1,.9.81,2,2,0,0,0-.42-1.23c-.4-.39-.81-.76-1.17-1.17A5,5,0,0,0,285.45,138.66Z"/><path class="cls-7" d="M283.6,135.46a1.92,1.92,0,0,1,.18.31,5.76,5.76,0,0,0,1,1.3c-.19-.61-.37-1.25-.6-1.88A.64.64,0,0,1,283.6,135.46Z"/></g><g class="cls-5"><path class="cls-8" d="M302.8,88.62a2.76,2.76,0,0,0,2,.78c.48,0,.74.06,1.11.06h1a7.32,7.32,0,0,0,1-.21c.24-.09-.22.23-1,.21a10.26,10.26,0,0,1-1,.08,6.44,6.44,0,0,0,2,.53,2.66,2.66,0,0,0,.83-.51,2.52,2.52,0,0,0,.77-2,6.86,6.86,0,0,0-.43-2.19,5.94,5.94,0,0,0-.56-1.08,10.86,10.86,0,0,1-.59-1c.18.21.35.43.52.65s.35.5.51.76a6.74,6.74,0,0,1,.72,1.66,3.59,3.59,0,0,1-.49,3.31l.17-.12a4,4,0,0,0,.53-3.6l-.21-.67a4,4,0,0,1,.21.67,6.21,6.21,0,0,1,.47,1.78,4.26,4.26,0,0,1-.34,1.17,1.53,1.53,0,0,1-.66.65,2.38,2.38,0,0,1-.4.38.71.71,0,0,1-.1.14h0a1.55,1.55,0,0,0,1.15-.48,3.35,3.35,0,0,0,1-1.86,5.33,5.33,0,0,0-.75-3.83,2.57,2.57,0,0,0-1-.73,3.15,3.15,0,0,1-.95-.48c-.18-.14-.22-.41-.45-.42a.53.53,0,0,1-.31.06c-.38-.26-.6-.84-1.08-.78-.14,0-.19-.44-.28-.86s-.21-.8-.29-.67c-.6.92-.14.23-.86-.06-.09,0-.46.33-.62.26-.55-.34-.8,0-1.46.17a3,3,0,0,1-1.08.25,1,1,0,0,0-.81.65s-.28.33-.47.63a4.72,4.72,0,0,0-.32.58,2.7,2.7,0,0,0-.66,1,1.11,1.11,0,0,1-.8.64c.29.9-.79,1.49-.89,2.32s-.68,1-1.21,1.8c-.09.23,0,.42-.19.56s.27.51.22.76l-.29,0-.05.38c0,.09-.11.09-.21.08s-.4,0-.51.15a3.78,3.78,0,0,0,0,1.5,4.26,4.26,0,0,0,1.12,1.12,1.34,1.34,0,0,1,.38-.1c.13.07.26.12.4.18.28-.12.51-.34.69-.42a10.76,10.76,0,0,0,2-1.33c.15-.16,0-.47.24-.79A6.66,6.66,0,0,1,301,90c-.07-.1.2-.25.45-.36l0-.06.34-.18c.28-.27,1-.33.61-.48l-.41-.21c-.06,0,.12-.11.14-.14-.26-.08-.57-.11-.85-.17.31-.27,1-.78,0-1.07.13-.27-.3-.48-.23-.81a7.36,7.36,0,0,1,.47-1.5,1.34,1.34,0,0,1,.33-.57l.13-.17a1.44,1.44,0,0,1,.94-.43,2.47,2.47,0,0,1,1,.15c.6.2,1.2.52,2.19,1a3.51,3.51,0,0,1,.7.42,3.11,3.11,0,0,1,.52.45,2.74,2.74,0,0,1,.64,1.27,1.6,1.6,0,0,1-.26,1.28,1.54,1.54,0,0,1-1.12.54,3.59,3.59,0,0,1-1.07-.06,3.44,3.44,0,0,1-.41-.11l-.54-.11c-.68-.15-1.16-.34-1.41-.4Z"/></g><g class="cls-5"><path class="cls-9" d="M302.77,89.67a4.31,4.31,0,0,0,2.09.34,15.92,15.92,0,0,0,2.38-.29,3.79,3.79,0,0,0,.9-.34c.17-.11-.18.23-.9.34-.31.08-.71.16-1.17.23a12.2,12.2,0,0,0,1.65.06,2.6,2.6,0,0,0,.81-.52,2.51,2.51,0,0,0,.67-2,6.14,6.14,0,0,0-.56-2,12.45,12.45,0,0,0-1.16-1.79,7.5,7.5,0,0,1,1.65,2.67,4.56,4.56,0,0,1,.25,1.61,2.61,2.61,0,0,1-.6,1.59l.14-.13a2.8,2.8,0,0,0,.56-1.73,5.24,5.24,0,0,0-.31-1.72l-.23-.55c.08.18.16.36.23.55a5.78,5.78,0,0,1,.45,1.54,3.66,3.66,0,0,1-.18,1.17,1.81,1.81,0,0,1-.52.74,2.4,2.4,0,0,1-.39.39.49.49,0,0,1-.12.13h0a1.52,1.52,0,0,0,.91-.62,3.13,3.13,0,0,0,.61-1.93,5.16,5.16,0,0,0-.91-3,15.17,15.17,0,0,0-1.42-1.1c-.16-.14-.24-.32-.41-.38s-.13,0-.22,0c-.34-.25-.6-.64-1-.69-.21-.06-.53-1.06-.67-.94-.37.44-.09.1-.68-.1-.08,0-.36.13-.49.09-.48-.19-.66,0-1.21.07-.78.27-1.09,0-1.64.64,0,0-.28.24-.48.47a3.81,3.81,0,0,0-.34.46c-.62.61-.6,1.18-1.2,1.55,0,.75-.71,1.46-.86,2.22a7.53,7.53,0,0,1-.75,1.7c-.06.2,0,.36-.11.49s.15.43.13.64l-.15,0v.31c0,.08-.05.06-.1,0s-.21,0-.26.1a3.65,3.65,0,0,0,.1,1.12,3.65,3.65,0,0,0,.74.91.5.5,0,0,1,.21,0,1.67,1.67,0,0,0,.28.18c.15,0,.26-.16.36-.19.32-.25.83-.27,1-.6.06-.1-.17-.4-.08-.65,0-.06.19-.06.33-.12-.1-.15,0-.23.18-.24l0-.08.19-.06c0-.41.25-.8.06-1.19a2.71,2.71,0,0,0-.2-.35c0-.06.06-.18.08-.22a1.92,1.92,0,0,0-.42-.16c.18-.36.64-1.1.15-1.22.11-.31-.09-.45,0-.8a9.51,9.51,0,0,1,.61-1.57,2.76,2.76,0,0,1,.46-.73,2.15,2.15,0,0,1,.19-.22,2.68,2.68,0,0,1,2.55-.55,7.56,7.56,0,0,1,2.55,1.31,4.72,4.72,0,0,1,1.92,2.8,2,2,0,0,1-.19,1.45,1.56,1.56,0,0,1-1.05.7,11.15,11.15,0,0,1-4.14.08Z"/></g><g class="cls-5"><path class="cls-8" d="M299.66,98.67c.5-.85-.16-1.92-.2-2.59a2.22,2.22,0,0,1-.1-.55c0-.14.08.11.1.55.05.17.12.36.2.58.14-.46.27-.91.39-1.27-.07-.12-.15-.25-.22-.39-.31-.6-.72-1.08-1.05-1.72-.11-.24-.49-.61-.57-.91a15.38,15.38,0,0,1,1.92,2.31.41.41,0,0,1,0-.11c-.23-.48-.48-1-.76-1.43a.58.58,0,0,1-.15-.25l.15.25c.16.17.38.28.57.45s.11.37.19.5a1.11,1.11,0,0,1,0,.48l.1.22s0,0,.07,0h0a2.45,2.45,0,0,0,.1-1.7,2.39,2.39,0,0,0-.65-1.36c-.29-.13-.9.18-1.18,0-.1-.05-.07-.24-.22-.17a.74.74,0,0,1-.22.14c-.19-.09-.16-.5-.46-.36-.14,0,.4-1.46.22-1.24-.64.86-.17.24-.39,0,0,0-.33.29-.37.21-.08-.35-.32-.06-.61-.06-.49.15-.32-.52-.89,0-.07,0-.7.3-.7.3-.37-.21-.71.26-.88-.53-.46.58-.85-.23-1.29-.11s-.59-.4-1.07-.81c-.12-.05-.21,0-.3-.12s-.19.3-.32.26l0-.29-.18-.06c-.05,0-.06-.11-.08-.2a.88.88,0,0,0-.15-.51,1.69,1.69,0,0,0-.7-.2,3.43,3.43,0,0,0-.41.67,3.47,3.47,0,0,1,.1.37l-.07.26c.09.28.23.56.29.75.33.75.52,1.53.88,2.19.1.19.3.19.5.52.06.11.13.37.23.64.06,0,.17.26.25.52l0,0,.13.37c.26.29.49,1,.5.58,0,0,0-.26,0-.41s.06.08.07.11c0-.27,0-.58-.06-.87.16.27.37.78.39-.26.11,0,.15-.42.29-.47a1.93,1.93,0,0,1,.66-.08.74.74,0,0,1,.39,0l.13,0a2.47,2.47,0,0,1,1.12.72,1.81,1.81,0,0,0,1.28.51A2.59,2.59,0,0,1,299,96.4a16.19,16.19,0,0,1,.29,2.35Z"/></g><g class="cls-5"><path class="cls-10" d="M300.26,79.69c-.27,1,.55,2.62.44,3.48a2.14,2.14,0,0,1,0,.72c0,.16,0-.17,0-.72a6.73,6.73,0,0,0-.15-.8,7.27,7.27,0,0,1-.58,1.35,4.28,4.28,0,0,1,.12.54,10.66,10.66,0,0,1,.31,2.4,5.32,5.32,0,0,1,0,1.26,31,31,0,0,0-.68-3.45l0,.11c.07.61.11,1.23.14,1.85a.9.9,0,0,1,0,.33v-.33a7.79,7.79,0,0,0-.32-.76c0-.17,0-.41,0-.59a1.48,1.48,0,0,1,.17-.5l0-.27s-.05,0-.06-.07h0a5,5,0,0,0-.81,3.2c.17.27.84.39,1,.71.06.11-.09.24.08.3a.52.52,0,0,1,.25,0c.1.22-.19.54.13.64.15.09-1.28.83-1,.79,1-.16.28,0,.27.29,0,0,.44.05.41.13-.18.32.19.3.39.55.45.32-.17.63.6.79.08,0,.7.45.7.45.09.49.69.54.16,1.19.77.11.36,1,.73,1.34s0,.8,0,1.46c0,.16.13.2.07.36s.38,0,.42.18l-.24.17.06.21s-.06.11-.14.16-.32.23-.36.4a2,2,0,0,0,.21.74,3.86,3.86,0,0,0,.84.08,2.21,2.21,0,0,1,.28-.26l.28,0c.2-.21.39-.46.52-.6.51-.65,1.14-1.17,1.54-1.8.12-.19,0-.39.15-.75.06-.1.27-.28.46-.49-.08-.07.12-.31.32-.49v-.06l.27-.28c.05-.44.42-1.06,0-1a2.44,2.44,0,0,0-.43.12c-.07,0,0-.12,0-.15-.24.12-.48.32-.73.47.11-.33.33-.94-.56-.39,0-.17-.48,0-.62-.11a4,4,0,0,1-.57-.76,1.41,1.41,0,0,1-.26-.5l-.08-.18c-.59-1.31,0-2.52-1.15-3.8a7.53,7.53,0,0,1-1.5-4.36,14.86,14.86,0,0,0-.56-3.34Z"/></g><g class="cls-5"><path class="cls-9" d="M300.51,98c.14-.58-.58-1.63-.78-2.18a2.1,2.1,0,0,1-.2-.47c0-.11.08.11.2.47.09.15.18.32.29.52,0-.34,0-.68,0-.93l-.25-.36c-.37-.55-.79-1-1.18-1.56-.14-.2-.52-.56-.65-.78a15.94,15.94,0,0,1,2,2.16l0-.09c-.27-.42-.56-.85-.88-1.26a1.2,1.2,0,0,1-.17-.21l.17.21c.16.17.34.29.52.47s.16.3.25.42a1.21,1.21,0,0,1,.11.37l.13.2a.1.1,0,0,1,.05,0h0a2.18,2.18,0,0,0-.33-1.27,3.55,3.55,0,0,0-.76-1.12c-.23-.14-.62-.06-.88-.22-.08,0-.1-.17-.2-.16s-.09,0-.14,0-.23-.36-.43-.33,0-.83-.06-.72c-.36.41-.09.11-.3-.07,0,0-.22.11-.27.06-.12-.22-.27-.08-.51-.14-.4,0-.34-.34-.76-.13l-.58.07c-.36-.15-.63.06-.85-.36-.39.26-.8-.17-1.19-.11s-.53-.19-.92-.37c-.1,0-.17,0-.24,0s-.18.16-.29.15v-.15h-.15s0,0,0-.1,0-.2-.09-.25a1.34,1.34,0,0,0-.52,0,2.4,2.4,0,0,0-.38.4,1.49,1.49,0,0,1,0,.18l-.09.16c0,.14.11.28.13.37A9.76,9.76,0,0,0,290.6,92c.06.1.25.06.4.2s0,.19.09.33c.08,0,.14.11.16.25h0l.06.19c.27.09.55.38.7.17a1.54,1.54,0,0,0,.12-.23s.09,0,.11,0a3.23,3.23,0,0,0,0-.44c.19.12.53.38.53-.14.14,0,.18-.21.34-.23a4,4,0,0,1,.76,0,1.84,1.84,0,0,1,.42.08l.16,0a4.27,4.27,0,0,1,1.31.68,5.06,5.06,0,0,0,1.31.71A4.5,4.5,0,0,1,299.47,96a20,20,0,0,1,.79,2Z"/></g><g class="cls-5"><path class="cls-9" d="M299.44,80.36c0,.69.87,2.19.94,3a3,3,0,0,1,.12.66c0,.14,0-.17-.12-.66-.05-.21-.13-.45-.23-.74a8,8,0,0,1-.09,1.11c.06.17.11.35.16.53a14.71,14.71,0,0,1,.51,2.37,8.29,8.29,0,0,1,.14,1.22,30.42,30.42,0,0,0-.83-3.45v.1c.15.6.25,1.21.35,1.83a3.06,3.06,0,0,1,.05.32l-.05-.32c-.07-.27-.18-.51-.28-.79s0-.4-.08-.58a1.78,1.78,0,0,1,0-.46l-.07-.27a.43.43,0,0,1,0-.07h0a8.57,8.57,0,0,0,0,3c.13.28.5.48.62.81,0,.11,0,.23.07.3a.26.26,0,0,1,.14.07c.07.22,0,.49.14.63s-.59.65-.44.64c.54,0,.15,0,.18.3,0,0,.24.1.23.17-.06.28.14.3.28.56s0,.55.43.81c0,0,.46.52.46.52.12.45.47.6.28,1.09.47.24.39.91.69,1.27s.19.66.26,1.14c0,.11.13.17.12.27s.25.1.31.21l-.13.08.08.15s0,.07-.06.09-.17.1-.17.21a1.77,1.77,0,0,0,.27.53,2.91,2.91,0,0,0,.59.19.72.72,0,0,1,.15-.11h.19a2.44,2.44,0,0,0,.28-.29c.25-.32.64-.52.83-.85.05-.1-.12-.28-.08-.5,0-.06.14-.13.25-.22-.1-.09,0-.21.12-.28l0,0,.15-.13c-.12-.34-.09-.81-.41-.9a.9.9,0,0,0-.31-.06c-.05,0,0-.11,0-.15a2.1,2.1,0,0,0-.39.21c0-.28-.08-.83-.52-.55-.08-.18-.3-.1-.43-.28a6.47,6.47,0,0,1-.53-.86,3.76,3.76,0,0,1-.25-.54l-.07-.19c-.56-1.38-.41-2.54-1.14-3.9a18.39,18.39,0,0,1-1.39-4.28,12.79,12.79,0,0,0-.95-2.83Z"/></g><g class="cls-5"><path class="cls-9" d="M367.29,130.89c.17-.93-.51-1.42-.62-1.95a1.1,1.1,0,0,1-.13-.4c0-.11.06.07.13.4a3.47,3.47,0,0,0,.23.37,11.29,11.29,0,0,1,.14-1.18,2,2,0,0,1-.19-.22,4,4,0,0,1-.74-1c-.06-.16-.29-.36-.28-.59.38.41.79.8,1.22,1.18v-.08c-.18-.27-.35-.55-.51-.83a.2.2,0,0,1-.08-.14l.08.14c.1.09.26.08.38.14s.06.24.12.31,0,.24,0,.38l.08.12h.06c.28-.72,0-2.19-.19-2.16s-.63.43-.8.4,0-.18-.11-.09a.94.94,0,0,1-.18.17c-.12,0,0-.38-.22-.2s.74-1.26.55-1c-.7.8-.19.22-.23.06s-.31.28-.31.22c.09-.27-.16,0-.34,0-.36.14.06-.39-.51,0a4,4,0,0,1-.55.19c-.09-.21-.55.09-.15-.56-.59.34-.22-.39-.44-.44s.1-.49.32-.92c0-.08,0-.07.05-.19s-.26.11-.23,0l.22-.19,0-.11a.59.59,0,0,1,.16-.15,3.36,3.36,0,0,0,.38-.36,1.65,1.65,0,0,0,.16-.4c-.14,0-.31.11-.49.19l-.29.23-.2.1-.62.5c-.63.53-1.29,1-1.85,1.48-.16.14-.13.29-.38.59-.09.09-.31.24-.54.41.05.06-.18.27-.4.42v.06l-.31.24c-.14.4-.49,1-.07,1a2.19,2.19,0,0,0,.42-.15c.07,0,0,.12,0,.15.21-.15.44-.37.66-.56-.11.31-.23.91.5.17.05.12.41-.2.53-.15a2.72,2.72,0,0,1,.54.27c.13,0,.19.11.27.18l.09.07c.65.45.62,1.48,1.73,1.32a1.75,1.75,0,0,1,2,1.12c.35.71.54,1.54.67,1.74Z"/></g><g class="cls-5"><path class="cls-9" d="M375.34,128.42c.08,0,.13,0-.17.11-.05,0-.16.1-.25.18s0,0,0-.06a.37.37,0,0,0-.07-.25c-.2-.36-.83-.81-1-1.17a2.06,2.06,0,0,1-.44-.6c-.07-.15.13.12.44.6.17.17.37.36.62.57a8.86,8.86,0,0,1-.36-1.44l-.43-.38a9.9,9.9,0,0,1-1.71-1.83c-.16-.26-.63-.72-.71-1.06a21.79,21.79,0,0,0,2.6,2.49.49.49,0,0,1,0-.11,17,17,0,0,1-1.23-1.46.67.67,0,0,1-.2-.26l.2.26a6.15,6.15,0,0,0,.71.45c.13.13.21.37.35.5s.11.34.17.51l.2.2.09,0h0a3.6,3.6,0,0,0-.43-1.77,3.4,3.4,0,0,0-.8-1.34c-.29-.11-.92.15-1.22,0-.11-.07-.06-.25-.22-.21a.62.62,0,0,1-.24.1c-.21-.13-.12-.55-.46-.47-.17,0,.68-1.37.46-1.18-.82.68-.23.18-.37-.1,0,0-.4.18-.42.1,0-.37-.3-.16-.59-.28-.54-.07-.13-.61-.88-.41a7.6,7.6,0,0,1-.82-.09c-.28-.4-.85-.22-.62-1-.75.19-.67-.77-1.11-1s-.26-.74-.32-1.37c-.06-.14-.16-.15-.14-.31s-.36.07-.42-.06l.2-.22-.09-.18s0-.12.11-.19a1,1,0,0,0,.28-.45,2.12,2.12,0,0,0-.27-.65,5.16,5.16,0,0,0-.76.11,1.85,1.85,0,0,1-.24.29l-.25.1c-.17.24-.32.51-.44.67-.42.7-1,1.29-1.32,2-.09.2.09.4,0,.79a4.39,4.39,0,0,1-.4.54c.12.08,0,.35-.22.54l0,.08-.23.31c.09.47,0,1.25.43,1.13a2.59,2.59,0,0,0,.45-.18c.08,0,0,.15.05.19a7.33,7.33,0,0,0,.59-.64c0,.38.11,1.11.77.31.13.18.48-.16.68,0a6.49,6.49,0,0,1,.91.58,2.14,2.14,0,0,1,.49.4l.17.15c1.17,1,1.42,2.45,3.14,3a9.14,9.14,0,0,1,3.92,2.85c.27.27.53.55.75.81a1.06,1.06,0,0,1,.27.57s-.15.24.14-.09a3.17,3.17,0,0,1,.46-.4,1,1,0,0,1,.31-.16S375.38,128.43,375.34,128.42Z"/></g><g class="cls-5"><path class="cls-11" d="M379.26,128.13c-.5-.6-2.36-1.6-3-2.34a3.61,3.61,0,0,1-.56-.6c-.1-.14.15.16.56.6.2.19.45.38.74.61a8.58,8.58,0,0,1-.69-1.12c-.18-.14-.34-.3-.51-.46a13.57,13.57,0,0,1-2-2.22,9.45,9.45,0,0,1-.83-1.26,19.17,19.17,0,0,0,2.9,3.26.36.36,0,0,1-.07-.1,16.46,16.46,0,0,1-1.5-1.73,1.83,1.83,0,0,1-.24-.31l.24.31a8.54,8.54,0,0,0,.75.71c.15.16.29.39.45.55a2.88,2.88,0,0,1,.3.47l.24.24.1.05h0a6.53,6.53,0,0,0-.89-1.59,15.43,15.43,0,0,0-1.06-1.52c-.27-.25-.73-.32-1-.63-.1-.1-.1-.25-.22-.29a.22.22,0,0,1-.17,0c-.19-.21-.19-.55-.44-.64s.28-.88.15-.82c-.51.19-.15,0-.3-.28,0,0-.27,0-.3-.13,0-.31-.24-.29-.47-.55-.4-.34-.17-.61-.69-.83-.06,0-.6-.53-.6-.53-.23-.5-.63-.67-.52-1.23-.53-.28-.52-1-.84-1.49s-.2-.76-.24-1.28c0-.14-.11-.21-.09-.32s-.25-.17-.3-.3l.15,0-.06-.18s0-.06.08-.07.19-.06.21-.17a2.93,2.93,0,0,0-.15-.6,4.49,4.49,0,0,0-.52-.37l-.19.06-.18-.09c-.14,0-.27.15-.36.18-.35.22-.81.25-1.09.5-.07.08.07.37,0,.59,0,.06-.19.07-.33.12.1.16,0,.25-.18.26l0,.08-.19.07c.1.49.07,1.11.46,1.4a1.37,1.37,0,0,0,.36.21c.06,0,0,.18.06.22a1.3,1.3,0,0,0,.42-.14c.05.37.19,1.13.63.86.12.25.36.18.52.42s.49.72.74,1.13a4.46,4.46,0,0,1,.4.66l.15.23c1,1.63,1.4,3.09,2.88,4.4s2.78,2.76,4,3.92a14.79,14.79,0,0,0,2.86,2.23Z"/></g><g class="cls-5"><path class="cls-11" d="M374.24,114.5a3.45,3.45,0,0,1,1.53,1.42,1.51,1.51,0,0,1,.21.43c0,.1-.06-.11-.21-.43a3.34,3.34,0,0,0-.33-.44,2.73,2.73,0,0,1,.11.82,4,4,0,0,1,.22.34c.3.52.64,1,.91,1.53a8.46,8.46,0,0,1,.44.77c-.51-.69-1-1.38-1.5-2.12l0,.08c.21.42.42.82.66,1.21a.67.67,0,0,1,.12.2l-.12-.2a6.08,6.08,0,0,0-.44-.44c-.07-.12-.1-.29-.17-.41a1,1,0,0,1-.05-.36l-.1-.18a.1.1,0,0,0-.05,0h0a2.35,2.35,0,0,0,.11,1.23,2.09,2.09,0,0,0,.56,1c.2.13.57.12.78.29s.07.14.16.15a.19.19,0,0,1,.13,0c.14.11.18.28.35.33s-.05.43,0,.4c.26-.08.07,0,.23.13s.15,0,.18.08.17.16.29.32.14.34.32.54c0,0,.23.39.24.38.07.34.32.43.14.81.33.16.2.66.4.9s.07.46.08.75c0,.07.1.1.08.16s.2.08.24.14l-.1,0,.06.08s0,0,0,0-.13,0-.12.08a.8.8,0,0,0,.24.25l.52.13h.08l.13.05h.09c.07,0,.19.07.2,0a1,1,0,0,1,0-.32s.05,0,.07,0,.07-.15.09-.11l0-.07h.05a2.3,2.3,0,0,0,.36-1.14.44.44,0,0,0-.11-.2s0-.13,0-.16a1.41,1.41,0,0,0-.32.09c.07-.27.15-.81-.27-.59,0-.17-.25-.1-.35-.25a4.45,4.45,0,0,0-.57-.61c-.14-.11-.23-.22-.35-.33l-.12-.12a3.12,3.12,0,0,1-.84-1.3,4.48,4.48,0,0,0-.59-1.44,17.54,17.54,0,0,1-2-2.6,2.62,2.62,0,0,0-1.58-1.26Z"/></g><g class="cls-5"><path class="cls-9" d="M380.32,110.21c-.86.35-.77,1.07-1,1.52a1.38,1.38,0,0,1-.11.39c-.05.1,0-.09.11-.39,0-.11,0-.24.06-.38-.3.29-.59.6-.82.85l.05.3c.08.45.28.83.37,1.33,0,.19.24.49.21.74a8,8,0,0,1-.94-1.84.3.3,0,0,1,0,.08,8.07,8.07,0,0,0,.23,1.15.32.32,0,0,1,.06.2l-.06-.2a4.3,4.3,0,0,0-.37-.37c0-.11,0-.29,0-.4s.09-.25.15-.38v-.17a.08.08,0,0,1-.06,0h0a2.06,2.06,0,0,0-.61,1.35c-.06.56.06,1.09.2,1.15s.81-.16,1-.06,0,.21.14.14a.75.75,0,0,1,.21-.12c.13.06,0,.43.27.29.13,0-.73,1.29-.52,1.08.74-.76.2-.21.29,0,0,0,.33-.26.34-.19-.05.3.21,0,.41,0,.38-.13,0,.44.58,0,.06,0,.56-.22.56-.22.12.21.55-.14.24.56.55-.4.27.36.48.38s-.09.47-.33.88c0,.07,0,0-.07.17s.24-.14.2-.07l-.22.19-.05.08a1.67,1.67,0,0,1-.17.15l-.4.34a3.37,3.37,0,0,1-.27.27l.41-.26.32-.21.19-.1.68-.41c.69-.44,1.42-.78,2.06-1.18.18-.12.15-.29.43-.57a6.13,6.13,0,0,1,.59-.34c-.06-.09.19-.28.44-.38v-.08l.34-.2c.11-.48.37-1.27-.14-1.28a1.51,1.51,0,0,0-.48.1c-.07,0,0-.16,0-.19a5,5,0,0,0-.65.58c.05-.36.05-1-.61-.23-.08-.12-.41.23-.55.18a3.69,3.69,0,0,1-.6-.23.61.61,0,0,1-.3-.15l-.09-.06a1.77,1.77,0,0,1-.65-.76c-.16-.25-.31-.39-.81-.34a1,1,0,0,1-1.13-1.4,3.34,3.34,0,0,1,.81-1.32Z"/></g><g class="cls-5"><path class="cls-12" d="M367.76,129.94c0-.51-.71-.94-.91-1.3a.92.92,0,0,1-.2-.28c0-.07.07.06.2.28l.27.27a5.93,5.93,0,0,1-.13-.7l-.21-.18a7.39,7.39,0,0,1-.87-.81c-.09-.12-.33-.31-.38-.47.43.38.87.74,1.34,1.08l0,0c-.22-.22-.43-.44-.63-.67a.57.57,0,0,1-.11-.11l.11.11a2.42,2.42,0,0,0,.36.19c.07,0,.11.17.18.23a.57.57,0,0,1,.09.25l.1.09H367a2.43,2.43,0,0,0-.7-1.48c-.15,0-.44.13-.59.06s0-.11-.12-.08a.41.41,0,0,1-.11.07c-.1,0-.07-.26-.23-.2s.28-.7.18-.59c-.37.38-.1.1-.18,0s-.18.11-.19.07-.14,0-.28-.09-.07-.28-.42-.14a2.4,2.4,0,0,1-.38,0c-.13-.18-.41-.08-.27-.46-.36.1-.27-.36-.46-.46s-.05-.35,0-.63c0-.06-.05-.07,0-.14s-.16,0-.17,0l.12-.09v-.08s0,0,.08-.07a.64.64,0,0,0,.18-.19.9.9,0,0,0,0-.28h-.32a.65.65,0,0,1-.15.1l-.12,0-.32.24c-.31.27-.67.46-.95.72-.07.07,0,.19-.12.36a1.73,1.73,0,0,1-.28.2c.05.06-.07.17-.19.23v0l-.16.11c0,.27-.12.68.16.7a.57.57,0,0,0,.25,0c.05,0,0,.09,0,.11a2.63,2.63,0,0,0,.35-.26c0,.2,0,.6.39.23.07.1.26,0,.36,0a5.45,5.45,0,0,1,.45.32,1,1,0,0,1,.25.2l.09.07c.6.47.79,1.16,1.64,1.3a3.11,3.11,0,0,1,1.88,1.15c.45.52.77,1,.91,1.18Z"/></g><g class="cls-5"><path class="cls-12" d="M375.34,128.42a.09.09,0,0,0,.06,0s.07,0,.07-.07-.08-.29-.25-.46c-.35-.33-.94-.69-1.2-1a3.52,3.52,0,0,1-.51-.48c-.08-.11.15.12.51.48l.64.47c-.24-.36-.47-.7-.61-1l-.45-.34a12.39,12.39,0,0,1-1.86-1.68,6.89,6.89,0,0,1-.83-1,22.38,22.38,0,0,0,2.74,2.42l-.06-.08c-.49-.42-.95-.86-1.4-1.32a1.7,1.7,0,0,1-.22-.24l.22.24c.22.18.46.32.71.5s.27.31.42.43a1.8,1.8,0,0,1,.27.39l.22.18.09,0h0a4.17,4.17,0,0,0-.83-1.32,8,8,0,0,0-1-1.19c-.27-.16-.69-.13-1-.35-.09-.07-.11-.2-.22-.21a.27.27,0,0,1-.16,0c-.19-.15-.23-.45-.46-.47s.16-.86,0-.78c-.45.31-.12.09-.31-.16,0,0-.25,0-.29,0-.08-.27-.26-.19-.51-.36-.42-.18-.25-.49-.76-.52a6.88,6.88,0,0,1-.64-.27c-.31-.36-.69-.37-.71-.89-.53,0-.7-.71-1.09-1s-.38-.56-.56-1c-.07-.1-.15-.14-.17-.23s-.27,0-.35-.13l.11-.1-.1-.13s0-.07,0-.1.15-.14.13-.24a2.05,2.05,0,0,0-.33-.46l-.58-.07a.93.93,0,0,1-.14.14h-.18c-.1.11-.17.25-.24.32-.21.36-.57.6-.72,1,0,.1.17.27.17.5,0,.06-.14.14-.23.25.12.08.05.22-.07.3l0,.06-.13.14c.22.34.34.86.73.91a1.31,1.31,0,0,0,.35,0c.06,0,.08.12.1.15a1.87,1.87,0,0,0,.33-.3c.12.28.41.84.73.44.15.16.34,0,.54.15a10.29,10.29,0,0,1,.87.67,3.13,3.13,0,0,1,.47.42l.17.15c1.16,1.06,1.68,2.21,3.11,3a27.83,27.83,0,0,1,3.75,2.83l.79.63a2.69,2.69,0,0,1,.48.49c.1.14.11.25.08.28l.09,0,.09,0,.07,0S375.38,128.43,375.34,128.42Z"/></g><g class="cls-5"><path class="cls-12" d="M379.28,110.44c-.41.29-.23,1-.26,1.44a1.42,1.42,0,0,1,0,.34c0,.08,0-.08,0-.34,0-.11,0-.23,0-.37-.11.23-.22.46-.32.65l.09.28c.14.41.35.77.52,1.18a5.81,5.81,0,0,1,.31.61,7.41,7.41,0,0,1-1-1.66v.06a8.94,8.94,0,0,0,.37,1,.45.45,0,0,1,.08.17l-.08-.17c-.08-.13-.2-.23-.3-.36s-.05-.24-.09-.33a.74.74,0,0,1,0-.29l0-.15,0,0h0a1.39,1.39,0,0,0-.12,1,1.8,1.8,0,0,0,.33.89c.16.12.5,0,.66.16s0,.14.12.12a.2.2,0,0,1,.13,0c.11.07.08.29.25.25s-.27.73-.16.63c.38-.37.1-.1.2.05s.2-.11.22-.06.16.07.32.11.12.3.47.14a3,3,0,0,1,.4,0c.16.17.43,0,.34.44.36-.14.33.33.52.41s.07.34,0,.61c0,0,0,.06,0,.13s.15,0,.15,0l-.11.09v.07a.29.29,0,0,1-.08.08.71.71,0,0,0-.2.18,1.5,1.5,0,0,0-.06.22l.27,0,.16-.09.12,0,.34-.2c.35-.22.74-.35,1-.56.09-.06,0-.2.16-.37a1.49,1.49,0,0,1,.31-.15c-.06-.08.07-.18.2-.22v0l.17-.09c0-.32.06-.8-.26-.88a.89.89,0,0,0-.29,0c-.05,0,0-.1,0-.12a1.76,1.76,0,0,0-.34.27c0-.23-.14-.66-.47-.26-.08-.1-.26.07-.37,0a5.36,5.36,0,0,1-.52-.28,1.31,1.31,0,0,1-.28-.17l-.09-.06c-.68-.43-.81-1-1.54-1.23a1.79,1.79,0,0,1-1.18-1.62,3.78,3.78,0,0,1,.18-1.31Z"/></g><g class="cls-5"><path class="cls-11" d="M378.84,106.07a1.26,1.26,0,0,1,1.1.45.64.64,0,0,1,.17.23c0,.07-.06,0-.17-.23a1.27,1.27,0,0,0-.24-.2,2,2,0,0,1,.09.59,1.29,1.29,0,0,1,.16.17c.23.26.49.46.7.73.08.09.3.24.36.36a6.62,6.62,0,0,1-1.16-.89v0a4.34,4.34,0,0,0,.51.61.28.28,0,0,1,.1.09l-.1-.09a3.24,3.24,0,0,0-.33-.13c-.06,0-.08-.17-.14-.23a.82.82,0,0,1,0-.25l-.07-.1h0a1.5,1.5,0,0,0,.1.88c.12.29.34.45.44.45s.43-.18.59-.16.06.07.13,0a.31.31,0,0,1,.09-.07c.11,0,.15.13.28.07s0,.34.05.27.05,0,.18,0,.11,0,.14,0,.13,0,.24.08.12.18.27.22a2.12,2.12,0,0,0,.21.15c.07.2.28.13.16.49.27-.06.21.34.39.4s.09.26.12.45.09,0,.08.07.17-.06.2,0l-.07.06,0,0s0,0,0,0-.1.08-.09.11a.33.33,0,0,0,.21,0,4.49,4.49,0,0,1,.43-.18l.06,0,.11,0,.07,0c.06-.06.16,0,.16-.09a.48.48,0,0,1,0-.21s0,0,.06,0,0-.13.06-.12v0l0,0a1.9,1.9,0,0,0,.17-.92.14.14,0,0,0-.11-.08s0-.09,0-.11a2.14,2.14,0,0,0-.25.21c0-.21,0-.61-.26-.25,0-.09-.2.06-.29,0a1.93,1.93,0,0,0-.49-.13,2.11,2.11,0,0,1-.29-.06l-.11,0a1,1,0,0,1-.71-.5c-.15-.25-.23-.6-.51-.75a4.21,4.21,0,0,1-1.51-1A1.05,1.05,0,0,0,379,106Z"/></g><g class="cls-5"><path class="cls-11" d="M367.92,58.33c-.2.13-.43.16-.45,0a.21.21,0,0,1,0-.14s0,0,0,.14,0,0,.07.06c0-.16,0-.32.06-.46a.27.27,0,0,1-.07-.08,1.83,1.83,0,0,0-.37-.29s-.16,0-.22-.1a.77.77,0,0,1,.65.18v0a.72.72,0,0,0-.31-.29l-.06,0,.06,0c.06,0,.13-.05.19-.05s.06.11.09.14,0,.13,0,.2l0,.06h0a1.12,1.12,0,0,0-.09-.73c-.11-.2-.3-.23-.35-.18s-.18.39-.26.46,0,0-.06.05l0,.1c0,.06-.09,0-.12.12s-.11-.27-.11-.18c0,.27,0,.07-.05.14s0,.1,0,.1-.05,0-.08.09l-.24.24v0c0,.11-.07.15,0,.24s.07.15.08.14c0,.17.15.08,0,.4.22-.11.17.26.35.24s.16.18.32.3.08,0,.11,0,.08-.16.12-.17v.1l.06,0s0,0,0,0,0,.13.05.14a.4.4,0,0,0,.19-.21,1.59,1.59,0,0,0-.07-.46l0-.06,0-.1-.05-.07c-.06-.06-.08-.12-.11-.14a.19.19,0,0,1-.12-.07l0-.06A.6.6,0,0,1,367,58h0s0,0,0-.08V57.9h0l0-.08h0a.17.17,0,0,1,0,.06l-.06,0,0,0c-.13.06-.16,0-.13,0l-.21.21c.13,0,.25.39.34.33.19-.22.38,0,.47.1s.29,0,.47-.15Z"/></g><g class="cls-5"><path class="cls-11" d="M374.67,60.14c.27.08.5,0,.7,0l.19,0c.05,0-.05,0-.19,0h-.17a1.22,1.22,0,0,0,.39.35,1.27,1.27,0,0,0,.23-.08.82.82,0,0,0,.21-1.13,1.84,1.84,0,0,0-.48-.44,1.13,1.13,0,0,1,.73.67.87.87,0,0,1-.28,1h.06a1,1,0,0,0,.32-1.2,1.24,1.24,0,0,1-.1-.2,1.24,1.24,0,0,1,.1.2,1.18,1.18,0,0,1,.22.62,1.1,1.1,0,0,1-.22.43.48.48,0,0,1-.32.15l-.15.08s0,0,0,0h0a.54.54,0,0,0,.49,0A1.13,1.13,0,0,0,377,60a1.48,1.48,0,0,0-.14-1,1,1,0,0,0-.38-.4c-.28-.12-.62,0-.86,0-.08,0-.13,0-.21,0s0,.06-.08.1-.31,0-.4.12-.41-.13-.39,0,0,.12-.05.18l-.28.18.16.4,0,0s.12,0,.13,0,.1.08.17.16,0,.19.15.29a1.57,1.57,0,0,0,.12.19c0,.2.18.21-.06.48.26,0,0,.36.18.47s0,.26-.06.44.07,0,.05.08.17,0,.19,0l-.09,0,0,0-.05,0c-.06,0-.12.05-.13.08a.28.28,0,0,0,.19.09l.45,0h.19l.08,0c.07,0,.16,0,.18,0a.36.36,0,0,1,.06-.2s0,0,.07,0,.07-.11.09-.09l0,0h0c.24-.28.51-.6.51-.75a.12.12,0,0,0-.07-.1s0-.07.05-.09a1.38,1.38,0,0,0-.3.11c.11-.17.29-.5-.13-.28,0-.09-.21,0-.26-.08a1.78,1.78,0,0,0-.38-.26,1.38,1.38,0,0,1-.24-.14l-.08,0a.78.78,0,0,1-.4-.77l-.09.45c.15,0,.11.24.19.2s.28,0,.24.09-.07,0-.14,0a.17.17,0,0,0-.19,0s-.2.17-.29.16A.34.34,0,0,1,374.67,60.14Z"/></g><g class="cls-5"><path class="cls-11" d="M370.42,55.36c.27,0,.45,0,.58.09a.45.45,0,0,1,.14.1s-.05,0-.14-.1l-.12-.05a1.68,1.68,0,0,0,.18.46l.18,0a.94.94,0,0,0,.8-.38,1.48,1.48,0,0,0,.18-.51,1,1,0,0,1-.23.78.91.91,0,0,1-.68.32l.05,0a.94.94,0,0,0,.82-.33,1.71,1.71,0,0,0,.11-.14.76.76,0,0,1-.11.14,1.44,1.44,0,0,1-.27.39,1.12,1.12,0,0,1-.31.05.52.52,0,0,1-.24-.11l-.12,0,0,0h0a.81.81,0,0,0,.93.33,1.07,1.07,0,0,0,.75-.87c0-.28-.32-.5-.41-.67s0-.12-.07-.15a.25.25,0,0,1-.12,0c-.08-.08-.06-.2-.2-.22s.13-.32,0-.28-.06,0-.18,0-.12,0-.14,0-.13,0-.22-.08-.13-.15-.29-.14-.24,0-.24,0-.2,0-.29,0l-.2.15a.42.42,0,0,1-.25.05c.14.22-.24.34-.18.56s-.13.26-.2.47c0,.05.06.08,0,.12s.17,0,.19.09l-.09,0,0,.05s0,0-.05,0-.13,0-.13.07a.32.32,0,0,0,.22.16,3.16,3.16,0,0,0,.47-.06l.06,0,.11,0,.07-.05c.07,0,.15-.06.16-.09a.25.25,0,0,1,0-.16s0,0,.06,0,.08-.1.09-.09l0,0,0,0a1.74,1.74,0,0,1,.4-.3l.1-.05h0l-.11,0,.11,0h-.1a1.3,1.3,0,0,1-.19,0,1.08,1.08,0,0,1-.18-.16v0l-.36.27a.25.25,0,0,1,0-.13l0,0a.17.17,0,0,1,.32.11c0,.18-.18.34-.13.35s.13.12.05.14a.33.33,0,0,1-.24,0c-.07,0-.1,0-.17,0a.87.87,0,0,1-.29.14Z"/></g><g class="cls-5"><path class="cls-11" d="M370.39,64.24a1.06,1.06,0,0,1-.12-1,1.28,1.28,0,0,1,.77-.84c.2-.07.38-.15.48,0s0,0-.06,0a1.64,1.64,0,0,0-.42.06,1.36,1.36,0,0,0-.46.34,1,1,0,0,1,.78,0,.23.23,0,0,1,.31,0,2,2,0,0,1,.72,1.22,1.45,1.45,0,0,1,0,.59,1.76,1.76,0,0,0-.64-1.59s0,0,.05.06a1.81,1.81,0,0,1,.49.83.4.4,0,0,1,0,.15l0-.15a1.24,1.24,0,0,0-.16-.3,1.83,1.83,0,0,0-.16-.26l-.17-.27-.12-.11h0a5.67,5.67,0,0,1,.46.85,2,2,0,0,1,.09.46.54.54,0,0,1,.1.3s0,0,0,.1,0,0,0,.08-.09.09-.1.22-.15-.42-.13-.34c0,.28,0,.07,0,0s0,.06,0,0-.05,0-.12-.1-.13-.19-.17-.28a2.07,2.07,0,0,1-.09-.24,1.7,1.7,0,0,0-.16-.27,1.16,1.16,0,0,0-.25-.36l-.25-.23-.07-.11s-.05-.12-.05,0a.29.29,0,0,0-.16,0,.25.25,0,0,1-.11,0c-.07,0-.16-.08-.31-.28,0,.14-.36.33-.45.71s-.29.34-.51.7c0,.12,0,.23,0,.3s.2.3.24.41l-.13,0,.1.17s0,0-.05,0-.17,0-.14,0,0,.19.07.3v.07h.1l0,0s.05.06.09.09a4.47,4.47,0,0,0,.52.17h.07l.13,0h.09c.08,0,.18,0,.2,0a.57.57,0,0,1,0-.28s.05,0,.07,0,.08-.13.1-.1l0-.06h.05a1.3,1.3,0,0,1,.18-.23c.1-.1.11-.13.13-.12s.07,0,0,0a.31.31,0,0,1-.11,0h0l-.23-.14c.08,0,.21.07-.05-.25,0,0-.1-.21-.09-.3s.09-.1.19,0,.11.1.15.1,0,.06.06.1a2.52,2.52,0,0,1,.27.3.88.88,0,0,1,.08.14.86.86,0,0,1,.11.3l.11.42c.05.15.08.43.16.33a1.11,1.11,0,0,1,.34,0l.11,0,.13-.14a2.21,2.21,0,0,0,.45-.8,1.89,1.89,0,0,0,0-1.35,2.5,2.5,0,0,0-.58-.9,3,3,0,0,0-.63-.56,2.21,2.21,0,0,0-.34-.18,1.18,1.18,0,0,0-.41.12,1.6,1.6,0,0,0-.92,1.12,1,1,0,0,0,.19.83Z"/></g><g class="cls-5"><path class="cls-11" d="M379.33,63.9A2.61,2.61,0,0,1,380.67,65h0l-.34.53h-.05l0,0-.09,0-.14-.11s0,0,.06,0l.11.08.07.06,0,0h0l.34-.53h0a2.66,2.66,0,0,0-.29-.35,1.87,1.87,0,0,1,.07.56v0h0a.7.7,0,0,1-.08-.14l-.32-.15a5.56,5.56,0,0,0-1.2-.37v.59a1,1,0,0,0,.39-.07c.3-.08.59-.56.67-.8a1.19,1.19,0,0,1-1.05,1v-.87a3.89,3.89,0,0,1,1.21.29l-.05-.06a3.58,3.58,0,0,0-1.14-.39l0,1.2h.07l.38-.09a1.24,1.24,0,0,1-.38.09h-.07l0-1.21c.17,0,.34,0,.53,0s.25.14.37.18.16.15.24.24l.16.09h.06a1.84,1.84,0,0,0-1.32-1.06l0,2.35a1.52,1.52,0,0,0,1.18-.56,1.8,1.8,0,0,0,.09-1.22c0-.12.05-.22,0-.32s-.07,0-.11-.09c-.07-.21-.11-.45-.3-.52s0-.5-.13-.45-.06,0-.29-.07a1.62,1.62,0,0,1-.21,0c-.15-.1-.23-.06-.42-.09s-.33-.15-.6-.1c0,0-.48.08-.48.13a.67.67,0,0,0-.39.32,1.25,1.25,0,0,1-.34.38,2,2,0,0,1,.09.61.82.82,0,0,0,.25.58c.29.21.27.44.46.7.06.06.13,0,.16.09s.2-.06.26,0l-.06.08.09,0s0,0,0,.06-.08.1-.05.13h0l.23-1.76a.65.65,0,0,0-.22.17q-.09.27-.18.48a.17.17,0,0,1,0,.07l-.05.12s0,.06,0,.09-.08.16,0,.19a.69.69,0,0,1,.26.08s0,.05,0,.07.12.1.08.11l.06,0,0,0a2.56,2.56,0,0,1,.3.28l.29.21,1,.68L379,63.92a.63.63,0,0,0-.11-.27.11.11,0,0,0-.12,0s0-.09,0-.11a2.73,2.73,0,0,0-.2.25c0-.23.2-.46-.17-.15,0-.05-.16.07-.19.06a.51.51,0,0,1-.22-.16.19.19,0,0,1-.07-.14.07.07,0,0,1,0-.06c0-.13.28-.17.45-.14a.7.7,0,0,1,.44.25.65.65,0,0,1,.15.41c0,.14-.07.15,0,.25s0,.32-.12.32v1a4.29,4.29,0,0,1,1.48.44l2.11,1-1.48-1.94a2.54,2.54,0,0,0-.73-.68,1.44,1.44,0,0,0-.63-.21Z"/></g><g class="cls-5"><path class="cls-11" d="M335.83,157.61a0,0,0,0,0-.05,0s0,0,0,0,0,.17,0,.16h0l-.07-.09c-.08-.07-.1,0,0-.06v-.23l0,0s0,.06.06.1-.06,0-.06-.1v0l0,.21s-.08,0-.05,0,.05,0,0,0l-.07-.08a.44.44,0,0,0,.06.29.71.71,0,0,0,.21,0,.77.77,0,0,0,.64-.75c0-.19-.18-.47-.28-.59a.84.84,0,0,1-.25,1.53l.06,0a.94.94,0,0,0,.75-.73v-.24a1,1,0,0,1,0,.24,1.47,1.47,0,0,1-.12.55c-.08.1-.23.14-.32.2a.55.55,0,0,1-.31,0h-.15l0,0h0c.08.19.69.34,1.14,0a1.16,1.16,0,0,0,.39-.81,1.1,1.1,0,0,0-.17-.68c-.23-.28-.66-.25-.88-.3s-.12-.09-.2,0a.23.23,0,0,1-.09.08c-.13,0-.24-.07-.34,0s-.25-.26-.26-.17c0,.28,0,.07-.14.17s0,.12-.07.13-.11.11-.19.21-.21.12-.23.29c0,0-.08.25-.06.25-.14.18.05.26-.26.47.24.11,0,.46.22.61s.12.15.15.25l.16.1a.86.86,0,0,0,.56.24c.15,0,.21-.12.29-.12s.11-.25.16-.31l.05.09.08-.11s0,0,.05,0,.08.11.13.07a.68.68,0,0,0,.1-.49,1.15,1.15,0,0,0-.42-.45h-.07l-.13,0-.09,0c-.07,0-.15,0-.16.07a.12.12,0,0,1-.09.12h-.06a.18.18,0,0,1-.13,0s0,0,0,.05a.33.33,0,0,1,0,.06v0h0s0,0,0,0l.41-.37.07-.06h0l-.08,0a.71.71,0,0,1-.23,0,.26.26,0,0,1-.14-.07l0,0c-.16-.16,0-.31.12-.24a.34.34,0,0,1,.14.18c0,.08,0,.13,0,0a.11.11,0,0,1,0,0h0l.07,0h0c-.08,0-.08,0-.1,0h0a.14.14,0,0,1,0,.06c0,.09,0,.15,0,.09v.24c-.11,0,0,0,0,.08s.06.12.05.08a.25.25,0,0,1,0-.19h.05Z"/></g><g class="cls-5"><path class="cls-11" d="M329,145a1.93,1.93,0,0,1,.82,1.44.92.92,0,0,1,0,.38c0,.09,0-.09,0-.38a2.09,2.09,0,0,0-.11-.43,1.64,1.64,0,0,1-.25.65c0,.11,0,.21,0,.32a7.5,7.5,0,0,1,0,1.34,3.61,3.61,0,0,1-.08.66c0-.64-.08-1.27-.13-1.92l0,.06c0,.35,0,.69-.06,1a.48.48,0,0,1,0,.17v-.17a3.52,3.52,0,0,0-.13-.43c0-.1.05-.22.05-.32a.87.87,0,0,1,.14-.27v-.16l0,0h0a2,2,0,0,0-.51.85,1.14,1.14,0,0,0-.05.76c.09.15.41.29.47.48s0,.11,0,.16a.3.3,0,0,1,.11.06c0,.13,0,.24.07.35s-.3.21-.21.24c.25.09.06,0,.1.18s.08.1.08.14,0,.2,0,.37-.09.34.05.6a1.14,1.14,0,0,0,.25.39c.16.31.42.23.45.64.32-.1.43.34.69.38s.25.27.39.46.12,0,.13.06.18-.09.23-.06l-.05.08.08,0s0,0,0,.06-.07.1,0,.13a.38.38,0,0,0,.28,0l.42-.27a.12.12,0,0,1,0-.05l.11-.06.06-.07c0-.07.15-.09.14-.12s-.11-.12-.14-.23,0,0,.06,0,0-.15,0-.13l0-.06,0,0a2.08,2.08,0,0,0-.26-1,.21.21,0,0,0-.17-.06s0-.1-.05-.13a1.5,1.5,0,0,0-.18.28c-.07-.23-.24-.65-.43-.22-.1-.09-.22.09-.35.06a2,2,0,0,0-.6-.05,1.14,1.14,0,0,1-.28,0l-.09,0c-.32-.07-.28-.5-.1-.82a2.28,2.28,0,0,0,.42-1.2c-.18-.91-.17-1.85-.32-2.64a1.6,1.6,0,0,0-.92-1.35Z"/></g><g class="cls-5"><path class="cls-11" d="M340.43,158.08a6.88,6.88,0,0,1-.84-1.46,2.17,2.17,0,0,1-.14-.36c0-.09.07.08.14.36.06.11.12.24.2.38,0-.23,0-.5.07-.72l-.19-.31a4.69,4.69,0,0,0-1.1-1.17c-.15-.13-.55-.31-.72-.42a3.64,3.64,0,0,1,2,1.41v-.08a3.33,3.33,0,0,0-.87-1l-.18-.14.18.14c.18.1.37.17.55.29s.16.26.24.37a.94.94,0,0,1,.08.34l.09.18.05,0h0a1.53,1.53,0,0,0-.26-1.21,1.73,1.73,0,0,0-.95-.76c-.27,0-.59.16-.86.16-.08,0-.14-.07-.22,0a.27.27,0,0,1-.1.08c-.17,0-.32-.09-.46,0s-.3-.31-.33-.22c-.09.26,0,.06-.22.11,0,0-.11.1-.16.1s-.2.05-.37.07-.31-.07-.54,0a.58.58,0,0,1-.22,0l-.24,0-.13,0-.17-.11a.2.2,0,0,0-.22,0c-.11,0-.14.1-.26,0,0,.09,0,0,0-.13v-.41l.18,0c.05,0,.14.06.11-.12a1.2,1.2,0,0,1,0-.19l.07,0,.15,0H335c.05-.12.17.45.21.43l.13.12s.09-.22.12-.12,0,0,0,0a.22.22,0,0,1-.06-.07.27.27,0,0,0-.26-.05v-.14s-.09.18-.12.19,0,0,0-.05,0-.14-.06-.13-.42.13-.33.27a1.09,1.09,0,0,1-.06.45.2.2,0,0,1,0,.07.6.6,0,0,1-.06.11s0,.06,0,.08-.12.15-.09.17a2.74,2.74,0,0,1,.27.13s0,0,0,.07.14.1.09.11l.06,0,0,0a3,3,0,0,0,.32.19c.1.07.3.08.26.11s0,.06,0,0,0-.08,0-.14,0,0,0,0v-.33c-.06.06-.06.28-.19-.13,0,0-.14-.15-.21-.13s0,0,0,0a.11.11,0,0,0-.07.1c0,.06.08.05.12.07l.21,0h.08c.09,0,.41,0,.61,0a2.16,2.16,0,0,1,.62.09,11.33,11.33,0,0,0,1.08.49,2.52,2.52,0,0,1,1.86,1.41,3.05,3.05,0,0,0,.93,1.23C340.33,158,340.39,158,340.43,158.08Z"/></g><g class="cls-5"><path class="cls-11" d="M342.66,160.9a.26.26,0,0,1,.12.07.25.25,0,0,1,0,.22.39.39,0,0,1-.24.25.34.34,0,0,1-.32,0,.43.43,0,0,1-.18-.31.54.54,0,0,1,.25-.5.65.65,0,0,1,.5-.1.71.71,0,0,1,.39.24.9.9,0,0,1,.2.48l.1,1-.58-.62,0,0a1,1,0,0,1-.27-.28c0-.07.08.06.27.28l0,0,.69.51-.22-.91a1,1,0,0,0-.22-.47.71.71,0,0,1,0,.57l0,.09,0,0a.56.56,0,0,1-.07-.19l-.26-.2c-.15-.13-.31-.25-.47-.37l-.16.41a2.43,2.43,0,0,0,.94.11,3.09,3.09,0,0,0,.81-.27,2.06,2.06,0,0,1-1.8.35l.31-.77q.22.15.45.33l0-.07-.37-.34-.38.95a1.91,1.91,0,0,0,.78.13l.25,0-.25,0a2.46,2.46,0,0,1-.68.06l-.13-.05.48-1.22c.06.06.11.14.17.19a.73.73,0,0,1,.13.28l.12.12.05,0h0a1.57,1.57,0,0,0-.3-.88l-.73,1.81a1.71,1.71,0,0,0,1.63.08c.26-.19.33-.58.51-.8s.15-.09.15-.19a.52.52,0,0,1,0-.14c.05-.09.13-.16.18-.24l.3-.47-.38-.22a.31.31,0,0,0-.19,0c-.05,0-.05-.11-.12-.2s-.13-.14-.15-.12c-.16.19,0,0-.29,0,0,0-.13,0-.18,0s-.23,0-.43,0a.51.51,0,0,1-.35-.11,1.48,1.48,0,0,0-.33,0c-.06-.05-.4.11-.38.12-.36,0-.34.22-.78.23a2.18,2.18,0,0,1-.09.47.27.27,0,0,0,.08.29c.07.07.2.11.21.15a.64.64,0,0,0,.12.12c.07,0,.17.07.17.09s.29.09.37.13l-.11,0,.11.05h0c-.07,0-.14,0-.11,0l.45.2.59.2h.08l.15,0,.08,0c.05,0,.18,0,.17-.05s-.11-.08-.13-.11h.07s0,0,0,0h0c0-.07.08-.11,0-.16l-.12,0s0,0,0,0l-.27,0c0-.05.17-.06-.26-.15a2.41,2.41,0,0,1-.32-.14.2.2,0,0,1,0-.32s.11-.06.18-.07h.07a1,1,0,0,1,.58.09c.16.1.29.07.43.36l-.09-.77a.83.83,0,0,0-.27.19,1,1,0,0,1-.46.32.93.93,0,0,1-.55,0l-3.21-1.13,2.84,2,.88.63,1.4,1-.54-1.75a1.29,1.29,0,0,0-.47-.71.88.88,0,0,0-.64-.13.84.84,0,0,0-.49.28.73.73,0,0,0-.16.63.72.72,0,0,0,.22.31.53.53,0,0,0,.35.1.49.49,0,0,0,.4-.39.32.32,0,0,0,0-.23A.17.17,0,0,0,342.66,160.9Z"/></g><g class="cls-5"><path class="cls-11" d="M346.75,164.61a1.11,1.11,0,0,1-.9-.86.64.64,0,0,1,0-.3c0-.07,0,.07,0,.3a1.14,1.14,0,0,0,.14.3,1.21,1.21,0,0,1,.19-.56,1.7,1.7,0,0,1,0-.22,2.64,2.64,0,0,1,0-.93,1.08,1.08,0,0,1,.1-.41,5.94,5.94,0,0,0,.1,1.23l0,0,.05-.67a.17.17,0,0,1,0-.1s0,.06,0,.1a1.49,1.49,0,0,0,.13.25c0,.06-.05.15-.05.21a.86.86,0,0,1-.13.21v.11l0,0h0a3.85,3.85,0,0,0,.5-.64c.12-.2.13-.33.07-.38s-.39-.16-.45-.28,0,0,0-.1l-.09,0c0-.09.05-.13,0-.23s.31,0,.23-.06-.06,0-.06-.15-.06-.1,0-.12,0-.13.07-.22.17-.11.22-.26.16-.19.16-.2c.2-.07.14-.27.51-.19-.07-.26.38-.34.39-.6s.23-.29.37-.53c0-.07,0-.13,0-.17s-.16-.14-.17-.21h.1a.38.38,0,0,1,0-.1s0,0,0,0,.13,0,.14-.05a.59.59,0,0,0-.23-.32,1.49,1.49,0,0,0-.53-.08l-.07,0h-.13l-.07,0c-.06.06-.16,0-.17.08a.28.28,0,0,1,0,.2s0,0-.06,0-.07.1-.09.09l0,0h0a.8.8,0,0,1-.21.15l-.12.06h-.05a.93.93,0,0,1-.25,0h-.17l.32,0c-.18,0-.49-.05-.05.12,0,0,.15.11.15.17s0,.21,0,.38a1.17,1.17,0,0,1,0,.27l0,.09a1.21,1.21,0,0,1-.54.74c-.25.18-.62.43-.64.84a10.35,10.35,0,0,0,.34,2.11,1,1,0,0,0,1,.79Z"/></g><g class="cls-5"><path class="cls-11" d="M448.5,102.35a12.75,12.75,0,0,0-1.74,1.19,8.21,8.21,0,0,1-3.39,1.07,9.91,9.91,0,0,1-2,.1c-1.39-.27-2.37-.88-3.27-.95-.09,0-.39-.17-.38.17a3.71,3.71,0,0,0-2.74,0c-.36.14-.85,0-1.21.2-.56.36-1.3.36-1.85.75,0,.09-.12.35-.2.38-1,.22-1.31,1.2-1.79,1.93a4.71,4.71,0,0,1-.59.73c.09.12,0,.16,0,.26a6.14,6.14,0,0,1-1.63.91c-.13,0,1.79-2.13,1.66-2.19s-1.31,1.31-1.44,1.4a30.84,30.84,0,0,1,1.85-3c.37-.54.47-.7.37-.64a9.52,9.52,0,0,0-1.61,2.16c-.26.21-.41.71-.82,1.18.15-.36.31-1.28.43-1.43.44-.75.2-.82,1-1.45s1.49-1.7,2.08-2.15c-.2.42-.58,1.36-1,1.62,1.08-.41.65-1.34,1.8-1.89a1.34,1.34,0,0,0,.32-.25l.44-.09a9.32,9.32,0,0,1,2.81-1c-.09,0-.17-.13-.27-.13-1-.11-1.61.47-2.5.76-.19,0-.31.37-.48.45a5.88,5.88,0,0,1-1.07.3,5.92,5.92,0,0,1,2.06-1.2,2,2,0,0,0,.38-.43,7.53,7.53,0,0,0-1.07.38c-1.24.59-2.2,2.11-3.15,2.3l-.06.1s0,0-.06,0a1.08,1.08,0,0,1-.52.27l.39-.28c.68-1.2,2.11-1.8,3.37-2.54.27-.21.87-.14,1.16-.3a4.64,4.64,0,0,1,2.9-.44,9.26,9.26,0,0,1,2.57.66c.78.33,1.37.71,2,1a7.21,7.21,0,0,0,4.43,0l.17-.12-.13,0,.22,0a2.73,2.73,0,0,1,1.07-.47c.19,0-.22.17-.24.34l.17-.06.06.14c0-.07.11,0,.18,0a14,14,0,0,1-2.26,1.43c.19.13.42,0,.55-.07a2.91,2.91,0,0,1,.75-.47,18.77,18.77,0,0,1,2.05-1,2.63,2.63,0,0,1,.42-.07C448.85,101.87,448.74,102.24,448.5,102.35Zm-10.91-.71a4,4,0,0,1,.69.4l.25.08a.72.72,0,0,0,.33,0c.42.2.8.43,1.19.65a2.91,2.91,0,0,0-1.29-.92,5.72,5.72,0,0,1,1.88.88,5.22,5.22,0,0,0,2,.77,5.14,5.14,0,0,0,1.33-.22,4.22,4.22,0,0,0,.82-.42A6.33,6.33,0,0,1,442,103a8.44,8.44,0,0,1-2.41-1.09,8,8,0,0,0-5.88-.67A10.7,10.7,0,0,1,437.59,101.64Zm-.45.2a6.23,6.23,0,0,0-1.44.1,4.37,4.37,0,0,0-3.16,1.44,7.9,7.9,0,0,1,3.16-1.44c-.58.08-.66.11-.4.07a15.47,15.47,0,0,1,1.63-.14A.51.51,0,0,1,437.14,101.84Z"/><path class="cls-11" d="M443.73,102.39a10,10,0,0,0,1.72-.08,6.9,6.9,0,0,0-.83-.23c-.72-.06-1.34.16-2,0a5.73,5.73,0,0,1-1.19-.35c-.34-.14-.68-.33-1.1-.53a8,8,0,0,0-3.28-.82,1.18,1.18,0,0,0-.58,0,9.48,9.48,0,0,1,2.21.4,11,11,0,0,1,1.81.76,7,7,0,0,0,1.46.59A6.87,6.87,0,0,0,443.73,102.39Z"/><path class="cls-11" d="M432.68,100.93c-.38.21-.74.44-1.11.61a4.62,4.62,0,0,0,1.25-.33,10.42,10.42,0,0,1,1.62-.58A5.38,5.38,0,0,0,432.68,100.93Z"/><path class="cls-11" d="M436.5,100.46l-.36,0a6.12,6.12,0,0,0-1.7.19,12.49,12.49,0,0,1,1.85.14A.3.3,0,0,1,436.5,100.46Z"/></g><g class="cls-5"><path class="cls-11" d="M447.07,112.41a10.6,10.6,0,0,0-2.29.22,25.59,25.59,0,0,1-3.49,0,8.68,8.68,0,0,0-.89,0l-.7.05a.56.56,0,0,0-.65.11,2.41,2.41,0,0,0-.38.61l-.46,1c-.1.15-.47.59-.17.74a4.14,4.14,0,0,1-.67.65,3.87,3.87,0,0,1-1.15.61,5.36,5.36,0,0,1-1.11.23c-.7.08-1.31.07-1.89.12s-1.11-.35-1.65-.36c-.9,0-1.74-.4-2.61-.44-.12,0-.41.2-.51.16-1.13-.52-2.39-.18-3.78-.67a3.82,3.82,0,0,1-1.35-.85c-.14.07-.23,0-.38-.14a4.07,4.07,0,0,1-.77-1.54,2.65,2.65,0,0,1,0-1.61s0,.27.16.71a4.44,4.44,0,0,0,.71,1.43,3.22,3.22,0,0,0,1.65,1.3,12.42,12.42,0,0,1-1.08-1,3.68,3.68,0,0,1-.84-1.36,4.25,4.25,0,0,0,2.28,1.87,5.31,5.31,0,0,0,1.62.31c.77,0,1,0,.84-.06a8.68,8.68,0,0,1-3.09-.77c-.28-.3-.93-.56-1.3-1.39a2.34,2.34,0,0,0,.81.65c.32.17.61.26.7.32a2.19,2.19,0,0,0,.88.27,4.76,4.76,0,0,1,.91.3,8.78,8.78,0,0,0,3.23.08,3.41,3.41,0,0,1-2.06.5c1.24.55,1.58-.49,2.92-.27a1.42,1.42,0,0,0,.44,0l.47.15a26.75,26.75,0,0,0,3.07,0c-.07,0-.14-.15-.22-.17a25,25,0,0,0-2.64-.16c-.18-.07-.47.16-.68.14a4.35,4.35,0,0,1-1.13-.34,11.65,11.65,0,0,1,2.5,0,1.38,1.38,0,0,0,.52-.24c-.37,0-.75-.1-1.13-.13-1.3,0-3.23.58-4-.07l-.11,0a.1.1,0,0,0-.05,0,.83.83,0,0,1-.48-.25,4.13,4.13,0,0,0,.42.14,34.44,34.44,0,0,1,4.28.06c.32,0,.84.28,1.16.23a12.88,12.88,0,0,1,2.11,0,.78.78,0,0,0,.26,0c.3,0,.75-.69,1.26-1.49a4.59,4.59,0,0,1,1.12-1.23,2.57,2.57,0,0,1,1.54-.46c1.8.13,3.41.37,5.11.63l.24,0-.11-.08.24.07A3.1,3.1,0,0,1,446,111c.19.1-.32,0-.44.18l.2,0,0,.16c.07,0,.13,0,.19.08-1,.12-1.94.26-2.93.36.14.18.43.11.57.13a2.86,2.86,0,0,1,.94-.14,15.27,15.27,0,0,1,2.53.13l.46.15C447.72,112.17,447.37,112.44,447.07,112.41ZM436,114a3.23,3.23,0,0,0,.66-.37l.16-.23a.78.78,0,0,0,.14-.35,8.11,8.11,0,0,1,1-1.24,3.13,3.13,0,0,0-1.31,1.29,5.61,5.61,0,0,1,.64-1.1,2.34,2.34,0,0,1,1-.81,2,2,0,0,1,1.18,0c.37.08.78.18,1.18.25s1,0,1.45,0a8.35,8.35,0,0,0,1-.17c-.74-.06-1.49-.13-2.23-.22l-1.11-.13a3.53,3.53,0,0,0-1.17,0,2.43,2.43,0,0,0-1.1.62,7.5,7.5,0,0,0-.8,1c-.42.64-.85,1.21-1.19,1.31a6.76,6.76,0,0,1-2.75-.14,4.83,4.83,0,0,0,3,.44Zm-.13.41a3.33,3.33,0,0,1-1.27.41,18.87,18.87,0,0,1-2.1-.08,4.92,4.92,0,0,0-1.83.22c.65,0,1.31,0,2,0a13.72,13.72,0,0,0,1.95-.09c-.59,0-.69,0-.41,0a3.16,3.16,0,0,0,1.54-.31A1,1,0,0,1,435.85,114.44Z"/><path class="cls-11" d="M442.16,110.47l1.92.49a5.1,5.1,0,0,0-.78-.53,13.15,13.15,0,0,0-2.42-.4l-.83-.15a5.28,5.28,0,0,0-.93-.1,3.14,3.14,0,0,0-2.32,1,9.16,9.16,0,0,0-1.2,1.8c-.25.46-.49.73-.56.73H435s-.07,0-.1.06a.89.89,0,0,0,.23,0c.16,0,.5-.39.84-1,.19-.31.36-.61.65-1a3.53,3.53,0,0,1,1.09-1,2.85,2.85,0,0,1,1.35-.37,7.73,7.73,0,0,1,1.1.09C440.82,110.22,441.49,110.33,442.16,110.47Z"/><path class="cls-11" d="M432,112.94a6.19,6.19,0,0,1-1.22,0,3.63,3.63,0,0,0,1.22.34c.54,0,1.15.08,1.63.08A9.48,9.48,0,0,0,432,112.94Z"/><path class="cls-11" d="M434.89,113.37h-.14l-1.08,0a7.78,7.78,0,0,0,1.24.33A.46.46,0,0,1,434.89,113.37Z"/></g><g class="cls-5"><path class="cls-11" d="M454.5,130.31a1,1,0,0,0-.49-.68c-.39-.32-.62-1-1.18-1.53a8.36,8.36,0,0,0-.87-.79c-.53-.7-1.14-1.47-1.76-2.19-.05-.1-.17-.4-.41-.16a13.26,13.26,0,0,0-1.28-2.46c-.21-.32-.12-.79-.3-1.11-.34-.52-.21-1.2-.4-1.74-.07-.07-.28-.19-.28-.27.15-.85-.5-1.48-.76-2.28a2.94,2.94,0,0,1-.15-.86.19.19,0,0,1-.1,0l-1.47-1.3,3.91-.2a1,1,0,0,1,.29.08,2.6,2.6,0,0,1,.95,1.3,1.88,1.88,0,0,1,0,1.37,6.4,6.4,0,0,0-.28-.91,2.52,2.52,0,0,0-1.27-1.24l-1.66-.66.19,1.56c.05.39.11.69.17.67a2.16,2.16,0,0,0,0-.66l-.05-1.28,1.25.54a2.21,2.21,0,0,1,1.06,1.09,2.06,2.06,0,0,0-1.2-.81l-1-.23.22.69a8.18,8.18,0,0,0,.82,1.89c.18.29.24.31.2.19s-.47-1.13-.75-1.91a.5.5,0,0,0,0-.17l-.09-.36.46.13a1.4,1.4,0,0,1,1,.67,1.13,1.13,0,0,0-.59-.29,1.77,1.77,0,0,0-.56,0l.23-.13,0,.08c.25.63.45.51.49,1.21a5.42,5.42,0,0,0,.91,1.85c-.32-.15-1-.6-1-1-.13.89.88.75,1.05,1.53a.57.57,0,0,0,.17.22v.3c.24.65.72,1.06,1,1.67,0,0,.08-.17.07-.23,0-.62-.55-.87-.72-1.45,0-.12-.28-.18-.33-.29a1.5,1.5,0,0,1,0-.73,6.64,6.64,0,0,1,.71,1.28c.05.09.26.12.38.15-.09-.2-.16-.41-.25-.6-.37-.63-1.37-1.45-1-2.11l-.06-.06,0,0a.43.43,0,0,1,.07-.37v.3c.65.66.61,1.55,1.12,2.24.15.13,0,.53.17.65a3.13,3.13,0,0,1,.73,1.48,12.22,12.22,0,0,0,1.37,3,19.34,19.34,0,0,1,1.83,3.06l.11.09,0-.12,0,.17a.9.9,0,0,1,.32.71c0,.14-.11-.14-.26-.11l0,.11-.13.08c.05,0,0,.08,0,.13a7.86,7.86,0,0,0-1.13-1.08c-.07.2.07.28.12.35a.78.78,0,0,1,.39.32c.34.28.32.82.37,1.11a1.28,1.28,0,0,1-.11.24C454.75,130.44,454.47,130.4,454.5,130.31Zm-3.07-7a5.51,5.51,0,0,1,0,.61l.09.16a.33.33,0,0,0,.16.17,10.27,10.27,0,0,0,.43,1,2.92,2.92,0,0,0-.31-1.21,23,23,0,0,1,1.45,2.9c.2.23.42.45.64.66a2.9,2.9,0,0,0,.52.34,22.85,22.85,0,0,1-2.16-3.58c-.55-1.24-.88-2.44-1.28-3.54A10.88,10.88,0,0,0,451.43,123.35Zm-.35-.12c-.17-.29-.35-.58-.53-.85a5.07,5.07,0,0,0-1.41-2.08c.44.71.94,1.38,1.41,2.08-.34-.73-.17-.16.43.74C451,123.13,451,123.18,451.08,123.23Z"/><path class="cls-11" d="M454.57,126.91a8.81,8.81,0,0,1,.44,1.28,2.83,2.83,0,0,0,.07-.76c-.11-.61-.54-1-.8-1.46-.78-1.43-1.42-2.47-2.07-3.6a.41.41,0,0,0-.19-.25,14.58,14.58,0,0,0,1.09,2.3C453.52,125.17,454.11,126,454.57,126.91Z"/><path class="cls-11" d="M451.43,120.15a1.84,1.84,0,0,1-.35-.58,1.1,1.1,0,0,0,.06.72c.14.28.31.54.45.81A4.1,4.1,0,0,0,451.43,120.15Z"/><path class="cls-11" d="M452,122.12l-.06-.19a6.17,6.17,0,0,0-.37-.83,8.15,8.15,0,0,0,.13,1.08A.3.3,0,0,1,452,122.12Z"/></g><g class="cls-5"><path class="cls-11" d="M452,104.72a4.58,4.58,0,0,1-.59,2.37,7.59,7.59,0,0,1-1,1.45,3.81,3.81,0,0,1-1.59,1.1s-.07,0-.11.14a6.57,6.57,0,0,0-.17,1.46,14.77,14.77,0,0,0-.37,3.65c0,.14-.11.55.23.5a10.26,10.26,0,0,0-.07,3.66c.08.5-.16,1.06-.07,1.56.2.8,0,1.65.1,2.45.07.11.27.32.26.42-.18,1.15.51,2.09.9,3.08a5.57,5.57,0,0,1,.33,1.08c.15,0,.15.1.22.2a7.77,7.77,0,0,1-.12,2.18c-.09.1-.83-3.18-1-3.1s.43,2.15.43,2.34c-1.62-3.7-2-4.74-2-4.47a17,17,0,0,0,1.08,2.91c0,.38.39.85.56,1.56-.22-.39-.91-1.16-1-1.36-.41-.91-.6-.73-.76-1.83-.14-.9-.8-2.39-1-3.16a4.32,4.32,0,0,1,1,1.83c.11-1.32-.91-1.36-1-2.72a2.57,2.57,0,0,0-.14-.42c0-.15,0-.3.06-.48a28.91,28.91,0,0,1-.4-3.17c0,.09-.15.16-.16.26-.23,1,.2,1.75.23,2.75,0,.2.25.44.27.64a4.71,4.71,0,0,1-.1,1.19,11,11,0,0,1-.48-2.47,1.49,1.49,0,0,0-.32-.49,11.55,11.55,0,0,0,.09,1.16c.21,1.35,1.18,3,.89,4l.07.11a.14.14,0,0,0,0,.06,1.41,1.41,0,0,1,0,.64l0-.53c-.74-1.27-.66-2.87-1-4.33-.12-.32.11-.89,0-1.21a7,7,0,0,1-.08-3c.18-1.33.39-2.66.66-4,.14-.66.28-1.3.44-2a6.47,6.47,0,0,1,.66-1.91,5.22,5.22,0,0,1,2.06-1.42l.17-.18H449l.24-.11c.34-.37.66-.73,1-1.18.2-.18-.14.38-.13.58l.16-.21.11.12c0-.11.12-.13.2-.18a4.91,4.91,0,0,1-1.1,1.55c-.38.38-.72.67-1,.93.2.08.33-.1.44-.16a2.63,2.63,0,0,1,.67-.66,12.15,12.15,0,0,0,1.14-1.26,3.19,3.19,0,0,0,.68-2.14,4.18,4.18,0,0,0-.09-1.05c0-.06,0-.08.08-.08h.06a.58.58,0,0,1,.12.14A2,2,0,0,1,452,104.72Zm-5.88,11.08a7.41,7.41,0,0,1,.32-.8l0-.28a.78.78,0,0,0,0-.37c.12-.49.24-1,.35-1.5a4.18,4.18,0,0,0-.6,1.66,14.09,14.09,0,0,1,1.26-4.5,2.88,2.88,0,0,1,.24-.75l.13-.21c.12-.19.26-.4.43-.62a3,3,0,0,0-.85.72,3.52,3.52,0,0,0-.47,1.16l-.36,1.33c-.24.89-.46,1.79-.65,2.69a23.86,23.86,0,0,0-.55,5.53C445.6,118.48,445.75,117.17,446.08,115.8Zm.23.48c0,.54,0,1.07,0,1.59a7.86,7.86,0,0,0,.71,3.84,24.4,24.4,0,0,1-.71-3.84c0,1.28,0,.35,0-1.36A.66.66,0,0,1,446.31,116.28Z"/><path class="cls-11" d="M447.05,108.47a6.77,6.77,0,0,1,1.7-.8,4,4,0,0,0-.91,0,2.28,2.28,0,0,0-1.4,1.12,4.87,4.87,0,0,0-.34.74,19.69,19.69,0,0,0-1.21,6.82,1.22,1.22,0,0,0,0,.56c.14-1.39.3-2.74.55-4.06.13-.66.26-1.32.44-2a6.71,6.71,0,0,1,.75-2A2.62,2.62,0,0,1,447.05,108.47Z"/><path class="cls-11" d="M444.77,120.73A9.94,9.94,0,0,1,445,122a3.83,3.83,0,0,0,.07-1.31c-.07-.57-.15-1.14-.19-1.71A7.94,7.94,0,0,0,444.77,120.73Z"/><path class="cls-11" d="M444.92,116.93l0,.36a9.43,9.43,0,0,0,0,1.68c.11-.59.23-1.24.33-1.82A.28.28,0,0,1,444.92,116.93Z"/></g><g class="cls-5"><path class="cls-13" d="M450,104.24A6.55,6.55,0,0,0,448,105.5c-1,.78-2.57.74-4.2.93a18.61,18.61,0,0,1-2.48,0c-1.77-.56-2.69-1.35-3.36-1.38-.07-.07-.31-.29-.32.39a1.94,1.94,0,0,0-2.31-.3c-.3.16-.84-.25-1.16,0-.45.44-1.29.1-1.8.51,0,.14,0,.53-.06.53-1.11-.08-1.11,1.3-1.39,2.14a2,2,0,0,1-.46.78c.19.23.1.25.11.38a4,4,0,0,1-2,.47c-.2-.11,1.59-2.19,1.35-2.37s-1.25,1.28-1.42,1.35c.51-1.78.94-2.92,1.2-3.6s.32-.92.21-.86a7,7,0,0,0-1.24,2.6c-.27.19-.24.87-.63,1.34.05-.44-.17-1.73-.07-1.91.28-.93-.1-1.16.7-1.79.63-.5,1.29-2.08,1.89-2.66-.1.66-.18,2.09-.66,2.31,1.27-.18.28-1.94,1.57-2.47a.89.89,0,0,0,.3-.35h.52c1-.4,1.84-1.16,3-1.18-.09,0-.22-.28-.33-.31-1.14-.37-1.78.59-2.76.84-.22,0-.27.56-.45.65-.35.21-.83.09-1.26.14a4.65,4.65,0,0,1,2.19-1.49c.16-.11.26-.5.35-.72a7.29,7.29,0,0,0-1.22.41,6.56,6.56,0,0,0-1.72,1.76c-.5.63-.94,1.13-1.59,1.07l0,.15a.15.15,0,0,0-.09,0,.72.72,0,0,1-.63.19l.45-.27c.43-1.69,2.18-2.17,3.53-3.16.29-.3,1.06,0,1.35-.25a3.83,3.83,0,0,1,3.36-.39,10.48,10.48,0,0,1,2.92,1.19,14.59,14.59,0,0,1,1.82,1.49,4.83,4.83,0,0,0,2,.94,12.9,12.9,0,0,0,2.69.23l.17-.14-.19-.12.28,0a1.6,1.6,0,0,1,1.24-.3c.27.09-.22.17-.17.45l.2,0,.14.25c0-.09.16,0,.26.09a14,14,0,0,1-2.46,1.54c.29.31.55.1.7.08a1.76,1.76,0,0,1,.82-.54c.65-.51,1.73-.42,2.42-.7a4.06,4.06,0,0,1,.56.09C450.24,103.62,450.26,104.18,450,104.24ZM437.6,100.9a4.36,4.36,0,0,1,.72.76l.25.13a.4.4,0,0,0,.34,0c.42.33.76.69,1.13,1a2.71,2.71,0,0,0-1.19-1.56,3.53,3.53,0,0,1,1.81,1.35,5,5,0,0,0,2.1,1.55,4.79,4.79,0,0,0,1.51-.1,2.72,2.72,0,0,0,.88-.5,6.18,6.18,0,0,1-3.18-.5,9.51,9.51,0,0,1-2.27-1.83,7.53,7.53,0,0,0-3.07-1.57,7.72,7.72,0,0,0-3.51-.07A11.63,11.63,0,0,1,437.6,100.9Zm-.48.41a4.83,4.83,0,0,0-1.52.06c-1.36.07-2.87.56-3.16,1.81a6.64,6.64,0,0,1,3.16-1.81c-.61,0-.7.09-.42.07s.91-.08,1.73-.08C436.94,101.32,437,101.31,437.12,101.31Z"/><path class="cls-13" d="M443.69,102.29a10.46,10.46,0,0,0,2.07.53c-.41-.27-.78-.55-1.15-.75-.9-.42-1.5-.24-2.12-.62a3.9,3.9,0,0,1-1-.85,4.8,4.8,0,0,0-.8-.86A7.11,7.11,0,0,0,437,98.48a.88.88,0,0,0-.67,0,11.12,11.12,0,0,1,2.58.75,6.36,6.36,0,0,1,1.84,1.16,11.15,11.15,0,0,0,1.14,1A6,6,0,0,0,443.69,102.29Z"/><path class="cls-13" d="M431.79,98.7a7.26,7.26,0,0,1-1.26.79,3.07,3.07,0,0,0,1.52-.21,9.89,9.89,0,0,1,1.86-.7A4.74,4.74,0,0,0,431.79,98.7Z"/><path class="cls-13" d="M436.35,98.52l-.44-.07a5.39,5.39,0,0,0-2,.13,15.5,15.5,0,0,1,2.21.53A.55.55,0,0,1,436.35,98.52Z"/></g><g class="cls-5"><path class="cls-13" d="M454.34,104.5a7.16,7.16,0,0,1-.92,3.65,12.7,12.7,0,0,1-1.38,2,3.57,3.57,0,0,1-.39.39l-.17.13s0,0,0,0l-.19-.11a1.09,1.09,0,0,0-.59-.11.34.34,0,0,0-.15.06.35.35,0,0,0-.17.17.26.26,0,0,0,0,.16l0,.4a8.41,8.41,0,0,0-.79,3.59c-.06.13-.23.54.44.48a5.6,5.6,0,0,0-.37,3.62c.12.49-.4,1.06-.28,1.55.31.78-.28,1.66-.1,2.45.12.1.5.29.47.38-.53,1.19.69,2,1.3,3a3.1,3.1,0,0,1,.44,1c.3,0,.27.08.39.16a4.76,4.76,0,0,1-.67,2.26c-.18.12-1-3.1-1.3-3s.44,2.12.41,2.32c-2.46-3.5-3.14-4.53-3.14-4.25a10.89,10.89,0,0,0,1.64,2.81c0,.38.62.81.8,1.51-.35-.36-1.56-1-1.66-1.22-.64-.87-1-.65-1.18-1.77-.11-.9-1.21-2.34-1.52-3.11.57.35,1.83,1.13,1.8,1.74.41-1.37-1.6-1.27-1.61-2.66a1.07,1.07,0,0,0-.22-.42l.16-.5c-.07-1.12-.63-2.07-.51-3.2,0,.1-.31.18-.35.28-.52,1,.27,1.77.22,2.8-.07.2.46.42.48.62a2.76,2.76,0,0,1-.34,1.24,6.16,6.16,0,0,1-.67-2.5c-.07-.17-.42-.35-.61-.47a8,8,0,0,0,.07,1.19c.29,1.38,2,2.95,1.28,4l.12.1a.19.19,0,0,0-.06.07.84.84,0,0,1-.14.67l0-.54c-1.27-1.22-.93-2.9-1.48-4.36-.2-.32.31-.93.12-1.25a3.93,3.93,0,0,1,.05-3c.42-1.36.89-2.7,1.42-4,.28-.66.56-1.3.86-1.94a6.25,6.25,0,0,1,1.1-1.91,3,3,0,0,1,1.26-.72c.22-.06.45-.11.66-.15a4.62,4.62,0,0,0,.7-.13l.17-.21-.23-.06a1.91,1.91,0,0,0,.33-.06,12.18,12.18,0,0,1,1.39-1.31c.33-.19-.18.49-.08.77l.23-.24.23.19c0-.15.2-.14.34-.19a6.42,6.42,0,0,1-1.38,2l-.44.43-.24.22c.36.2.38.09.46.09a.47.47,0,0,1,.06-.2,1.31,1.31,0,0,1,.42-.31c.41-.46,1-.9,1.56-1.56a4.35,4.35,0,0,0,1.11-3.15,7,7,0,0,0-.06-1.7.25.25,0,0,1,.17-.12.2.2,0,0,1,.11,0,1,1,0,0,1,.21.21A2.9,2.9,0,0,1,454.34,104.5Zm-9,11.34A8.44,8.44,0,0,1,446,115l.09-.29a.44.44,0,0,0,0-.37c.23-.51.5-1,.74-1.51a3.48,3.48,0,0,0-1.25,1.68,4.67,4.67,0,0,1,.93-2.34,12.34,12.34,0,0,1,1.59-2,5.36,5.36,0,0,1,.34-.57l.19-.24a4.37,4.37,0,0,0,.32-.55,2.89,2.89,0,0,0-1.14.56,3.69,3.69,0,0,0-.77,1c-.23.4-.47.86-.7,1.3-.46.88-.91,1.78-1.3,2.7a15.52,15.52,0,0,0-1.41,5.62C444.24,118.58,444.62,117.23,445.34,115.84Zm.44.47a7.78,7.78,0,0,0,0,1.6c-.06,1.44,0,3,1.06,3.83a14.49,14.49,0,0,1-1.06-3.83c0,1.29.06.35,0-1.37C445.78,116.5,445.78,116.41,445.78,116.31Z"/><path class="cls-13" d="M447,108.42a5.35,5.35,0,0,1,2.22-.31,4.55,4.55,0,0,0-1.34-.43,2.42,2.42,0,0,0-1.94,1l-.46.6a15.87,15.87,0,0,0-1.06,1.93,12.67,12.67,0,0,0-.72,1.71,13.89,13.89,0,0,0-.7,3.54.64.64,0,0,0,0,.57,36.92,36.92,0,0,1,1.2-4.12c.26-.66.53-1.32.86-2l.13-.24.13-.31c.09-.2.18-.4.28-.58a3.57,3.57,0,0,1,.74-1A3,3,0,0,1,447,108.42Z"/><path class="cls-13" d="M442.39,121a4.43,4.43,0,0,1,.34,1.28,2.32,2.32,0,0,0,.29-1.36,15,15,0,0,1-.25-1.75A4.92,4.92,0,0,0,442.39,121Z"/><path class="cls-13" d="M443,117l-.09.37a5.59,5.59,0,0,0-.12,1.73c.24-.64.55-1.26.79-1.89C443.24,117.27,443.07,117.18,443,117Z"/></g><g class="cls-5"><path class="cls-11" d="M341.21,145.75a.76.76,0,0,1,.14.58,1,1,0,0,1-.23.59.62.62,0,0,1-.23.19c-.07,0,.05-.05.23-.19,0-.1.1-.17.14-.29a1.26,1.26,0,0,1-.55.17l-.12.16a1.63,1.63,0,0,1-.62.48c-.08,0-.24.14-.35,0a1.54,1.54,0,0,0,.8-.62h0a1.79,1.79,0,0,1-.45.27.09.09,0,0,1-.07,0l.07,0a.72.72,0,0,0,.12-.21s.11,0,.15-.05.11,0,.18,0l.06-.06v0h0c-.17-.06-.42,0-.6-.09s-.28-.09-.28,0,0,.42,0,.48-.06-.08-.06,0a.41.41,0,0,1,0,.12s-.09-.15-.11-.13v0a4.07,4.07,0,0,1,0-.61c0,.47,0,.13,0,.06s0,.15,0,.12,0,0-.08,0,0-.18-.15,0-.18,0-.19,0-.09-.08-.14-.15-.08-.13-.05-.33c-.27.08-.41-.37-.75-.32s-.48-.1-.82,0c-.08,0-.1.12-.17.12s0,.23-.07.29l-.06-.08-.06.1s0,0-.06,0-.08-.1-.13-.06a.7.7,0,0,0-.09.46,1.27,1.27,0,0,0,.38.46h.07l.12.07h.09c.08,0,.16,0,.18,0s0-.11.1-.14h.07a.22.22,0,0,1,.12,0h.05a.45.45,0,0,1,.25.11h0v0s0-.08,0-.11v.25h0s0,.12,0,0,.11-.08.25-.1l.31,0s.06,0,.09.06.2.15.26.28.07.41.15.56a1.51,1.51,0,0,0,.24.39,1.19,1.19,0,0,0,.29.21.59.59,0,0,0,.45,0,4.24,4.24,0,0,0,.81-.76,3,3,0,0,0,.72-.76,1,1,0,0,0,0-1.23Z"/></g><g class="cls-5"><path class="cls-11" d="M334.82,149.78c-.25,0-.54-.43-.46-.66a.44.44,0,0,1,0-.21s0,.05,0,.21a.54.54,0,0,0,0,.2,1.49,1.49,0,0,1,.33-.39v-.16c0-.24,0-.45,0-.69s-.05-.25,0-.34a2.69,2.69,0,0,1,.22.94l0,0a1.75,1.75,0,0,0,0-.55.14.14,0,0,1,0-.09v.09c0,.07.11.12.15.2s-.05.13-.06.18-.08.11-.13.17l0,.08,0,0h0a1.61,1.61,0,0,0,.52-.57c.11-.21.07-.38,0-.42s-.43,0-.52-.11,0-.06-.07-.07h-.11c-.07-.05,0-.12-.15-.14s.23-.19.14-.17c-.26,0-.07,0-.15-.06s-.1,0-.11,0-.07-.07-.12-.14,0-.15,0-.23,0-.16-.05-.16-.11-.18.21-.34c-.24-.06.07-.27,0-.37s.1-.18.2-.3,0,0,0-.06-.16,0-.17-.06h.1l0,0s0,0,.06,0,.13,0,.14,0a.28.28,0,0,0-.14-.1l-.44-.06h-.07l-.1,0H334c-.08,0-.15,0-.18,0s0,.08-.12.12,0,0-.07,0-.11.06-.12,0l0,0h0a2.21,2.21,0,0,0-.74.45.07.07,0,0,0,0,.08s-.06.06-.08.07l.33,0c-.16.11-.44.33,0,.25,0,.07.18.05.22.11a1.13,1.13,0,0,0,.27.26c.08.05.12.1.18.14l.06.06a.48.48,0,0,1,.19.56c-.06.2-.24.44-.14.63a1.85,1.85,0,0,1,.36,1.19.61.61,0,0,0,.59.59Z"/></g><g class="cls-5"><path class="cls-11" d="M345.58,148.28c.09.24-.08.67-.32.7a.34.34,0,0,1-.19,0c-.06,0,0,0,.19,0a.58.58,0,0,0,.15-.13,1.84,1.84,0,0,1-.49-.12l-.13.07c-.21.08-.36.2-.57.27s-.19.13-.28.14a2.32,2.32,0,0,1,.68-.56h0a1.53,1.53,0,0,0-.47.17l-.07,0,.07,0c0-.05.05-.14.09-.2s.13,0,.17,0a.76.76,0,0,1,.21,0l.07,0s0,0,0,0h0a1.86,1.86,0,0,0-.71-.24c-.22,0-.34.09-.33.16s.16.39.14.51-.05,0,0,.08a.31.31,0,0,1,0,.1c0,.08-.09.06,0,.18s-.26-.14-.21-.07c.15.23,0,.06,0,.15s0,.11,0,.12,0,.09-.07.15-.13,0-.17.13-.12.09-.12.1-.11.16-.36-.08c0,.24-.26,0-.31.13s-.19,0-.32-.1,0,.05,0,0,0,.16,0,.17l-.05-.09,0,0s0,0,0-.05a.31.31,0,0,0-.07-.12.21.21,0,0,0,0,.16c0,.15.07.3.1.43l0,.06v.11l0,.08c0,.07,0,.15.05.17a.43.43,0,0,1,.15.08s0,0,0,.07.09.08.07.1l0,0v0a2.24,2.24,0,0,0,.66.55.07.07,0,0,0,.07-.06s.07,0,.08.05-.09-.19-.13-.29c.15.11.46.3.21-.11.07,0,0-.19,0-.24a1.07,1.07,0,0,0,.13-.35,1.29,1.29,0,0,1,.05-.21l0-.07a.42.42,0,0,1,.41-.37c.2,0,.49,0,.61-.12.16-.43.55-.61.85-.81a.55.55,0,0,0,.2-.77Z"/></g><g class="cls-5"><path class="cls-11" d="M348.14,147.27a.92.92,0,0,1-.08,1,.37.37,0,0,1-.17.16c-.05,0,0,0,.17-.16a.9.9,0,0,0,.1-.22,2,2,0,0,1-.51.15l-.1.15c-.17.23-.27.48-.43.71-.07.08-.12.29-.21.36a3.54,3.54,0,0,1,.42-1.12l-.05,0a2.36,2.36,0,0,0-.38.53l0,.1,0-.1c0-.09,0-.2,0-.3s.13-.1.17-.15.14-.06.21-.08l.07-.08s0,0,0,0h0a1.41,1.41,0,0,0-.78.24.52.52,0,0,0-.27.46c.06.13.33.32.36.45s0,.07,0,.12l.09.06c0,.09-.06.14,0,.24s-.31.07-.22.1c.24.11.06,0,.09.14s.08.08.07.11,0,.11,0,.21-.11.14-.09.27-.05.2,0,.2c-.15.11,0,.25-.37.26.18.19-.21.27-.18.42s-.19.16-.34.25,0,.07,0,.08.13.11.12.14l-.09,0v.05h-.06c-.06,0-.12-.05-.14,0a.27.27,0,0,0,.07.18l.37.25.06,0,.08.06.08,0c.08,0,.12.09.15.09a.94.94,0,0,1,.18-.09s0,0,.06,0,.13,0,.13,0h0l0,0a2.3,2.3,0,0,0,.89-.16.09.09,0,0,0,0-.1s.08,0,.1,0-.2-.07-.3-.11c.19,0,.55-.13.1-.26,0-.06-.15-.13-.15-.21a1.46,1.46,0,0,0-.1-.4.79.79,0,0,1-.08-.23l0-.09a.6.6,0,0,1,.15-.67c.16-.17.45-.3.47-.55a2.31,2.31,0,0,1,.44-1.37.81.81,0,0,0-.07-1A.52.52,0,0,1,348.14,147.27Z"/></g><g class="cls-5"><path class="cls-11" d="M346.81,157.1c-.17.19-.74.13-.83-.13a.33.33,0,0,1-.09-.19c0-.06,0,0,.09.19a.7.7,0,0,0,.18.14,1.3,1.3,0,0,1,0-.52.5.5,0,0,1-.08-.12,4,4,0,0,1-.36-.55c0-.07-.16-.18-.18-.27a2.78,2.78,0,0,1,.65.63v-.05a1.51,1.51,0,0,0-.22-.44.18.18,0,0,1,0-.07l0,.07c.06,0,.15,0,.21.06s0,.13,0,.18,0,.13,0,.2l0,.08h0a2.06,2.06,0,0,0,.15-.73c0-.21-.11-.33-.18-.31s-.39.19-.51.18,0-.06-.09,0l-.09.06c-.08,0-.08-.1-.2,0s.1-.29,0-.23-.05,0-.16,0-.1,0-.11,0-.1,0-.18-.05,0-.14-.17-.16-.14-.1-.15-.1c0-.16-.2-.06-.08-.4-.22.11-.17-.27-.33-.28s-.11-.21-.19-.37-.08,0-.08,0-.13.11-.17.1l0-.09h0s0,0,0-.06.06-.11,0-.14a.29.29,0,0,0-.21.07l-.25.38,0,.07,0,.09,0,.08c0,.08-.07.13-.06.16a.4.4,0,0,1,.07.16s0,0,0,.06,0,.13,0,.13V155c0,.35-.06.73-.05.81s0,0,0,0,0,.07,0,.09l.15-.29c0,.18-.12.48.12.07,0,0,.13-.12.18-.12l.32,0a.51.51,0,0,1,.2,0h.08a.4.4,0,0,1,.44.32c.05.19,0,.48.19.58.45.13.69.54,1,.83a.61.61,0,0,0,.9,0Z"/></g><path class="cls-4" d="M349,89.22c-1-.37-2.91,1.06-3,2.83a3.24,3.24,0,0,0,2.83,3.17c1.85.23,3.65-1.34,3.5-2.33-.18-1.29-3.69-2-3.83-1.67s1,1,1.33.83S350,89.58,349,89.22Z"/><g class="cls-14"><path class="cls-15" d="M347.19,88.88a1.31,1.31,0,0,0-.48.42c-.23.36-.75.38-.9.83s-.65.91-.64,1.55a3.63,3.63,0,0,0,.44,1.56,14.19,14.19,0,0,0,.79,1.26,3.83,3.83,0,0,0,2.28,1.55,5.73,5.73,0,0,0,2.95-.19,3,3,0,0,0,.88-.44,3.74,3.74,0,0,0,.84-.75,3.1,3.1,0,0,0,.56-1,3.23,3.23,0,0,0,.11-1.07,6.21,6.21,0,0,0-.26-.73,3.7,3.7,0,0,0-1.84-1.69,3.86,3.86,0,0,0-1-.35,1.66,1.66,0,0,0-.71,0,3.34,3.34,0,0,1,.7.14l.35.12.17.08.25.12a3.61,3.61,0,0,1,1.5,1.34,4.26,4.26,0,0,0-1.77-1.17,8.54,8.54,0,0,0-1.48-.39c-.25,0-.49-.06-.78-.07l-.5,0-.24,0a1.21,1.21,0,0,0-.44.2,1.09,1.09,0,0,0-.47.92,1,1,0,0,0,.06.36,1,1,0,0,0,.09.2,1.55,1.55,0,0,0,.44.47,2.19,2.19,0,0,0,.37.25,2.87,2.87,0,0,0,.89.32,2.9,2.9,0,0,1-1-.42,2.41,2.41,0,0,1-.42-.34,1.42,1.42,0,0,1-.27-.39,1.25,1.25,0,0,1-.09-.25,1.17,1.17,0,0,1,.08-.66,1.32,1.32,0,0,1,.33-.39,1.08,1.08,0,0,1,.34-.18,2,2,0,0,1,.73-.08,3.42,3.42,0,0,1,.46,0,5.68,5.68,0,0,1,.82.17,5.2,5.2,0,0,1,.78.29c.11,0,.31.14.47.23l.47.3a2.12,2.12,0,0,1,1,1.62,2.07,2.07,0,0,1-1.28,1.64,2.74,2.74,0,0,1-1.71.18,3.58,3.58,0,0,0,1.39-.41,1.83,1.83,0,0,0,1.05-1.33c-.05-.71-.69-1.2-1.4-1.57a5.2,5.2,0,0,0-2-.61h-.31a.59.59,0,0,0-.21,0,.38.38,0,0,0-.16.06.67.67,0,0,0-.25.25.51.51,0,0,0,.06.52.44.44,0,0,0,.12.16,1.42,1.42,0,0,0,.22.21,2.13,2.13,0,0,0,1,.45.67.67,0,0,0,.39-.08.51.51,0,0,0,.23-.31,1.16,1.16,0,0,0,0-.53,2.26,2.26,0,0,0-.41-.82,1.25,1.25,0,0,0-.61-.43,1.84,1.84,0,0,1,1,1.63.45.45,0,0,1-.12.3.43.43,0,0,1-.36.14,1.36,1.36,0,0,1-.59-.17,2.23,2.23,0,0,1-.5-.32,1.4,1.4,0,0,1-.22-.25.45.45,0,0,1-.1-.34.43.43,0,0,1,.33-.32,2.7,2.7,0,0,1,1.21.13,5.35,5.35,0,0,1,1,.42c.67.38,1.33.83,1.29,1.51a1.4,1.4,0,0,1-.69.87A1.83,1.83,0,0,1,351,94a1.46,1.46,0,0,1-.2,0,1.09,1.09,0,0,1-.24.07,2.62,2.62,0,0,1-2.84-1,2.11,2.11,0,0,1-.2-.67,2,2,0,0,1,.41-1.27c.13-.2.38-.46.55-.67s.17-.47.43-.89c-.14-.09-.34,0-.54,0a.86.86,0,0,1,.21-.29c-.09,0-.2,0-.27.08a.47.47,0,0,0,.13-.24c-.13,0-.27.18-.33.28s-.16.35-.23.35a5.27,5.27,0,0,1,.32-.75c-.08,0-.14,0-.21.06s.22-.2.24-.32a5.28,5.28,0,0,0-.53.27.89.89,0,0,0-.37.26,3.43,3.43,0,0,0,.35-.55.48.48,0,0,0-.25.14.13.13,0,0,0,0-.06s-.1,0-.13.06,0,0,0-.06l0,0"/><path class="cls-15" d="M348.27,90.33a1.06,1.06,0,0,1-.33.19"/><path class="cls-16" d="M350.78,94.29l.13-.06a1.29,1.29,0,0,0,.33-.17,1.55,1.55,0,0,0,.78-1.12,1.15,1.15,0,0,0-.55-.8,3.74,3.74,0,0,0-1-.51,6.13,6.13,0,0,0-1.27-.28h-.32l-.14,0h-.06s0-.07,0-.09.14,0,.21,0l.23.18a1.72,1.72,0,0,0,.52.21s.07,0,.09,0,0,0,0,.09a.11.11,0,0,0,0,.06.19.19,0,0,0-.07-.08l-.09-.07h0a1.77,1.77,0,0,0-.31-.85,1,1,0,0,0-.62-.48.26.26,0,0,0-.15,0s-.1.07,0,0a1.15,1.15,0,0,0,.15-.2.31.31,0,0,0,.06-.13"/><path class="cls-16" d="M351.44,91.27l-.18-.1a4.19,4.19,0,0,0-.46-.2,5.13,5.13,0,0,0-1.56-.36,3.57,3.57,0,0,0-.56,0l-.23,0-.07,0a.47.47,0,0,0-.16.1.48.48,0,0,0-.21.34.53.53,0,0,0,0,.22l0,.1a.58.58,0,0,0,.07.14.69.69,0,0,0,.14.15,2.25,2.25,0,0,0,1.09.54,1.16,1.16,0,0,0,.37,0A.39.39,0,0,0,350,92a.86.86,0,0,0,0-.58,2,2,0,0,0-.59-.87"/></g><path class="cls-4" d="M353.89,101c.29-.73,2.18-.85,3.62-.36,1.14.4,2.66,1.41,2.54,2.45a1.68,1.68,0,0,1-.71,1c-.9.76-1.64.44-2.95,1.07-.89.43-.74.66-1.38.92-1.93.78-4.48-.91-4.37-1.27s1.31.26,2.74-.46a2,2,0,0,0,1.17-1.07C354.84,102.37,353.64,101.69,353.89,101Z"/><g class="cls-5"><path class="cls-17" d="M356.19,100.71v0l.06.12.13.25a4.84,4.84,0,0,1,.21.47,4,4,0,0,1,.26.89,3.76,3.76,0,0,1-.1,1.76,3.22,3.22,0,0,1-1.9,1.92,7.18,7.18,0,0,1-2.84.58,9.6,9.6,0,0,1-1-.09h-.09v-.16a5.51,5.51,0,0,0,0-.7l0-.16v-.09s0-.1,0-.16-.06-.24-.06-.28a.26.26,0,0,0-.06-.13s0,0,0,0a.14.14,0,0,0,.11,0s.25-.1.34-.18A8.08,8.08,0,0,0,352,104c.09-.1.07-.09.07-.07h0v0s0,.06.06.09a1.56,1.56,0,0,0,.18.21,2.9,2.9,0,0,0,.52.38,2.2,2.2,0,0,0,1.2.34c.08,0,.32.09.21-.23a.8.8,0,0,0,.38,0,.5.5,0,0,0,.24-.11,4.28,4.28,0,0,1,.57-.34,9.71,9.71,0,0,1,1-.41,2.17,2.17,0,0,0,.38-.16c.17-.07.73.1.94-.09s.35-.25.59-.44a.5.5,0,0,0,.18-.68c-.12-.06-.48-.12-.48-.16.07-.29-.31-.49-.67-.54a2.46,2.46,0,0,0-1,.08l-.23,0-.08,0h-.18c0,.15-.09.12-.16.17a3.93,3.93,0,0,1-.63-.14c-.06,0-.08,0-.1-.06h0l0-.08a1.4,1.4,0,0,0-.1-.16.86.86,0,0,0-.15-.22c-.2-.24-.25-.23-.28-.24s.06-.08.41.42c0,0,.23-.15.52-.19a5.73,5.73,0,0,1,.83-.08c.18,0,.31,0,.31-.07s-.29-.11-.79-.1a4.76,4.76,0,0,0-.88.12,4.7,4.7,0,0,1,3.43-.41c.78.22,1,.35.92.26a3.85,3.85,0,0,0-1.17-.49,4.36,4.36,0,0,0-1.86,0,4.07,4.07,0,0,0-1.39.35,3.71,3.71,0,0,1,1.31-.8c.49-.09.76-.14,1-.17a2.23,2.23,0,0,1,1.16.29,10.49,10.49,0,0,1,1.77,1,2.83,2.83,0,0,1,1.18,1.48,4,4,0,0,0-.9-.87c-.4-.28-.83-.48-1-.68a6,6,0,0,0,1.19,1,1.56,1.56,0,0,1,.49.61,1.05,1.05,0,0,1,0,.93l-.15.45a4.92,4.92,0,0,1-.46.37,5,5,0,0,1-1.48,1,6.49,6.49,0,0,1-1,.32l-.53.14-.35.11c.06,0,.17.1.24.1a8.09,8.09,0,0,0,1-.14,3.78,3.78,0,0,0,.88-.3,7.47,7.47,0,0,0,1.38-1c.21-.15.17-.48.3-.66a3,3,0,0,0,.62-1.26c.29,1-.52,2-1.35,2.56a2.27,2.27,0,0,0-.32.53,4.45,4.45,0,0,0,1.25-.89,2.64,2.64,0,0,0,.6-1.19,2.49,2.49,0,0,0-.11-1.4,15.64,15.64,0,0,0-1.25-2l-.16-.07a.13.13,0,0,0,0-.07,2.55,2.55,0,0,1-.58-.56,6.34,6.34,0,0,1,.56.43,3.16,3.16,0,0,1,1.9,2.17,2.9,2.9,0,0,1-.1,1.49,4.61,4.61,0,0,1-.72,1.25c-.25.38-1.07.64-1.42.88a3.43,3.43,0,0,1-1,.45c-.38.12-.87.19-1.19.3l-.4.1a.31.31,0,0,1-.13,0c-.05,0,0,0-.22.09a3.55,3.55,0,0,1-1.92.66,4.25,4.25,0,0,1-1.68-.25,5.86,5.86,0,0,1-2.44-1.59l-.25-.3a1.46,1.46,0,0,1-.26-.54.59.59,0,0,1,.06-.42.53.53,0,0,1,.19-.2.39.39,0,0,1,.15-.06.57.57,0,0,1,.29,0,1.93,1.93,0,0,1,.33.09,5.92,5.92,0,0,0,1.18.26,4,4,0,0,0,1.35-.13,2.84,2.84,0,0,0,1.33-.69,1.86,1.86,0,0,0,.1-.25l-.14.07a1.71,1.71,0,0,0,.18-.2,4.52,4.52,0,0,0,0-1.42c0-.2.17.34.32.5l0-.22.17,0c-.06-.09,0-.15,0-.22a2.4,2.4,0,0,1,0,1.84,3.07,3.07,0,0,1-1.34,1.35c.27.08.59-.18.75-.29a6,6,0,0,0,.76-1,3.61,3.61,0,0,0,.29-1.64,3.38,3.38,0,0,0-.15-.86c-.05-.14-.1-.29-.17-.44l-.11-.23c0-.07,0,0,0,0h0l-1,.29h0l-.09,0-.13,0c-.09,0,0,0,0,0l1.46.57h.06l.05,0a.13.13,0,0,1,0,.06h0l-1.61-.63h0s0,0,.08,0a.62.62,0,0,0,.18,0h.06l1.49-.41h0Zm-1.11,6.16a2.27,2.27,0,0,1-.95-.18l-.29,0a1.2,1.2,0,0,0-.38,0,4.64,4.64,0,0,1-1.31-.74,2.32,2.32,0,0,0,1.45,1,3.37,3.37,0,0,1-2.09-1.13,2.67,2.67,0,0,1-.56-.9s0-.05,0-.07-.1.07-.17.08h-.07s.07.08.06.13l0,.2s.05,0,.08.05a4.64,4.64,0,0,0,.52.21,4.11,4.11,0,0,0,1.66-.06,3.71,3.71,0,0,0,1.07-.54,4.36,4.36,0,0,1-1.82.32,5.41,5.41,0,0,1-1.51-.34.25.25,0,0,0-.15,0s0,.1,0,.15a1.09,1.09,0,0,0,.19.33,4,4,0,0,0,.51.58,5.38,5.38,0,0,0,1.3.93,4.13,4.13,0,0,0,1.69.5,3.29,3.29,0,0,0,2.06-.53c.18-.14.22-.14.27-.15l.17,0c.14,0,.33-.08.49-.1.39-.1.83-.14,1.24-.23a5.26,5.26,0,0,0,1.1-.36,7.58,7.58,0,0,1-1.56.27c-.28,0-.53,0-.8.08l-.39,0-.34,0a.89.89,0,0,0-.3.09A2.35,2.35,0,0,1,355.08,106.87Zm.45-.41a5,5,0,0,0,.65-.48,5.23,5.23,0,0,1,.54-.3,8.75,8.75,0,0,1,1.13-.3A5,5,0,0,0,359,105a1.68,1.68,0,0,0,1-1.25,2.91,2.91,0,0,1-1.33,1.21,8.32,8.32,0,0,1-1,.35,6.34,6.34,0,0,0-1,.35l.3-.1.22-.06c.08,0,0,0-.15,0a3.73,3.73,0,0,0-.56.21,1.7,1.7,0,0,0-.35.19l-.18.13a3.23,3.23,0,0,1-.27.23A.61.61,0,0,1,355.53,106.46Z"/><path class="cls-17" d="M352.8,104.5a3.55,3.55,0,0,0,2-.44,12,12,0,0,1-3.09,0l-.69-.27a1.45,1.45,0,0,0-.29-.06,1.53,1.53,0,0,0-.29,0,1.37,1.37,0,0,0-.35.13l-.09,0a.86.86,0,0,0-.14.13,1.09,1.09,0,0,0-.23.33.92.92,0,0,0-.09.27,1.94,1.94,0,0,0,0,.24,1.38,1.38,0,0,0,.09.45,2,2,0,0,0,.14.3,3.41,3.41,0,0,0,.24.35,5.36,5.36,0,0,0,1.57,1.36,5.56,5.56,0,0,0,2,.72,4.15,4.15,0,0,0,1.27,0,4.1,4.1,0,0,0,1.39-.44,1.85,1.85,0,0,0,.7-.55,4.17,4.17,0,0,1-3.19.81,5.71,5.71,0,0,1-2.39-1,6.27,6.27,0,0,1-.93-.8,5.14,5.14,0,0,1-.47-.62l-.08-.16,0-.08a.46.46,0,0,1-.05-.15,1.11,1.11,0,0,1,0-.48.92.92,0,0,1,.4-.53.8.8,0,0,1,.32-.11h.17a1.2,1.2,0,0,1,.2,0A6.49,6.49,0,0,0,352.8,104.5Z"/><path class="cls-17" d="M361.19,105.7a5.33,5.33,0,0,0,.92-1.48,8.23,8.23,0,0,1-1.25,1.33,4.59,4.59,0,0,1-2.22,1.2A4.41,4.41,0,0,0,361.19,105.7Z"/><path class="cls-17" d="M357,107.11h.08a1.12,1.12,0,0,0,.36-.08l.11,0a2.22,2.22,0,0,1,.37-.09l.74-.16a9.68,9.68,0,0,1-1.8.1A.83.83,0,0,1,357,107.11Z"/></g></svg>