<svg id="Capa_2" data-name="Capa 2" xmlns="http://www.w3.org/2000/svg" xmlns:xlink="http://www.w3.org/1999/xlink" viewBox="0 0 995.52 332.53"><defs><style>.cls-1{fill:url(#Degradado_sin_nombre_17);}.cls-2,.cls-3{fill:none;stroke:#fff;stroke-miterlimit:10;}.cls-2{stroke-width:1.18px;}.cls-3{stroke-width:1.02px;}.cls-4{fill:#fff;}.cls-5,.cls-6{font-size:20px;fill:#222220;font-family:Arial-BoldMT, Arial;font-weight:700;}.cls-5{letter-spacing:-0.04em;}.cls-7{fill:url(#Degradado_sin_nombre_17-2);}</style><linearGradient id="Degradado_sin_nombre_17" x1="248.77" y1="298.05" x2="248.77" y2="19.66" gradientUnits="userSpaceOnUse"><stop offset="0.02" stop-color="#daa37c"/><stop offset="0.3" stop-color="#ce9569"/><stop offset="0.89" stop-color="#ae7236"/><stop offset="1" stop-color="#a76b2c"/></linearGradient><linearGradient id="Degradado_sin_nombre_17-2" x1="750.8" y1="298.05" x2="750.8" y2="19.66" xlink:href="#Degradado_sin_nombre_17"/></defs><title>Mesa de trabajo 2 copia 8</title><path class="cls-1" d="M90.25,24.68s27.93,22.75,47.94,20.39c19.38-2.3,42.33-2.3,42.33-2.3s6.63-2.41,20.65,1.77,23.2,1.79,41.05-1.77c41.18-8.21,192.24-24.18,188.17-23.06,0,0,5.88,17,15.8,27.71,11.57,12.43,22.19,61.42,14.8,91.47s-13.52,28.23-9.7,36.33,2.17,27.18,10,39.47,16.76,18.81,11.15,28.75-11.72,13.85-11.21,18,4.33,7.32,3.31,12.81-5.86,23.77-20.14,23.77-17.6-20.38-17.6-20.38-.76-7.57-10.45-5.48-35.95-49.4-35.95-49.4-12.24-20.39-18.1-5.23v31.89s-3.83,12.8-32.13,13.85c0,0-6.37-8.36-25.24-10.19,0,0-11-2.09-18.1-16.21,0,0-2,6.8-6.63,7.84S236.1,234,231.76,233c0,0-.51,14.38-9.43,15.16s-26.77-3.66-38,24.83c0,0-.77,5.23-13.52,6.27,0,0-4.08-8.1-4.33-15.94,0,0-11.22-10.72-8.67-23.26s11.73-34.5-9.43-39.2-36.69-2-41.28-25.23-9.46-27.05-24-34.1-35.44-18.3-35.44-18.3-23.11-1.31-24.3-14.11,22-28.49,22-28.49S76.74,70.94,90.25,24.68Z"/><path class="cls-2" d="M257.67,183.71l3.13-44.53S222.5,99.8,239.7,41.77"/><path class="cls-3" d="M111.35,177.21s23.28,3.88,52.65,6.5c34.87,3.12,78,4.75,96.21,0l86.62-18.63s99.23,1.77,115-28.37"/><path class="cls-4" d="M319.66,47.88S333.83,43.5,332.2,32c-13.37-2.66-32.54,6.67-32.54,15.17S308.94,64,332.05,64c0,0,2.45-9.5-12.55-14.83Z"/><path class="cls-4" d="M290.25,50s14.16-4.38,12.53-15.84c-13.37-2.66-32.53,6.67-32.53,15.17s9.27,16.83,32.38,16.83c0,0,2.45-9.5-12.55-14.83Z"/><path class="cls-4" d="M259.41,54.48S273.58,50.1,272,38.65c-13.37-2.67-32.54,6.67-32.54,15.17s9.28,16.83,32.39,16.83c0,0,2.45-9.5-12.55-14.83Z"/><path class="cls-4" d="M256.59,87.53s14.16-4.38,12.53-15.83c-13.37-2.67-32.53,6.67-32.53,15.17S245.86,103.7,269,103.7c0,0,2.45-9.5-12.55-14.83Z"/><path class="cls-4" d="M271.35,119.75s13.4-6.34,10.17-17.45c-13.61-.74-31.27,11.21-30.06,19.62S263,137.27,285.9,134c0,0,1.08-9.75-14.52-12.91Z"/><path class="cls-4" d="M281.53,156.11s13.61-5.87,10.77-17.08c-13.58-1.23-31.64,10.1-30.73,18.55s11,15.75,34,13.28c0,0,1.42-9.71-14.07-13.41Z"/><path class="cls-4" d="M310.68,150.17s12.88-7.36,8.8-18.18c-13.63.3-30.31,13.58-28.46,21.88s12.71,14.41,35.27,9.39c0,0,.32-9.81-15.48-11.75Z"/><path class="cls-4" d="M341.66,146.71s12.87-7.35,8.79-18.18c-13.63.31-30.31,13.58-28.46,21.88s12.71,14.41,35.27,9.39c0,0,.33-9.81-15.47-11.75Z"/><path class="cls-4" d="M373,144.08s12.87-7.35,8.79-18.18c-13.63.31-30.31,13.59-28.46,21.88s12.71,14.42,35.27,9.39c0,0,.33-9.8-15.47-11.75Z"/><path class="cls-4" d="M403.58,140.23s12.87-7.35,8.79-18.18c-13.63.31-30.31,13.59-28.46,21.88s12.71,14.42,35.27,9.39c0,0,.33-9.8-15.48-11.75Z"/><path class="cls-4" d="M299.91,117.11s13.26-6.64,9.78-17.67c-13.62-.45-31,11.89-29.62,20.27S292,134.81,314.77,131c0,0,.86-9.77-14.81-12.58Z"/><path class="cls-4" d="M327.56,113.8s13.89-5.2,11.59-16.54c-13.5-1.88-32.09,8.56-31.59,17s10.24,16.26,33.31,14.91c0,0,1.89-9.63-13.4-14.08Z"/><path class="cls-4" d="M356.48,112.3s13.43-6.28,10.24-17.4c-13.61-.81-31.31,11.06-30.15,19.48s11.5,15.41,34.39,12.24c0,0,1.12-9.75-14.47-13Z"/><path class="cls-4" d="M385.57,110.69s13.51-6.11,10.46-17.27c-13.59-1-31.45,10.67-30.39,19.1s11.3,15.55,34.23,12.67c0,0,1.25-9.73-14.3-13.16Z"/><path class="cls-4" d="M414.86,104.23S428.37,98.12,425.32,87c-13.6-1-31.45,10.67-30.39,19.1s11.3,15.55,34.23,12.67c0,0,1.24-9.73-14.3-13.16Z"/><path class="cls-4" d="M444.35,98.66s13.51-6.11,10.47-17.27c-13.6-1-31.45,10.67-30.4,19.1s11.3,15.55,34.24,12.67c0,0,1.24-9.73-14.31-13.16Z"/><path class="cls-4" d="M433.13,134.2s13.51-6.11,10.46-17.27C430,116,412.14,127.6,413.2,136s11.3,15.55,34.23,12.67c0,0,1.25-9.73-14.3-13.16Z"/><path class="cls-4" d="M287,84.2s13.9-5.15,11.64-16.5c-13.5-1.93-32.12,8.45-31.65,16.94s10.19,16.29,33.26,15c0,0,1.92-9.62-13.35-14.12Z"/><path class="cls-4" d="M346.73,77.43s13.87-5.23,11.56-16.56C344.78,59,326.21,69.48,326.72,78S337,94.21,360.06,92.82c0,0,1.87-9.63-13.42-14Z"/><path class="cls-4" d="M377.2,77s13.5-6.13,10.44-17.29c-13.6-1-31.43,10.73-30.36,19.16s11.33,15.52,34.25,12.61c0,0,1.23-9.74-14.32-13.13Z"/><path class="cls-4" d="M408.33,72s12.62-7.79,8.16-18.47c-13.61.77-29.82,14.62-27.69,22.85s13.21,14,35.58,8.17c0,0,0-9.81-15.87-11.21Z"/><path class="cls-4" d="M437.53,66.32s13.11-6.94,9.38-17.89c-13.63-.14-30.73,12.6-29.15,20.95S430,84.2,452.71,79.9c0,0,.64-9.79-15.09-12.24Z"/><path class="cls-4" d="M315.77,81.83s13.23-6.69,9.71-17.7c-13.63-.4-31,12-29.54,20.39s12,15,34.74,11.18c0,0,.83-9.78-14.85-12.52Z"/><path class="cls-4" d="M350.5,42.71S364.66,38.33,363,26.88C349.66,24.21,330.5,33.54,330.5,42s9.27,16.84,32.38,16.84c0,0,2.45-9.5-12.55-14.84Z"/><path class="cls-4" d="M381.16,42.41s13.75-5.53,11.19-16.81C378.8,24,360.47,34.92,361.17,43.39s10.63,16,33.66,14.11c0,0,1.66-9.67-13.73-13.75Z"/><path class="cls-4" d="M412.33,37s14.17-4.38,12.54-15.83c-13.37-2.67-32.54,6.67-32.54,15.17s9.27,16.83,32.39,16.83c0,0,2.44-9.5-12.56-14.83Z"/><text class="cls-5" transform="translate(272.9 303.42)">A</text><text class="cls-6" transform="translate(803.65 303.42)">B</text><path class="cls-4" d="M85.93,55.09,74.41,64.71s-4.85,2.66-3,6.28,7.08,2,7.08,2,4.34-5,8.15-4.95,7.9,7.14,7.9,7.14,3.14,2.48,4.67,1.33S95.07,66,95.07,66s-2.19-3.43-2-6.76,9.24-14.38,9.24-14.38a4.51,4.51,0,0,0,2.19-3.62c0-2.38-1.9-4-6.28-4s-10,3.81-11.71,5.14S88.6,49.57,85.93,55.09Z"/><path class="cls-4" d="M102.7,75.85,91.18,85.46s-4.85,2.67-3,6.29,7.08,2,7.08,2,4.34-5,8.15-4.95,7.9,7.14,7.9,7.14,3.14,2.48,4.67,1.34-4.1-10.56-4.1-10.56-2.19-3.44-2-6.77,9.24-14.38,9.24-14.38a4.51,4.51,0,0,0,2.19-3.62c0-2.38-1.91-4-6.29-4s-10,3.8-11.71,5.14S105.37,70.32,102.7,75.85Z"/><path class="cls-4" d="M128.32,64.27,116.8,73.89s-4.86,2.66-3,6.28,7.09,2,7.09,2,4.34-5,8.15-5,7.9,7.14,7.9,7.14,3.14,2.48,4.67,1.33-4.1-10.56-4.1-10.56-2.19-3.43-2-6.76S144.7,54,144.7,54a4.51,4.51,0,0,0,2.19-3.62c0-2.38-1.91-4-6.29-4s-10,3.81-11.71,5.14S131,58.75,128.32,64.27Z"/><path class="cls-4" d="M91.53,112.83,80,122.44s-4.86,2.67-3.05,6.29,7.08,2,7.08,2,4.34-5,8.15-4.95,7.91,7.14,7.91,7.14,3.14,2.47,4.66,1.33-4.09-10.56-4.09-10.56-2.19-3.44-2-6.77,9.23-14.37,9.23-14.37a4.51,4.51,0,0,0,2.19-3.62c0-2.38-1.9-4-6.28-4s-10,3.81-11.71,5.14S94.19,107.31,91.53,112.83Z"/><path class="cls-4" d="M72.93,90.2,61.41,99.82s-4.85,2.66-3,6.28,7.08,2,7.08,2,4.34-5,8.15-4.95,7.9,7.14,7.9,7.14,3.14,2.48,4.67,1.33-4.1-10.56-4.1-10.56-2.19-3.43-2-6.76,9.24-14.38,9.24-14.38A4.51,4.51,0,0,0,91.5,76.3c0-2.38-1.9-4-6.28-4s-10,3.81-11.71,5.14S75.6,84.68,72.93,90.2Z"/><path class="cls-4" d="M145.09,85l-11.52,9.62s-4.86,2.66-3,6.28,7.08,2,7.08,2,4.35-5,8.16-5,7.9,7.14,7.9,7.14,3.14,2.47,4.66,1.33-4.09-10.56-4.09-10.56-2.19-3.43-2-6.77,9.24-14.37,9.24-14.37a4.51,4.51,0,0,0,2.19-3.62c0-2.38-1.91-4-6.29-4s-10,3.81-11.71,5.14S147.76,79.47,145.09,85Z"/><path class="cls-4" d="M164.94,101.23l-11.52,9.61s-4.85,2.67-3,6.29,7.08,2,7.08,2,4.34-5,8.15-4.95,7.9,7.14,7.9,7.14,3.14,2.47,4.67,1.33-4.1-10.56-4.1-10.56-2.19-3.43-2-6.77S181.32,91,181.32,91a4.51,4.51,0,0,0,2.19-3.62c0-2.38-1.91-4-6.28-4s-10,3.81-11.72,5.14S167.61,95.71,164.94,101.23Z"/><path class="cls-4" d="M132.56,122.93,121,132.54s-4.86,2.67-3.05,6.29,7.08,2,7.08,2,4.34-5.05,8.15-5,7.91,7.14,7.91,7.14,3.14,2.47,4.66,1.33-4.09-10.56-4.09-10.56-2.19-3.44-2-6.77,9.23-14.38,9.23-14.38a4.48,4.48,0,0,0,2.19-3.61c0-2.38-1.9-4-6.28-4s-10,3.81-11.71,5.14S135.22,117.4,132.56,122.93Z"/><path class="cls-4" d="M213.65,102.09l-11.52,9.62s-4.86,2.67-3,6.28,7.08,2,7.08,2,4.34-5,8.15-4.95,7.91,7.14,7.91,7.14,3.14,2.48,4.66,1.34S222.79,113,222.79,113s-2.19-3.43-2-6.76S230,91.81,230,91.81a4.51,4.51,0,0,0,2.19-3.62c0-2.38-1.9-4-6.28-4s-10,3.81-11.71,5.14S216.31,96.57,213.65,102.09Z"/><path class="cls-4" d="M228.81,124l-6.29,13.63s-3.24,4.49-.05,7,7.25-1.23,7.25-1.23,1.76-6.42,5.24-8,10.2,3.06,10.2,3.06,3.9.89,4.79-.8-8.23-7.78-8.23-7.78-3.45-2.16-4.71-5.26,2.18-17,2.18-17a4.49,4.49,0,0,0,.42-4.2c-1-2.15-3.43-2.8-7.39-.92s-7.4,7.73-8.37,9.67S228.84,117.82,228.81,124Z"/><path class="cls-4" d="M183.71,120.14l-11.52,9.62s-4.85,2.66-3.05,6.28,7.09,2,7.09,2,4.34-5,8.15-4.95,7.9,7.14,7.9,7.14,3.14,2.48,4.67,1.33-4.1-10.56-4.1-10.56-2.19-3.43-2-6.76,9.24-14.38,9.24-14.38a4.51,4.51,0,0,0,2.19-3.62c0-2.38-1.91-4-6.29-4s-10,3.81-11.71,5.14S186.38,114.62,183.71,120.14Z"/><path class="cls-4" d="M200,140.88l-11.52,9.62s-4.85,2.66-3,6.28,7.08,2,7.08,2,4.34-5.05,8.15-4.95,7.9,7.14,7.9,7.14,3.15,2.47,4.67,1.33-4.1-10.56-4.1-10.56-2.19-3.43-2-6.77,9.23-14.37,9.23-14.37a4.51,4.51,0,0,0,2.19-3.62c0-2.38-1.9-4-6.28-4s-10,3.81-11.71,5.14S202.62,135.36,200,140.88Z"/><path class="cls-4" d="M155.21,137l-11.52,9.62s-4.85,2.66-3,6.28,7.08,2,7.08,2,4.34-5.05,8.15-5,7.9,7.14,7.9,7.14,3.15,2.47,4.67,1.33-4.1-10.56-4.1-10.56-2.19-3.43-2-6.77,9.23-14.37,9.23-14.37a4.51,4.51,0,0,0,2.19-3.62c0-2.38-1.9-4-6.28-4s-10,3.81-11.71,5.14S157.88,131.51,155.21,137Z"/><path class="cls-4" d="M121.68,159.71l-11.52,9.61s-4.86,2.67-3,6.29,7.08,2,7.08,2,4.35-5.05,8.15-5,7.91,7.14,7.91,7.14,3.14,2.47,4.66,1.33-4.09-10.56-4.09-10.56-2.19-3.44-2-6.77,9.23-14.38,9.23-14.38a4.48,4.48,0,0,0,2.19-3.61c0-2.38-1.9-4-6.28-4s-10,3.81-11.71,5.14S124.34,154.18,121.68,159.71Z"/><path class="cls-4" d="M170.3,198.58,178,205s3.22,1.77,2,4.17-4.7,1.33-4.7,1.33-2.89-3.35-5.41-3.29-5.25,4.74-5.25,4.74-2.09,1.65-3.1.89,2.72-7,2.72-7a8.93,8.93,0,0,0,1.33-4.5c-.13-2.21-6.13-9.54-6.13-9.54a3,3,0,0,1-1.46-2.4c0-1.58,1.27-2.66,4.17-2.66s6.64,2.53,7.78,3.42S168.53,194.91,170.3,198.58Z"/><path class="cls-4" d="M189,198.58l7.65,6.38s3.22,1.77,2,4.17-4.7,1.33-4.7,1.33-2.89-3.35-5.41-3.29-5.25,4.74-5.25,4.74-2.09,1.65-3.1.89,2.72-7,2.72-7a8.93,8.93,0,0,0,1.33-4.5c-.13-2.21-6.13-9.54-6.13-9.54a3,3,0,0,1-1.46-2.4c0-1.58,1.27-2.66,4.18-2.66s6.63,2.53,7.77,3.42S187.23,194.91,189,198.58Z"/><path class="cls-4" d="M208.62,198.58l7.65,6.38s3.22,1.77,2,4.17-4.7,1.33-4.7,1.33-2.88-3.35-5.41-3.29-5.25,4.74-5.25,4.74-2.08,1.65-3.1.89,2.72-7,2.72-7a8.82,8.82,0,0,0,1.33-4.5c-.13-2.21-6.13-9.54-6.13-9.54a3,3,0,0,1-1.46-2.4c0-1.58,1.27-2.66,4.18-2.66s6.63,2.53,7.77,3.42S206.85,194.91,208.62,198.58Z"/><path class="cls-4" d="M226.65,200.55l7.65,6.38s3.22,1.77,2,4.17-4.7,1.33-4.7,1.33-2.89-3.35-5.42-3.29-5.24,4.74-5.24,4.74-2.09,1.65-3.1.89,2.72-7,2.72-7a8.93,8.93,0,0,0,1.33-4.5c-.13-2.21-6.14-9.54-6.14-9.54a3,3,0,0,1-1.45-2.4c0-1.58,1.27-2.66,4.17-2.66s6.64,2.53,7.78,3.42S224.88,196.88,226.65,200.55Z"/><path class="cls-4" d="M178.77,222.93l7.65,6.39s3.22,1.77,2,4.17-4.7,1.33-4.7,1.33-2.88-3.35-5.41-3.29-5.25,4.74-5.25,4.74-2.08,1.64-3.09.89,2.71-7,2.71-7a8.86,8.86,0,0,0,1.33-4.5c-.13-2.21-6.13-9.54-6.13-9.54a3,3,0,0,1-1.45-2.4c0-1.58,1.26-2.66,4.17-2.66s6.63,2.53,7.77,3.41S177,219.27,178.77,222.93Z"/><path class="cls-4" d="M177.87,252.21l7.64,6.38s3.23,1.77,2,4.17-4.7,1.33-4.7,1.33-2.89-3.35-5.42-3.29-5.24,4.75-5.24,4.75-2.09,1.64-3.1.88,2.72-7,2.72-7a8.92,8.92,0,0,0,1.33-4.49c-.13-2.22-6.14-9.55-6.14-9.55a3,3,0,0,1-1.45-2.4c0-1.58,1.27-2.65,4.17-2.65s6.64,2.52,7.78,3.41S176.1,248.54,177.87,252.21Z"/><path class="cls-4" d="M197.47,222.93l7.65,6.39s3.23,1.77,2,4.17-4.7,1.33-4.7,1.33-2.88-3.35-5.41-3.29-5.25,4.74-5.25,4.74-2.08,1.64-3.09.89,2.72-7,2.72-7a8.9,8.9,0,0,0,1.32-4.5c-.12-2.21-6.13-9.54-6.13-9.54a3,3,0,0,1-1.45-2.4c0-1.58,1.26-2.66,4.17-2.66s6.64,2.53,7.77,3.41S195.7,219.27,197.47,222.93Z"/><path class="cls-4" d="M217.09,222.93l7.65,6.39s3.23,1.77,2,4.17-4.71,1.33-4.71,1.33-2.88-3.35-5.41-3.29-5.24,4.74-5.24,4.74-2.09,1.64-3.1.89,2.72-7,2.72-7a8.9,8.9,0,0,0,1.32-4.5c-.12-2.21-6.13-9.54-6.13-9.54a3,3,0,0,1-1.45-2.4c0-1.58,1.26-2.66,4.17-2.66s6.64,2.53,7.78,3.41S215.33,219.27,217.09,222.93Z"/><path class="cls-4" d="M255.12,221.9l7.65,6.39s3.22,1.77,2,4.17-4.7,1.33-4.7,1.33-2.88-3.35-5.41-3.29-5.25,4.74-5.25,4.74-2.08,1.64-3.09.89,2.71-7,2.71-7a8.81,8.81,0,0,0,1.33-4.49c-.13-2.21-6.13-9.54-6.13-9.54a3,3,0,0,1-1.45-2.41c0-1.58,1.26-2.65,4.17-2.65s6.63,2.53,7.77,3.41S253.35,218.24,255.12,221.9Z"/><path class="cls-4" d="M246.82,198.06l8.05,5.87s3.34,1.56,2.29,4-4.6,1.64-4.6,1.64-3.1-3.16-5.62-2.93-4.92,5.07-4.92,5.07-2,1.78-3,1.09,2.25-7.18,2.25-7.18a8.87,8.87,0,0,0,1-4.57c-.27-2.2-6.74-9.12-6.74-9.12a3,3,0,0,1-1.61-2.3c-.1-1.58,1.09-2.73,4-2.92s6.79,2.09,8,2.89S244.82,194.52,246.82,198.06Z"/><path class="cls-4" d="M265.49,196.84l8,5.87s3.34,1.56,2.3,4-4.61,1.63-4.61,1.63-3.1-3.15-5.61-2.92-4.93,5.07-4.93,5.07-2,1.78-3,1.09,2.25-7.18,2.25-7.18a8.87,8.87,0,0,0,1-4.57c-.27-2.2-6.74-9.12-6.74-9.12a3,3,0,0,1-1.61-2.3c-.1-1.58,1.09-2.74,4-2.92s6.79,2.08,8,2.89S263.48,193.3,265.49,196.84Z"/><path class="cls-4" d="M284.78,192l9,4.24s3.57.89,3,3.52-4.22,2.48-4.22,2.48-3.63-2.51-6.06-1.81-3.88,5.91-3.88,5.91-1.6,2.12-2.77,1.64.85-7.47.85-7.47a8.86,8.86,0,0,0,.15-4.68c-.68-2.11-8.35-7.68-8.35-7.68a3,3,0,0,1-2-2c-.4-1.52.55-2.88,3.36-3.62s7.06.76,8.38,1.33S282.14,188.91,284.78,192Z"/><path class="cls-4" d="M302.71,189.35l9,4.24s3.57.89,3,3.52-4.21,2.47-4.21,2.47-3.64-2.51-6.07-1.8-3.87,5.91-3.87,5.91-1.6,2.12-2.77,1.64.85-7.47.85-7.47a8.86,8.86,0,0,0,.15-4.68c-.69-2.11-8.35-7.68-8.35-7.68a3,3,0,0,1-2-2c-.4-1.53.55-2.89,3.37-3.62s7.06.76,8.38,1.33S300.07,186.25,302.71,189.35Z"/><path class="cls-4" d="M322.66,182.6l9,4.24s3.57.9,3,3.53-4.21,2.47-4.21,2.47-3.64-2.51-6.07-1.81-3.88,5.92-3.88,5.92-1.6,2.12-2.77,1.64.86-7.47.86-7.47a9,9,0,0,0,.14-4.69c-.68-2.1-8.35-7.68-8.35-7.68a3,3,0,0,1-2-1.95c-.4-1.53.55-2.89,3.36-3.63s7.06.77,8.39,1.34S320,179.51,322.66,182.6Z"/><path class="cls-4" d="M340.6,179.94l9,4.24s3.57.9,3,3.52-4.22,2.48-4.22,2.48-3.63-2.51-6.06-1.81-3.88,5.92-3.88,5.92-1.6,2.11-2.77,1.64.85-7.48.85-7.48a8.86,8.86,0,0,0,.15-4.68c-.68-2.11-8.35-7.68-8.35-7.68a3,3,0,0,1-2-2c-.4-1.53.55-2.89,3.37-3.63s7.06.77,8.38,1.33S338,176.84,340.6,179.94Z"/><path class="cls-4" d="M359.43,177.84l9,4.24s3.56.89,3,3.52-4.21,2.47-4.21,2.47-3.64-2.51-6.07-1.8-3.88,5.91-3.88,5.91-1.6,2.12-2.77,1.64.86-7.47.86-7.47a8.91,8.91,0,0,0,.14-4.68c-.68-2.11-8.35-7.68-8.35-7.68a3,3,0,0,1-2-2c-.4-1.53.55-2.89,3.36-3.62s7.06.76,8.39,1.33S356.79,174.74,359.43,177.84Z"/><path class="cls-4" d="M377.37,175.18l9,4.23s3.57.9,3,3.53-4.22,2.47-4.22,2.47-3.63-2.51-6.06-1.81-3.88,5.92-3.88,5.92-1.6,2.12-2.77,1.64.85-7.47.85-7.47a8.88,8.88,0,0,0,.15-4.68c-.68-2.11-8.35-7.68-8.35-7.68a3,3,0,0,1-2-2c-.4-1.53.56-2.89,3.37-3.63s7.06.77,8.38,1.34S374.73,172.08,377.37,175.18Z"/><path class="cls-4" d="M275,219.24l8,5.87s3.33,1.55,2.29,4-4.61,1.63-4.61,1.63-3.09-3.16-5.61-2.93-4.93,5.08-4.93,5.08-2,1.77-3,1.08,2.25-7.17,2.25-7.17a8.87,8.87,0,0,0,1-4.57c-.27-2.2-6.74-9.13-6.74-9.13a3,3,0,0,1-1.61-2.3c-.1-1.57,1.09-2.73,4-2.92s6.79,2.09,8,2.9S273,215.69,275,219.24Z"/><path class="cls-4" d="M298.26,214.4l9,4.24s3.57.9,3,3.53-4.21,2.47-4.21,2.47-3.64-2.51-6.07-1.81-3.88,5.92-3.88,5.92-1.6,2.12-2.77,1.64.85-7.47.85-7.47a8.88,8.88,0,0,0,.15-4.68c-.68-2.11-8.35-7.68-8.35-7.68a3,3,0,0,1-2-2c-.4-1.53.55-2.89,3.36-3.63s7.06.77,8.39,1.34S295.62,211.31,298.26,214.4Z"/><path class="cls-4" d="M310,237.11l9,4.24s3.57.9,3,3.52-4.21,2.48-4.21,2.48-3.64-2.51-6.07-1.81-3.88,5.92-3.88,5.92-1.6,2.11-2.77,1.64.86-7.47.86-7.47a9,9,0,0,0,.14-4.69c-.68-2.11-8.35-7.68-8.35-7.68a3,3,0,0,1-2-1.95c-.4-1.53.55-2.89,3.36-3.63s7.06.77,8.39,1.34S307.38,234,310,237.11Z"/><path class="cls-4" d="M316.2,211.74l9,4.24s3.57.9,3,3.52S324,222,324,222s-3.63-2.51-6.06-1.81-3.88,5.92-3.88,5.92-1.6,2.11-2.77,1.64.85-7.47.85-7.47a8.91,8.91,0,0,0,.15-4.69c-.68-2.1-8.35-7.68-8.35-7.68a3,3,0,0,1-2-1.95c-.4-1.53.55-2.89,3.37-3.63s7.06.77,8.38,1.34S313.55,208.64,316.2,211.74Z"/><path class="cls-4" d="M328.68,232.72l9,4.24s3.56.89,3,3.52S336.5,243,336.5,243s-3.64-2.51-6.07-1.8-3.87,5.91-3.87,5.91-1.61,2.12-2.78,1.64.86-7.47.86-7.47a8.8,8.8,0,0,0,.14-4.68c-.68-2.11-8.35-7.68-8.35-7.68a3,3,0,0,1-2-2c-.4-1.53.55-2.89,3.36-3.62s7.06.76,8.39,1.33S326,229.62,328.68,232.72Z"/><path class="cls-4" d="M346.62,230.06l9,4.23s3.57.9,3,3.53-4.22,2.47-4.22,2.47-3.63-2.51-6.06-1.81-3.88,5.92-3.88,5.92-1.6,2.12-2.77,1.64.85-7.47.85-7.47a8.88,8.88,0,0,0,.15-4.68c-.68-2.11-8.35-7.68-8.35-7.68a3,3,0,0,1-2-2c-.4-1.53.55-2.89,3.36-3.62s7.06.76,8.38,1.33S344,227,346.62,230.06Z"/><path class="cls-4" d="M336.14,205l9,4.24s3.56.89,3,3.52-4.21,2.48-4.21,2.48-3.64-2.51-6.07-1.81-3.87,5.91-3.87,5.91-1.61,2.12-2.78,1.64.86-7.47.86-7.47a8.8,8.8,0,0,0,.14-4.68c-.68-2.11-8.35-7.68-8.35-7.68a3,3,0,0,1-2-2c-.4-1.52.55-2.88,3.36-3.62s7.06.76,8.39,1.33S333.5,201.9,336.14,205Z"/><path class="cls-4" d="M354.08,202.34l9,4.24s3.57.89,3,3.52-4.22,2.47-4.22,2.47-3.63-2.51-6.06-1.8-3.88,5.91-3.88,5.91-1.6,2.12-2.77,1.64.85-7.47.85-7.47a8.86,8.86,0,0,0,.15-4.68c-.68-2.11-8.35-7.68-8.35-7.68a3,3,0,0,1-2-2c-.4-1.53.55-2.89,3.36-3.62s7.06.76,8.38,1.33S351.44,199.24,354.08,202.34Z"/><path class="cls-4" d="M382.51,202.19l9,4.24s3.57.89,3,3.52-4.21,2.48-4.21,2.48-3.64-2.51-6.07-1.81-3.87,5.91-3.87,5.91-1.6,2.12-2.77,1.64.85-7.47.85-7.47a8.86,8.86,0,0,0,.15-4.68c-.69-2.11-8.35-7.68-8.35-7.68a3,3,0,0,1-2-2c-.4-1.52.55-2.88,3.37-3.62s7.06.76,8.38,1.33S379.87,199.09,382.51,202.19Z"/><path class="cls-4" d="M401.81,202.34l9,4.24s3.57.89,3,3.52-4.21,2.47-4.21,2.47-3.64-2.51-6.07-1.8-3.87,5.91-3.87,5.91-1.6,2.12-2.77,1.64.85-7.47.85-7.47a8.86,8.86,0,0,0,.15-4.68c-.69-2.11-8.35-7.68-8.35-7.68a3,3,0,0,1-2-2c-.4-1.53.55-2.89,3.37-3.62s7.06.76,8.38,1.33S399.17,199.24,401.81,202.34Z"/><path class="cls-4" d="M418.79,200.92l9,4.24s3.57.9,3,3.53-4.22,2.47-4.22,2.47-3.63-2.51-6.06-1.81-3.88,5.92-3.88,5.92-1.6,2.11-2.77,1.64.85-7.47.85-7.47a8.91,8.91,0,0,0,.15-4.69c-.68-2.1-8.35-7.68-8.35-7.68a3,3,0,0,1-2-1.95c-.4-1.53.55-2.89,3.36-3.63s7.06.77,8.38,1.34S416.15,197.83,418.79,200.92Z"/><path class="cls-4" d="M436.32,198.9l9,4.24s3.57.9,3,3.52-4.22,2.48-4.22,2.48-3.64-2.51-6.06-1.81-3.88,5.91-3.88,5.91-1.6,2.12-2.77,1.65.85-7.48.85-7.48a8.86,8.86,0,0,0,.15-4.68c-.68-2.11-8.35-7.68-8.35-7.68a3,3,0,0,1-2-2c-.4-1.53.55-2.89,3.37-3.63s7.06.77,8.38,1.33S433.67,195.8,436.32,198.9Z"/><path class="cls-4" d="M401.54,230.6l9,4.24s3.57.89,3,3.52-4.22,2.48-4.22,2.48-3.63-2.51-6.06-1.81-3.88,5.91-3.88,5.91-1.6,2.12-2.77,1.64.85-7.47.85-7.47a8.86,8.86,0,0,0,.15-4.68c-.68-2.11-8.35-7.68-8.35-7.68a3,3,0,0,1-2-2c-.41-1.52.55-2.88,3.36-3.62s7.06.76,8.38,1.33S398.9,227.5,401.54,230.6Z"/><path class="cls-4" d="M418.51,229.19l9,4.23s3.56.9,3,3.53-4.21,2.47-4.21,2.47-3.64-2.51-6.07-1.81-3.88,5.92-3.88,5.92-1.6,2.12-2.77,1.64.86-7.47.86-7.47a8.92,8.92,0,0,0,.14-4.68c-.68-2.11-8.35-7.68-8.35-7.68a3,3,0,0,1-2-2c-.4-1.53.55-2.89,3.36-3.62s7.06.76,8.39,1.33S415.87,226.09,418.51,229.19Z"/><path class="cls-4" d="M436,227.16l9,4.24s3.57.9,3,3.53-4.21,2.47-4.21,2.47-3.64-2.51-6.07-1.81-3.88,5.92-3.88,5.92-1.6,2.11-2.77,1.64.85-7.47.85-7.47a8.91,8.91,0,0,0,.15-4.69c-.68-2.1-8.35-7.68-8.35-7.68a3,3,0,0,1-2-1.95c-.4-1.53.55-2.89,3.36-3.63s7.06.77,8.39,1.34S433.4,224.07,436,227.16Z"/><path class="cls-4" d="M456.42,227.16l9,4.24s3.57.9,3,3.53-4.21,2.47-4.21,2.47-3.64-2.51-6.07-1.81-3.88,5.92-3.88,5.92-1.6,2.11-2.77,1.64.86-7.47.86-7.47a9,9,0,0,0,.14-4.69c-.68-2.1-8.35-7.68-8.35-7.68a3,3,0,0,1-2-1.95c-.4-1.53.55-2.89,3.36-3.63s7.06.77,8.39,1.34S453.78,224.07,456.42,227.16Z"/><path class="cls-4" d="M428.28,253.4l9,4.24s3.56.9,3,3.53-4.21,2.47-4.21,2.47-3.64-2.51-6.07-1.81-3.87,5.92-3.87,5.92-1.61,2.11-2.78,1.64.86-7.47.86-7.47a9,9,0,0,0,.14-4.69c-.68-2.1-8.35-7.68-8.35-7.68a3,3,0,0,1-2-2c-.4-1.53.55-2.89,3.36-3.63s7.06.77,8.39,1.34S425.64,250.31,428.28,253.4Z"/><path class="cls-4" d="M448.66,253.4l9,4.24s3.56.9,3,3.53-4.21,2.47-4.21,2.47-3.64-2.51-6.07-1.81-3.87,5.92-3.87,5.92-1.61,2.11-2.78,1.64.86-7.47.86-7.47a8.84,8.84,0,0,0,.14-4.69c-.68-2.1-8.35-7.68-8.35-7.68a3,3,0,0,1-2-2c-.4-1.53.55-2.89,3.36-3.63s7.06.77,8.39,1.34S446,250.31,448.66,253.4Z"/><path class="cls-4" d="M397.1,176.51l9,4.23s3.57.9,3,3.53-4.22,2.47-4.22,2.47-3.63-2.51-6.06-1.81-3.88,5.92-3.88,5.92-1.6,2.12-2.77,1.64.85-7.47.85-7.47a8.88,8.88,0,0,0,.15-4.68c-.68-2.11-8.35-7.68-8.35-7.68a3,3,0,0,1-2-2c-.4-1.53.55-2.89,3.37-3.62s7.06.76,8.38,1.33S394.45,173.41,397.1,176.51Z"/><path class="cls-4" d="M415,173.84l9,4.24s3.57.9,3,3.53-4.21,2.47-4.21,2.47-3.64-2.51-6.07-1.81-3.87,5.92-3.87,5.92-1.6,2.12-2.77,1.64.85-7.47.85-7.47a8.91,8.91,0,0,0,.15-4.69c-.69-2.1-8.35-7.68-8.35-7.68a3,3,0,0,1-2-2c-.4-1.53.55-2.89,3.36-3.63s7.07.77,8.39,1.34S412.39,170.75,415,173.84Z"/><path class="cls-4" d="M433.69,170.11l9,4.24s3.56.89,3,3.52-4.21,2.47-4.21,2.47-3.64-2.51-6.07-1.81-3.87,5.92-3.87,5.92-1.61,2.12-2.78,1.64.86-7.47.86-7.47a8.81,8.81,0,0,0,.14-4.68c-.68-2.11-8.35-7.68-8.35-7.68a3,3,0,0,1-2-2c-.4-1.53.55-2.89,3.36-3.62s7.06.76,8.39,1.33S431.05,167,433.69,170.11Z"/><path class="cls-4" d="M169.18,160.32l-11.52,9.61s-4.86,2.67-3,6.29,7.08,2,7.08,2,4.35-5.05,8.15-4.95,7.91,7.14,7.91,7.14,3.14,2.47,4.66,1.33-4.09-10.56-4.09-10.56-2.19-3.44-2-6.77S185.55,150,185.55,150a4.48,4.48,0,0,0,2.19-3.61c0-2.38-1.9-4-6.28-4s-10,3.81-11.71,5.14S171.84,154.79,169.18,160.32Z"/><path class="cls-4" d="M216.72,162.76l-11.52,9.62s-4.85,2.66-3,6.28,7.08,2,7.08,2,4.34-5,8.15-4.95,7.9,7.14,7.9,7.14,3.14,2.48,4.67,1.33-4.1-10.56-4.1-10.56-2.19-3.43-2-6.76,9.24-14.38,9.24-14.38a4.51,4.51,0,0,0,2.19-3.62c0-2.38-1.91-4-6.28-4s-10,3.81-11.72,5.14S219.39,157.24,216.72,162.76Z"/><path class="cls-4" d="M242.52,157.08,231,166.7s-4.86,2.66-3.05,6.28,7.08,2,7.08,2,4.35-5,8.16-4.95,7.9,7.14,7.9,7.14,3.14,2.47,4.66,1.33-4.09-10.56-4.09-10.56-2.19-3.43-2-6.77,9.24-14.37,9.24-14.37a4.51,4.51,0,0,0,2.19-3.62c0-2.38-1.91-4-6.29-4s-10,3.81-11.71,5.14S245.19,151.56,242.52,157.08Z"/><path class="cls-4" d="M218.81,65.93l-9.49,11.62s-4.26,3.54-1.8,6.75,7.33.62,7.33.62,3.31-5.77,7.07-6.4S231,84,231,84s3.55,1.84,4.83.43-6-9.59-6-9.59-2.8-3-3.24-6.27S233,52.73,233,52.73a4.5,4.5,0,0,0,1.46-4c-.45-2.34-2.62-3.57-6.92-2.74s-9.1,5.63-10.53,7.26S220.39,60,218.81,65.93Z"/><path class="cls-4" d="M193.35,83.72l-11.52,9.62s-4.85,2.66-3,6.28,7.08,2,7.08,2,4.34-5.05,8.15-5,7.9,7.14,7.9,7.14,3.14,2.47,4.67,1.33-4.1-10.56-4.1-10.56-2.19-3.43-2-6.77,9.24-14.37,9.24-14.37a4.51,4.51,0,0,0,2.19-3.62c0-2.38-1.91-4-6.28-4s-10,3.81-11.72,5.14S196,78.2,193.35,83.72Z"/><path class="cls-4" d="M178.54,62.2,167,71.82s-4.85,2.67-3,6.29,7.08,2,7.08,2,4.34-5,8.15-4.95,7.9,7.14,7.9,7.14,3.14,2.48,4.67,1.34-4.1-10.56-4.1-10.56-2.19-3.44-2-6.77,9.24-14.38,9.24-14.38a4.51,4.51,0,0,0,2.19-3.62c0-2.38-1.9-4-6.28-4s-10,3.8-11.71,5.14S181.21,56.68,178.54,62.2Z"/><path class="cls-4" d="M117.3,102.09l-11.52,9.62s-4.86,2.67-3,6.28,7.08,2,7.08,2,4.35-5,8.16-4.95,7.9,7.14,7.9,7.14,3.14,2.48,4.66,1.34S126.44,113,126.44,113s-2.19-3.43-2-6.76,9.24-14.38,9.24-14.38a4.51,4.51,0,0,0,2.19-3.62c0-2.38-1.91-4-6.29-4s-10,3.81-11.71,5.14S120,96.57,117.3,102.09Z"/><path class="cls-4" d="M47.93,95.66l-11.52,9.61s-4.85,2.67-3,6.29,7.08,2,7.08,2,4.34-5,8.15-5,7.9,7.14,7.9,7.14,3.14,2.47,4.67,1.33-4.1-10.56-4.1-10.56-2.19-3.44-2-6.77,9.24-14.38,9.24-14.38a4.48,4.48,0,0,0,2.19-3.61c0-2.38-1.9-4-6.28-4s-10,3.81-11.71,5.14S50.6,90.13,47.93,95.66Z"/><path class="cls-7" d="M592.29,24.68s27.92,22.75,47.93,20.39c19.39-2.3,42.33-2.3,42.33-2.3s6.63-2.41,20.66,1.77,23.19,1.79,41-1.77c41.17-8.21,192.23-24.18,188.16-23.06,0,0,5.88,17,15.81,27.71,11.56,12.43,22.18,61.42,14.79,91.47s-13.52,28.23-9.7,36.33,2.18,27.18,10,39.47,16.77,18.81,11.16,28.75-11.73,13.85-11.22,18,4.33,7.32,3.31,12.81-5.86,23.77-20.14,23.77-17.59-20.38-17.59-20.38-.77-7.57-10.46-5.48-35.95-49.4-35.95-49.4-12.24-20.39-18.1-5.23v31.89s-3.82,12.8-32.13,13.85c0,0-6.37-8.36-25.24-10.19,0,0-11-2.09-18.1-16.21,0,0-2,6.8-6.63,7.84S738.13,234,733.8,233c0,0-.51,14.38-9.44,15.16s-26.77-3.66-38,24.83c0,0-.76,5.23-13.51,6.27,0,0-4.08-8.1-4.34-15.94,0,0-11.22-10.72-8.67-23.26s11.73-34.5-9.43-39.2-36.69-2-41.28-25.23-9.46-27.05-24-34.1-35.44-18.3-35.44-18.3-23.12-1.31-24.31-14.11,22-28.49,22-28.49S578.77,70.94,592.29,24.68Z"/><path class="cls-2" d="M759.7,183.71l3.13-44.53s-38.3-39.38-21.09-97.41"/><path class="cls-3" d="M613.38,177.21s23.28,3.88,52.65,6.5c34.87,3.12,78,4.75,96.21,0l86.62-18.63s99.23,1.77,115-28.37"/><path class="cls-4" d="M833.78,45.27S845,40,842.27,30.69c-11.38-.62-26.12,9.37-25.12,16.41s9.67,12.82,28.79,10.08c0,0,.9-8.15-12.14-10.78Z"/><path class="cls-4" d="M809.2,48.12S820.5,43,818,33.71c-11.36-.85-26.3,8.85-25.44,15.9s9.41,13,28.58,10.66c0,0,1.06-8.13-11.92-11Z"/><path class="cls-4" d="M783.86,50.91s11.43-4.8,9.14-14.19c-11.34-1.13-26.52,8.2-25.83,15.27s9.09,13.24,28.32,11.36c0,0,1.26-8.1-11.66-11.32Z"/><path class="cls-4" d="M757.18,55S769,51.3,767.66,41.72c-11.18-2.22-27.19,5.58-27.19,12.68s7.75,14.07,27.06,14.07c0,0,2.05-7.94-10.49-12.4Z"/><path class="cls-4" d="M858.56,42.09s11.42-4.82,9.11-14.21c-11.34-1.11-26.5,8.24-25.8,15.31S851,56.42,870.2,54.5c0,0,1.25-8.1-11.67-11.29Z"/><path class="cls-4" d="M883.64,39.09s11.15-5.4,8.36-14.66c-11.38-.52-26,9.6-25,16.62s9.78,12.74,28.87,9.84c0,0,.83-8.16-12.23-10.68Z"/><path class="cls-4" d="M909.51,37.19s11.14-5.42,8.34-14.67c-11.38-.51-26,9.64-25,16.66s9.81,12.73,28.9,9.79c0,0,.81-8.16-12.26-10.66Z"/><path class="cls-4" d="M588,55.09l-11.52,9.62s-4.86,2.66-3.05,6.28,7.08,2,7.08,2,4.34-5,8.15-4.95,7.91,7.14,7.91,7.14,3.14,2.48,4.66,1.33S597.11,66,597.11,66s-2.19-3.43-2-6.76,9.23-14.38,9.23-14.38a4.51,4.51,0,0,0,2.19-3.62c0-2.38-1.9-4-6.28-4s-10,3.81-11.71,5.14S590.63,49.57,588,55.09Z"/><path class="cls-4" d="M604.74,75.85l-11.53,9.61s-4.85,2.67-3,6.29,7.08,2,7.08,2,4.34-5,8.15-4.95,7.9,7.14,7.9,7.14,3.15,2.48,4.67,1.34-4.09-10.56-4.09-10.56-2.19-3.44-2-6.77,9.23-14.38,9.23-14.38a4.51,4.51,0,0,0,2.19-3.62c0-2.38-1.9-4-6.28-4s-10,3.8-11.71,5.14S607.4,70.32,604.74,75.85Z"/><path class="cls-4" d="M630.35,64.27l-11.52,9.62s-4.85,2.66-3,6.28,7.08,2,7.08,2,4.34-5,8.15-5,7.9,7.14,7.9,7.14,3.14,2.48,4.67,1.33-4.1-10.56-4.1-10.56-2.19-3.43-2-6.76S646.73,54,646.73,54a4.51,4.51,0,0,0,2.19-3.62c0-2.38-1.9-4-6.28-4s-10,3.81-11.71,5.14S633,58.75,630.35,64.27Z"/><path class="cls-4" d="M593.56,112.83,582,122.44s-4.86,2.67-3,6.29,7.08,2,7.08,2,4.35-5,8.16-4.95,7.9,7.14,7.9,7.14,3.14,2.47,4.66,1.33-4.09-10.56-4.09-10.56-2.19-3.44-2-6.77,9.24-14.37,9.24-14.37a4.51,4.51,0,0,0,2.19-3.62c0-2.38-1.91-4-6.29-4s-10,3.81-11.71,5.14S596.23,107.31,593.56,112.83Z"/><path class="cls-4" d="M575,90.2l-11.52,9.62s-4.86,2.66-3.05,6.28,7.08,2,7.08,2,4.34-5,8.15-4.95,7.91,7.14,7.91,7.14,3.14,2.48,4.66,1.33-4.09-10.56-4.09-10.56-2.19-3.43-2-6.76,9.23-14.38,9.23-14.38a4.51,4.51,0,0,0,2.19-3.62c0-2.38-1.9-4-6.28-4s-10,3.81-11.71,5.14S577.63,84.68,575,90.2Z"/><path class="cls-4" d="M647.12,85,635.6,94.61s-4.85,2.66-3,6.28,7.08,2,7.08,2,4.34-5,8.15-5,7.9,7.14,7.9,7.14,3.14,2.47,4.67,1.33-4.1-10.56-4.1-10.56-2.19-3.43-2-6.77,9.24-14.37,9.24-14.37a4.51,4.51,0,0,0,2.19-3.62c0-2.38-1.91-4-6.29-4s-10,3.81-11.71,5.14S649.79,79.47,647.12,85Z"/><path class="cls-4" d="M667,101.23l-11.52,9.61s-4.86,2.67-3.05,6.29,7.08,2,7.08,2,4.34-5,8.15-4.95,7.9,7.14,7.9,7.14,3.15,2.47,4.67,1.33-4.09-10.56-4.09-10.56-2.19-3.43-2-6.77S683.35,91,683.35,91a4.51,4.51,0,0,0,2.19-3.62c0-2.38-1.9-4-6.28-4s-10,3.81-11.71,5.14S669.64,95.71,667,101.23Z"/><path class="cls-4" d="M634.59,122.93l-11.52,9.61s-4.86,2.67-3.05,6.29,7.08,2,7.08,2,4.35-5.05,8.16-5,7.9,7.14,7.9,7.14,3.14,2.47,4.66,1.33-4.09-10.56-4.09-10.56-2.19-3.44-2-6.77S651,112.64,651,112.64a4.48,4.48,0,0,0,2.19-3.61c0-2.38-1.91-4-6.29-4s-10,3.81-11.71,5.14S637.26,117.4,634.59,122.93Z"/><path class="cls-4" d="M715.68,102.09l-11.52,9.62s-4.86,2.67-3,6.28,7.08,2,7.08,2,4.35-5,8.16-4.95,7.9,7.14,7.9,7.14,3.14,2.48,4.66,1.34S724.82,113,724.82,113s-2.19-3.43-2-6.76,9.24-14.38,9.24-14.38a4.51,4.51,0,0,0,2.19-3.62c0-2.38-1.91-4-6.29-4S718,88,716.25,89.33,718.35,96.57,715.68,102.09Z"/><path class="cls-4" d="M730.84,124l-6.28,13.63s-3.25,4.49-.06,7,7.26-1.23,7.26-1.23,1.75-6.42,5.23-8,10.21,3.06,10.21,3.06,3.9.89,4.78-.8-8.23-7.78-8.23-7.78-3.45-2.16-4.71-5.26,2.18-17,2.18-17a4.48,4.48,0,0,0,.43-4.2c-1-2.15-3.44-2.8-7.4-.92s-7.39,7.73-8.37,9.67S730.88,117.82,730.84,124Z"/><path class="cls-4" d="M685.74,120.14l-11.52,9.62s-4.85,2.66-3,6.28,7.08,2,7.08,2,4.34-5,8.15-4.95,7.9,7.14,7.9,7.14,3.15,2.48,4.67,1.33-4.1-10.56-4.1-10.56-2.19-3.43-2-6.76,9.23-14.38,9.23-14.38a4.51,4.51,0,0,0,2.19-3.62c0-2.38-1.9-4-6.28-4s-10,3.81-11.71,5.14S688.41,114.62,685.74,120.14Z"/><path class="cls-4" d="M702,140.88l-11.52,9.62s-4.86,2.66-3.05,6.28,7.08,2,7.08,2,4.35-5.05,8.15-4.95,7.91,7.14,7.91,7.14,3.14,2.47,4.66,1.33-4.09-10.56-4.09-10.56-2.19-3.43-2-6.77,9.23-14.37,9.23-14.37a4.51,4.51,0,0,0,2.19-3.62c0-2.38-1.9-4-6.28-4s-10,3.81-11.71,5.14S704.65,135.36,702,140.88Z"/><path class="cls-4" d="M657.25,137l-11.52,9.62s-4.86,2.66-3.05,6.28,7.08,2,7.08,2,4.35-5.05,8.15-5,7.91,7.14,7.91,7.14,3.14,2.47,4.66,1.33-4.09-10.56-4.09-10.56-2.19-3.43-2-6.77,9.23-14.37,9.23-14.37a4.51,4.51,0,0,0,2.19-3.62c0-2.38-1.9-4-6.28-4s-10,3.81-11.71,5.14S659.91,131.51,657.25,137Z"/><path class="cls-4" d="M623.71,159.71l-11.52,9.61s-4.86,2.67-3.05,6.29,7.08,2,7.08,2,4.35-5.05,8.16-5,7.9,7.14,7.9,7.14,3.14,2.47,4.66,1.33-4.09-10.56-4.09-10.56-2.19-3.44-2-6.77,9.24-14.38,9.24-14.38a4.48,4.48,0,0,0,2.19-3.61c0-2.38-1.91-4-6.29-4s-10,3.81-11.71,5.14S626.38,154.18,623.71,159.71Z"/><path class="cls-4" d="M672.33,198.58,680,205s3.22,1.77,2,4.17-4.7,1.33-4.7,1.33-2.88-3.35-5.41-3.29-5.25,4.74-5.25,4.74-2.08,1.65-3.1.89,2.72-7,2.72-7a8.82,8.82,0,0,0,1.33-4.5c-.13-2.21-6.13-9.54-6.13-9.54a3,3,0,0,1-1.46-2.4c0-1.58,1.27-2.66,4.18-2.66s6.63,2.53,7.77,3.42S670.56,194.91,672.33,198.58Z"/><path class="cls-4" d="M691,198.58l7.65,6.38s3.22,1.77,2,4.17-4.7,1.33-4.7,1.33-2.88-3.35-5.41-3.29-5.25,4.74-5.25,4.74-2.08,1.65-3.09.89,2.71-7,2.71-7a8.82,8.82,0,0,0,1.33-4.5c-.12-2.21-6.13-9.54-6.13-9.54a3,3,0,0,1-1.45-2.4c0-1.58,1.26-2.66,4.17-2.66s6.64,2.53,7.77,3.42S689.26,194.91,691,198.58Z"/><path class="cls-4" d="M710.65,198.58,718.3,205s3.23,1.77,2,4.17-4.7,1.33-4.7,1.33-2.88-3.35-5.41-3.29-5.25,4.74-5.25,4.74-2.08,1.65-3.09.89,2.72-7,2.72-7a8.86,8.86,0,0,0,1.32-4.5c-.12-2.21-6.13-9.54-6.13-9.54a3,3,0,0,1-1.45-2.4c0-1.58,1.26-2.66,4.17-2.66s6.64,2.53,7.77,3.42S708.88,194.91,710.65,198.58Z"/><path class="cls-4" d="M728.68,200.55l7.65,6.38s3.22,1.77,2,4.17-4.7,1.33-4.7,1.33-2.88-3.35-5.41-3.29-5.25,4.74-5.25,4.74-2.08,1.65-3.1.89,2.72-7,2.72-7a8.82,8.82,0,0,0,1.33-4.5c-.13-2.21-6.13-9.54-6.13-9.54a3,3,0,0,1-1.46-2.4c0-1.58,1.27-2.66,4.18-2.66s6.63,2.53,7.77,3.42S726.91,196.88,728.68,200.55Z"/><path class="cls-4" d="M680.81,222.93l7.64,6.39s3.23,1.77,2,4.17-4.71,1.33-4.71,1.33-2.88-3.35-5.41-3.29-5.24,4.74-5.24,4.74-2.09,1.64-3.1.89,2.72-7,2.72-7a8.9,8.9,0,0,0,1.32-4.5c-.12-2.21-6.13-9.54-6.13-9.54a3,3,0,0,1-1.45-2.4c0-1.58,1.26-2.66,4.17-2.66s6.64,2.53,7.78,3.41S679,219.27,680.81,222.93Z"/><path class="cls-4" d="M679.9,252.21l7.65,6.38s3.22,1.77,2,4.17-4.7,1.33-4.7,1.33-2.88-3.35-5.41-3.29-5.25,4.75-5.25,4.75-2.09,1.64-3.1.88,2.72-7,2.72-7a8.81,8.81,0,0,0,1.33-4.49c-.13-2.22-6.13-9.55-6.13-9.55a3,3,0,0,1-1.46-2.4c0-1.58,1.27-2.65,4.18-2.65s6.63,2.52,7.77,3.41S678.13,248.54,679.9,252.21Z"/><path class="cls-4" d="M699.51,222.93l7.64,6.39s3.23,1.77,2,4.17-4.7,1.33-4.7,1.33-2.89-3.35-5.42-3.29-5.24,4.74-5.24,4.74-2.09,1.64-3.1.89,2.72-7,2.72-7a9,9,0,0,0,1.33-4.5c-.13-2.21-6.14-9.54-6.14-9.54a3,3,0,0,1-1.45-2.4c0-1.58,1.26-2.66,4.17-2.66s6.64,2.53,7.78,3.41S697.74,219.27,699.51,222.93Z"/><path class="cls-4" d="M719.13,222.93l7.65,6.39s3.22,1.77,2,4.17-4.7,1.33-4.7,1.33-2.89-3.35-5.41-3.29-5.25,4.74-5.25,4.74-2.09,1.64-3.1.89,2.72-7,2.72-7a9,9,0,0,0,1.33-4.5c-.13-2.21-6.13-9.54-6.13-9.54a3,3,0,0,1-1.46-2.4c0-1.58,1.27-2.66,4.17-2.66s6.64,2.53,7.78,3.41S717.36,219.27,719.13,222.93Z"/><path class="cls-4" d="M757.15,221.9l7.65,6.39s3.23,1.77,2,4.17-4.71,1.33-4.71,1.33-2.88-3.35-5.41-3.29-5.24,4.74-5.24,4.74-2.09,1.64-3.1.89,2.72-7,2.72-7a8.85,8.85,0,0,0,1.32-4.49c-.12-2.21-6.13-9.54-6.13-9.54a3,3,0,0,1-1.45-2.41c0-1.58,1.26-2.65,4.17-2.65s6.64,2.53,7.78,3.41S755.38,218.24,757.15,221.9Z"/><path class="cls-4" d="M748.86,198.06l8,5.87s3.33,1.56,2.29,4-4.61,1.64-4.61,1.64-3.09-3.16-5.61-2.93-4.93,5.07-4.93,5.07-2,1.78-3,1.09,2.25-7.18,2.25-7.18a8.87,8.87,0,0,0,1-4.57c-.27-2.2-6.74-9.12-6.74-9.12a3,3,0,0,1-1.61-2.3c-.1-1.58,1.09-2.73,4-2.92s6.79,2.09,8,2.89S746.85,194.52,748.86,198.06Z"/><path class="cls-4" d="M767.52,196.84l8.05,5.87s3.33,1.56,2.29,4-4.61,1.63-4.61,1.63-3.09-3.15-5.61-2.92-4.93,5.07-4.93,5.07-2,1.78-3,1.09,2.25-7.18,2.25-7.18a8.83,8.83,0,0,0,1-4.57c-.28-2.2-6.75-9.12-6.75-9.12a3,3,0,0,1-1.6-2.3c-.11-1.58,1.08-2.74,4-2.92s6.78,2.08,8,2.89S765.51,193.3,767.52,196.84Z"/><path class="cls-4" d="M786.81,192l9,4.24s3.56.89,3,3.52-4.21,2.48-4.21,2.48-3.64-2.51-6.07-1.81-3.87,5.91-3.87,5.91-1.61,2.12-2.78,1.64.86-7.47.86-7.47a8.8,8.8,0,0,0,.14-4.68c-.68-2.11-8.35-7.68-8.35-7.68a3,3,0,0,1-2-2c-.4-1.52.55-2.88,3.36-3.62s7.06.76,8.39,1.33S784.17,188.91,786.81,192Z"/><path class="cls-4" d="M804.75,189.35l9,4.24s3.57.89,3,3.52-4.21,2.47-4.21,2.47-3.64-2.51-6.07-1.8-3.88,5.91-3.88,5.91-1.6,2.12-2.77,1.64.85-7.47.85-7.47a8.86,8.86,0,0,0,.15-4.68c-.68-2.11-8.35-7.68-8.35-7.68a3,3,0,0,1-2-2c-.4-1.53.55-2.89,3.36-3.62s7.06.76,8.38,1.33S802.11,186.25,804.75,189.35Z"/><path class="cls-4" d="M824.69,182.6l9,4.24s3.56.9,3,3.53-4.21,2.47-4.21,2.47-3.64-2.51-6.07-1.81-3.87,5.92-3.87,5.92-1.6,2.12-2.78,1.64.86-7.47.86-7.47a8.84,8.84,0,0,0,.14-4.69c-.68-2.1-8.34-7.68-8.34-7.68a3,3,0,0,1-2-1.95c-.4-1.53.55-2.89,3.36-3.63s7.06.77,8.39,1.34S822.05,179.51,824.69,182.6Z"/><path class="cls-4" d="M842.63,179.94l9,4.24s3.56.9,3,3.52-4.21,2.48-4.21,2.48-3.64-2.51-6.07-1.81-3.88,5.92-3.88,5.92-1.6,2.11-2.77,1.64.86-7.48.86-7.48a8.91,8.91,0,0,0,.14-4.68c-.68-2.11-8.35-7.68-8.35-7.68a3,3,0,0,1-2-2c-.4-1.53.55-2.89,3.36-3.63s7.06.77,8.39,1.33S840,176.84,842.63,179.94Z"/><path class="cls-4" d="M861.46,177.84l9,4.24s3.57.89,3,3.52-4.21,2.47-4.21,2.47-3.64-2.51-6.07-1.8-3.87,5.91-3.87,5.91-1.6,2.12-2.77,1.64.85-7.47.85-7.47a8.8,8.8,0,0,0,.14-4.68c-.68-2.11-8.34-7.68-8.34-7.68a3,3,0,0,1-2-2c-.4-1.53.55-2.89,3.36-3.62s7.07.76,8.39,1.33S858.82,174.74,861.46,177.84Z"/><path class="cls-4" d="M879.4,175.18l9,4.23s3.56.9,3,3.53-4.21,2.47-4.21,2.47-3.64-2.51-6.07-1.81-3.88,5.92-3.88,5.92-1.6,2.12-2.77,1.64.86-7.47.86-7.47a8.92,8.92,0,0,0,.14-4.68c-.68-2.11-8.35-7.68-8.35-7.68a3,3,0,0,1-2-2c-.4-1.53.55-2.89,3.36-3.63s7.06.77,8.39,1.34S876.76,172.08,879.4,175.18Z"/><path class="cls-4" d="M777,219.24l8,5.87s3.33,1.55,2.29,4-4.61,1.63-4.61,1.63-3.09-3.16-5.61-2.93-4.93,5.08-4.93,5.08-2,1.77-3,1.08,2.26-7.17,2.26-7.17a8.87,8.87,0,0,0,1-4.57c-.27-2.2-6.75-9.13-6.75-9.13a3,3,0,0,1-1.6-2.3c-.11-1.57,1.09-2.73,4-2.92s6.78,2.09,8,2.9S775,215.69,777,219.24Z"/><path class="cls-4" d="M800.29,214.4l9,4.24s3.56.9,3,3.53-4.21,2.47-4.21,2.47-3.64-2.51-6.07-1.81-3.87,5.92-3.87,5.92-1.6,2.12-2.78,1.64.86-7.47.86-7.47a8.81,8.81,0,0,0,.14-4.68c-.68-2.11-8.35-7.68-8.35-7.68a3,3,0,0,1-2-2c-.4-1.53.55-2.89,3.36-3.63s7.06.77,8.39,1.34S797.65,211.31,800.29,214.4Z"/><path class="cls-4" d="M812.05,237.11l9,4.24s3.56.9,3,3.52-4.21,2.48-4.21,2.48-3.64-2.51-6.07-1.81-3.87,5.92-3.87,5.92-1.6,2.11-2.78,1.64.86-7.47.86-7.47a8.84,8.84,0,0,0,.14-4.69c-.68-2.11-8.34-7.68-8.34-7.68a3,3,0,0,1-2-1.95c-.4-1.53.55-2.89,3.36-3.63s7.06.77,8.39,1.34S809.41,234,812.05,237.11Z"/><path class="cls-4" d="M818.23,211.74l9,4.24s3.57.9,3,3.52-4.21,2.48-4.21,2.48-3.64-2.51-6.07-1.81-3.88,5.92-3.88,5.92-1.6,2.11-2.77,1.64.86-7.47.86-7.47a9,9,0,0,0,.14-4.69c-.68-2.1-8.35-7.68-8.35-7.68a3,3,0,0,1-2-1.95c-.4-1.53.55-2.89,3.36-3.63s7.06.77,8.39,1.34S815.59,208.64,818.23,211.74Z"/><path class="cls-4" d="M830.71,232.72l9,4.24s3.57.89,3,3.52-4.21,2.47-4.21,2.47-3.64-2.51-6.07-1.8-3.87,5.91-3.87,5.91-1.6,2.12-2.77,1.64.85-7.47.85-7.47a8.86,8.86,0,0,0,.15-4.68c-.69-2.11-8.35-7.68-8.35-7.68a3,3,0,0,1-2-2c-.4-1.53.55-2.89,3.36-3.62s7.07.76,8.39,1.33S828.07,229.62,830.71,232.72Z"/><path class="cls-4" d="M848.65,230.06l9,4.23s3.56.9,3,3.53-4.21,2.47-4.21,2.47-3.64-2.51-6.07-1.81-3.87,5.92-3.87,5.92-1.61,2.12-2.78,1.64.86-7.47.86-7.47a8.81,8.81,0,0,0,.14-4.68c-.68-2.11-8.35-7.68-8.35-7.68a3,3,0,0,1-2-2c-.4-1.53.55-2.89,3.36-3.62s7.06.76,8.39,1.33S846,227,848.65,230.06Z"/><path class="cls-4" d="M838.17,205l9,4.24s3.57.89,3,3.52-4.21,2.48-4.21,2.48-3.64-2.51-6.07-1.81-3.87,5.91-3.87,5.91-1.6,2.12-2.77,1.64.85-7.47.85-7.47a8.86,8.86,0,0,0,.15-4.68c-.69-2.11-8.35-7.68-8.35-7.68a3,3,0,0,1-2-2c-.4-1.52.55-2.88,3.36-3.62s7.07.76,8.39,1.33S835.53,201.9,838.17,205Z"/><path class="cls-4" d="M856.11,202.34l9,4.24s3.56.89,3,3.52-4.21,2.47-4.21,2.47-3.64-2.51-6.07-1.8-3.87,5.91-3.87,5.91-1.61,2.12-2.78,1.64.86-7.47.86-7.47a8.8,8.8,0,0,0,.14-4.68c-.68-2.11-8.35-7.68-8.35-7.68a3,3,0,0,1-2-2c-.4-1.53.55-2.89,3.36-3.62s7.06.76,8.39,1.33S853.47,199.24,856.11,202.34Z"/><path class="cls-4" d="M884.55,202.19l9,4.24s3.57.89,3,3.52-4.22,2.48-4.22,2.48-3.63-2.51-6.06-1.81-3.88,5.91-3.88,5.91-1.6,2.12-2.77,1.64.85-7.47.85-7.47a8.86,8.86,0,0,0,.15-4.68c-.68-2.11-8.35-7.68-8.35-7.68a3,3,0,0,1-2-2c-.4-1.52.55-2.88,3.36-3.62s7.06.76,8.38,1.33S881.91,199.09,884.55,202.19Z"/><path class="cls-4" d="M903.85,202.34l9,4.24s3.57.89,3,3.52-4.21,2.47-4.21,2.47-3.64-2.51-6.07-1.8-3.88,5.91-3.88,5.91-1.6,2.12-2.77,1.64.85-7.47.85-7.47a8.86,8.86,0,0,0,.15-4.68c-.68-2.11-8.35-7.68-8.35-7.68a3,3,0,0,1-2-2c-.4-1.53.55-2.89,3.36-3.62s7.06.76,8.39,1.33S901.21,199.24,903.85,202.34Z"/><path class="cls-4" d="M920.82,200.92l9,4.24s3.56.9,3,3.53-4.21,2.47-4.21,2.47-3.64-2.51-6.07-1.81-3.87,5.92-3.87,5.92-1.61,2.11-2.78,1.64.86-7.47.86-7.47a8.84,8.84,0,0,0,.14-4.69c-.68-2.1-8.35-7.68-8.35-7.68a3,3,0,0,1-2-1.95c-.4-1.53.55-2.89,3.36-3.63s7.06.77,8.39,1.34S918.18,197.83,920.82,200.92Z"/><path class="cls-4" d="M938.35,198.9l9,4.24s3.57.9,3,3.52-4.21,2.48-4.21,2.48-3.64-2.51-6.07-1.81-3.88,5.91-3.88,5.91-1.6,2.12-2.77,1.65.86-7.48.86-7.48a8.91,8.91,0,0,0,.14-4.68c-.68-2.11-8.35-7.68-8.35-7.68a3,3,0,0,1-2-2c-.4-1.53.55-2.89,3.36-3.63s7.06.77,8.39,1.33S935.71,195.8,938.35,198.9Z"/><path class="cls-4" d="M903.57,230.6l9,4.24s3.56.89,3,3.52-4.21,2.48-4.21,2.48-3.64-2.51-6.07-1.81-3.88,5.91-3.88,5.91-1.6,2.12-2.77,1.64.86-7.47.86-7.47a8.91,8.91,0,0,0,.14-4.68c-.68-2.11-8.35-7.68-8.35-7.68a3,3,0,0,1-2-2c-.4-1.52.55-2.88,3.36-3.62s7.06.76,8.39,1.33S900.93,227.5,903.57,230.6Z"/><path class="cls-4" d="M920.54,229.19l9,4.23s3.57.9,3,3.53-4.21,2.47-4.21,2.47-3.64-2.51-6.07-1.81-3.87,5.92-3.87,5.92-1.6,2.12-2.77,1.64.85-7.47.85-7.47a8.81,8.81,0,0,0,.14-4.68c-.68-2.11-8.34-7.68-8.34-7.68a3,3,0,0,1-2-2c-.4-1.53.55-2.89,3.36-3.62s7.07.76,8.39,1.33S917.9,226.09,920.54,229.19Z"/><path class="cls-4" d="M938.07,227.16l9,4.24s3.56.9,3,3.53-4.21,2.47-4.21,2.47-3.64-2.51-6.07-1.81-3.87,5.92-3.87,5.92-1.61,2.11-2.78,1.64.86-7.47.86-7.47a8.84,8.84,0,0,0,.14-4.69c-.68-2.1-8.35-7.68-8.35-7.68a3,3,0,0,1-2-1.95c-.4-1.53.55-2.89,3.36-3.63s7.06.77,8.39,1.34S935.43,224.07,938.07,227.16Z"/><path class="cls-4" d="M958.45,227.16l9,4.24s3.56.9,3,3.53-4.21,2.47-4.21,2.47-3.64-2.51-6.07-1.81-3.87,5.92-3.87,5.92-1.6,2.11-2.77,1.64.85-7.47.85-7.47a8.84,8.84,0,0,0,.14-4.69c-.68-2.1-8.34-7.68-8.34-7.68a3,3,0,0,1-2-1.95c-.4-1.53.55-2.89,3.36-3.63s7.06.77,8.39,1.34S955.81,224.07,958.45,227.16Z"/><path class="cls-4" d="M930.31,253.4l9,4.24s3.57.9,3,3.53-4.21,2.47-4.21,2.47-3.64-2.51-6.07-1.81-3.87,5.92-3.87,5.92-1.6,2.11-2.77,1.64.85-7.47.85-7.47a8.91,8.91,0,0,0,.15-4.69c-.69-2.1-8.35-7.68-8.35-7.68a3,3,0,0,1-2-2c-.4-1.53.55-2.89,3.36-3.63s7.07.77,8.39,1.34S927.67,250.31,930.31,253.4Z"/><path class="cls-4" d="M950.69,253.4l9,4.24s3.57.9,3,3.53-4.21,2.47-4.21,2.47-3.64-2.51-6.07-1.81-3.87,5.92-3.87,5.92-1.6,2.11-2.77,1.64.85-7.47.85-7.47a8.91,8.91,0,0,0,.15-4.69c-.69-2.1-8.35-7.68-8.35-7.68a3,3,0,0,1-2-2c-.4-1.53.55-2.89,3.37-3.63s7.06.77,8.38,1.34S948.05,250.31,950.69,253.4Z"/><path class="cls-4" d="M899.13,176.51l9,4.23s3.57.9,3,3.53-4.21,2.47-4.21,2.47-3.64-2.51-6.07-1.81-3.88,5.92-3.88,5.92-1.6,2.12-2.77,1.64.86-7.47.86-7.47a8.92,8.92,0,0,0,.14-4.68c-.68-2.11-8.35-7.68-8.35-7.68a3,3,0,0,1-2-2c-.4-1.53.55-2.89,3.36-3.62s7.06.76,8.39,1.33S896.49,173.41,899.13,176.51Z"/><path class="cls-4" d="M917.07,173.84l9,4.24s3.57.9,3,3.53-4.22,2.47-4.22,2.47-3.63-2.51-6.06-1.81-3.88,5.92-3.88,5.92-1.6,2.12-2.77,1.64.85-7.47.85-7.47a8.91,8.91,0,0,0,.15-4.69c-.68-2.1-8.35-7.68-8.35-7.68a3,3,0,0,1-2-2c-.4-1.53.55-2.89,3.37-3.63s7.06.77,8.38,1.34S914.43,170.75,917.07,173.84Z"/><path class="cls-4" d="M935.72,170.11l9,4.24s3.57.89,3,3.52-4.21,2.47-4.21,2.47-3.64-2.51-6.07-1.81-3.87,5.92-3.87,5.92-1.6,2.12-2.77,1.64.85-7.47.85-7.47a8.88,8.88,0,0,0,.15-4.68c-.69-2.11-8.35-7.68-8.35-7.68a3,3,0,0,1-2-2c-.4-1.53.55-2.89,3.37-3.62s7.06.76,8.38,1.33S933.08,167,935.72,170.11Z"/><path class="cls-4" d="M671.21,160.32l-11.52,9.61s-4.86,2.67-3.05,6.29,7.08,2,7.08,2,4.35-5.05,8.16-4.95,7.9,7.14,7.9,7.14,3.14,2.47,4.66,1.33-4.09-10.56-4.09-10.56-2.19-3.44-2-6.77S687.59,150,687.59,150a4.48,4.48,0,0,0,2.19-3.61c0-2.38-1.91-4-6.29-4s-10,3.81-11.71,5.14S673.88,154.79,671.21,160.32Z"/><path class="cls-4" d="M718.76,162.76l-11.52,9.62s-4.86,2.66-3,6.28,7.08,2,7.08,2,4.34-5,8.15-4.95,7.91,7.14,7.91,7.14,3.14,2.48,4.66,1.33-4.09-10.56-4.09-10.56-2.19-3.43-2-6.76,9.23-14.38,9.23-14.38a4.51,4.51,0,0,0,2.19-3.62c0-2.38-1.9-4-6.28-4s-10,3.81-11.71,5.14S721.42,157.24,718.76,162.76Z"/><path class="cls-4" d="M744.55,157.08,733,166.7s-4.85,2.66-3,6.28,7.08,2,7.08,2,4.34-5,8.15-4.95,7.9,7.14,7.9,7.14,3.14,2.47,4.67,1.33-4.1-10.56-4.1-10.56-2.19-3.43-2-6.77,9.24-14.37,9.24-14.37a4.51,4.51,0,0,0,2.19-3.62c0-2.38-1.9-4-6.28-4s-10,3.81-11.72,5.14S747.22,151.56,744.55,157.08Z"/><path class="cls-4" d="M720.85,65.93l-9.5,11.62s-4.26,3.54-1.8,6.75,7.33.62,7.33.62,3.31-5.77,7.07-6.4S733.06,84,733.06,84s3.56,1.84,4.84.43-6-9.59-6-9.59-2.8-3-3.25-6.27S735,52.73,735,52.73a4.5,4.5,0,0,0,1.47-4c-.45-2.34-2.63-3.57-6.93-2.74s-9.1,5.63-10.53,7.26S722.42,60,720.85,65.93Z"/><path class="cls-4" d="M695.39,83.72l-11.52,9.62s-4.86,2.66-3,6.28,7.08,2,7.08,2,4.34-5.05,8.15-5,7.91,7.14,7.91,7.14,3.14,2.47,4.66,1.33-4.09-10.56-4.09-10.56-2.19-3.43-2-6.77,9.23-14.37,9.23-14.37A4.51,4.51,0,0,0,714,69.82c0-2.38-1.9-4-6.28-4S697.67,69.63,696,71,698.05,78.2,695.39,83.72Z"/><path class="cls-4" d="M680.58,62.2l-11.52,9.62s-4.86,2.67-3,6.29,7.08,2,7.08,2,4.34-5,8.15-4.95,7.91,7.14,7.91,7.14,3.14,2.48,4.66,1.34-4.09-10.56-4.09-10.56-2.19-3.44-2-6.77S697,51.92,697,51.92a4.51,4.51,0,0,0,2.19-3.62c0-2.38-1.9-4-6.28-4s-10,3.8-11.71,5.14S683.24,56.68,680.58,62.2Z"/><path class="cls-4" d="M619.33,102.09l-11.52,9.62s-4.85,2.67-3,6.28,7.08,2,7.08,2,4.34-5,8.15-4.95,7.9,7.14,7.9,7.14,3.14,2.48,4.67,1.34-4.1-10.57-4.1-10.57-2.19-3.43-2-6.76,9.24-14.38,9.24-14.38a4.51,4.51,0,0,0,2.19-3.62c0-2.38-1.9-4-6.28-4s-10,3.81-11.72,5.14S622,96.57,619.33,102.09Z"/><path class="cls-4" d="M550,95.66l-11.52,9.61s-4.86,2.67-3.05,6.29,7.08,2,7.08,2,4.34-5,8.15-5,7.91,7.14,7.91,7.14,3.14,2.47,4.66,1.33-4.09-10.56-4.09-10.56-2.19-3.44-2-6.77,9.23-14.38,9.23-14.38a4.48,4.48,0,0,0,2.19-3.61c0-2.38-1.9-4-6.28-4s-10,3.81-11.71,5.14S552.63,90.13,550,95.66Z"/></svg>