<svg id="Capa_2" data-name="Capa 2" xmlns="http://www.w3.org/2000/svg" xmlns:xlink="http://www.w3.org/1999/xlink" viewBox="0 0 995.52 332.53"><defs><style>.cls-1{fill:url(#Degradado_sin_nombre_17);}.cls-2,.cls-3{fill:none;stroke:#fff;stroke-miterlimit:10;}.cls-2{stroke-width:1.18px;}.cls-3{stroke-width:1.02px;}.cls-4{fill:#fff;}.cls-5,.cls-6{font-size:20px;fill:#222220;font-family:Arial-BoldMT, Arial;font-weight:700;}.cls-5{letter-spacing:-0.04em;}.cls-7{fill:url(#Degradado_sin_nombre_17-2);}</style><linearGradient id="Degradado_sin_nombre_17" x1="248.77" y1="302.08" x2="248.77" y2="23.69" gradientUnits="userSpaceOnUse"><stop offset="0.02" stop-color="#daa37c"/><stop offset="0.3" stop-color="#ce9569"/><stop offset="0.89" stop-color="#ae7236"/><stop offset="1" stop-color="#a76b2c"/></linearGradient><linearGradient id="Degradado_sin_nombre_17-2" x1="750.8" y1="302.08" x2="750.8" y2="23.69" xlink:href="#Degradado_sin_nombre_17"/></defs><title>Mesa de trabajo 2 copia 9</title><path class="cls-1" d="M90.25,28.72s27.93,22.75,47.94,20.38c19.38-2.29,42.33-2.29,42.33-2.29s6.63-2.41,20.65,1.77,23.2,1.79,41.05-1.77C283.4,38.6,434.46,22.63,430.39,23.75c0,0,5.88,17,15.8,27.7,11.57,12.44,22.19,61.42,14.8,91.48s-13.52,28.23-9.7,36.33,2.17,27.18,10,39.46,16.76,18.82,11.15,28.75-11.72,13.85-11.21,18,4.33,7.31,3.31,12.8-5.86,23.77-20.14,23.77-17.6-20.37-17.6-20.37-.76-7.58-10.45-5.49-35.95-49.39-35.95-49.39-12.24-20.39-18.1-5.23v31.88s-3.83,12.81-32.13,13.86c0,0-6.37-8.37-25.24-10.2,0,0-11-2.09-18.1-16.2,0,0-2,6.79-6.63,7.84S236.1,238.06,231.76,237c0,0-.51,14.37-9.43,15.16s-26.77-3.66-38,24.83c0,0-.77,5.22-13.52,6.27,0,0-4.08-8.1-4.33-15.94,0,0-11.22-10.72-8.67-23.26s11.73-34.5-9.43-39.21-36.69-2-41.28-25.23-9.46-27-24-34.1-35.44-18.29-35.44-18.29-23.11-1.31-24.3-14.12,22-28.48,22-28.48S76.74,75,90.25,28.72Z"/><path class="cls-2" d="M257.67,187.75l3.13-44.53s-38.3-39.39-21.1-97.42"/><path class="cls-3" d="M111.35,181.25s23.28,3.87,52.65,6.5c34.87,3.12,78,4.75,96.21,0l86.62-18.64s99.23,1.78,115-28.36"/><path class="cls-4" d="M319.66,51.91s14.17-4.38,12.54-15.83c-13.37-2.67-32.54,6.67-32.54,15.17s9.28,16.83,32.39,16.83c0,0,2.45-9.5-12.55-14.83Z"/><path class="cls-4" d="M290.25,54.05s14.16-4.38,12.53-15.83c-13.37-2.67-32.53,6.67-32.53,15.17s9.27,16.83,32.38,16.83c0,0,2.45-9.5-12.55-14.83Z"/><path class="cls-4" d="M259.41,58.52S273.58,54.14,272,42.69c-13.37-2.67-32.54,6.66-32.54,15.16s9.28,16.84,32.39,16.84c0,0,2.45-9.5-12.55-14.84Z"/><path class="cls-4" d="M256.59,91.57s14.16-4.38,12.53-15.83c-13.37-2.67-32.53,6.66-32.53,15.16s9.27,16.84,32.38,16.84c0,0,2.45-9.5-12.55-14.84Z"/><path class="cls-4" d="M271.35,123.79s13.4-6.35,10.17-17.45c-13.61-.75-31.27,11.21-30.06,19.62S263,141.31,285.9,138c0,0,1.08-9.75-14.52-12.91Z"/><path class="cls-4" d="M281.53,160.14s13.61-5.86,10.77-17.08c-13.58-1.22-31.64,10.1-30.73,18.56s11,15.74,34,13.28c0,0,1.42-9.71-14.07-13.41Z"/><path class="cls-4" d="M310.68,154.21s12.88-7.36,8.8-18.18c-13.63.3-30.31,13.58-28.46,21.88s12.71,14.41,35.27,9.38c0,0,.32-9.8-15.48-11.75Z"/><path class="cls-4" d="M341.66,150.75s12.87-7.36,8.79-18.18c-13.63.3-30.31,13.58-28.46,21.88s12.71,14.41,35.27,9.38c0,0,.33-9.8-15.47-11.74Z"/><path class="cls-4" d="M373,148.12s12.87-7.36,8.79-18.18c-13.63.3-30.31,13.58-28.46,21.88s12.71,14.41,35.27,9.39c0,0,.33-9.81-15.47-11.75Z"/><path class="cls-4" d="M403.58,144.27s12.87-7.36,8.79-18.18c-13.63.3-30.31,13.58-28.46,21.88s12.71,14.41,35.27,9.39c0,0,.33-9.81-15.48-11.75Z"/><path class="cls-4" d="M299.91,121.14s13.26-6.63,9.78-17.66c-13.62-.45-31,11.88-29.62,20.27s11.89,15.09,34.7,11.32c0,0,.86-9.77-14.81-12.59Z"/><path class="cls-4" d="M327.56,117.84s13.89-5.2,11.59-16.54c-13.5-1.88-32.09,8.56-31.59,17s10.24,16.26,33.31,14.91c0,0,1.89-9.62-13.4-14.07Z"/><path class="cls-4" d="M356.48,116.34s13.43-6.28,10.24-17.4c-13.61-.81-31.31,11.06-30.15,19.48s11.5,15.4,34.39,12.23c0,0,1.12-9.74-14.47-13Z"/><path class="cls-4" d="M385.57,114.73s13.51-6.11,10.46-17.27c-13.59-1-31.45,10.66-30.39,19.1s11.3,15.54,34.23,12.66c0,0,1.25-9.73-14.3-13.15Z"/><path class="cls-4" d="M414.86,108.27s13.51-6.11,10.46-17.27c-13.6-1-31.45,10.66-30.39,19.1s11.3,15.54,34.23,12.66c0,0,1.24-9.73-14.3-13.15Z"/><path class="cls-4" d="M444.35,102.7s13.51-6.12,10.47-17.28c-13.6-1-31.45,10.67-30.4,19.11s11.3,15.54,34.24,12.66c0,0,1.24-9.73-14.31-13.15Z"/><path class="cls-4" d="M433.13,138.24s13.51-6.11,10.46-17.27c-13.59-1-31.45,10.66-30.39,19.1s11.3,15.54,34.23,12.66c0,0,1.25-9.73-14.3-13.15Z"/><path class="cls-4" d="M287,88.24s13.9-5.16,11.64-16.5c-13.5-1.93-32.12,8.45-31.65,16.93s10.19,16.3,33.26,15c0,0,1.92-9.62-13.35-14.12Z"/><path class="cls-4" d="M346.73,81.46s13.87-5.22,11.56-16.56c-13.51-1.85-32.08,8.62-31.57,17.1S337,98.24,360.06,96.85c0,0,1.87-9.63-13.42-14Z"/><path class="cls-4" d="M377.2,81s13.5-6.14,10.44-17.29c-13.6-1-31.43,10.72-30.36,19.15s11.33,15.53,34.25,12.61c0,0,1.23-9.73-14.32-13.13Z"/><path class="cls-4" d="M408.33,76.06s12.62-7.8,8.16-18.47c-13.61.77-29.82,14.61-27.69,22.84s13.21,14,35.58,8.17c0,0,0-9.81-15.87-11.21Z"/><path class="cls-4" d="M437.53,70.35s13.11-6.93,9.38-17.88c-13.63-.14-30.73,12.59-29.15,21S430,88.23,452.71,83.94c0,0,.64-9.79-15.09-12.25Z"/><path class="cls-4" d="M315.77,85.87s13.23-6.69,9.71-17.71c-13.63-.39-31,12-29.54,20.4s12,15,34.74,11.18c0,0,.83-9.78-14.85-12.53Z"/><path class="cls-4" d="M350.5,46.75S364.66,42.37,363,30.91c-13.37-2.66-32.53,6.67-32.53,15.17s9.27,16.83,32.38,16.83c0,0,2.45-9.5-12.55-14.83Z"/><path class="cls-4" d="M381.16,46.45s13.75-5.54,11.19-16.82c-13.55-1.55-31.88,9.32-31.18,17.8s10.63,16,33.66,14.11c0,0,1.66-9.67-13.73-13.75Z"/><path class="cls-4" d="M412.33,41.08s14.17-4.38,12.54-15.83c-13.37-2.67-32.54,6.66-32.54,15.16s9.27,16.84,32.39,16.84c0,0,2.44-9.5-12.56-14.84Z"/><text class="cls-5" transform="translate(272.9 307.45)">A</text><text class="cls-6" transform="translate(803.65 307.45)">B</text><path class="cls-4" d="M85.93,59.13,74.41,68.74s-4.85,2.67-3,6.29,7.08,2,7.08,2,4.34-5,8.15-5,7.9,7.14,7.9,7.14,3.14,2.47,4.67,1.33S95.07,70,95.07,70s-2.19-3.44-2-6.77,9.24-14.38,9.24-14.38a4.48,4.48,0,0,0,2.19-3.61c0-2.38-1.9-4-6.28-4s-10,3.81-11.71,5.14S88.6,53.6,85.93,59.13Z"/><path class="cls-4" d="M102.7,79.88,91.18,89.5s-4.85,2.66-3,6.28,7.08,2,7.08,2,4.34-5,8.15-5,7.9,7.14,7.9,7.14,3.14,2.48,4.67,1.33-4.1-10.56-4.1-10.56-2.19-3.43-2-6.76,9.24-14.38,9.24-14.38A4.51,4.51,0,0,0,121.27,66c0-2.38-1.91-4-6.29-4s-10,3.81-11.71,5.14S105.37,74.36,102.7,79.88Z"/><path class="cls-4" d="M128.32,68.31,116.8,77.92s-4.86,2.67-3,6.29,7.09,2,7.09,2,4.34-5,8.15-4.95,7.9,7.14,7.9,7.14,3.14,2.47,4.67,1.33-4.1-10.56-4.1-10.56-2.19-3.44-2-6.77S144.7,58,144.7,58a4.48,4.48,0,0,0,2.19-3.61c0-2.38-1.91-4-6.29-4s-10,3.81-11.71,5.14S131,62.79,128.32,68.31Z"/><path class="cls-4" d="M91.53,116.86,80,126.48s-4.86,2.67-3.05,6.28,7.08,2,7.08,2,4.34-5,8.15-4.95S100.1,137,100.1,137s3.14,2.48,4.66,1.34-4.09-10.56-4.09-10.56-2.19-3.44-2-6.77,9.23-14.38,9.23-14.38a4.51,4.51,0,0,0,2.19-3.62c0-2.38-1.9-4-6.28-4s-10,3.81-11.71,5.15S94.19,111.34,91.53,116.86Z"/><path class="cls-4" d="M72.93,94.24l-11.52,9.61s-4.85,2.67-3,6.29,7.08,2,7.08,2,4.34-5,8.15-5,7.9,7.14,7.9,7.14,3.14,2.47,4.67,1.33-4.1-10.56-4.1-10.56-2.19-3.44-2-6.77S89.31,84,89.31,84a4.48,4.48,0,0,0,2.19-3.61c0-2.38-1.9-4-6.28-4s-10,3.81-11.71,5.14S75.6,88.72,72.93,94.24Z"/><path class="cls-4" d="M145.09,89l-11.52,9.61s-4.86,2.67-3,6.29,7.08,2,7.08,2,4.35-5.05,8.16-5,7.9,7.15,7.9,7.15,3.14,2.47,4.66,1.33-4.09-10.56-4.09-10.56-2.19-3.44-2-6.77,9.24-14.38,9.24-14.38a4.49,4.49,0,0,0,2.19-3.62c0-2.38-1.91-4-6.29-4s-10,3.8-11.71,5.14S147.76,83.5,145.09,89Z"/><path class="cls-4" d="M164.94,105.26l-11.52,9.62s-4.85,2.67-3,6.29,7.08,2,7.08,2,4.34-5,8.15-5,7.9,7.14,7.9,7.14,3.14,2.48,4.67,1.34-4.1-10.56-4.1-10.56-2.19-3.44-2-6.77S181.32,95,181.32,95a4.51,4.51,0,0,0,2.19-3.62c0-2.38-1.91-4-6.28-4s-10,3.8-11.72,5.14S167.61,99.74,164.94,105.26Z"/><path class="cls-4" d="M132.56,127,121,136.58s-4.86,2.67-3.05,6.28,7.08,2,7.08,2,4.34-5,8.15-5,7.91,7.14,7.91,7.14,3.14,2.48,4.66,1.34-4.09-10.56-4.09-10.56-2.19-3.44-2-6.77,9.23-14.38,9.23-14.38a4.51,4.51,0,0,0,2.19-3.62c0-2.38-1.9-4-6.28-4s-10,3.81-11.71,5.15S135.22,121.44,132.56,127Z"/><path class="cls-4" d="M213.65,106.13l-11.52,9.62s-4.86,2.66-3,6.28,7.08,2,7.08,2,4.34-5,8.15-5,7.91,7.14,7.91,7.14,3.14,2.47,4.66,1.33S222.79,117,222.79,117s-2.19-3.43-2-6.77S230,95.85,230,95.85a4.51,4.51,0,0,0,2.19-3.62c0-2.38-1.9-4-6.28-4s-10,3.81-11.71,5.14S216.31,100.61,213.65,106.13Z"/><path class="cls-4" d="M228.81,128l-6.29,13.63s-3.24,4.49-.05,7,7.25-1.24,7.25-1.24,1.76-6.42,5.24-8,10.2,3.06,10.2,3.06,3.9.88,4.79-.8-8.23-7.78-8.23-7.78-3.45-2.17-4.71-5.26,2.18-17,2.18-17a4.52,4.52,0,0,0,.42-4.21c-1-2.15-3.43-2.79-7.39-.91s-7.4,7.73-8.37,9.66S228.84,121.85,228.81,128Z"/><path class="cls-4" d="M183.71,124.18l-11.52,9.61s-4.85,2.67-3.05,6.29,7.09,2,7.09,2,4.34-5.05,8.15-5,7.9,7.14,7.9,7.14,3.14,2.47,4.67,1.33-4.1-10.56-4.1-10.56-2.19-3.44-2-6.77,9.24-14.37,9.24-14.37a4.51,4.51,0,0,0,2.19-3.62c0-2.38-1.91-4-6.29-4s-10,3.81-11.71,5.14S186.38,118.66,183.71,124.18Z"/><path class="cls-4" d="M200,144.92l-11.52,9.61s-4.85,2.67-3,6.29,7.08,2,7.08,2,4.34-5,8.15-4.95,7.9,7.14,7.9,7.14,3.15,2.48,4.67,1.34-4.1-10.56-4.1-10.56-2.19-3.44-2-6.77,9.23-14.38,9.23-14.38a4.51,4.51,0,0,0,2.19-3.62c0-2.38-1.9-4-6.28-4s-10,3.8-11.71,5.14S202.62,139.39,200,144.92Z"/><path class="cls-4" d="M155.21,141.07l-11.52,9.61s-4.85,2.67-3,6.29,7.08,2,7.08,2,4.34-5,8.15-5,7.9,7.14,7.9,7.14,3.15,2.48,4.67,1.34-4.1-10.56-4.1-10.56-2.19-3.44-2-6.77,9.23-14.38,9.23-14.38a4.51,4.51,0,0,0,2.19-3.62c0-2.38-1.9-4-6.28-4s-10,3.8-11.71,5.14S157.88,135.54,155.21,141.07Z"/><path class="cls-4" d="M121.68,163.74l-11.52,9.62s-4.86,2.67-3,6.28,7.08,2,7.08,2,4.35-5,8.15-4.95,7.91,7.14,7.91,7.14,3.14,2.48,4.66,1.34-4.09-10.57-4.09-10.57-2.19-3.43-2-6.76,9.23-14.38,9.23-14.38a4.51,4.51,0,0,0,2.19-3.62c0-2.38-1.9-4-6.28-4s-10,3.81-11.71,5.14S124.34,158.22,121.68,163.74Z"/><path class="cls-4" d="M170.3,202.61,178,209s3.22,1.77,2,4.17-4.7,1.33-4.7,1.33-2.89-3.35-5.41-3.29-5.25,4.74-5.25,4.74-2.09,1.64-3.1.89,2.72-7,2.72-7a8.92,8.92,0,0,0,1.33-4.49c-.13-2.21-6.13-9.54-6.13-9.54a3,3,0,0,1-1.46-2.41c0-1.58,1.27-2.65,4.17-2.65s6.64,2.53,7.78,3.41S168.53,199,170.3,202.61Z"/><path class="cls-4" d="M189,202.61l7.65,6.39s3.22,1.77,2,4.17-4.7,1.33-4.7,1.33-2.89-3.35-5.41-3.29-5.25,4.74-5.25,4.74-2.09,1.64-3.1.89,2.72-7,2.72-7a8.92,8.92,0,0,0,1.33-4.49c-.13-2.21-6.13-9.54-6.13-9.54a3,3,0,0,1-1.46-2.41c0-1.58,1.27-2.65,4.18-2.65s6.63,2.53,7.77,3.41S187.23,199,189,202.61Z"/><path class="cls-4" d="M208.62,202.61l7.65,6.39s3.22,1.77,2,4.17-4.7,1.33-4.7,1.33-2.88-3.35-5.41-3.29-5.25,4.74-5.25,4.74-2.08,1.64-3.1.89,2.72-7,2.72-7a8.81,8.81,0,0,0,1.33-4.49c-.13-2.21-6.13-9.54-6.13-9.54a3,3,0,0,1-1.46-2.41c0-1.58,1.27-2.65,4.18-2.65s6.63,2.53,7.77,3.41S206.85,199,208.62,202.61Z"/><path class="cls-4" d="M226.65,204.58,234.3,211s3.22,1.77,2,4.17-4.7,1.33-4.7,1.33-2.89-3.35-5.42-3.29-5.24,4.74-5.24,4.74-2.09,1.64-3.1.88,2.72-7,2.72-7a8.92,8.92,0,0,0,1.33-4.49c-.13-2.21-6.14-9.54-6.14-9.54a3,3,0,0,1-1.45-2.41c0-1.58,1.27-2.65,4.17-2.65s6.64,2.53,7.78,3.41S224.88,200.92,226.65,204.58Z"/><path class="cls-4" d="M178.77,227l7.65,6.38s3.22,1.77,2,4.18-4.7,1.32-4.7,1.32-2.88-3.35-5.41-3.28-5.25,4.74-5.25,4.74S171,242,170,241.19s2.71-7,2.71-7a8.81,8.81,0,0,0,1.33-4.49c-.13-2.21-6.13-9.55-6.13-9.55a3,3,0,0,1-1.45-2.4c0-1.58,1.26-2.65,4.17-2.65s6.63,2.53,7.77,3.41S177,223.3,178.77,227Z"/><path class="cls-4" d="M177.87,256.24l7.64,6.39s3.23,1.77,2,4.17-4.7,1.33-4.7,1.33-2.89-3.35-5.42-3.29-5.24,4.74-5.24,4.74-2.09,1.65-3.1.89,2.72-7,2.72-7a8.93,8.93,0,0,0,1.33-4.5c-.13-2.21-6.14-9.54-6.14-9.54a3,3,0,0,1-1.45-2.4c0-1.58,1.27-2.66,4.17-2.66s6.64,2.53,7.78,3.41S176.1,252.58,177.87,256.24Z"/><path class="cls-4" d="M197.47,227l7.65,6.38s3.23,1.77,2,4.18-4.7,1.32-4.7,1.32-2.88-3.35-5.41-3.28-5.25,4.74-5.25,4.74-2.08,1.64-3.09.88,2.72-7,2.72-7a8.85,8.85,0,0,0,1.32-4.49c-.12-2.21-6.13-9.55-6.13-9.55a3,3,0,0,1-1.45-2.4c0-1.58,1.26-2.65,4.17-2.65s6.64,2.53,7.77,3.41S195.7,223.3,197.47,227Z"/><path class="cls-4" d="M217.09,227l7.65,6.38s3.23,1.77,2,4.18-4.71,1.32-4.71,1.32-2.88-3.35-5.41-3.28-5.24,4.74-5.24,4.74-2.09,1.64-3.1.88,2.72-7,2.72-7a8.85,8.85,0,0,0,1.32-4.49c-.12-2.21-6.13-9.55-6.13-9.55a3,3,0,0,1-1.45-2.4c0-1.58,1.26-2.65,4.17-2.65s6.64,2.53,7.78,3.41S215.33,223.3,217.09,227Z"/><path class="cls-4" d="M255.12,225.94l7.65,6.38s3.22,1.77,2,4.18-4.7,1.32-4.7,1.32-2.88-3.35-5.41-3.28-5.25,4.74-5.25,4.74-2.08,1.64-3.09.88,2.71-7,2.71-7a8.81,8.81,0,0,0,1.33-4.49c-.13-2.22-6.13-9.55-6.13-9.55a3,3,0,0,1-1.45-2.4c0-1.58,1.26-2.65,4.17-2.65s6.63,2.52,7.77,3.41S253.35,222.27,255.12,225.94Z"/><path class="cls-4" d="M246.82,202.1l8.05,5.87s3.34,1.55,2.29,4-4.6,1.63-4.6,1.63-3.1-3.15-5.62-2.92-4.92,5.07-4.92,5.07-2,1.77-3,1.08,2.25-7.17,2.25-7.17a8.87,8.87,0,0,0,1-4.57c-.27-2.2-6.74-9.12-6.74-9.12a3,3,0,0,1-1.61-2.31c-.1-1.57,1.09-2.73,4-2.92s6.79,2.09,8,2.9S244.82,198.56,246.82,202.1Z"/><path class="cls-4" d="M265.49,200.88l8,5.87s3.34,1.55,2.3,4-4.61,1.63-4.61,1.63-3.1-3.15-5.61-2.93-4.93,5.08-4.93,5.08-2,1.77-3,1.08,2.25-7.17,2.25-7.17a8.87,8.87,0,0,0,1-4.57c-.27-2.2-6.74-9.13-6.74-9.13a3,3,0,0,1-1.61-2.3c-.1-1.57,1.09-2.73,4-2.92s6.79,2.09,8,2.9S263.48,197.33,265.49,200.88Z"/><path class="cls-4" d="M284.78,196.05l9,4.23s3.57.9,3,3.53-4.22,2.47-4.22,2.47-3.63-2.51-6.06-1.81-3.88,5.92-3.88,5.92-1.6,2.12-2.77,1.64.85-7.47.85-7.47a8.88,8.88,0,0,0,.15-4.68c-.68-2.11-8.35-7.68-8.35-7.68a3,3,0,0,1-2-2c-.4-1.53.55-2.89,3.36-3.62s7.06.76,8.38,1.33S282.14,193,284.78,196.05Z"/><path class="cls-4" d="M302.71,193.38l9,4.24s3.57.9,3,3.53-4.21,2.47-4.21,2.47-3.64-2.51-6.07-1.81-3.87,5.92-3.87,5.92-1.6,2.12-2.77,1.64.85-7.47.85-7.47a8.91,8.91,0,0,0,.15-4.69c-.69-2.1-8.35-7.68-8.35-7.68a3,3,0,0,1-2-1.95c-.4-1.53.55-2.89,3.37-3.63s7.06.77,8.38,1.34S300.07,190.29,302.71,193.38Z"/><path class="cls-4" d="M322.66,186.64l9,4.24s3.57.89,3,3.52-4.21,2.48-4.21,2.48-3.64-2.51-6.07-1.81-3.88,5.91-3.88,5.91-1.6,2.12-2.77,1.64.86-7.47.86-7.47a8.91,8.91,0,0,0,.14-4.68c-.68-2.11-8.35-7.68-8.35-7.68a3,3,0,0,1-2-2c-.4-1.52.55-2.88,3.36-3.62s7.06.76,8.39,1.33S320,183.54,322.66,186.64Z"/><path class="cls-4" d="M340.6,184l9,4.24s3.57.89,3,3.52-4.22,2.47-4.22,2.47-3.63-2.51-6.06-1.8-3.88,5.91-3.88,5.91-1.6,2.12-2.77,1.64.85-7.47.85-7.47a8.86,8.86,0,0,0,.15-4.68c-.68-2.11-8.35-7.68-8.35-7.68a3,3,0,0,1-2-2c-.4-1.53.55-2.89,3.37-3.62s7.06.76,8.38,1.33S338,180.88,340.6,184Z"/><path class="cls-4" d="M359.43,181.87l9,4.24s3.56.9,3,3.53-4.21,2.47-4.21,2.47-3.64-2.51-6.07-1.81-3.88,5.92-3.88,5.92-1.6,2.11-2.77,1.64.86-7.47.86-7.47a9,9,0,0,0,.14-4.69c-.68-2.1-8.35-7.68-8.35-7.68a3,3,0,0,1-2-2c-.4-1.53.55-2.89,3.36-3.63s7.06.77,8.39,1.34S356.79,178.77,359.43,181.87Z"/><path class="cls-4" d="M377.37,179.21l9,4.24s3.57.9,3,3.52-4.22,2.48-4.22,2.48-3.63-2.51-6.06-1.81-3.88,5.91-3.88,5.91-1.6,2.12-2.77,1.65.85-7.48.85-7.48a8.86,8.86,0,0,0,.15-4.68c-.68-2.11-8.35-7.68-8.35-7.68a3,3,0,0,1-2-2c-.4-1.53.56-2.89,3.37-3.63s7.06.77,8.38,1.33S374.73,176.11,377.37,179.21Z"/><path class="cls-4" d="M275,223.27l8,5.87s3.33,1.56,2.29,4-4.61,1.64-4.61,1.64-3.09-3.16-5.61-2.93-4.93,5.07-4.93,5.07-2,1.78-3,1.09,2.25-7.18,2.25-7.18a8.87,8.87,0,0,0,1-4.57c-.27-2.2-6.74-9.12-6.74-9.12a3,3,0,0,1-1.61-2.3c-.1-1.58,1.09-2.73,4-2.92s6.79,2.09,8,2.89S273,219.73,275,223.27Z"/><path class="cls-4" d="M298.26,218.44l9,4.24s3.57.9,3,3.52-4.21,2.48-4.21,2.48-3.64-2.51-6.07-1.81-3.88,5.91-3.88,5.91-1.6,2.12-2.77,1.65.85-7.48.85-7.48a8.86,8.86,0,0,0,.15-4.68c-.68-2.11-8.35-7.68-8.35-7.68a3,3,0,0,1-2-2c-.4-1.53.55-2.89,3.36-3.63s7.06.77,8.39,1.33S295.62,215.34,298.26,218.44Z"/><path class="cls-4" d="M310,241.15l9,4.24s3.57.89,3,3.52-4.21,2.48-4.21,2.48-3.64-2.51-6.07-1.81-3.88,5.91-3.88,5.91-1.6,2.12-2.77,1.64.86-7.47.86-7.47a8.91,8.91,0,0,0,.14-4.68c-.68-2.11-8.35-7.68-8.35-7.68a3,3,0,0,1-2-2c-.4-1.52.55-2.88,3.36-3.62s7.06.76,8.39,1.33S307.38,238.05,310,241.15Z"/><path class="cls-4" d="M316.2,215.78l9,4.24s3.57.89,3,3.52S324,226,324,226s-3.63-2.51-6.06-1.81-3.88,5.91-3.88,5.91-1.6,2.12-2.77,1.64.85-7.47.85-7.47a8.86,8.86,0,0,0,.15-4.68c-.68-2.11-8.35-7.68-8.35-7.68a3,3,0,0,1-2-2c-.4-1.52.55-2.88,3.37-3.62s7.06.76,8.38,1.33S313.55,212.68,316.2,215.78Z"/><path class="cls-4" d="M328.68,236.75l9,4.24s3.56.9,3,3.53S336.5,247,336.5,247s-3.64-2.51-6.07-1.81-3.87,5.92-3.87,5.92-1.61,2.12-2.78,1.64.86-7.47.86-7.47a8.84,8.84,0,0,0,.14-4.69c-.68-2.1-8.35-7.68-8.35-7.68a3,3,0,0,1-2-2c-.4-1.53.55-2.89,3.36-3.63s7.06.77,8.39,1.34S326,233.66,328.68,236.75Z"/><path class="cls-4" d="M346.62,234.09l9,4.24s3.57.9,3,3.52-4.22,2.48-4.22,2.48-3.63-2.51-6.06-1.81-3.88,5.92-3.88,5.92-1.6,2.11-2.77,1.64.85-7.47.85-7.47a8.91,8.91,0,0,0,.15-4.69c-.68-2.11-8.35-7.68-8.35-7.68a3,3,0,0,1-2-2c-.4-1.53.55-2.89,3.36-3.63s7.06.77,8.38,1.33S344,231,346.62,234.09Z"/><path class="cls-4" d="M336.14,209l9,4.23s3.56.9,3,3.53-4.21,2.47-4.21,2.47-3.64-2.51-6.07-1.81-3.87,5.92-3.87,5.92-1.61,2.12-2.78,1.64.86-7.47.86-7.47a8.81,8.81,0,0,0,.14-4.68c-.68-2.11-8.35-7.68-8.35-7.68a3,3,0,0,1-2-2c-.4-1.53.55-2.89,3.36-3.62s7.06.76,8.39,1.33S333.5,205.94,336.14,209Z"/><path class="cls-4" d="M354.08,206.37l9,4.24s3.57.9,3,3.53-4.22,2.47-4.22,2.47-3.63-2.51-6.06-1.81-3.88,5.92-3.88,5.92-1.6,2.11-2.77,1.64.85-7.47.85-7.47a8.91,8.91,0,0,0,.15-4.69c-.68-2.1-8.35-7.68-8.35-7.68a3,3,0,0,1-2-2c-.4-1.53.55-2.89,3.36-3.63s7.06.77,8.38,1.34S351.44,203.28,354.08,206.37Z"/><path class="cls-4" d="M382.51,206.23l9,4.23s3.57.9,3,3.53-4.21,2.47-4.21,2.47-3.64-2.51-6.07-1.81-3.87,5.92-3.87,5.92-1.6,2.12-2.77,1.64.85-7.47.85-7.47a8.88,8.88,0,0,0,.15-4.68c-.69-2.11-8.35-7.68-8.35-7.68a3,3,0,0,1-2-2c-.4-1.53.55-2.89,3.37-3.62s7.06.76,8.38,1.33S379.87,203.13,382.51,206.23Z"/><path class="cls-4" d="M401.81,206.37l9,4.24s3.57.9,3,3.53-4.21,2.47-4.21,2.47-3.64-2.51-6.07-1.81-3.87,5.92-3.87,5.92-1.6,2.11-2.77,1.64.85-7.47.85-7.47a8.91,8.91,0,0,0,.15-4.69c-.69-2.1-8.35-7.68-8.35-7.68a3,3,0,0,1-2-2c-.4-1.53.55-2.89,3.37-3.63s7.06.77,8.38,1.34S399.17,203.28,401.81,206.37Z"/><path class="cls-4" d="M418.79,205l9,4.24s3.57.89,3,3.52-4.22,2.48-4.22,2.48-3.63-2.51-6.06-1.81-3.88,5.91-3.88,5.91-1.6,2.12-2.77,1.64.85-7.47.85-7.47a8.86,8.86,0,0,0,.15-4.68c-.68-2.11-8.35-7.68-8.35-7.68a3,3,0,0,1-2-2c-.4-1.52.55-2.88,3.36-3.62s7.06.76,8.38,1.33S416.15,201.86,418.79,205Z"/><path class="cls-4" d="M436.32,202.94l9,4.24s3.57.89,3,3.52-4.22,2.47-4.22,2.47-3.64-2.51-6.06-1.8-3.88,5.91-3.88,5.91-1.6,2.12-2.77,1.64.85-7.47.85-7.47a8.86,8.86,0,0,0,.15-4.68c-.68-2.11-8.35-7.68-8.35-7.68a3,3,0,0,1-2-2c-.4-1.53.55-2.89,3.37-3.62s7.06.76,8.38,1.33S433.67,199.84,436.32,202.94Z"/><path class="cls-4" d="M401.54,234.64l9,4.23s3.57.9,3,3.53-4.22,2.47-4.22,2.47-3.63-2.51-6.06-1.81-3.88,5.92-3.88,5.92-1.6,2.12-2.77,1.64.85-7.47.85-7.47a8.88,8.88,0,0,0,.15-4.68c-.68-2.11-8.35-7.68-8.35-7.68a3,3,0,0,1-2-2c-.41-1.53.55-2.89,3.36-3.62s7.06.76,8.38,1.33S398.9,231.54,401.54,234.64Z"/><path class="cls-4" d="M418.51,233.22l9,4.24s3.56.9,3,3.52-4.21,2.48-4.21,2.48-3.64-2.51-6.07-1.81-3.88,5.91-3.88,5.91-1.6,2.12-2.77,1.65.86-7.48.86-7.48a8.91,8.91,0,0,0,.14-4.68c-.68-2.11-8.35-7.68-8.35-7.68a3,3,0,0,1-2-2c-.4-1.53.55-2.89,3.36-3.63s7.06.77,8.39,1.33S415.87,230.12,418.51,233.22Z"/><path class="cls-4" d="M436,231.2l9,4.24s3.57.89,3,3.52-4.21,2.48-4.21,2.48-3.64-2.51-6.07-1.81-3.88,5.91-3.88,5.91-1.6,2.12-2.77,1.64.85-7.47.85-7.47a8.86,8.86,0,0,0,.15-4.68c-.68-2.11-8.35-7.68-8.35-7.68a3,3,0,0,1-2-2c-.4-1.52.55-2.88,3.36-3.62s7.06.76,8.39,1.33S433.4,228.1,436,231.2Z"/><path class="cls-4" d="M456.42,231.2l9,4.24s3.57.89,3,3.52-4.21,2.48-4.21,2.48-3.64-2.51-6.07-1.81-3.88,5.91-3.88,5.91-1.6,2.12-2.77,1.64.86-7.47.86-7.47a8.91,8.91,0,0,0,.14-4.68c-.68-2.11-8.35-7.68-8.35-7.68a3,3,0,0,1-2-2c-.4-1.52.55-2.88,3.36-3.62s7.06.76,8.39,1.33S453.78,228.1,456.42,231.2Z"/><path class="cls-4" d="M428.28,257.44l9,4.24s3.56.89,3,3.52-4.21,2.48-4.21,2.48-3.64-2.51-6.07-1.81-3.87,5.91-3.87,5.91-1.61,2.12-2.78,1.64.86-7.47.86-7.47a8.91,8.91,0,0,0,.14-4.68c-.68-2.11-8.35-7.68-8.35-7.68a3,3,0,0,1-2-2c-.4-1.52.55-2.88,3.36-3.62s7.06.76,8.39,1.33S425.64,254.34,428.28,257.44Z"/><path class="cls-4" d="M448.66,257.44l9,4.24s3.56.89,3,3.52-4.21,2.48-4.21,2.48-3.64-2.51-6.07-1.81-3.87,5.91-3.87,5.91-1.61,2.12-2.78,1.64.86-7.47.86-7.47a8.8,8.8,0,0,0,.14-4.68c-.68-2.11-8.35-7.68-8.35-7.68a3,3,0,0,1-2-2c-.4-1.52.55-2.88,3.36-3.62s7.06.76,8.39,1.33S446,254.34,448.66,257.44Z"/><path class="cls-4" d="M397.1,180.54l9,4.24s3.57.9,3,3.52-4.22,2.48-4.22,2.48-3.63-2.51-6.06-1.81-3.88,5.92-3.88,5.92-1.6,2.11-2.77,1.64.85-7.47.85-7.47a8.91,8.91,0,0,0,.15-4.69c-.68-2.11-8.35-7.68-8.35-7.68a3,3,0,0,1-2-1.95c-.4-1.53.55-2.89,3.37-3.63s7.06.77,8.38,1.33S394.45,177.44,397.1,180.54Z"/><path class="cls-4" d="M415,177.88l9,4.24s3.57.89,3,3.52-4.21,2.48-4.21,2.48-3.64-2.51-6.07-1.81-3.87,5.91-3.87,5.91-1.6,2.12-2.77,1.64.85-7.47.85-7.47a8.86,8.86,0,0,0,.15-4.68c-.69-2.11-8.35-7.68-8.35-7.68a3,3,0,0,1-2-1.95c-.4-1.53.55-2.89,3.36-3.63s7.07.76,8.39,1.33S412.39,174.78,415,177.88Z"/><path class="cls-4" d="M433.69,174.14l9,4.24s3.56.9,3,3.52-4.21,2.48-4.21,2.48-3.64-2.51-6.07-1.81-3.87,5.92-3.87,5.92-1.61,2.11-2.78,1.64.86-7.47.86-7.47a8.84,8.84,0,0,0,.14-4.69c-.68-2.11-8.35-7.68-8.35-7.68a3,3,0,0,1-2-1.95c-.4-1.53.55-2.89,3.36-3.63s7.06.77,8.39,1.34S431.05,171,433.69,174.14Z"/><path class="cls-4" d="M169.18,164.35,157.66,174s-4.86,2.67-3,6.28,7.08,2,7.08,2,4.35-5,8.15-4.95,7.91,7.14,7.91,7.14,3.14,2.48,4.66,1.34-4.09-10.56-4.09-10.56-2.19-3.44-2-6.77,9.23-14.38,9.23-14.38a4.51,4.51,0,0,0,2.19-3.62c0-2.38-1.9-4-6.28-4s-10,3.81-11.71,5.15S171.84,158.83,169.18,164.35Z"/><path class="cls-4" d="M216.72,166.8l-11.52,9.61s-4.85,2.67-3,6.29,7.08,2,7.08,2,4.34-5,8.15-4.95,7.9,7.14,7.9,7.14,3.14,2.47,4.67,1.33-4.1-10.56-4.1-10.56-2.19-3.44-2-6.77,9.24-14.38,9.24-14.38a4.48,4.48,0,0,0,2.19-3.61c0-2.38-1.91-4-6.28-4s-10,3.81-11.72,5.14S219.39,161.28,216.72,166.8Z"/><path class="cls-4" d="M242.52,161.12,231,170.73S226.14,173.4,228,177s7.08,2,7.08,2,4.35-5,8.16-4.95,7.9,7.14,7.9,7.14,3.14,2.48,4.66,1.34S251.66,172,251.66,172s-2.19-3.44-2-6.77,9.24-14.38,9.24-14.38a4.51,4.51,0,0,0,2.19-3.62c0-2.38-1.91-4-6.29-4s-10,3.8-11.71,5.14S245.19,155.59,242.52,161.12Z"/><path class="cls-4" d="M218.81,70l-9.49,11.62s-4.26,3.54-1.8,6.75,7.33.62,7.33.62,3.31-5.78,7.07-6.41S231,88.07,231,88.07s3.55,1.84,4.83.43-6-9.6-6-9.6-2.8-3-3.24-6.27S233,56.77,233,56.77a4.51,4.51,0,0,0,1.46-4c-.45-2.33-2.62-3.56-6.92-2.73s-9.1,5.63-10.53,7.26S220.39,64,218.81,70Z"/><path class="cls-4" d="M193.35,87.76l-11.52,9.61s-4.85,2.67-3,6.29,7.08,2,7.08,2,4.34-5,8.15-5,7.9,7.15,7.9,7.15,3.14,2.47,4.67,1.33-4.1-10.56-4.1-10.56-2.19-3.44-2-6.77,9.24-14.38,9.24-14.38a4.48,4.48,0,0,0,2.19-3.61c0-2.39-1.91-4-6.28-4s-10,3.8-11.72,5.14S196,82.23,193.35,87.76Z"/><path class="cls-4" d="M178.54,66.24,167,75.86s-4.85,2.66-3,6.28,7.08,2,7.08,2,4.34-5,8.15-5,7.9,7.14,7.9,7.14,3.14,2.48,4.67,1.33-4.1-10.56-4.1-10.56-2.19-3.43-2-6.76S194.92,56,194.92,56a4.51,4.51,0,0,0,2.19-3.62c0-2.38-1.9-4-6.28-4s-10,3.81-11.71,5.14S181.21,60.72,178.54,66.24Z"/><path class="cls-4" d="M117.3,106.13l-11.52,9.62s-4.86,2.66-3,6.28,7.08,2,7.08,2,4.35-5,8.16-5,7.9,7.14,7.9,7.14,3.14,2.47,4.66,1.33S126.44,117,126.44,117s-2.19-3.43-2-6.77,9.24-14.37,9.24-14.37a4.51,4.51,0,0,0,2.19-3.62c0-2.38-1.91-4-6.29-4s-10,3.81-11.71,5.14S120,100.61,117.3,106.13Z"/><path class="cls-4" d="M47.93,99.69l-11.52,9.62s-4.85,2.67-3,6.28,7.08,2,7.08,2,4.34-5,8.15-5,7.9,7.14,7.9,7.14,3.14,2.48,4.67,1.34-4.1-10.57-4.1-10.57-2.19-3.43-2-6.76,9.24-14.38,9.24-14.38a4.51,4.51,0,0,0,2.19-3.62c0-2.38-1.9-4-6.28-4s-10,3.81-11.71,5.14S50.6,94.17,47.93,99.69Z"/><path class="cls-7" d="M592.29,28.72s27.92,22.75,47.93,20.38c19.39-2.29,42.33-2.29,42.33-2.29s6.63-2.41,20.66,1.77,23.19,1.79,41-1.77c41.17-8.21,192.23-24.18,188.16-23.06,0,0,5.88,17,15.81,27.7,11.56,12.44,22.18,61.42,14.79,91.48s-13.52,28.23-9.7,36.33,2.18,27.18,10,39.46,16.77,18.82,11.16,28.75-11.73,13.85-11.22,18,4.33,7.31,3.31,12.8-5.86,23.77-20.14,23.77-17.59-20.37-17.59-20.37-.77-7.58-10.46-5.49-35.95-49.39-35.95-49.39-12.24-20.39-18.1-5.23v31.88s-3.82,12.81-32.13,13.86c0,0-6.37-8.37-25.24-10.2,0,0-11-2.09-18.1-16.2,0,0-2,6.79-6.63,7.84S738.13,238.06,733.8,237c0,0-.51,14.37-9.44,15.16s-26.77-3.66-38,24.83c0,0-.76,5.22-13.51,6.27,0,0-4.08-8.1-4.34-15.94,0,0-11.22-10.72-8.67-23.26s11.73-34.5-9.43-39.21-36.69-2-41.28-25.23-9.46-27-24-34.1-35.44-18.29-35.44-18.29-23.12-1.31-24.31-14.12,22-28.48,22-28.48S578.77,75,592.29,28.72Z"/><path class="cls-2" d="M759.7,187.75l3.13-44.53s-38.3-39.39-21.09-97.42"/><path class="cls-3" d="M613.38,181.25s23.28,3.87,52.65,6.5c34.87,3.12,78,4.75,96.21,0l86.62-18.64s99.23,1.78,115-28.36"/><path class="cls-4" d="M833.78,49.31S845,44,842.27,34.72c-11.38-.62-26.12,9.38-25.12,16.41S826.82,64,845.94,61.21c0,0,.9-8.15-12.14-10.78Z"/><path class="cls-4" d="M809.2,52.16s11.3-5.08,8.78-14.41c-11.36-.85-26.3,8.85-25.44,15.9s9.41,13,28.58,10.65c0,0,1.06-8.12-11.92-11Z"/><path class="cls-4" d="M783.86,55s11.43-4.8,9.14-14.19C781.66,39.63,766.48,49,767.17,56s9.09,13.24,28.32,11.35c0,0,1.26-8.1-11.66-11.31Z"/><path class="cls-4" d="M757.18,59S769,55.33,767.66,45.76c-11.18-2.23-27.19,5.57-27.19,12.68s7.75,14.06,27.06,14.06c0,0,2.05-7.94-10.49-12.39Z"/><path class="cls-4" d="M858.56,46.12s11.42-4.81,9.11-14.2c-11.34-1.11-26.5,8.24-25.8,15.31S851,60.46,870.2,58.54c0,0,1.25-8.1-11.67-11.29Z"/><path class="cls-4" d="M883.64,43.12s11.15-5.4,8.36-14.66c-11.38-.52-26,9.6-25,16.63s9.78,12.74,28.87,9.83c0,0,.83-8.15-12.23-10.67Z"/><path class="cls-4" d="M909.51,41.22s11.14-5.42,8.34-14.67c-11.38-.5-26,9.65-25,16.67s9.81,12.72,28.9,9.78c0,0,.81-8.16-12.26-10.65Z"/><path class="cls-4" d="M588,59.13l-11.52,9.61s-4.86,2.67-3.05,6.29,7.08,2,7.08,2,4.34-5,8.15-5,7.91,7.14,7.91,7.14,3.14,2.47,4.66,1.33S597.11,70,597.11,70s-2.19-3.44-2-6.77,9.23-14.38,9.23-14.38a4.48,4.48,0,0,0,2.19-3.61c0-2.38-1.9-4-6.28-4s-10,3.81-11.71,5.14S590.63,53.6,588,59.13Z"/><path class="cls-4" d="M604.74,79.88,593.21,89.5s-4.85,2.66-3,6.28,7.08,2,7.08,2,4.34-5,8.15-5,7.9,7.14,7.9,7.14,3.15,2.48,4.67,1.33-4.09-10.56-4.09-10.56-2.19-3.43-2-6.76,9.23-14.38,9.23-14.38A4.51,4.51,0,0,0,623.3,66c0-2.38-1.9-4-6.28-4s-10,3.81-11.71,5.14S607.4,74.36,604.74,79.88Z"/><path class="cls-4" d="M630.35,68.31l-11.52,9.61s-4.85,2.67-3,6.29,7.08,2,7.08,2,4.34-5,8.15-4.95,7.9,7.14,7.9,7.14,3.14,2.47,4.67,1.33-4.1-10.56-4.1-10.56-2.19-3.44-2-6.77S646.73,58,646.73,58a4.48,4.48,0,0,0,2.19-3.61c0-2.38-1.9-4-6.28-4s-10,3.81-11.71,5.14S633,62.79,630.35,68.31Z"/><path class="cls-4" d="M593.56,116.86,582,126.48s-4.86,2.67-3,6.28,7.08,2,7.08,2,4.35-5,8.16-4.95,7.9,7.14,7.9,7.14,3.14,2.48,4.66,1.34-4.09-10.56-4.09-10.56-2.19-3.44-2-6.77,9.24-14.38,9.24-14.38a4.51,4.51,0,0,0,2.19-3.62c0-2.38-1.91-4-6.29-4s-10,3.81-11.71,5.15S596.23,111.34,593.56,116.86Z"/><path class="cls-4" d="M575,94.24l-11.52,9.61s-4.86,2.67-3.05,6.29,7.08,2,7.08,2,4.34-5,8.15-5,7.91,7.14,7.91,7.14,3.14,2.47,4.66,1.33-4.09-10.56-4.09-10.56-2.19-3.44-2-6.77S591.34,84,591.34,84a4.48,4.48,0,0,0,2.19-3.61c0-2.38-1.9-4-6.28-4s-10,3.81-11.71,5.14S577.63,88.72,575,94.24Z"/><path class="cls-4" d="M647.12,89,635.6,98.64s-4.85,2.67-3,6.29,7.08,2,7.08,2,4.34-5.05,8.15-5,7.9,7.15,7.9,7.15,3.14,2.47,4.67,1.33-4.1-10.56-4.1-10.56-2.19-3.44-2-6.77,9.24-14.38,9.24-14.38a4.49,4.49,0,0,0,2.19-3.62c0-2.38-1.91-4-6.29-4s-10,3.8-11.71,5.14S649.79,83.5,647.12,89Z"/><path class="cls-4" d="M667,105.26l-11.52,9.62s-4.86,2.67-3.05,6.29,7.08,2,7.08,2,4.34-5,8.15-5,7.9,7.14,7.9,7.14,3.15,2.48,4.67,1.34-4.09-10.56-4.09-10.56-2.19-3.44-2-6.77S683.35,95,683.35,95a4.51,4.51,0,0,0,2.19-3.62c0-2.38-1.9-4-6.28-4s-10,3.8-11.71,5.14S669.64,99.74,667,105.26Z"/><path class="cls-4" d="M634.59,127l-11.52,9.62s-4.86,2.67-3.05,6.28,7.08,2,7.08,2,4.35-5,8.16-5,7.9,7.14,7.9,7.14,3.14,2.48,4.66,1.34-4.09-10.56-4.09-10.56-2.19-3.44-2-6.77S651,116.68,651,116.68a4.51,4.51,0,0,0,2.19-3.62c0-2.38-1.91-4-6.29-4s-10,3.81-11.71,5.15S637.26,121.44,634.59,127Z"/><path class="cls-4" d="M715.68,106.13l-11.52,9.62s-4.86,2.66-3,6.28,7.08,2,7.08,2,4.35-5,8.16-5,7.9,7.14,7.9,7.14,3.14,2.47,4.66,1.33S724.82,117,724.82,117s-2.19-3.43-2-6.77,9.24-14.37,9.24-14.37a4.51,4.51,0,0,0,2.19-3.62c0-2.38-1.91-4-6.29-4S718,92,716.25,93.37,718.35,100.61,715.68,106.13Z"/><path class="cls-4" d="M730.84,128l-6.28,13.63s-3.25,4.49-.06,7,7.26-1.24,7.26-1.24,1.75-6.42,5.23-8,10.21,3.06,10.21,3.06,3.9.88,4.78-.8-8.23-7.78-8.23-7.78-3.45-2.17-4.71-5.26,2.18-17,2.18-17a4.51,4.51,0,0,0,.43-4.21c-1-2.15-3.44-2.79-7.4-.91s-7.39,7.73-8.37,9.66S730.88,121.85,730.84,128Z"/><path class="cls-4" d="M685.74,124.18l-11.52,9.61s-4.85,2.67-3,6.29,7.08,2,7.08,2,4.34-5.05,8.15-5,7.9,7.14,7.9,7.14,3.15,2.47,4.67,1.33-4.1-10.56-4.1-10.56-2.19-3.44-2-6.77,9.23-14.37,9.23-14.37a4.51,4.51,0,0,0,2.19-3.62c0-2.38-1.9-4-6.28-4s-10,3.81-11.71,5.14S688.41,118.66,685.74,124.18Z"/><path class="cls-4" d="M702,144.92l-11.52,9.61s-4.86,2.67-3.05,6.29,7.08,2,7.08,2,4.35-5,8.15-4.95,7.91,7.14,7.91,7.14,3.14,2.48,4.66,1.34-4.09-10.56-4.09-10.56-2.19-3.44-2-6.77,9.23-14.38,9.23-14.38a4.51,4.51,0,0,0,2.19-3.62c0-2.38-1.9-4-6.28-4s-10,3.8-11.71,5.14S704.65,139.39,702,144.92Z"/><path class="cls-4" d="M657.25,141.07l-11.52,9.61s-4.86,2.67-3.05,6.29,7.08,2,7.08,2,4.35-5,8.15-5,7.91,7.14,7.91,7.14,3.14,2.48,4.66,1.34-4.09-10.56-4.09-10.56-2.19-3.44-2-6.77,9.23-14.38,9.23-14.38a4.51,4.51,0,0,0,2.19-3.62c0-2.38-1.9-4-6.28-4s-10,3.8-11.71,5.14S659.91,135.54,657.25,141.07Z"/><path class="cls-4" d="M623.71,163.74l-11.52,9.62s-4.86,2.67-3.05,6.28,7.08,2,7.08,2,4.35-5,8.16-4.95,7.9,7.14,7.9,7.14,3.14,2.48,4.66,1.34-4.09-10.57-4.09-10.57-2.19-3.43-2-6.76,9.24-14.38,9.24-14.38a4.51,4.51,0,0,0,2.19-3.62c0-2.38-1.91-4-6.29-4s-10,3.81-11.71,5.14S626.38,158.22,623.71,163.74Z"/><path class="cls-4" d="M672.33,202.61,680,209s3.22,1.77,2,4.17-4.7,1.33-4.7,1.33-2.88-3.35-5.41-3.29-5.25,4.74-5.25,4.74-2.08,1.64-3.1.89,2.72-7,2.72-7a8.81,8.81,0,0,0,1.33-4.49c-.13-2.21-6.13-9.54-6.13-9.54a3,3,0,0,1-1.46-2.41c0-1.58,1.27-2.65,4.18-2.65s6.63,2.53,7.77,3.41S670.56,199,672.33,202.61Z"/><path class="cls-4" d="M691,202.61l7.65,6.39s3.22,1.77,2,4.17-4.7,1.33-4.7,1.33-2.88-3.35-5.41-3.29-5.25,4.74-5.25,4.74-2.08,1.64-3.09.89,2.71-7,2.71-7a8.81,8.81,0,0,0,1.33-4.49c-.12-2.21-6.13-9.54-6.13-9.54a3,3,0,0,1-1.45-2.41c0-1.58,1.26-2.65,4.17-2.65s6.64,2.53,7.77,3.41S689.26,199,691,202.61Z"/><path class="cls-4" d="M710.65,202.61,718.3,209s3.23,1.77,2,4.17-4.7,1.33-4.7,1.33-2.88-3.35-5.41-3.29S705,216,705,216s-2.08,1.64-3.09.89,2.72-7,2.72-7a8.85,8.85,0,0,0,1.32-4.49c-.12-2.21-6.13-9.54-6.13-9.54a3,3,0,0,1-1.45-2.41c0-1.58,1.26-2.65,4.17-2.65s6.64,2.53,7.77,3.41S708.88,199,710.65,202.61Z"/><path class="cls-4" d="M728.68,204.58l7.65,6.39s3.22,1.77,2,4.17-4.7,1.33-4.7,1.33-2.88-3.35-5.41-3.29-5.25,4.74-5.25,4.74-2.08,1.64-3.1.88,2.72-7,2.72-7a8.81,8.81,0,0,0,1.33-4.49c-.13-2.21-6.13-9.54-6.13-9.54a3,3,0,0,1-1.46-2.41c0-1.58,1.27-2.65,4.18-2.65s6.63,2.53,7.77,3.41S726.91,200.92,728.68,204.58Z"/><path class="cls-4" d="M680.81,227l7.64,6.38s3.23,1.77,2,4.18-4.71,1.32-4.71,1.32-2.88-3.35-5.41-3.28-5.24,4.74-5.24,4.74-2.09,1.64-3.1.88,2.72-7,2.72-7a8.85,8.85,0,0,0,1.32-4.49c-.12-2.21-6.13-9.55-6.13-9.55a3,3,0,0,1-1.45-2.4c0-1.58,1.26-2.65,4.17-2.65s6.64,2.53,7.78,3.41S679,223.3,680.81,227Z"/><path class="cls-4" d="M679.9,256.24l7.65,6.39s3.22,1.77,2,4.17-4.7,1.33-4.7,1.33-2.88-3.35-5.41-3.29-5.25,4.74-5.25,4.74-2.09,1.65-3.1.89,2.72-7,2.72-7a8.82,8.82,0,0,0,1.33-4.5c-.13-2.21-6.13-9.54-6.13-9.54a3,3,0,0,1-1.46-2.4c0-1.58,1.27-2.66,4.18-2.66s6.63,2.53,7.77,3.41S678.13,252.58,679.9,256.24Z"/><path class="cls-4" d="M699.51,227l7.64,6.38s3.23,1.77,2,4.18-4.7,1.32-4.7,1.32-2.89-3.35-5.42-3.28-5.24,4.74-5.24,4.74-2.09,1.64-3.1.88,2.72-7,2.72-7a8.92,8.92,0,0,0,1.33-4.49c-.13-2.21-6.14-9.55-6.14-9.55a3,3,0,0,1-1.45-2.4c0-1.58,1.26-2.65,4.17-2.65s6.64,2.53,7.78,3.41S697.74,223.3,699.51,227Z"/><path class="cls-4" d="M719.13,227l7.65,6.38s3.22,1.77,2,4.18-4.7,1.32-4.7,1.32-2.89-3.35-5.41-3.28-5.25,4.74-5.25,4.74-2.09,1.64-3.1.88,2.72-7,2.72-7a8.92,8.92,0,0,0,1.33-4.49c-.13-2.21-6.13-9.55-6.13-9.55a3,3,0,0,1-1.46-2.4c0-1.58,1.27-2.65,4.17-2.65s6.64,2.53,7.78,3.41S717.36,223.3,719.13,227Z"/><path class="cls-4" d="M757.15,225.94l7.65,6.38s3.23,1.77,2,4.18-4.71,1.32-4.71,1.32-2.88-3.35-5.41-3.28-5.24,4.74-5.24,4.74-2.09,1.64-3.1.88,2.72-7,2.72-7a8.85,8.85,0,0,0,1.32-4.49c-.12-2.22-6.13-9.55-6.13-9.55a3,3,0,0,1-1.45-2.4c0-1.58,1.26-2.65,4.17-2.65s6.64,2.52,7.78,3.41S755.38,222.27,757.15,225.94Z"/><path class="cls-4" d="M748.86,202.1l8,5.87s3.33,1.55,2.29,4-4.61,1.63-4.61,1.63-3.09-3.15-5.61-2.92-4.93,5.07-4.93,5.07-2,1.77-3,1.08,2.25-7.17,2.25-7.17a8.87,8.87,0,0,0,1-4.57c-.27-2.2-6.74-9.12-6.74-9.12a3,3,0,0,1-1.61-2.31c-.1-1.57,1.09-2.73,4-2.92s6.79,2.09,8,2.9S746.85,198.56,748.86,202.1Z"/><path class="cls-4" d="M767.52,200.88l8.05,5.87s3.33,1.55,2.29,4-4.61,1.63-4.61,1.63-3.09-3.15-5.61-2.93-4.93,5.08-4.93,5.08-2,1.77-3,1.08,2.25-7.17,2.25-7.17a8.83,8.83,0,0,0,1-4.57c-.28-2.2-6.75-9.13-6.75-9.13a3,3,0,0,1-1.6-2.3c-.11-1.57,1.08-2.73,4-2.92s6.78,2.09,8,2.9S765.51,197.33,767.52,200.88Z"/><path class="cls-4" d="M786.81,196.05l9,4.23s3.56.9,3,3.53-4.21,2.47-4.21,2.47-3.64-2.51-6.07-1.81-3.87,5.92-3.87,5.92-1.61,2.12-2.78,1.64.86-7.47.86-7.47a8.81,8.81,0,0,0,.14-4.68c-.68-2.11-8.35-7.68-8.35-7.68a3,3,0,0,1-2-2c-.4-1.53.55-2.89,3.36-3.62s7.06.76,8.39,1.33S784.17,193,786.81,196.05Z"/><path class="cls-4" d="M804.75,193.38l9,4.24s3.57.9,3,3.53-4.21,2.47-4.21,2.47-3.64-2.51-6.07-1.81-3.88,5.92-3.88,5.92-1.6,2.12-2.77,1.64.85-7.47.85-7.47a8.91,8.91,0,0,0,.15-4.69c-.68-2.1-8.35-7.68-8.35-7.68a3,3,0,0,1-2-1.95c-.4-1.53.55-2.89,3.36-3.63s7.06.77,8.38,1.34S802.11,190.29,804.75,193.38Z"/><path class="cls-4" d="M824.69,186.64l9,4.24s3.56.89,3,3.52-4.21,2.48-4.21,2.48-3.64-2.51-6.07-1.81-3.87,5.91-3.87,5.91-1.6,2.12-2.78,1.64.86-7.47.86-7.47a8.8,8.8,0,0,0,.14-4.68c-.68-2.11-8.34-7.68-8.34-7.68a3,3,0,0,1-2-2c-.4-1.52.55-2.88,3.36-3.62s7.06.76,8.39,1.33S822.05,183.54,824.69,186.64Z"/><path class="cls-4" d="M842.63,184l9,4.24s3.56.89,3,3.52-4.21,2.47-4.21,2.47-3.64-2.51-6.07-1.8-3.88,5.91-3.88,5.91-1.6,2.12-2.77,1.64.86-7.47.86-7.47a8.91,8.91,0,0,0,.14-4.68c-.68-2.11-8.35-7.68-8.35-7.68a3,3,0,0,1-2-2c-.4-1.53.55-2.89,3.36-3.62s7.06.76,8.39,1.33S840,180.88,842.63,184Z"/><path class="cls-4" d="M861.46,181.87l9,4.24s3.57.9,3,3.53-4.21,2.47-4.21,2.47-3.64-2.51-6.07-1.81-3.87,5.92-3.87,5.92-1.6,2.11-2.77,1.64.85-7.47.85-7.47a8.84,8.84,0,0,0,.14-4.69c-.68-2.1-8.34-7.68-8.34-7.68a3,3,0,0,1-2-2c-.4-1.53.55-2.89,3.36-3.63s7.07.77,8.39,1.34S858.82,178.77,861.46,181.87Z"/><path class="cls-4" d="M879.4,179.21l9,4.24s3.56.9,3,3.52-4.21,2.48-4.21,2.48-3.64-2.51-6.07-1.81-3.88,5.91-3.88,5.91-1.6,2.12-2.77,1.65.86-7.48.86-7.48a8.91,8.91,0,0,0,.14-4.68c-.68-2.11-8.35-7.68-8.35-7.68a3,3,0,0,1-2-2c-.4-1.53.55-2.89,3.36-3.63s7.06.77,8.39,1.33S876.76,176.11,879.4,179.21Z"/><path class="cls-4" d="M777,223.27l8,5.87s3.33,1.56,2.29,4-4.61,1.64-4.61,1.64-3.09-3.16-5.61-2.93-4.93,5.07-4.93,5.07-2,1.78-3,1.09,2.26-7.18,2.26-7.18a8.87,8.87,0,0,0,1-4.57c-.27-2.2-6.75-9.12-6.75-9.12a3,3,0,0,1-1.6-2.3c-.11-1.58,1.09-2.73,4-2.92s6.78,2.09,8,2.89S775,219.73,777,223.27Z"/><path class="cls-4" d="M800.29,218.44l9,4.24s3.56.9,3,3.52-4.21,2.48-4.21,2.48-3.64-2.51-6.07-1.81-3.87,5.91-3.87,5.91-1.6,2.12-2.78,1.65.86-7.48.86-7.48a8.8,8.8,0,0,0,.14-4.68c-.68-2.11-8.35-7.68-8.35-7.68a3,3,0,0,1-2-2c-.4-1.53.55-2.89,3.36-3.63s7.06.77,8.39,1.33S797.65,215.34,800.29,218.44Z"/><path class="cls-4" d="M812.05,241.15l9,4.24s3.56.89,3,3.52-4.21,2.48-4.21,2.48-3.64-2.51-6.07-1.81-3.87,5.91-3.87,5.91-1.6,2.12-2.78,1.64.86-7.47.86-7.47a8.8,8.8,0,0,0,.14-4.68c-.68-2.11-8.34-7.68-8.34-7.68a3,3,0,0,1-2-2c-.4-1.52.55-2.88,3.36-3.62s7.06.76,8.39,1.33S809.41,238.05,812.05,241.15Z"/><path class="cls-4" d="M818.23,215.78l9,4.24s3.57.89,3,3.52-4.21,2.48-4.21,2.48-3.64-2.51-6.07-1.81-3.88,5.91-3.88,5.91-1.6,2.12-2.77,1.64.86-7.47.86-7.47a8.91,8.91,0,0,0,.14-4.68c-.68-2.11-8.35-7.68-8.35-7.68a3,3,0,0,1-2-2c-.4-1.52.55-2.88,3.36-3.62s7.06.76,8.39,1.33S815.59,212.68,818.23,215.78Z"/><path class="cls-4" d="M830.71,236.75l9,4.24s3.57.9,3,3.53-4.21,2.47-4.21,2.47-3.64-2.51-6.07-1.81-3.87,5.92-3.87,5.92-1.6,2.12-2.77,1.64.85-7.47.85-7.47a8.91,8.91,0,0,0,.15-4.69c-.69-2.1-8.35-7.68-8.35-7.68a3,3,0,0,1-2-2c-.4-1.53.55-2.89,3.36-3.63s7.07.77,8.39,1.34S828.07,233.66,830.71,236.75Z"/><path class="cls-4" d="M848.65,234.09l9,4.24s3.56.9,3,3.52-4.21,2.48-4.21,2.48-3.64-2.51-6.07-1.81-3.87,5.92-3.87,5.92-1.61,2.11-2.78,1.64.86-7.47.86-7.47a8.84,8.84,0,0,0,.14-4.69c-.68-2.11-8.35-7.68-8.35-7.68a3,3,0,0,1-2-2c-.4-1.53.55-2.89,3.36-3.63s7.06.77,8.39,1.33S846,231,848.65,234.09Z"/><path class="cls-4" d="M838.17,209l9,4.23s3.57.9,3,3.53-4.21,2.47-4.21,2.47-3.64-2.51-6.07-1.81-3.87,5.92-3.87,5.92-1.6,2.12-2.77,1.64.85-7.47.85-7.47a8.88,8.88,0,0,0,.15-4.68c-.69-2.11-8.35-7.68-8.35-7.68a3,3,0,0,1-2-2c-.4-1.53.55-2.89,3.36-3.62s7.07.76,8.39,1.33S835.53,205.94,838.17,209Z"/><path class="cls-4" d="M856.11,206.37l9,4.24s3.56.9,3,3.53-4.21,2.47-4.21,2.47-3.64-2.51-6.07-1.81-3.87,5.92-3.87,5.92-1.61,2.11-2.78,1.64.86-7.47.86-7.47a8.84,8.84,0,0,0,.14-4.69c-.68-2.1-8.35-7.68-8.35-7.68a3,3,0,0,1-2-2c-.4-1.53.55-2.89,3.36-3.63s7.06.77,8.39,1.34S853.47,203.28,856.11,206.37Z"/><path class="cls-4" d="M884.55,206.23l9,4.23s3.57.9,3,3.53-4.22,2.47-4.22,2.47-3.63-2.51-6.06-1.81-3.88,5.92-3.88,5.92-1.6,2.12-2.77,1.64.85-7.47.85-7.47a8.88,8.88,0,0,0,.15-4.68c-.68-2.11-8.35-7.68-8.35-7.68a3,3,0,0,1-2-2c-.4-1.53.55-2.89,3.36-3.62s7.06.76,8.38,1.33S881.91,203.13,884.55,206.23Z"/><path class="cls-4" d="M903.85,206.37l9,4.24s3.57.9,3,3.53-4.21,2.47-4.21,2.47-3.64-2.51-6.07-1.81-3.88,5.92-3.88,5.92-1.6,2.11-2.77,1.64.85-7.47.85-7.47a8.91,8.91,0,0,0,.15-4.69c-.68-2.1-8.35-7.68-8.35-7.68a3,3,0,0,1-2-2c-.4-1.53.55-2.89,3.36-3.63s7.06.77,8.39,1.34S901.21,203.28,903.85,206.37Z"/><path class="cls-4" d="M920.82,205l9,4.24s3.56.89,3,3.52-4.21,2.48-4.21,2.48-3.64-2.51-6.07-1.81-3.87,5.91-3.87,5.91-1.61,2.12-2.78,1.64.86-7.47.86-7.47a8.8,8.8,0,0,0,.14-4.68c-.68-2.11-8.35-7.68-8.35-7.68a3,3,0,0,1-2-2c-.4-1.52.55-2.88,3.36-3.62s7.06.76,8.39,1.33S918.18,201.86,920.82,205Z"/><path class="cls-4" d="M938.35,202.94l9,4.24s3.57.89,3,3.52-4.21,2.47-4.21,2.47-3.64-2.51-6.07-1.8-3.88,5.91-3.88,5.91-1.6,2.12-2.77,1.64.86-7.47.86-7.47a8.91,8.91,0,0,0,.14-4.68c-.68-2.11-8.35-7.68-8.35-7.68a3,3,0,0,1-2-2c-.4-1.53.55-2.89,3.36-3.62s7.06.76,8.39,1.33S935.71,199.84,938.35,202.94Z"/><path class="cls-4" d="M903.57,234.64l9,4.23s3.56.9,3,3.53-4.21,2.47-4.21,2.47-3.64-2.51-6.07-1.81-3.88,5.92-3.88,5.92-1.6,2.12-2.77,1.64.86-7.47.86-7.47a8.92,8.92,0,0,0,.14-4.68c-.68-2.11-8.35-7.68-8.35-7.68a3,3,0,0,1-2-2c-.4-1.53.55-2.89,3.36-3.62s7.06.76,8.39,1.33S900.93,231.54,903.57,234.64Z"/><path class="cls-4" d="M920.54,233.22l9,4.24s3.57.9,3,3.52-4.21,2.48-4.21,2.48-3.64-2.51-6.07-1.81-3.87,5.91-3.87,5.91-1.6,2.12-2.77,1.65.85-7.48.85-7.48a8.8,8.8,0,0,0,.14-4.68c-.68-2.11-8.34-7.68-8.34-7.68a3,3,0,0,1-2-2c-.4-1.53.55-2.89,3.36-3.63s7.07.77,8.39,1.33S917.9,230.12,920.54,233.22Z"/><path class="cls-4" d="M938.07,231.2l9,4.24s3.56.89,3,3.52-4.21,2.48-4.21,2.48-3.64-2.51-6.07-1.81-3.87,5.91-3.87,5.91-1.61,2.12-2.78,1.64.86-7.47.86-7.47a8.8,8.8,0,0,0,.14-4.68c-.68-2.11-8.35-7.68-8.35-7.68a3,3,0,0,1-2-2c-.4-1.52.55-2.88,3.36-3.62s7.06.76,8.39,1.33S935.43,228.1,938.07,231.2Z"/><path class="cls-4" d="M958.45,231.2l9,4.24s3.56.89,3,3.52-4.21,2.48-4.21,2.48-3.64-2.51-6.07-1.81-3.87,5.91-3.87,5.91-1.6,2.12-2.77,1.64.85-7.47.85-7.47a8.8,8.8,0,0,0,.14-4.68c-.68-2.11-8.34-7.68-8.34-7.68a3,3,0,0,1-2-2c-.4-1.52.55-2.88,3.36-3.62s7.06.76,8.39,1.33S955.81,228.1,958.45,231.2Z"/><path class="cls-4" d="M930.31,257.44l9,4.24s3.57.89,3,3.52-4.21,2.48-4.21,2.48-3.64-2.51-6.07-1.81-3.87,5.91-3.87,5.91-1.6,2.12-2.77,1.64.85-7.47.85-7.47a8.86,8.86,0,0,0,.15-4.68c-.69-2.11-8.35-7.68-8.35-7.68a3,3,0,0,1-2-2c-.4-1.52.55-2.88,3.36-3.62s7.07.76,8.39,1.33S927.67,254.34,930.31,257.44Z"/><path class="cls-4" d="M950.69,257.44l9,4.24s3.57.89,3,3.52-4.21,2.48-4.21,2.48-3.64-2.51-6.07-1.81-3.87,5.91-3.87,5.91-1.6,2.12-2.77,1.64.85-7.47.85-7.47a8.86,8.86,0,0,0,.15-4.68c-.69-2.11-8.35-7.68-8.35-7.68a3,3,0,0,1-2-2c-.4-1.52.55-2.88,3.37-3.62s7.06.76,8.38,1.33S948.05,254.34,950.69,257.44Z"/><path class="cls-4" d="M899.13,180.54l9,4.24s3.57.9,3,3.52-4.21,2.48-4.21,2.48-3.64-2.51-6.07-1.81-3.88,5.92-3.88,5.92-1.6,2.11-2.77,1.64.86-7.47.86-7.47a9,9,0,0,0,.14-4.69c-.68-2.11-8.35-7.68-8.35-7.68a3,3,0,0,1-2-1.95c-.4-1.53.55-2.89,3.36-3.63s7.06.77,8.39,1.33S896.49,177.44,899.13,180.54Z"/><path class="cls-4" d="M917.07,177.88l9,4.24s3.57.89,3,3.52-4.22,2.48-4.22,2.48-3.63-2.51-6.06-1.81-3.88,5.91-3.88,5.91-1.6,2.12-2.77,1.64.85-7.47.85-7.47a8.86,8.86,0,0,0,.15-4.68c-.68-2.11-8.35-7.68-8.35-7.68a3,3,0,0,1-2-1.95c-.4-1.53.55-2.89,3.37-3.63s7.06.76,8.38,1.33S914.43,174.78,917.07,177.88Z"/><path class="cls-4" d="M935.72,174.14l9,4.24s3.57.9,3,3.52-4.21,2.48-4.21,2.48-3.64-2.51-6.07-1.81-3.87,5.92-3.87,5.92-1.6,2.11-2.77,1.64.85-7.47.85-7.47a8.91,8.91,0,0,0,.15-4.69c-.69-2.11-8.35-7.68-8.35-7.68a3,3,0,0,1-2-1.95c-.4-1.53.55-2.89,3.37-3.63s7.06.77,8.38,1.34S933.08,171,935.72,174.14Z"/><path class="cls-4" d="M671.21,164.35,659.69,174s-4.86,2.67-3.05,6.28,7.08,2,7.08,2,4.35-5,8.16-4.95,7.9,7.14,7.9,7.14,3.14,2.48,4.66,1.34-4.09-10.56-4.09-10.56-2.19-3.44-2-6.77,9.24-14.38,9.24-14.38a4.51,4.51,0,0,0,2.19-3.62c0-2.38-1.91-4-6.29-4s-10,3.81-11.71,5.15S673.88,158.83,671.21,164.35Z"/><path class="cls-4" d="M718.76,166.8l-11.52,9.61s-4.86,2.67-3,6.29,7.08,2,7.08,2,4.34-5,8.15-4.95,7.91,7.14,7.91,7.14,3.14,2.47,4.66,1.33-4.09-10.56-4.09-10.56-2.19-3.44-2-6.77,9.23-14.38,9.23-14.38a4.48,4.48,0,0,0,2.19-3.61c0-2.38-1.9-4-6.28-4s-10,3.81-11.71,5.14S721.42,161.28,718.76,166.8Z"/><path class="cls-4" d="M744.55,161.12,733,170.73s-4.85,2.67-3,6.29,7.08,2,7.08,2,4.34-5,8.15-4.95,7.9,7.14,7.9,7.14,3.14,2.48,4.67,1.34-4.1-10.56-4.1-10.56-2.19-3.44-2-6.77,9.24-14.38,9.24-14.38a4.51,4.51,0,0,0,2.19-3.62c0-2.38-1.9-4-6.28-4s-10,3.8-11.72,5.14S747.22,155.59,744.55,161.12Z"/><path class="cls-4" d="M720.85,70l-9.5,11.62s-4.26,3.54-1.8,6.75,7.33.62,7.33.62,3.31-5.78,7.07-6.41,9.11,5.52,9.11,5.52,3.56,1.84,4.84.43-6-9.6-6-9.6-2.8-3-3.25-6.27S735,56.77,735,56.77a4.5,4.5,0,0,0,1.47-4c-.45-2.33-2.63-3.56-6.93-2.73s-9.1,5.63-10.53,7.26S722.42,64,720.85,70Z"/><path class="cls-4" d="M695.39,87.76l-11.52,9.61s-4.86,2.67-3,6.29,7.08,2,7.08,2,4.34-5,8.15-5,7.91,7.15,7.91,7.15,3.14,2.47,4.66,1.33-4.09-10.56-4.09-10.56-2.19-3.44-2-6.77,9.23-14.38,9.23-14.38A4.48,4.48,0,0,0,714,73.86c0-2.39-1.9-4-6.28-4s-10,3.8-11.71,5.14S698.05,82.23,695.39,87.76Z"/><path class="cls-4" d="M680.58,66.24l-11.52,9.62s-4.86,2.66-3,6.28,7.08,2,7.08,2,4.34-5,8.15-5,7.91,7.14,7.91,7.14,3.14,2.48,4.66,1.33-4.09-10.56-4.09-10.56-2.19-3.43-2-6.76S697,56,697,56a4.51,4.51,0,0,0,2.19-3.62c0-2.38-1.9-4-6.28-4s-10,3.81-11.71,5.14S683.24,60.72,680.58,66.24Z"/><path class="cls-4" d="M619.33,106.13l-11.52,9.62s-4.85,2.66-3,6.28,7.08,2,7.08,2,4.34-5,8.15-5,7.9,7.14,7.9,7.14,3.14,2.47,4.67,1.33-4.1-10.56-4.1-10.56-2.19-3.43-2-6.77,9.24-14.37,9.24-14.37a4.51,4.51,0,0,0,2.19-3.62c0-2.38-1.9-4-6.28-4s-10,3.81-11.72,5.14S622,100.61,619.33,106.13Z"/><path class="cls-4" d="M550,99.69l-11.52,9.62s-4.86,2.67-3.05,6.28,7.08,2,7.08,2,4.34-5,8.15-5,7.91,7.14,7.91,7.14,3.14,2.48,4.66,1.34-4.09-10.57-4.09-10.57-2.19-3.43-2-6.76,9.23-14.38,9.23-14.38a4.51,4.51,0,0,0,2.19-3.62c0-2.38-1.9-4-6.28-4s-10,3.81-11.71,5.14S552.63,94.17,550,99.69Z"/><path class="cls-4" d="M803.62,73.22l-1.22-5.34s-1.86-.63-6.5.43-5.48,2.39-5.48,2.39a9.78,9.78,0,0,1-.66,8.86C787,84,779.45,90.38,772.9,92c0,0-.9,1-.28,3.73s1.66,4.09,5.3,4.32c0,0-4.57.35-3.27,6,.47,2.07,1.31,3.44,2.25,3.62,1.6.31,3.14-.28,4.15-.35,2.42-.18,17.43-.13,20.34,11.18,0,0,2,1.66,7.12.49s5.4-2.7,5.4-2.7l-1.18-5.18a2.09,2.09,0,0,1-2.62-1.85c-.47-2.41,1.65-2.41,1.65-2.41l-1.2-5.26-5.74,4.81s-1.4-2.2-6.06-3-7.32.77-7.32.77a76.86,76.86,0,0,1-2.79-9,60.59,60.59,0,0,1-.8-9.18s4.41,0,7.35-2.41a11.67,11.67,0,0,0,3.66-4.66l7.28,3.39-1.57-6.89a3.23,3.23,0,0,1-2.77-2.14C801.09,73.23,803.62,73.22,803.62,73.22Z"/><path class="cls-4" d="M774.86,79.32l-1-5.39s-1.83-.72-6.51.14-5.58,2.14-5.58,2.14A9.79,9.79,0,0,1,760.73,85c-3,4.29-10.77,10.35-17.38,11.72,0,0-1,1-.46,3.71s1.49,4.17,5.11,4.56c0,0-4.57.15-3.53,5.85.38,2.08,1.16,3.5,2.08,3.72,1.6.38,3.16-.15,4.17-.18,2.42-.07,17.42.65,19.83,12.07,0,0,1.93,1.75,7.08.81s5.53-2.46,5.53-2.46l-1-5.23a2.09,2.09,0,0,1-2.53-2c-.37-2.44,1.75-2.34,1.75-2.34l-1-5.31-5.94,4.56s-1.3-2.27-5.93-3.28-7.34.45-7.34.45a76.77,76.77,0,0,1-2.39-9.16,60.68,60.68,0,0,1-.39-9.21s4.4.25,7.44-2.08a11.61,11.61,0,0,0,3.86-4.5l7.13,3.7-1.26-7A3.22,3.22,0,0,1,773,81.28C772.34,79.21,774.86,79.32,774.86,79.32Z"/><path class="cls-4" d="M836.91,68.47l-.82-5.42s-1.8-.77-6.51-.06-5.64,2-5.64,2a9.78,9.78,0,0,1-1.33,8.79c-3.1,4.19-11.09,10-17.74,11.17,0,0-1,1-.57,3.7s1.36,4.21,5,4.71c0,0-4.57,0-3.71,5.74.32,2.09,1.05,3.53,2,3.78,1.58.43,3.15,0,4.17,0,2.42,0,17.39,1.19,19.44,12.68,0,0,1.88,1.81,7.06,1s5.6-2.29,5.6-2.29L843,109a2.1,2.1,0,0,1-2.48-2c-.28-2.45,1.83-2.28,1.83-2.28l-.81-5.34-6.08,4.37s-1.23-2.31-5.82-3.46-7.35.22-7.35.22a76.58,76.58,0,0,1-2.11-9.23,61.6,61.6,0,0,1-.1-9.22s4.39.39,7.51-1.85a11.64,11.64,0,0,0,4-4.37l7,3.92-1.05-7a3.25,3.25,0,0,1-2.6-2.34C834.39,68.28,836.91,68.47,836.91,68.47Z"/><path class="cls-4" d="M871.06,67.34l-.46-5.45s-1.75-.89-6.5-.49-5.76,1.6-5.76,1.6a9.76,9.76,0,0,1-1.89,8.69c-3.37,4-11.72,9.27-18.43,10,0,0-1,.88-.8,3.65s1.08,4.29,4.64,5c0,0-4.57-.29-4.07,5.49.18,2.11.82,3.59,1.72,3.9,1.55.53,3.15.16,4.16.23,2.42.16,17.27,2.31,18.58,13.91,0,0,1.76,1.92,7,1.48s5.73-1.92,5.73-1.92l-.45-5.3a2.08,2.08,0,0,1-2.33-2.19c-.13-2.46,2-2.16,2-2.16l-.45-5.38-6.36,4s-1.07-2.38-5.58-3.83-7.35-.26-7.35-.26A77.34,77.34,0,0,1,852.89,89a60.58,60.58,0,0,1,.5-9.2s4.36.67,7.61-1.36a11.7,11.7,0,0,0,4.27-4.11L872,78.65l-.59-7a3.22,3.22,0,0,1-2.44-2.5C868.56,67,871.06,67.34,871.06,67.34Z"/><path class="cls-4" d="M907,62.21V56.73s-1.67-1-6.43-1-5.87,1.11-5.87,1.11a9.77,9.77,0,0,1-2.62,8.49c-3.69,3.69-12.46,8.26-19.21,8.41,0,0-1.11.8-1.11,3.58s.71,4.36,4.21,5.39c0,0-4.53-.67-4.53,5.12,0,2.13.52,3.65,1.39,4,1.5.66,3.12.42,4.13.57,2.39.37,17,3.76,17.34,15.43,0,0,1.59,2.07,6.83,2.07s5.87-1.43,5.87-1.43v-5.32a2.09,2.09,0,0,1-2.14-2.38c.08-2.46,2.14-2,2.14-2V93.4l-6.67,3.41s-.87-2.46-5.24-4.28-7.3-.88-7.3-.88a77.57,77.57,0,0,1-.71-9.44,61.13,61.13,0,0,1,1.27-9.13s4.28,1,7.7-.71a11.71,11.71,0,0,0,4.6-3.73L907,73.56V66.49a3.21,3.21,0,0,1-2.22-2.7C904.54,61.65,907,62.21,907,62.21Z"/><path class="cls-4" d="M942.5,50.53V45.05s-1.67-1-6.43-1-5.87,1.11-5.87,1.11a9.79,9.79,0,0,1-2.62,8.5c-3.69,3.69-12.46,8.25-19.21,8.41,0,0-1.11.79-1.11,3.57S908,70,911.47,71c0,0-4.53-.68-4.53,5.12,0,2.12.52,3.65,1.39,4,1.5.66,3.12.42,4.13.58,2.39.36,17,3.76,17.34,15.43,0,0,1.59,2.06,6.83,2.06s5.87-1.43,5.87-1.43V91.48a2.09,2.09,0,0,1-2.14-2.38c.08-2.46,2.14-2,2.14-2v-5.4l-6.67,3.41s-.87-2.46-5.24-4.28-7.3-.87-7.3-.87a77.82,77.82,0,0,1-.71-9.45,61.13,61.13,0,0,1,1.27-9.13s4.28,1,7.7-.71a11.71,11.71,0,0,0,4.6-3.73l6.35,4.92V54.82a3.24,3.24,0,0,1-2.22-2.7C940,50,942.5,50.53,942.5,50.53Z"/><path class="cls-4" d="M926.72,107.49V102s-1.66-1-6.43-1-5.87,1.11-5.87,1.11a9.77,9.77,0,0,1-2.62,8.49c-3.69,3.69-12.46,8.25-19.21,8.41,0,0-1.11.8-1.11,3.57s.72,4.37,4.21,5.4c0,0-4.53-.67-4.52,5.12,0,2.12.51,3.65,1.38,4,1.5.66,3.13.42,4.13.57,2.4.36,17,3.76,17.34,15.43,0,0,1.59,2.06,6.83,2.06s5.87-1.42,5.87-1.42v-5.32a2.09,2.09,0,0,1-2.14-2.38c.08-2.46,2.14-2,2.14-2v-5.39l-6.67,3.41s-.87-2.46-5.23-4.29-7.31-.87-7.31-.87a77.57,77.57,0,0,1-.71-9.44,60.9,60.9,0,0,1,1.27-9.13s4.29,1,7.7-.72a11.62,11.62,0,0,0,4.6-3.73l6.35,4.92v-7.06a3.24,3.24,0,0,1-2.22-2.7C924.26,106.94,926.72,107.49,926.72,107.49Z"/><path class="cls-4" d="M891,115.59l.48-5.46s-1.57-1.17-6.31-1.59-6,.59-6,.59a9.75,9.75,0,0,1-3.36,8.23c-4,3.35-13.13,7.13-19.87,6.69,0,0-1.17.7-1.42,3.46s.33,4.42,3.72,5.75c0,0-4.45-1.07-5,4.7-.18,2.12.2,3.69,1,4.14,1.43.79,3.08.7,4.06.94,2.36.57,16.62,5.24,15.92,16.89,0,0,1.4,2.2,6.62,2.66s6-.91,6-.91l.47-5.3a2.08,2.08,0,0,1-1.93-2.56c.29-2.44,2.31-1.79,2.31-1.79l.47-5.37-6.94,2.81s-.65-2.53-4.84-4.73-7.2-1.51-7.2-1.51a77.55,77.55,0,0,1,.12-9.47,60.81,60.81,0,0,1,2.07-9s4.17,1.4,7.73,0a11.58,11.58,0,0,0,4.91-3.31l5.89,5.46.62-7a3.24,3.24,0,0,1-2-2.89C888.56,114.82,891,115.59,891,115.59Z"/><path class="cls-4" d="M855.4,119.71l1.28-5.32s-1.38-1.4-6-2.51-6-.29-6-.29a9.75,9.75,0,0,1-4.52,7.65c-4.45,2.73-14,5.12-20.65,3.69,0,0-1.26.52-1.91,3.22s-.32,4.41,2.83,6.23c0,0-4.24-1.72-5.59,3.92-.5,2.06-.35,3.67.4,4.25,1.3,1,2.94,1.14,3.88,1.52,2.25.91,15.67,7.63,13.26,19.05,0,0,1.07,2.38,6.16,3.6s6,0,6,0l1.25-5.18a2.09,2.09,0,0,1-1.53-2.81c.65-2.38,2.54-1.43,2.54-1.43l1.26-5.25-7.28,1.76s-.27-2.59-4.09-5.39-6.89-2.55-6.89-2.55a77.27,77.27,0,0,1,1.51-9.35,61.43,61.43,0,0,1,3.36-8.58s3.93,2,7.65,1.1a11.67,11.67,0,0,0,5.35-2.55l5,6.27,1.65-6.87a3.22,3.22,0,0,1-1.53-3.14C853.13,118.6,855.4,119.71,855.4,119.71Z"/><path class="cls-4" d="M815.48,130.12l1.28-5.33s-1.38-1.39-6-2.5-6-.29-6-.29a9.75,9.75,0,0,1-4.53,7.64c-4.45,2.73-14,5.12-20.64,3.7,0,0-1.27.51-1.92,3.21s-.32,4.42,2.83,6.23c0,0-4.24-1.71-5.59,3.93-.49,2.06-.35,3.67.41,4.24,1.3,1,2.94,1.14,3.87,1.52,2.25.92,15.68,7.63,13.27,19.06,0,0,1.06,2.38,6.15,3.6s6,0,6,0l1.24-5.17a2.09,2.09,0,0,1-1.53-2.82c.65-2.37,2.55-1.42,2.55-1.42l1.26-5.25-7.28,1.76s-.28-2.6-4.09-5.39-6.9-2.55-6.9-2.55a77.27,77.27,0,0,1,1.51-9.35,60.41,60.41,0,0,1,3.37-8.58s3.92,2,7.65,1.1a11.75,11.75,0,0,0,5.35-2.55l5,6.26,1.65-6.86a3.24,3.24,0,0,1-1.53-3.15C813.22,129,815.48,130.12,815.48,130.12Z"/><path class="cls-4" d="M962.28,95.37V89.89s-1.67-1-6.43-1S950,90,950,90a9.77,9.77,0,0,1-2.62,8.49c-3.69,3.69-12.46,8.25-19.21,8.41,0,0-1.11.8-1.11,3.58s.71,4.36,4.21,5.39c0,0-4.53-.67-4.53,5.12,0,2.12.52,3.65,1.39,4,1.5.66,3.12.42,4.12.57,2.4.36,17,3.76,17.35,15.43,0,0,1.59,2.07,6.83,2.07s5.87-1.43,5.87-1.43v-5.32a2.09,2.09,0,0,1-2.14-2.38c.07-2.46,2.14-2,2.14-2v-5.39L955.61,130s-.87-2.46-5.24-4.29-7.3-.87-7.3-.87a77.57,77.57,0,0,1-.71-9.44,61.13,61.13,0,0,1,1.27-9.13s4.28,1,7.7-.72a11.62,11.62,0,0,0,4.6-3.73l6.35,4.92V99.65a3.21,3.21,0,0,1-2.22-2.7C959.82,94.81,962.28,95.37,962.28,95.37Z"/></svg>