<svg id="Capa_2" data-name="Capa 2" xmlns="http://www.w3.org/2000/svg" xmlns:xlink="http://www.w3.org/1999/xlink" viewBox="0 0 995.52 332.53"><defs><style>.cls-1{fill:url(#Degradado_sin_nombre_17);}.cls-2,.cls-3,.cls-7{fill:none;}.cls-2,.cls-3{stroke:#fff;}.cls-2,.cls-3,.cls-7,.cls-8,.cls-9{stroke-miterlimit:10;}.cls-2{stroke-width:1.18px;}.cls-3{stroke-width:1.02px;}.cls-4{fill:#fff;}.cls-5{font-size:18px;font-family:ArialMT, Arial;}.cls-5,.cls-6{fill:#222220;}.cls-6{font-size:20px;font-family:Arial-BoldMT, Arial;letter-spacing:-0.04em;}.cls-6,.cls-9{font-weight:700;}.cls-7{stroke:#222220;stroke-width:0.54px;}.cls-8{fill:#7f4d32;stroke:#442a14;}.cls-8,.cls-9{stroke-width:2px;}.cls-9{font-size:62.85px;fill:#c20d19;stroke:#c20d19;font-family:BradleyHandITCTT-Bold, Bradley Hand;}.cls-10{fill:#21211f;}.cls-11{fill:#000005;}</style><linearGradient id="Degradado_sin_nombre_17" x1="248.77" y1="302.08" x2="248.77" y2="23.69" gradientUnits="userSpaceOnUse"><stop offset="0.02" stop-color="#daa37c"/><stop offset="0.3" stop-color="#ce9569"/><stop offset="0.89" stop-color="#ae7236"/><stop offset="1" stop-color="#a76b2c"/></linearGradient></defs><title>Mesa de trabajo 2 copia 10</title><path class="cls-1" d="M90.25,28.72S117.94,48.17,138,45.8c19.38-2.29,42.57,1,42.57,1s6.63-2.41,20.65,1.77,23.2,1.79,41.05-1.77C283.4,38.6,434.46,22.63,430.39,23.75c0,0,5.88,17,15.8,27.7,11.57,12.44,22.19,61.42,14.8,91.48s-13.52,28.23-9.7,36.33,2.17,27.18,10,39.46,16.76,18.82,11.15,28.75-11.72,13.85-11.21,18,4.33,7.31,3.31,12.8-5.86,23.77-20.14,23.77-17.6-20.37-17.6-20.37-.76-7.58-10.45-5.49-35.95-49.39-35.95-49.39-12.24-20.39-18.1-5.23v31.88s-4.83,20.81-33.13,21.86c0,0-6.37-8.37-25.24-10.2,0,0-11-2.09-18.1-16.2,0,0-2,6.79-6.63,7.84S236.1,238.06,231.76,237c0,0-.51,14.37-9.43,15.16s-26.77-3.66-38,24.83c0,0-.77,5.22-13.52,6.27,0,0-4.08-8.1-4.33-15.94,0,0-11.22-10.72-8.67-23.26s11.73-34.5-9.43-39.21-33.15-6.27-37.74-29.53-13-22.74-27.54-29.8-35.44-18.29-35.44-18.29-23.11-1.31-24.3-14.12,22-28.48,22-28.48S76.74,75,90.25,28.72Z"/><path class="cls-2" d="M257.67,187.75l2.52-35.9S226,106,239.7,45.8"/><path class="cls-3" d="M111.35,181.25s23.28,3.87,52.65,6.5c34.87,3.12,78,4.75,96.21,0l86.62-18.64s99.23,1.78,115-28.36"/><path class="cls-4" d="M319.66,51.91s14.17-4.38,12.54-15.83c-13.37-2.67-32.54,6.67-32.54,15.17s9.28,16.83,32.39,16.83c0,0,2.45-9.5-12.55-14.83Z"/><path class="cls-4" d="M290.25,54.05s14.16-4.38,12.53-15.83c-13.37-2.67-32.53,6.67-32.53,15.17s9.27,16.83,32.38,16.83c0,0,2.45-9.5-12.55-14.83Z"/><path class="cls-4" d="M259.41,58.52S273.58,54.14,272,42.69c-13.37-2.67-32.54,6.66-32.54,15.16s9.28,16.84,32.39,16.84c0,0,2.45-9.5-12.55-14.84Z"/><path class="cls-4" d="M256.59,91.57s14.16-4.38,12.53-15.83c-13.37-2.67-32.53,6.66-32.53,15.16s9.27,16.84,32.38,16.84c0,0,2.45-9.5-12.55-14.84Z"/><path class="cls-4" d="M267.38,124.31s14.17-4.38,12.53-15.84c-13.36-2.66-32.53,6.67-32.53,15.17s9.27,16.83,32.39,16.83c0,0,2.44-9.5-12.56-14.83Z"/><path class="cls-4" d="M281.08,156.51s13.61-5.87,10.77-17.08c-13.58-1.22-31.64,10.1-30.73,18.55s11,15.75,34,13.28c0,0,1.42-9.7-14.07-13.4Z"/><path class="cls-4" d="M310.68,154.21s12.88-7.36,8.8-18.18c-13.63.3-30.31,13.58-28.46,21.88s12.71,14.41,35.27,9.38c0,0,.32-9.8-15.48-11.75Z"/><path class="cls-4" d="M341.66,150.75s12.87-7.36,8.79-18.18c-13.63.3-30.31,13.58-28.46,21.88s12.71,14.41,35.27,9.38c0,0,.33-9.8-15.47-11.74Z"/><path class="cls-4" d="M373,148.12s12.87-7.36,8.79-18.18c-13.63.3-30.31,13.58-28.46,21.88s12.71,14.41,35.27,9.39c0,0,.33-9.81-15.47-11.75Z"/><path class="cls-4" d="M403.58,144.27s12.87-7.36,8.79-18.18c-13.63.3-30.31,13.58-28.46,21.88s12.71,14.41,35.27,9.39c0,0,.33-9.81-15.48-11.75Z"/><path class="cls-4" d="M296.91,122.14s13.26-6.63,9.78-17.66c-13.62-.45-31,11.88-29.62,20.27s11.89,15.09,34.7,11.32c0,0,.86-9.77-14.81-12.59Z"/><path class="cls-4" d="M324.56,117.84s13.89-5.2,11.59-16.54c-13.5-1.88-32.09,8.56-31.59,17s10.24,16.26,33.31,14.91c0,0,1.89-9.62-13.4-14.07Z"/><path class="cls-4" d="M353.48,116.34s13.43-6.28,10.24-17.4c-13.61-.81-31.31,11.06-30.15,19.48s11.5,15.4,34.39,12.23c0,0,1.12-9.74-14.47-13Z"/><path class="cls-4" d="M385.57,114.73s13.51-6.11,10.46-17.27c-13.59-1-31.45,10.66-30.39,19.1s11.3,15.54,34.23,12.66c0,0,1.25-9.73-14.3-13.15Z"/><path class="cls-4" d="M414.86,108.27s13.51-6.11,10.46-17.27c-13.6-1-31.45,10.66-30.39,19.1s11.3,15.54,34.23,12.66c0,0,1.24-9.73-14.3-13.15Z"/><path class="cls-4" d="M444.35,102.7s13.51-6.12,10.47-17.28c-13.6-1-31.45,10.67-30.4,19.11s11.3,15.54,34.24,12.66c0,0,1.24-9.73-14.31-13.15Z"/><path class="cls-4" d="M433.13,138.24s13.51-6.11,10.46-17.27c-13.59-1-31.45,10.66-30.39,19.1s11.3,15.54,34.23,12.66c0,0,1.25-9.73-14.3-13.15Z"/><path class="cls-4" d="M287,88.24s13.9-5.16,11.64-16.5c-13.5-1.93-32.12,8.45-31.65,16.93s10.19,16.3,33.26,15c0,0,1.92-9.62-13.35-14.12Z"/><path class="cls-4" d="M346.73,81.46s13.87-5.22,11.56-16.56c-13.51-1.85-32.08,8.62-31.57,17.1S337,98.24,360.06,96.85c0,0,1.87-9.63-13.42-14Z"/><path class="cls-4" d="M377.2,81s13.5-6.14,10.44-17.29c-13.6-1-31.43,10.72-30.36,19.15s11.33,15.53,34.25,12.61c0,0,1.23-9.73-14.32-13.13Z"/><path class="cls-4" d="M408.33,76.06s12.62-7.8,8.16-18.47c-13.61.77-29.82,14.61-27.69,22.84s13.21,14,35.58,8.17c0,0,0-9.81-15.87-11.21Z"/><path class="cls-4" d="M437.53,70.35s13.11-6.93,9.38-17.88c-13.63-.14-30.73,12.59-29.15,21S430,88.23,452.71,83.94c0,0,.64-9.79-15.09-12.25Z"/><path class="cls-4" d="M315.77,85.87s13.23-6.69,9.71-17.71c-13.63-.39-31,12-29.54,20.4s12,15,34.74,11.18c0,0,.83-9.78-14.85-12.53Z"/><path class="cls-4" d="M350.5,46.75S364.66,42.37,363,30.91c-13.37-2.66-32.53,6.67-32.53,15.17s9.27,16.83,32.38,16.83c0,0,2.45-9.5-12.55-14.83Z"/><path class="cls-4" d="M381.16,46.45s13.75-5.54,11.19-16.82c-13.55-1.55-31.88,9.32-31.18,17.8s10.63,16,33.66,14.11c0,0,1.66-9.67-13.73-13.75Z"/><path class="cls-4" d="M412.33,41.08s14.17-4.38,12.54-15.83c-13.37-2.67-32.54,6.66-32.54,15.16s9.27,16.84,32.39,16.84c0,0,2.44-9.5-12.56-14.84Z"/><text class="cls-5" transform="translate(673.36 24.48)">Prioridad de las piezas</text><text class="cls-5" transform="translate(640.83 62.4)">Z1</text><text class="cls-6" transform="translate(272.9 314.08)">A</text><text class="cls-5" transform="translate(754 62.4)">Z2</text><text class="cls-5" transform="translate(864.74 62.4)">Z3</text><rect class="cls-7" x="598.16" y="39.57" width="110.83" height="249.6"/><rect class="cls-7" x="708.99" y="39.57" width="110.83" height="249.6"/><rect class="cls-7" x="819.82" y="39.57" width="110.83" height="249.6"/><path class="cls-8" d="M670,88.84s-42.78.12-42.78,21.45S670,131.39,670,131.39s2.35-18-17-18c0,0,2.36-.9,2.36-2.58s-2.36-2.92-2.36-2.92S670,107.48,670,88.84Z"/><path class="cls-8" d="M673.7,164v-7.74s-2.36-1.46-9.09-1.46-8.29,1.57-8.29,1.57a13.82,13.82,0,0,1-3.7,12c-5.22,5.21-17.61,11.66-27.14,11.88,0,0-1.57,1.13-1.57,5s1,6.17,5.94,7.63c0,0-6.39-1-6.39,7.23,0,3,.73,5.16,2,5.7,2.12.93,4.42.6,5.83.81,3.39.51,24,5.31,24.51,21.8,0,0,2.24,2.92,9.64,2.92s8.3-2,8.3-2v-7.51a3,3,0,0,1-3-3.37c.11-3.47,3-2.8,3-2.8v-7.63l-9.42,4.82s-1.24-3.47-7.4-6.05-10.32-1.23-10.32-1.23a109.94,109.94,0,0,1-1-13.35,85.37,85.37,0,0,1,1.8-12.89s6,1.46,10.87-1,6.51-5.27,6.51-5.27l9,7v-10a4.55,4.55,0,0,1-3.14-3.81C670.22,163.23,673.7,164,673.7,164Z"/><path class="cls-8" d="M625.42,256.19V267s23.17,9.52,37.93,9c0,0,9.68,0,9.68-2.76V249s-.92-3.92-9.68-3.92S625.42,256.19,625.42,256.19Z"/><path class="cls-8" d="M845.48,115.78l38.34-11.56s14.71,12.61,11.56,48.85H887l-4.72-11.56H865.44S852.83,142.57,845.48,115.78Z"/><path class="cls-8" d="M845.48,222.91l38.34,11.56s14.71-12.61,11.56-48.85H887l-4.72,11.56H865.44S852.83,196.13,845.48,222.91Z"/><path class="cls-4" d="M57.92,88.78l27.46,8.27s10.54-9,8.28-35h-6l-3.38,8.27h-12S63.19,69.59,57.92,88.78Z"/><path class="cls-4" d="M44.9,124.38l27.46,8.28s10.53-9,8.27-35h-6L71.23,106h-12S50.16,105.2,44.9,124.38Z"/><path class="cls-4" d="M101.58,110.17l28.3,4.65s9.27-10.32,3.67-35.76l-6,.78-2.28,8.64L113.36,90S104.31,90.47,101.58,110.17Z"/><path class="cls-4" d="M93.59,71.44l26.88,10s11.09-8.33,10.5-34.38l-6-.39-3.91,8L109,54S100.08,52.63,93.59,71.44Z"/><path class="cls-4" d="M76.75,136.58l26.62,10.68s11.29-8,11.35-34.11l-6-.53-4.11,7.94-12-1.07S83.7,117.94,76.75,136.58Z"/><path class="cls-4" d="M111.35,148.29l28.31,4.63s9.26-10.33,3.64-35.77l-6,.79-2.27,8.64-11.94,1.57S114.07,128.58,111.35,148.29Z"/><path class="cls-4" d="M133.35,112.77l27.46,8.28s10.54-9,8.28-35h-6l-3.38,8.28h-12S138.62,93.59,133.35,112.77Z"/><path class="cls-4" d="M127.9,72.9l26.88,10s11.08-8.34,10.49-34.39l-6-.38-3.9,8-12-.77S134.38,54.09,127.9,72.9Z"/><path class="cls-4" d="M149.87,146.48l28.4,4s9-10.53,2.86-35.84l-5.95.92-2.08,8.69-11.9,1.83S152.16,126.72,149.87,146.48Z"/><path class="cls-4" d="M124.14,178.39l28.12,5.68s9.64-10,5-35.61l-6,.56-2.6,8.56-12,1.12S127.6,158.79,124.14,178.39Z"/><path class="cls-4" d="M163.9,220.65,192,226.33s9.65-10,5-35.6l-6,.56-2.6,8.56-12,1.12S167.35,201.06,163.9,220.65Z"/><path class="cls-4" d="M157.77,257.26l28.11,5.68s9.65-10,5-35.6l-6,.56-2.6,8.56-12,1.12S161.23,237.67,157.77,257.26Z"/><path class="cls-4" d="M197.9,220.65,226,226.33s9.65-10,5-35.6l-6,.56-2.6,8.56-12,1.12S201.35,201.06,197.9,220.65Z"/><path class="cls-4" d="M272.08,241.35,300.19,247s9.65-10,5-35.6l-6,.56-2.6,8.56-12,1.12S275.54,221.76,272.08,241.35Z"/><path class="cls-4" d="M305.67,236.67l28.11,5.68s9.65-10,5-35.6l-6,.56-2.6,8.56-12,1.12S309.12,217.08,305.67,236.67Z"/><path class="cls-4" d="M322.37,262.67l28.12,5.68s9.64-10,5-35.6l-6,.56-2.6,8.56-12,1.12S325.83,243.08,322.37,262.67Z"/><path class="cls-4" d="M231.14,220.65l28.12,5.68s9.64-10,5-35.6l-6,.56-2.6,8.56-12,1.12S234.6,201.06,231.14,220.65Z"/><path class="cls-4" d="M267,216l28.66,1.24s8-11.35-.62-35.95l-5.83,1.49L288,191.6l-11.67,3S267.35,196.07,267,216Z"/><path class="cls-4" d="M300.57,210.67l28.65,1.25s8-11.35-.61-35.95l-5.84,1.49-1.23,8.85-11.67,3S300.94,190.78,300.57,210.67Z"/><path class="cls-4" d="M333.41,205.51l28.65,1.24s8-11.35-.61-35.95l-5.83,1.49-1.24,8.85-11.67,3S333.78,185.61,333.41,205.51Z"/><path class="cls-4" d="M365.93,203.38l28.65,1.24s8-11.35-.61-35.94l-5.83,1.48L386.9,179l-11.67,3S366.3,183.49,365.93,203.38Z"/><path class="cls-4" d="M398.77,198.21l28.65,1.25s8-11.35-.61-36L421,165l-1.24,8.85-11.67,3S399.14,178.32,398.77,198.21Z"/><path class="cls-4" d="M383.61,233.06l28.66,1.25s8-11.35-.62-35.95l-5.83,1.49-1.24,8.85-11.66,3S384,213.17,383.61,233.06Z"/><path class="cls-4" d="M397.14,258.44l28.66,1.25s8-11.35-.62-35.95l-5.83,1.49-1.24,8.85-11.66,3S397.51,238.55,397.14,258.44Z"/><path class="cls-4" d="M431.44,251.36l28.66,1.24s8-11.35-.62-35.94l-5.83,1.48L452.41,227l-11.66,3S431.81,231.47,431.44,251.36Z"/><path class="cls-4" d="M429.17,287.92l28.65,1.24s8-11.35-.61-35.94l-5.83,1.48-1.24,8.86-11.67,3S429.54,268,429.17,287.92Z"/><path class="cls-4" d="M423.46,217.9l28.65,1.24s8-11.35-.61-35.95l-5.84,1.49-1.24,8.85-11.66,3S423.82,198,423.46,217.9Z"/><path class="cls-4" d="M168.67,108.76,196.13,117s10.53-9,8.28-35h-6L195,90.32H183S173.93,89.57,168.67,108.76Z"/><path class="cls-4" d="M163.9,72.06l26.87,10s11.09-8.34,10.5-34.38l-6-.39-3.91,8-12-.76S170.38,53.25,163.9,72.06Z"/><path class="cls-4" d="M182.77,149,211,153.89s9.37-10.23,4-35.73l-6,.73-2.36,8.62-12,1.44S185.7,129.29,182.77,149Z"/><path class="cls-4" d="M158.12,184.6l28.34,4.45s9.2-10.38,3.42-35.79l-6,.82-2.23,8.66-11.92,1.64S160.72,164.87,158.12,184.6Z"/><path class="cls-4" d="M202.12,110.17l28.23,5.09s9.44-10.17,4.23-35.7l-6,.69-2.42,8.6-12,1.38S205.17,90.51,202.12,110.17Z"/><path class="cls-4" d="M218.75,152.23l28.39-4.06s5.75-12.63-7.24-35.22l-5.46,2.54.42,8.93-10.92,5.07S215.44,132.62,218.75,152.23Z"/><path class="cls-4" d="M192.81,187.68l28.61,2s8.29-11.12.39-35.94l-5.87,1.32-1.49,8.82-11.74,2.64S193.74,167.81,192.81,187.68Z"/><path class="cls-4" d="M225.25,187.08l28.68-.05s7.46-11.69-2.23-35.88l-5.76,1.75-.84,8.9-11.52,3.49S224.72,167.19,225.25,187.08Z"/><path class="cls-4" d="M198,74.39l26.88,10S236,76.06,235.38,50l-6-.39-3.91,8-12-.77S204.49,55.58,198,74.39Z"/><text class="cls-9" transform="translate(746.96 177.51)">X</text><path class="cls-10" d="M797.88,192a18.37,18.37,0,0,1-6.87.43,30.41,30.41,0,0,1-7.86-2.08,65.26,65.26,0,0,1-8.27-4.09c-2.79-1.57-5.64-3.33-8.55-4.79.19,3.24.09,6.4.12,9.69a81.17,81.17,0,0,0,.64,10.23,54.74,54.74,0,0,0,2.65,11.09A51.06,51.06,0,0,0,775.58,224l9.54-13.68c.94.61,1.85,1.26,2.83,1.79.49.27,1,.58,1.46.82l1.41.7c.53.29,1.1.49,1.65.74a47.22,47.22,0,0,0,13.93,3.46,68.66,68.66,0,0,0,14.12-.16,41.21,41.21,0,0,0,7.14-1.51,46.45,46.45,0,0,0,6.69-2.73c8.58-4.38,15.6-11,21.33-18.34a76.5,76.5,0,0,0,7.55-11.85,54.78,54.78,0,0,0,2.86-6.54,27.8,27.8,0,0,0,1.68-7.38l-5.62-.28a22.71,22.71,0,0,1-1.36,5.78,50.34,50.34,0,0,1-2.57,5.86,70.45,70.45,0,0,1-7,11c-5.32,6.86-11.84,12.91-19.41,16.76a42,42,0,0,1-5.83,2.38,35.81,35.81,0,0,1-6.1,1.29,62.93,62.93,0,0,1-12.94.15,41.51,41.51,0,0,1-12.27-3c-.48-.22-1-.39-1.43-.64l-1.21-.61c-.44-.2-.84-.47-1.26-.7-.85-.46-1.63-1-2.44-1.54Z"/><path class="cls-10" d="M234.55,169.43a100.72,100.72,0,0,1-15.35-8.83,111.09,111.09,0,0,1-14.48-12.14,119.86,119.86,0,0,0-3.46,19.72,127.7,127.7,0,0,0-.15,21.27l14.3-8.56c.56.9,1.14,1.79,1.71,2.69l.86,1.34.1.17.84,1.3c.27.46.6.89.91,1.32,1.25,1.74,2.46,3.5,3.76,5.2l4,5,4.24,4.81c11.61,12.56,25.3,22.95,39.83,31.68,7.28,4.34,14.81,8.24,22.47,11.84s15.48,6.82,23.39,9.76c3.94,1.52,8,2.85,11.93,4.23s8,2.63,12.07,3.81,8.1,2.33,12.15,3.48,8.14,2.16,12.24,3.12c16.37,4,32.91,7.14,49.52,9.78a940.4,940.4,0,0,0,100.3,9.75c33.55,1.56,67.14,1.77,100.69,1q25.16-.6,50.29-1.91c8.38-.45,16.74-.89,25.15-1.51s16.79-1.47,25.16-2.58,16.7-2.51,25-4.27a252.38,252.38,0,0,0,24.54-6.6,177.26,177.26,0,0,0,45.83-22.11c1.73-1.24,3.51-2.42,5.2-3.72l5-3.94,4.85-4.19c.82-.68,1.59-1.42,2.36-2.16l2.31-2.22a139.46,139.46,0,0,0,16.6-19.52,110.92,110.92,0,0,0,19-47.44l-5.58-.76a105.25,105.25,0,0,1-18.06,45,134.51,134.51,0,0,1-15.91,18.71L826,234.06c-.73.71-1.47,1.43-2.26,2.08l-4.66,4L814.19,244c-1.63,1.26-3.35,2.39-5,3.59a171.35,171.35,0,0,1-44.39,21.39,246.16,246.16,0,0,1-24,6.45c-8.11,1.72-16.31,3.09-24.55,4.19s-16.52,1.94-24.83,2.55-16.67,1.06-25,1.5q-25,1.29-50.14,1.9c-33.43.8-66.9.59-100.29-1a934.23,934.23,0,0,1-99.69-9.69c-16.47-2.62-32.87-5.73-49.06-9.69-4.05-.95-8.07-2-12.1-3.08s-8-2.21-12-3.44-7.94-2.48-11.9-3.75-7.87-2.68-11.74-4.17c-7.79-2.89-15.48-6.05-23-9.59s-14.86-7.34-22-11.57C260.38,221.08,247.12,211,236,198.93l-4.07-4.62-3.84-4.81c-1.24-1.63-2.4-3.32-3.6-5-.6-.79-1.17-1.74-1.67-2.51l-.1-.16-.82-1.28L220.24,178Z"/><polygon class="cls-11" points="567.68 181.03 564.68 111.87 556.47 111.87 569.5 87.39 582.54 111.72 574.16 111.72 571.43 181.03 567.68 181.03"/><polygon class="cls-11" points="664.65 308.71 833.81 306.71 833.81 298.5 858.29 311.53 833.97 324.56 833.97 316.19 664.65 314.45 664.65 308.71"/></svg>